<svg width="96" height="37" viewBox="0 0 96 37" fill="none" xmlns="http://www.w3.org/2000/svg">
<rect width="96" height="37" rx="18.5" fill="#77D2E9"/>
<path d="M21.867 13.676C22.1564 13.8253 22.301 14.0633 22.301 14.39C22.301 14.586 22.231 14.7773 22.091 14.964C21.9417 15.16 21.7504 15.258 21.517 15.258C21.3584 15.258 21.1997 15.216 21.041 15.132C20.5837 14.9173 20.089 14.81 19.557 14.81C18.9037 14.81 18.3344 14.95 17.849 15.23C17.3637 15.5007 16.9904 15.888 16.729 16.392C16.4677 16.8867 16.337 17.456 16.337 18.1C16.337 19.2013 16.631 20.0367 17.219 20.606C17.8164 21.1753 18.5957 21.46 19.557 21.46C20.1264 21.46 20.621 21.3527 21.041 21.138C21.209 21.0633 21.3584 21.026 21.489 21.026C21.7317 21.026 21.937 21.1287 22.105 21.334C22.245 21.5113 22.315 21.7027 22.315 21.908C22.315 22.0573 22.2777 22.1927 22.203 22.314C22.1284 22.4353 22.021 22.5287 21.881 22.594C21.153 22.958 20.3784 23.14 19.557 23.14C18.6424 23.14 17.8024 22.9487 17.037 22.566C16.2717 22.174 15.6604 21.6 15.203 20.844C14.7457 20.088 14.517 19.1733 14.517 18.1C14.517 17.148 14.7317 16.294 15.161 15.538C15.5997 14.782 16.2017 14.194 16.967 13.774C17.7324 13.3447 18.5957 13.13 19.557 13.13C20.3877 13.13 21.1577 13.312 21.867 13.676ZM27.5784 15.37C28.5024 15.37 29.1417 15.6547 29.4964 16.224C29.851 16.784 30.0284 17.5633 30.0284 18.562V22.146C30.0284 22.3887 29.949 22.594 29.7904 22.762C29.6317 22.9207 29.431 23 29.1884 23C28.9457 23 28.745 22.9207 28.5864 22.762C28.4277 22.594 28.3484 22.3887 28.3484 22.146V18.562C28.3484 18.0487 28.2457 17.6473 28.0404 17.358C27.8444 17.0593 27.4944 16.91 26.9904 16.91C26.4677 16.91 26.057 17.0687 25.7584 17.386C25.469 17.694 25.3244 18.086 25.3244 18.562V22.146C25.3244 22.3887 25.245 22.594 25.0864 22.762C24.9277 22.9207 24.727 23 24.4844 23C24.2417 23 24.041 22.9207 23.8824 22.762C23.7237 22.594 23.6444 22.3887 23.6444 22.146V13.494C23.6444 13.2513 23.7237 13.0507 23.8824 12.892C24.041 12.724 24.2417 12.64 24.4844 12.64C24.727 12.64 24.9277 12.724 25.0864 12.892C25.245 13.0507 25.3244 13.2513 25.3244 13.494V16.588C25.5764 16.252 25.8937 15.9673 26.2764 15.734C26.6684 15.4913 27.1024 15.37 27.5784 15.37ZM38.5675 19.08C38.5582 19.304 38.4695 19.486 38.3015 19.626C38.1335 19.766 37.9375 19.836 37.7135 19.836H33.0935C33.2055 20.3867 33.4622 20.8207 33.8635 21.138C34.2648 21.446 34.7175 21.6 35.2215 21.6C35.6042 21.6 35.9028 21.5673 36.1175 21.502C36.3322 21.4273 36.5002 21.3527 36.6215 21.278C36.7522 21.194 36.8408 21.138 36.8875 21.11C37.0555 21.026 37.2142 20.984 37.3635 20.984C37.5595 20.984 37.7275 21.054 37.8675 21.194C38.0075 21.334 38.0775 21.4973 38.0775 21.684C38.0775 21.936 37.9468 22.1647 37.6855 22.37C37.4242 22.5847 37.0742 22.7667 36.6355 22.916C36.1968 23.0653 35.7535 23.14 35.3055 23.14C34.5215 23.14 33.8355 22.9767 33.2475 22.65C32.6688 22.3233 32.2208 21.8753 31.9035 21.306C31.5862 20.7273 31.4275 20.0787 31.4275 19.36C31.4275 18.5573 31.5955 17.8527 31.9315 17.246C32.2675 16.6393 32.7108 16.1773 33.2615 15.86C33.8122 15.5333 34.4002 15.37 35.0255 15.37C35.6415 15.37 36.2202 15.538 36.7615 15.874C37.3122 16.21 37.7508 16.6627 38.0775 17.232C38.4042 17.8013 38.5675 18.4173 38.5675 19.08ZM35.0255 16.91C33.9428 16.91 33.3035 17.4187 33.1075 18.436H36.7755V18.338C36.7382 17.946 36.5468 17.61 36.2015 17.33C35.8562 17.05 35.4642 16.91 35.0255 16.91ZM48.6066 15.37C49.5306 15.37 50.1699 15.6547 50.5246 16.224C50.8793 16.784 51.0566 17.5633 51.0566 18.562V22.146C51.0566 22.3887 50.9773 22.594 50.8186 22.762C50.6599 22.9207 50.4593 23 50.2166 23C49.9739 23 49.7733 22.9207 49.6146 22.762C49.4559 22.594 49.3766 22.3887 49.3766 22.146V18.562C49.3766 18.0487 49.2739 17.6473 49.0686 17.358C48.8726 17.0593 48.5226 16.91 48.0186 16.91C47.4959 16.91 47.0853 17.0687 46.7866 17.386C46.4973 17.694 46.3526 18.086 46.3526 18.562V22.146C46.3526 22.3887 46.2733 22.594 46.1146 22.762C45.9559 22.9207 45.7553 23 45.5126 23C45.2699 23 45.0693 22.9207 44.9106 22.762C44.7519 22.594 44.6726 22.3887 44.6726 22.146V18.562C44.6726 18.0487 44.5699 17.6473 44.3646 17.358C44.1686 17.0593 43.8186 16.91 43.3146 16.91C42.7919 16.91 42.3813 17.0687 42.0826 17.386C41.7933 17.694 41.6486 18.086 41.6486 18.562V22.146C41.6486 22.3887 41.5693 22.594 41.4106 22.762C41.2519 22.9207 41.0513 23 40.8086 23C40.5659 23 40.3653 22.9207 40.2066 22.762C40.0479 22.594 39.9686 22.3887 39.9686 22.146V16.364C39.9686 16.1213 40.0479 15.9207 40.2066 15.762C40.3653 15.594 40.5659 15.51 40.8086 15.51C41.0513 15.51 41.2519 15.594 41.4106 15.762C41.5693 15.9207 41.6486 16.1213 41.6486 16.364V16.588C41.9006 16.252 42.2179 15.9673 42.6006 15.734C42.9926 15.4913 43.4266 15.37 43.9026 15.37C45.0786 15.37 45.8299 15.8833 46.1566 16.91C46.3713 16.518 46.6933 16.1633 47.1226 15.846C47.5613 15.5287 48.0559 15.37 48.6066 15.37ZM54.4568 22.146C54.4568 22.3887 54.3775 22.594 54.2188 22.762C54.0602 22.9207 53.8595 23 53.6168 23C53.3742 23 53.1735 22.9207 53.0148 22.762C52.8562 22.594 52.7768 22.3887 52.7768 22.146V16.364C52.7768 16.1213 52.8562 15.9207 53.0148 15.762C53.1735 15.594 53.3742 15.51 53.6168 15.51C53.8595 15.51 54.0602 15.594 54.2188 15.762C54.3775 15.9207 54.4568 16.1213 54.4568 16.364V22.146ZM53.6028 14.6C53.2855 14.6 53.0615 14.5487 52.9308 14.446C52.8002 14.3433 52.7348 14.1613 52.7348 13.9V13.634C52.7348 13.3727 52.8048 13.1907 52.9448 13.088C53.0848 12.9853 53.3088 12.934 53.6168 12.934C53.9435 12.934 54.1722 12.9853 54.3028 13.088C54.4335 13.1907 54.4988 13.3727 54.4988 13.634V13.9C54.4988 14.1707 54.4288 14.3573 54.2888 14.46C54.1582 14.5533 53.9295 14.6 53.6028 14.6ZM55.7494 21.838C55.6654 21.726 55.6234 21.586 55.6234 21.418C55.6234 21.1753 55.7448 20.97 55.9874 20.802C56.1181 20.718 56.2534 20.676 56.3934 20.676C56.5894 20.676 56.7761 20.7647 56.9534 20.942C57.2334 21.2313 57.5228 21.446 57.8214 21.586C58.1294 21.726 58.4981 21.796 58.9274 21.796C59.6554 21.768 60.0194 21.4927 60.0194 20.97C60.0194 20.6993 59.8934 20.494 59.6414 20.354C59.3988 20.214 59.0161 20.074 58.4934 19.934C57.9521 19.7847 57.5088 19.6353 57.1634 19.486C56.8274 19.3367 56.5334 19.1127 56.2814 18.814C56.0388 18.506 55.9174 18.0953 55.9174 17.582C55.9174 17.134 56.0434 16.7467 56.2954 16.42C56.5568 16.084 56.8928 15.8273 57.3034 15.65C57.7234 15.4633 58.1668 15.37 58.6334 15.37C59.1094 15.37 59.5854 15.4587 60.0614 15.636C60.5374 15.8133 60.9108 16.0747 61.1814 16.42C61.3028 16.5693 61.3634 16.7373 61.3634 16.924C61.3634 17.1387 61.2748 17.316 61.0974 17.456C60.9668 17.5587 60.8174 17.61 60.6494 17.61C60.4441 17.61 60.2761 17.5447 60.1454 17.414C59.9774 17.2087 59.7581 17.0453 59.4874 16.924C59.2261 16.8027 58.9274 16.742 58.5914 16.742C57.8821 16.742 57.5274 16.9987 57.5274 17.512C57.5274 17.7173 57.5928 17.8853 57.7234 18.016C57.8541 18.1373 58.0174 18.2353 58.2134 18.31C58.4188 18.3753 58.7034 18.4593 59.0674 18.562C59.5714 18.702 59.9914 18.8467 60.3274 18.996C60.6634 19.1453 60.9481 19.374 61.1814 19.682C61.4148 19.99 61.5314 20.396 61.5314 20.9C61.5314 21.3573 61.3961 21.7587 61.1254 22.104C60.8548 22.44 60.5048 22.6967 60.0754 22.874C59.6554 23.0513 59.2214 23.14 58.7734 23.14C58.1574 23.14 57.5834 23.0373 57.0514 22.832C56.5194 22.6267 56.0854 22.2953 55.7494 21.838ZM66.5493 21.418C66.68 21.418 66.7967 21.4833 66.8993 21.614C67.0113 21.7353 67.0673 21.8987 67.0673 22.104C67.0673 22.356 66.9273 22.5707 66.6473 22.748C66.3767 22.916 66.0687 23 65.7233 23C65.1447 23 64.6547 22.8787 64.2533 22.636C63.8613 22.384 63.6653 21.8567 63.6653 21.054V17.19H63.0213C62.7973 17.19 62.6107 17.1153 62.4613 16.966C62.312 16.8167 62.2373 16.63 62.2373 16.406C62.2373 16.1913 62.312 16.014 62.4613 15.874C62.6107 15.7247 62.7973 15.65 63.0213 15.65H63.6653V14.754C63.6653 14.5113 63.7447 14.3107 63.9033 14.152C64.0713 13.984 64.2767 13.9 64.5193 13.9C64.7527 13.9 64.9487 13.984 65.1073 14.152C65.266 14.3107 65.3453 14.5113 65.3453 14.754V15.65H66.3393C66.5633 15.65 66.75 15.7247 66.8993 15.874C67.0487 16.0233 67.1233 16.21 67.1233 16.434C67.1233 16.6487 67.0487 16.8307 66.8993 16.98C66.75 17.12 66.5633 17.19 66.3393 17.19H65.3453V20.984C65.3453 21.18 65.3967 21.3247 65.4993 21.418C65.602 21.502 65.742 21.544 65.9193 21.544C65.994 21.544 66.0967 21.5253 66.2273 21.488C66.3393 21.4413 66.4467 21.418 66.5493 21.418ZM72.5579 15.37C72.8379 15.37 73.0712 15.4493 73.2579 15.608C73.4539 15.7667 73.5519 15.9533 73.5519 16.168C73.5519 16.4573 73.4772 16.6767 73.3279 16.826C73.1785 16.966 73.0012 17.036 72.7959 17.036C72.6559 17.036 72.4972 17.0033 72.3199 16.938C72.2919 16.9287 72.2265 16.91 72.1239 16.882C72.0305 16.854 71.9279 16.84 71.8159 16.84C71.5732 16.84 71.3399 16.9147 71.1159 17.064C70.8919 17.2133 70.7052 17.442 70.5559 17.75C70.4159 18.0487 70.3459 18.408 70.3459 18.828V22.146C70.3459 22.3887 70.2665 22.594 70.1079 22.762C69.9492 22.9207 69.7485 23 69.5059 23C69.2632 23 69.0625 22.9207 68.9039 22.762C68.7452 22.594 68.6659 22.3887 68.6659 22.146V16.364C68.6659 16.1213 68.7452 15.9207 68.9039 15.762C69.0625 15.594 69.2632 15.51 69.5059 15.51C69.7485 15.51 69.9492 15.594 70.1079 15.762C70.2665 15.9207 70.3459 16.1213 70.3459 16.364V16.546C70.5605 16.1633 70.8685 15.874 71.2699 15.678C71.6712 15.4727 72.1005 15.37 72.5579 15.37ZM80.2942 15.51C80.5368 15.51 80.7375 15.594 80.8962 15.762C81.0548 15.9207 81.1342 16.1213 81.1342 16.364V22.314C81.1342 23.5273 80.8075 24.4093 80.1542 24.96C79.5008 25.52 78.6282 25.8 77.5362 25.8C77.2188 25.8 76.8922 25.772 76.5562 25.716C76.2295 25.6693 75.9635 25.604 75.7582 25.52C75.3008 25.324 75.0722 25.0533 75.0722 24.708C75.0722 24.6427 75.0862 24.568 75.1142 24.484C75.1702 24.2787 75.2635 24.12 75.3942 24.008C75.5342 23.9053 75.6835 23.854 75.8422 23.854C75.9355 23.854 76.0242 23.868 76.1082 23.896C76.1735 23.924 76.2855 23.9707 76.4442 24.036C76.6122 24.1013 76.7848 24.1527 76.9622 24.19C77.1488 24.2367 77.3402 24.26 77.5362 24.26C78.1988 24.26 78.6842 24.1153 78.9922 23.826C79.3095 23.546 79.4682 23.0607 79.4682 22.37V22.23C78.9828 22.8367 78.2268 23.14 77.2002 23.14C76.7148 23.14 76.2855 23.028 75.9122 22.804C75.5388 22.5707 75.2495 22.2533 75.0442 21.852C74.8388 21.4413 74.7362 20.9747 74.7362 20.452V16.364C74.7362 16.1213 74.8155 15.9207 74.9742 15.762C75.1328 15.594 75.3335 15.51 75.5762 15.51C75.8188 15.51 76.0195 15.594 76.1782 15.762C76.3368 15.9207 76.4162 16.1213 76.4162 16.364V19.948C76.4162 20.536 76.5422 20.9607 76.7942 21.222C77.0555 21.474 77.4335 21.6 77.9282 21.6C78.4135 21.6 78.7868 21.46 79.0482 21.18C79.3188 20.8907 79.4542 20.48 79.4542 19.948V16.364C79.4542 16.1213 79.5335 15.9207 79.6922 15.762C79.8508 15.594 80.0515 15.51 80.2942 15.51Z" fill="white"/>
</svg>
