<svg width="84" height="39" viewBox="0 0 84 39" fill="none" xmlns="http://www.w3.org/2000/svg">
<rect width="84" height="39" rx="19.5" fill="#77D2E9"/>
<path d="M24.9176 22.908C24.9643 23.0293 24.9876 23.1413 24.9876 23.244C24.9876 23.4867 24.9083 23.6873 24.7496 23.846C24.591 23.9953 24.409 24.07 24.2036 24.07C24.0356 24.07 23.8816 24.0187 23.7416 23.916C23.611 23.8133 23.5083 23.6733 23.4336 23.496L22.7056 21.802H18.5336L17.8056 23.51C17.7403 23.6873 17.6376 23.8273 17.4976 23.93C17.367 24.0233 17.2223 24.07 17.0636 24.07C16.821 24.07 16.6343 24.0047 16.5036 23.874C16.3823 23.7433 16.3216 23.566 16.3216 23.342C16.3216 23.258 16.3356 23.1693 16.3636 23.076L19.8496 14.704C19.9243 14.5173 20.0363 14.3727 20.1856 14.27C20.335 14.1673 20.503 14.1253 20.6896 14.144C20.8576 14.144 21.0116 14.1953 21.1516 14.298C21.301 14.3913 21.4083 14.5267 21.4736 14.704L24.9176 22.908ZM22.0196 20.192L20.6056 16.916L19.2196 20.192H22.0196ZM27.853 23.146C27.853 23.3887 27.769 23.594 27.601 23.762C27.4424 23.9207 27.2417 24 26.999 24C26.7657 24 26.5697 23.9207 26.411 23.762C26.2524 23.594 26.173 23.3887 26.173 23.146V14.494C26.173 14.2513 26.2524 14.0507 26.411 13.892C26.579 13.724 26.7844 13.64 27.027 13.64C27.2604 13.64 27.4564 13.724 27.615 13.892C27.7737 14.0507 27.853 14.2513 27.853 14.494V23.146ZM35.8718 16.37C36.1144 16.37 36.3151 16.4493 36.4738 16.608C36.6324 16.7667 36.7118 16.972 36.7118 17.224V23.454C36.7118 24.5927 36.3571 25.4327 35.6478 25.974C34.9478 26.5247 34.0564 26.8 32.9738 26.8C32.6938 26.8 32.3064 26.7533 31.8118 26.66C31.3264 26.5667 30.9811 26.4733 30.7758 26.38C30.3184 26.184 30.0898 25.9133 30.0898 25.568C30.0898 25.5027 30.1038 25.428 30.1318 25.344C30.1878 25.1387 30.2811 24.98 30.4118 24.868C30.5518 24.7653 30.7011 24.714 30.8598 24.714C30.9531 24.714 31.0418 24.728 31.1258 24.756C31.1631 24.7653 31.3918 24.8493 31.8118 25.008C32.2411 25.176 32.6284 25.26 32.9738 25.26C33.6644 25.26 34.1778 25.12 34.5138 24.84C34.8591 24.5693 35.0318 24.182 35.0318 23.678V23.006C34.8264 23.2953 34.5138 23.5567 34.0938 23.79C33.6831 24.0233 33.2398 24.14 32.7638 24.14C32.1104 24.14 31.5131 23.9767 30.9718 23.65C30.4398 23.314 30.0198 22.852 29.7118 22.264C29.4038 21.676 29.2498 21.0087 29.2498 20.262C29.2498 19.5153 29.3991 18.848 29.6978 18.26C30.0058 17.6627 30.4211 17.2007 30.9438 16.874C31.4758 16.538 32.0638 16.37 32.7078 16.37C33.1838 16.37 33.6271 16.468 34.0378 16.664C34.4484 16.86 34.7798 17.098 35.0318 17.378V17.224C35.0318 16.9813 35.1111 16.7807 35.2698 16.622C35.4284 16.454 35.6291 16.37 35.8718 16.37ZM32.9738 22.6C33.5991 22.6 34.1078 22.3807 34.4998 21.942C34.9011 21.494 35.1018 20.934 35.1018 20.262C35.1018 19.59 34.9011 19.03 34.4998 18.582C34.1078 18.134 33.5991 17.91 32.9738 17.91C32.3484 17.91 31.8398 18.134 31.4478 18.582C31.0558 19.03 30.8598 19.59 30.8598 20.262C30.8598 20.934 31.0558 21.494 31.4478 21.942C31.8398 22.3807 32.3484 22.6 32.9738 22.6ZM44.9757 20.08C44.9664 20.304 44.8777 20.486 44.7097 20.626C44.5417 20.766 44.3457 20.836 44.1217 20.836H39.5017C39.6137 21.3867 39.8704 21.8207 40.2717 22.138C40.673 22.446 41.1257 22.6 41.6297 22.6C42.0124 22.6 42.311 22.5673 42.5257 22.502C42.7404 22.4273 42.9084 22.3527 43.0297 22.278C43.1604 22.194 43.249 22.138 43.2957 22.11C43.4637 22.026 43.6224 21.984 43.7717 21.984C43.9677 21.984 44.1357 22.054 44.2757 22.194C44.4157 22.334 44.4857 22.4973 44.4857 22.684C44.4857 22.936 44.355 23.1647 44.0937 23.37C43.8324 23.5847 43.4824 23.7667 43.0437 23.916C42.605 24.0653 42.1617 24.14 41.7137 24.14C40.9297 24.14 40.2437 23.9767 39.6557 23.65C39.077 23.3233 38.629 22.8753 38.3117 22.306C37.9944 21.7273 37.8357 21.0787 37.8357 20.36C37.8357 19.5573 38.0037 18.8527 38.3397 18.246C38.6757 17.6393 39.119 17.1773 39.6697 16.86C40.2204 16.5333 40.8084 16.37 41.4337 16.37C42.0497 16.37 42.6284 16.538 43.1697 16.874C43.7204 17.21 44.159 17.6627 44.4857 18.232C44.8124 18.8013 44.9757 19.4173 44.9757 20.08ZM41.4337 17.91C40.351 17.91 39.7117 18.4187 39.5157 19.436H43.1837V19.338C43.1464 18.946 42.955 18.61 42.6097 18.33C42.2644 18.05 41.8724 17.91 41.4337 17.91ZM50.2548 16.37C50.8988 16.37 51.4821 16.538 52.0048 16.874C52.5275 17.2007 52.9381 17.658 53.2368 18.246C53.5448 18.834 53.6988 19.5013 53.6988 20.248C53.6988 20.9947 53.5495 21.6667 53.2508 22.264C52.9521 22.852 52.5415 23.314 52.0188 23.65C51.5055 23.9767 50.9361 24.14 50.3108 24.14C49.8628 24.14 49.4381 24.0513 49.0368 23.874C48.6448 23.6873 48.3181 23.4633 48.0568 23.202V23.286C48.0568 23.5287 47.9775 23.734 47.8188 23.902C47.6601 24.0607 47.4595 24.14 47.2168 24.14C46.9741 24.14 46.7735 24.0607 46.6148 23.902C46.4561 23.7433 46.3768 23.538 46.3768 23.286V14.494C46.3768 14.2513 46.4561 14.0507 46.6148 13.892C46.7735 13.724 46.9741 13.64 47.2168 13.64C47.4595 13.64 47.6601 13.724 47.8188 13.892C47.9775 14.0507 48.0568 14.2513 48.0568 14.494V17.42C48.2808 17.14 48.5935 16.8973 48.9948 16.692C49.3961 16.4773 49.8161 16.37 50.2548 16.37ZM50.0448 22.6C50.6421 22.6 51.1321 22.376 51.5148 21.928C51.8975 21.48 52.0888 20.92 52.0888 20.248C52.0888 19.576 51.8975 19.0207 51.5148 18.582C51.1415 18.134 50.6515 17.91 50.0448 17.91C49.4381 17.91 48.9435 18.134 48.5608 18.582C48.1781 19.0207 47.9868 19.576 47.9868 20.248C47.9868 20.92 48.1781 21.48 48.5608 21.928C48.9435 22.376 49.4381 22.6 50.0448 22.6ZM58.9915 16.37C59.2715 16.37 59.5048 16.4493 59.6915 16.608C59.8875 16.7667 59.9855 16.9533 59.9855 17.168C59.9855 17.4573 59.9108 17.6767 59.7615 17.826C59.6121 17.966 59.4348 18.036 59.2295 18.036C59.0895 18.036 58.9308 18.0033 58.7535 17.938C58.7255 17.9287 58.6601 17.91 58.5575 17.882C58.4641 17.854 58.3615 17.84 58.2495 17.84C58.0068 17.84 57.7735 17.9147 57.5495 18.064C57.3255 18.2133 57.1388 18.442 56.9895 18.75C56.8495 19.0487 56.7795 19.408 56.7795 19.828V23.146C56.7795 23.3887 56.7001 23.594 56.5415 23.762C56.3828 23.9207 56.1821 24 55.9395 24C55.6968 24 55.4961 23.9207 55.3375 23.762C55.1788 23.594 55.0995 23.3887 55.0995 23.146V17.364C55.0995 17.1213 55.1788 16.9207 55.3375 16.762C55.4961 16.594 55.6968 16.51 55.9395 16.51C56.1821 16.51 56.3828 16.594 56.5415 16.762C56.7001 16.9207 56.7795 17.1213 56.7795 17.364V17.546C56.9941 17.1633 57.3021 16.874 57.7035 16.678C58.1048 16.4727 58.5341 16.37 58.9915 16.37ZM67.0677 16.37C67.3104 16.37 67.511 16.4493 67.6697 16.608C67.8284 16.7667 67.9077 16.972 67.9077 17.224V23.146C67.9077 23.3887 67.8284 23.594 67.6697 23.762C67.511 23.9207 67.3104 24 67.0677 24C66.825 24 66.6244 23.9207 66.4657 23.762C66.3164 23.6033 66.237 23.4027 66.2277 23.16C65.9944 23.4307 65.677 23.664 65.2757 23.86C64.8837 24.0467 64.4684 24.14 64.0297 24.14C63.3857 24.14 62.8024 23.9767 62.2797 23.65C61.757 23.314 61.3417 22.852 61.0337 22.264C60.735 21.676 60.5857 21.0087 60.5857 20.262C60.5857 19.5153 60.735 18.848 61.0337 18.26C61.3324 17.6627 61.7384 17.2007 62.2517 16.874C62.7744 16.538 63.3484 16.37 63.9737 16.37C64.4217 16.37 64.8417 16.454 65.2337 16.622C65.6257 16.7807 65.957 16.986 66.2277 17.238V17.224C66.2277 16.9813 66.307 16.7807 66.4657 16.622C66.6244 16.454 66.825 16.37 67.0677 16.37ZM64.2397 22.6C64.8464 22.6 65.341 22.3807 65.7237 21.942C66.1064 21.494 66.2977 20.934 66.2977 20.262C66.2977 19.59 66.1064 19.03 65.7237 18.582C65.341 18.134 64.8464 17.91 64.2397 17.91C63.6424 17.91 63.1524 18.134 62.7697 18.582C62.387 19.03 62.1957 19.59 62.1957 20.262C62.1957 20.934 62.3824 21.494 62.7557 21.942C63.1384 22.3807 63.633 22.6 64.2397 22.6Z" fill="white"/>
</svg>
