<svg width="84" height="39" viewBox="0 0 84 39" fill="none" xmlns="http://www.w3.org/2000/svg">
<rect width="84" height="39" rx="19.5" fill="#FDB441"/>
<path d="M24.969 22.39C25.2117 22.39 25.4123 22.474 25.571 22.642C25.739 22.8007 25.823 22.9873 25.823 23.202C25.823 23.4353 25.739 23.6267 25.571 23.776C25.4123 23.9253 25.2117 24 24.969 24H20.279C20.0363 24 19.831 23.9207 19.663 23.762C19.5043 23.594 19.425 23.3887 19.425 23.146V15.054C19.425 14.8113 19.5043 14.6107 19.663 14.452C19.831 14.284 20.0363 14.2 20.279 14.2H24.969C25.2117 14.2 25.4123 14.2793 25.571 14.438C25.739 14.5873 25.823 14.7833 25.823 15.026C25.823 15.2593 25.7437 15.4507 25.585 15.6C25.4263 15.74 25.221 15.81 24.969 15.81H21.175V18.19H24.339C24.5817 18.19 24.7823 18.2693 24.941 18.428C25.109 18.5773 25.193 18.7733 25.193 19.016C25.193 19.2493 25.1137 19.4407 24.955 19.59C24.7963 19.73 24.591 19.8 24.339 19.8H21.175V22.39H24.969ZM31.3007 16.37C32.2527 16.37 32.9107 16.6547 33.2747 17.224C33.6387 17.784 33.8207 18.5633 33.8207 19.562V23.146C33.8207 23.3887 33.7414 23.594 33.5827 23.762C33.4241 23.9207 33.2234 24 32.9807 24C32.7381 24 32.5374 23.9207 32.3787 23.762C32.2201 23.594 32.1407 23.3887 32.1407 23.146V19.562C32.1407 19.0487 32.0334 18.6473 31.8187 18.358C31.6041 18.0593 31.2354 17.91 30.7127 17.91C30.1714 17.91 29.7467 18.0687 29.4387 18.386C29.1307 18.694 28.9767 19.086 28.9767 19.562V23.146C28.9767 23.3887 28.8974 23.594 28.7387 23.762C28.5801 23.9207 28.3794 24 28.1367 24C27.8941 24 27.6934 23.9207 27.5347 23.762C27.3761 23.594 27.2967 23.3887 27.2967 23.146V17.364C27.2967 17.1213 27.3761 16.9207 27.5347 16.762C27.6934 16.594 27.8941 16.51 28.1367 16.51C28.3794 16.51 28.5801 16.594 28.7387 16.762C28.8974 16.9207 28.9767 17.1213 28.9767 17.364V17.602C29.2287 17.266 29.5554 16.9767 29.9567 16.734C30.3674 16.4913 30.8154 16.37 31.3007 16.37ZM41.8386 16.37C42.0812 16.37 42.2819 16.4493 42.4406 16.608C42.5992 16.7667 42.6786 16.972 42.6786 17.224V23.454C42.6786 24.5927 42.3239 25.4327 41.6146 25.974C40.9146 26.5247 40.0232 26.8 38.9406 26.8C38.6606 26.8 38.2732 26.7533 37.7786 26.66C37.2932 26.5667 36.9479 26.4733 36.7426 26.38C36.2852 26.184 36.0566 25.9133 36.0566 25.568C36.0566 25.5027 36.0706 25.428 36.0986 25.344C36.1546 25.1387 36.2479 24.98 36.3786 24.868C36.5186 24.7653 36.6679 24.714 36.8266 24.714C36.9199 24.714 37.0086 24.728 37.0926 24.756C37.1299 24.7653 37.3586 24.8493 37.7786 25.008C38.2079 25.176 38.5952 25.26 38.9406 25.26C39.6312 25.26 40.1446 25.12 40.4806 24.84C40.8259 24.5693 40.9986 24.182 40.9986 23.678V23.006C40.7932 23.2953 40.4806 23.5567 40.0606 23.79C39.6499 24.0233 39.2066 24.14 38.7306 24.14C38.0772 24.14 37.4799 23.9767 36.9386 23.65C36.4066 23.314 35.9866 22.852 35.6786 22.264C35.3706 21.676 35.2166 21.0087 35.2166 20.262C35.2166 19.5153 35.3659 18.848 35.6646 18.26C35.9726 17.6627 36.3879 17.2007 36.9106 16.874C37.4426 16.538 38.0306 16.37 38.6746 16.37C39.1506 16.37 39.5939 16.468 40.0046 16.664C40.4152 16.86 40.7466 17.098 40.9986 17.378V17.224C40.9986 16.9813 41.0779 16.7807 41.2366 16.622C41.3952 16.454 41.5959 16.37 41.8386 16.37ZM38.9406 22.6C39.5659 22.6 40.0746 22.3807 40.4666 21.942C40.8679 21.494 41.0686 20.934 41.0686 20.262C41.0686 19.59 40.8679 19.03 40.4666 18.582C40.0746 18.134 39.5659 17.91 38.9406 17.91C38.3152 17.91 37.8066 18.134 37.4146 18.582C37.0226 19.03 36.8266 19.59 36.8266 20.262C36.8266 20.934 37.0226 21.494 37.4146 21.942C37.8066 22.3807 38.3152 22.6 38.9406 22.6ZM46.3159 23.146C46.3159 23.3887 46.2319 23.594 46.0639 23.762C45.9053 23.9207 45.7046 24 45.4619 24C45.2286 24 45.0326 23.9207 44.8739 23.762C44.7153 23.594 44.6359 23.3887 44.6359 23.146V14.494C44.6359 14.2513 44.7153 14.0507 44.8739 13.892C45.0419 13.724 45.2473 13.64 45.4899 13.64C45.7233 13.64 45.9193 13.724 46.0779 13.892C46.2366 14.0507 46.3159 14.2513 46.3159 14.494V23.146ZM49.8514 23.146C49.8514 23.3887 49.772 23.594 49.6134 23.762C49.4547 23.9207 49.254 24 49.0114 24C48.7687 24 48.568 23.9207 48.4094 23.762C48.2507 23.594 48.1714 23.3887 48.1714 23.146V17.364C48.1714 17.1213 48.2507 16.9207 48.4094 16.762C48.568 16.594 48.7687 16.51 49.0114 16.51C49.254 16.51 49.4547 16.594 49.6134 16.762C49.772 16.9207 49.8514 17.1213 49.8514 17.364V23.146ZM48.9974 15.6C48.68 15.6 48.456 15.5487 48.3254 15.446C48.1947 15.3433 48.1294 15.1613 48.1294 14.9V14.634C48.1294 14.3727 48.1994 14.1907 48.3394 14.088C48.4794 13.9853 48.7034 13.934 49.0114 13.934C49.338 13.934 49.5667 13.9853 49.6974 14.088C49.828 14.1907 49.8934 14.3727 49.8934 14.634V14.9C49.8934 15.1707 49.8234 15.3573 49.6834 15.46C49.5527 15.5533 49.324 15.6 48.9974 15.6ZM51.144 22.838C51.06 22.726 51.018 22.586 51.018 22.418C51.018 22.1753 51.1393 21.97 51.382 21.802C51.5126 21.718 51.648 21.676 51.788 21.676C51.984 21.676 52.1706 21.7647 52.348 21.942C52.628 22.2313 52.9173 22.446 53.216 22.586C53.524 22.726 53.8926 22.796 54.322 22.796C55.05 22.768 55.414 22.4927 55.414 21.97C55.414 21.6993 55.288 21.494 55.036 21.354C54.7933 21.214 54.4106 21.074 53.888 20.934C53.3466 20.7847 52.9033 20.6353 52.558 20.486C52.222 20.3367 51.928 20.1127 51.676 19.814C51.4333 19.506 51.312 19.0953 51.312 18.582C51.312 18.134 51.438 17.7467 51.69 17.42C51.9513 17.084 52.2873 16.8273 52.698 16.65C53.118 16.4633 53.5613 16.37 54.028 16.37C54.504 16.37 54.98 16.4587 55.456 16.636C55.932 16.8133 56.3053 17.0747 56.576 17.42C56.6973 17.5693 56.758 17.7373 56.758 17.924C56.758 18.1387 56.6693 18.316 56.492 18.456C56.3613 18.5587 56.212 18.61 56.044 18.61C55.8386 18.61 55.6706 18.5447 55.54 18.414C55.372 18.2087 55.1526 18.0453 54.882 17.924C54.6206 17.8027 54.322 17.742 53.986 17.742C53.2766 17.742 52.922 17.9987 52.922 18.512C52.922 18.7173 52.9873 18.8853 53.118 19.016C53.2486 19.1373 53.412 19.2353 53.608 19.31C53.8133 19.3753 54.098 19.4593 54.462 19.562C54.966 19.702 55.386 19.8467 55.722 19.996C56.058 20.1453 56.3426 20.374 56.576 20.682C56.8093 20.99 56.926 21.396 56.926 21.9C56.926 22.3573 56.7906 22.7587 56.52 23.104C56.2493 23.44 55.8993 23.6967 55.47 23.874C55.05 24.0513 54.616 24.14 54.168 24.14C53.552 24.14 52.978 24.0373 52.446 23.832C51.914 23.6267 51.48 23.2953 51.144 22.838ZM62.2659 16.37C63.1899 16.37 63.8292 16.6547 64.1839 17.224C64.5385 17.784 64.7159 18.5633 64.7159 19.562V23.146C64.7159 23.3887 64.6365 23.594 64.4779 23.762C64.3192 23.9207 64.1185 24 63.8759 24C63.6332 24 63.4325 23.9207 63.2739 23.762C63.1152 23.594 63.0359 23.3887 63.0359 23.146V19.562C63.0359 19.0487 62.9332 18.6473 62.7279 18.358C62.5319 18.0593 62.1819 17.91 61.6779 17.91C61.1552 17.91 60.7445 18.0687 60.4459 18.386C60.1565 18.694 60.0119 19.086 60.0119 19.562V23.146C60.0119 23.3887 59.9325 23.594 59.7739 23.762C59.6152 23.9207 59.4145 24 59.1719 24C58.9292 24 58.7285 23.9207 58.5699 23.762C58.4112 23.594 58.3319 23.3887 58.3319 23.146V14.494C58.3319 14.2513 58.4112 14.0507 58.5699 13.892C58.7285 13.724 58.9292 13.64 59.1719 13.64C59.4145 13.64 59.6152 13.724 59.7739 13.892C59.9325 14.0507 60.0119 14.2513 60.0119 14.494V17.588C60.2639 17.252 60.5812 16.9673 60.9639 16.734C61.3559 16.4913 61.7899 16.37 62.2659 16.37Z" fill="white"/>
</svg>
