<svg width="72" height="39" viewBox="0 0 72 39" fill="none" xmlns="http://www.w3.org/2000/svg">
<rect width="72" height="39" rx="19.5" fill="#6C7FD8"/>
<path d="M20.3121 14.2C20.5734 14.2 20.7834 14.2793 20.9421 14.438C21.1007 14.5967 21.1801 14.802 21.1801 15.054V23.146C21.1801 23.3887 21.0961 23.594 20.9281 23.762C20.7601 23.9207 20.5454 24 20.2841 24C20.0507 24 19.8501 23.9207 19.6821 23.762C19.5141 23.594 19.4301 23.3887 19.4301 23.146V19.884H14.9641V23.146C14.9641 23.3887 14.8754 23.594 14.6981 23.762C14.5207 23.9207 14.3154 24 14.0821 24C13.8301 24 13.6201 23.9207 13.4521 23.762C13.2934 23.594 13.2141 23.3887 13.2141 23.146V15.054C13.2141 14.8113 13.2981 14.6107 13.4661 14.452C13.6341 14.284 13.8487 14.2 14.1101 14.2C14.3434 14.2 14.5441 14.284 14.7121 14.452C14.8801 14.6107 14.9641 14.8113 14.9641 15.054V18.274H19.4301V15.054C19.4301 14.8113 19.5187 14.6107 19.6961 14.452C19.8734 14.284 20.0787 14.2 20.3121 14.2ZM24.7186 23.146C24.7186 23.3887 24.6392 23.594 24.4806 23.762C24.3219 23.9207 24.1212 24 23.8786 24C23.6359 24 23.4352 23.9207 23.2766 23.762C23.1179 23.594 23.0386 23.3887 23.0386 23.146V17.364C23.0386 17.1213 23.1179 16.9207 23.2766 16.762C23.4352 16.594 23.6359 16.51 23.8786 16.51C24.1212 16.51 24.3219 16.594 24.4806 16.762C24.6392 16.9207 24.7186 17.1213 24.7186 17.364V23.146ZM23.8646 15.6C23.5472 15.6 23.3232 15.5487 23.1926 15.446C23.0619 15.3433 22.9966 15.1613 22.9966 14.9V14.634C22.9966 14.3727 23.0666 14.1907 23.2066 14.088C23.3466 13.9853 23.5706 13.934 23.8786 13.934C24.2052 13.934 24.4339 13.9853 24.5646 14.088C24.6952 14.1907 24.7606 14.3727 24.7606 14.634V14.9C24.7606 15.1707 24.6906 15.3573 24.5506 15.46C24.4199 15.5533 24.1912 15.6 23.8646 15.6ZM26.0112 22.838C25.9272 22.726 25.8852 22.586 25.8852 22.418C25.8852 22.1753 26.0065 21.97 26.2492 21.802C26.3798 21.718 26.5152 21.676 26.6552 21.676C26.8512 21.676 27.0378 21.7647 27.2152 21.942C27.4952 22.2313 27.7845 22.446 28.0832 22.586C28.3912 22.726 28.7598 22.796 29.1892 22.796C29.9172 22.768 30.2812 22.4927 30.2812 21.97C30.2812 21.6993 30.1552 21.494 29.9032 21.354C29.6605 21.214 29.2778 21.074 28.7552 20.934C28.2138 20.7847 27.7705 20.6353 27.4252 20.486C27.0892 20.3367 26.7952 20.1127 26.5432 19.814C26.3005 19.506 26.1792 19.0953 26.1792 18.582C26.1792 18.134 26.3052 17.7467 26.5572 17.42C26.8185 17.084 27.1545 16.8273 27.5652 16.65C27.9852 16.4633 28.4285 16.37 28.8952 16.37C29.3712 16.37 29.8472 16.4587 30.3232 16.636C30.7992 16.8133 31.1725 17.0747 31.4432 17.42C31.5645 17.5693 31.6252 17.7373 31.6252 17.924C31.6252 18.1387 31.5365 18.316 31.3592 18.456C31.2285 18.5587 31.0792 18.61 30.9112 18.61C30.7058 18.61 30.5378 18.5447 30.4072 18.414C30.2392 18.2087 30.0198 18.0453 29.7492 17.924C29.4878 17.8027 29.1892 17.742 28.8532 17.742C28.1438 17.742 27.7892 17.9987 27.7892 18.512C27.7892 18.7173 27.8545 18.8853 27.9852 19.016C28.1158 19.1373 28.2792 19.2353 28.4752 19.31C28.6805 19.3753 28.9652 19.4593 29.3292 19.562C29.8332 19.702 30.2532 19.8467 30.5892 19.996C30.9252 20.1453 31.2098 20.374 31.4432 20.682C31.6765 20.99 31.7932 21.396 31.7932 21.9C31.7932 22.3573 31.6578 22.7587 31.3872 23.104C31.1165 23.44 30.7665 23.6967 30.3372 23.874C29.9172 24.0513 29.4832 24.14 29.0352 24.14C28.4192 24.14 27.8452 24.0373 27.3132 23.832C26.7812 23.6267 26.3472 23.2953 26.0112 22.838ZM36.8111 22.418C36.9417 22.418 37.0584 22.4833 37.1611 22.614C37.2731 22.7353 37.3291 22.8987 37.3291 23.104C37.3291 23.356 37.1891 23.5707 36.9091 23.748C36.6384 23.916 36.3304 24 35.9851 24C35.4064 24 34.9164 23.8787 34.5151 23.636C34.1231 23.384 33.9271 22.8567 33.9271 22.054V18.19H33.2831C33.0591 18.19 32.8724 18.1153 32.7231 17.966C32.5737 17.8167 32.4991 17.63 32.4991 17.406C32.4991 17.1913 32.5737 17.014 32.7231 16.874C32.8724 16.7247 33.0591 16.65 33.2831 16.65H33.9271V15.754C33.9271 15.5113 34.0064 15.3107 34.1651 15.152C34.3331 14.984 34.5384 14.9 34.7811 14.9C35.0144 14.9 35.2104 14.984 35.3691 15.152C35.5277 15.3107 35.6071 15.5113 35.6071 15.754V16.65H36.6011C36.8251 16.65 37.0117 16.7247 37.1611 16.874C37.3104 17.0233 37.3851 17.21 37.3851 17.434C37.3851 17.6487 37.3104 17.8307 37.1611 17.98C37.0117 18.12 36.8251 18.19 36.6011 18.19H35.6071V21.984C35.6071 22.18 35.6584 22.3247 35.7611 22.418C35.8637 22.502 36.0037 22.544 36.1811 22.544C36.2557 22.544 36.3584 22.5253 36.4891 22.488C36.6011 22.4413 36.7084 22.418 36.8111 22.418ZM46.0552 20.262C46.0552 21.0087 45.8872 21.6807 45.5512 22.278C45.2152 22.866 44.7532 23.3233 44.1652 23.65C43.5866 23.9767 42.9472 24.14 42.2472 24.14C41.5379 24.14 40.8939 23.9767 40.3152 23.65C39.7366 23.3233 39.2792 22.866 38.9432 22.278C38.6072 21.6807 38.4392 21.0087 38.4392 20.262C38.4392 19.5153 38.6072 18.848 38.9432 18.26C39.2792 17.6627 39.7366 17.2007 40.3152 16.874C40.8939 16.538 41.5379 16.37 42.2472 16.37C42.9472 16.37 43.5866 16.538 44.1652 16.874C44.7532 17.2007 45.2152 17.6627 45.5512 18.26C45.8872 18.848 46.0552 19.5153 46.0552 20.262ZM44.3752 20.262C44.3752 19.8047 44.2772 19.3987 44.0812 19.044C43.8946 18.68 43.6379 18.4 43.3112 18.204C42.9939 18.008 42.6392 17.91 42.2472 17.91C41.8552 17.91 41.4959 18.008 41.1692 18.204C40.8519 18.4 40.5952 18.68 40.3992 19.044C40.2126 19.3987 40.1192 19.8047 40.1192 20.262C40.1192 20.7193 40.2126 21.1253 40.3992 21.48C40.5952 21.8347 40.8519 22.11 41.1692 22.306C41.4959 22.502 41.8552 22.6 42.2472 22.6C42.6392 22.6 42.9939 22.502 43.3112 22.306C43.6379 22.11 43.8946 21.8347 44.0812 21.48C44.2772 21.1253 44.3752 20.7193 44.3752 20.262ZM51.3508 16.37C51.6308 16.37 51.8642 16.4493 52.0508 16.608C52.2468 16.7667 52.3448 16.9533 52.3448 17.168C52.3448 17.4573 52.2702 17.6767 52.1208 17.826C51.9715 17.966 51.7942 18.036 51.5888 18.036C51.4488 18.036 51.2902 18.0033 51.1128 17.938C51.0848 17.9287 51.0195 17.91 50.9168 17.882C50.8235 17.854 50.7208 17.84 50.6088 17.84C50.3662 17.84 50.1328 17.9147 49.9088 18.064C49.6848 18.2133 49.4982 18.442 49.3488 18.75C49.2088 19.0487 49.1388 19.408 49.1388 19.828V23.146C49.1388 23.3887 49.0595 23.594 48.9008 23.762C48.7422 23.9207 48.5415 24 48.2988 24C48.0562 24 47.8555 23.9207 47.6968 23.762C47.5382 23.594 47.4588 23.3887 47.4588 23.146V17.364C47.4588 17.1213 47.5382 16.9207 47.6968 16.762C47.8555 16.594 48.0562 16.51 48.2988 16.51C48.5415 16.51 48.7422 16.594 48.9008 16.762C49.0595 16.9207 49.1388 17.1213 49.1388 17.364V17.546C49.3535 17.1633 49.6615 16.874 50.0628 16.678C50.4642 16.4727 50.8935 16.37 51.3508 16.37ZM59.0871 16.51C59.3298 16.51 59.5305 16.594 59.6891 16.762C59.8478 16.9207 59.9271 17.1213 59.9271 17.364V23.314C59.9271 24.5273 59.6005 25.4093 58.9471 25.96C58.2938 26.52 57.4211 26.8 56.3291 26.8C56.0118 26.8 55.6851 26.772 55.3491 26.716C55.0225 26.6693 54.7565 26.604 54.5511 26.52C54.0938 26.324 53.8651 26.0533 53.8651 25.708C53.8651 25.6427 53.8791 25.568 53.9071 25.484C53.9631 25.2787 54.0565 25.12 54.1871 25.008C54.3271 24.9053 54.4765 24.854 54.6351 24.854C54.7285 24.854 54.8171 24.868 54.9011 24.896C54.9665 24.924 55.0785 24.9707 55.2371 25.036C55.4051 25.1013 55.5778 25.1527 55.7551 25.19C55.9418 25.2367 56.1331 25.26 56.3291 25.26C56.9918 25.26 57.4771 25.1153 57.7851 24.826C58.1025 24.546 58.2611 24.0607 58.2611 23.37V23.23C57.7758 23.8367 57.0198 24.14 55.9931 24.14C55.5078 24.14 55.0785 24.028 54.7051 23.804C54.3318 23.5707 54.0425 23.2533 53.8371 22.852C53.6318 22.4413 53.5291 21.9747 53.5291 21.452V17.364C53.5291 17.1213 53.6085 16.9207 53.7671 16.762C53.9258 16.594 54.1265 16.51 54.3691 16.51C54.6118 16.51 54.8125 16.594 54.9711 16.762C55.1298 16.9207 55.2091 17.1213 55.2091 17.364V20.948C55.2091 21.536 55.3351 21.9607 55.5871 22.222C55.8485 22.474 56.2265 22.6 56.7211 22.6C57.2065 22.6 57.5798 22.46 57.8411 22.18C58.1118 21.8907 58.2471 21.48 58.2471 20.948V17.364C58.2471 17.1213 58.3265 16.9207 58.4851 16.762C58.6438 16.594 58.8445 16.51 59.0871 16.51Z" fill="white"/>
</svg>
