<svg width="60" height="39" viewBox="0 0 60 39" fill="none" xmlns="http://www.w3.org/2000/svg">
<rect width="60" height="39" rx="19.5" fill="#6C7FD8"/>
<path d="M22.9855 14.186C23.2188 14.186 23.4195 14.27 23.5875 14.438C23.7648 14.5967 23.8535 14.7973 23.8535 15.04V23.146C23.8535 23.3887 23.7742 23.594 23.6155 23.762C23.4568 23.9207 23.2468 24 22.9855 24C22.7242 24 22.5095 23.9207 22.3415 23.762C22.1828 23.6033 22.1035 23.398 22.1035 23.146V17.504L19.7935 21.032C19.7002 21.144 19.5928 21.2373 19.4715 21.312C19.3502 21.3773 19.2242 21.4053 19.0935 21.396C18.9722 21.4053 18.8508 21.3773 18.7295 21.312C18.6082 21.2373 18.5008 21.144 18.4075 21.032L16.0975 17.378V23.146C16.0975 23.398 16.0228 23.6033 15.8735 23.762C15.7242 23.9207 15.5282 24 15.2855 24C15.0522 24 14.8608 23.9207 14.7115 23.762C14.5622 23.594 14.4875 23.3887 14.4875 23.146V15.04C14.4875 14.8067 14.5715 14.606 14.7395 14.438C14.9168 14.27 15.1268 14.186 15.3695 14.186C15.5095 14.186 15.6495 14.2233 15.7895 14.298C15.9295 14.3633 16.0368 14.452 16.1115 14.564L19.1635 19.254L22.2995 14.564C22.3742 14.452 22.4722 14.3633 22.5935 14.298C22.7242 14.2233 22.8548 14.186 22.9855 14.186ZM31.8802 16.37C32.1229 16.37 32.3235 16.4493 32.4822 16.608C32.6409 16.7667 32.7202 16.972 32.7202 17.224V23.146C32.7202 23.3887 32.6409 23.594 32.4822 23.762C32.3235 23.9207 32.1229 24 31.8802 24C31.6375 24 31.4369 23.9207 31.2782 23.762C31.1289 23.6033 31.0495 23.4027 31.0402 23.16C30.8069 23.4307 30.4895 23.664 30.0882 23.86C29.6962 24.0467 29.2809 24.14 28.8422 24.14C28.1982 24.14 27.6149 23.9767 27.0922 23.65C26.5695 23.314 26.1542 22.852 25.8462 22.264C25.5475 21.676 25.3982 21.0087 25.3982 20.262C25.3982 19.5153 25.5475 18.848 25.8462 18.26C26.1449 17.6627 26.5509 17.2007 27.0642 16.874C27.5869 16.538 28.1609 16.37 28.7862 16.37C29.2342 16.37 29.6542 16.454 30.0462 16.622C30.4382 16.7807 30.7695 16.986 31.0402 17.238V17.224C31.0402 16.9813 31.1195 16.7807 31.2782 16.622C31.4369 16.454 31.6375 16.37 31.8802 16.37ZM29.0522 22.6C29.6589 22.6 30.1535 22.3807 30.5362 21.942C30.9189 21.494 31.1102 20.934 31.1102 20.262C31.1102 19.59 30.9189 19.03 30.5362 18.582C30.1535 18.134 29.6589 17.91 29.0522 17.91C28.4549 17.91 27.9649 18.134 27.5822 18.582C27.1995 19.03 27.0082 19.59 27.0082 20.262C27.0082 20.934 27.1949 21.494 27.5682 21.942C27.9509 22.3807 28.4455 22.6 29.0522 22.6ZM38.1529 22.418C38.2835 22.418 38.4002 22.4833 38.5029 22.614C38.6149 22.7353 38.6709 22.8987 38.6709 23.104C38.6709 23.356 38.5309 23.5707 38.2509 23.748C37.9802 23.916 37.6722 24 37.3269 24C36.7482 24 36.2582 23.8787 35.8569 23.636C35.4649 23.384 35.2689 22.8567 35.2689 22.054V18.19H34.6249C34.4009 18.19 34.2142 18.1153 34.0649 17.966C33.9155 17.8167 33.8409 17.63 33.8409 17.406C33.8409 17.1913 33.9155 17.014 34.0649 16.874C34.2142 16.7247 34.4009 16.65 34.6249 16.65H35.2689V15.754C35.2689 15.5113 35.3482 15.3107 35.5069 15.152C35.6749 14.984 35.8802 14.9 36.1229 14.9C36.3562 14.9 36.5522 14.984 36.7109 15.152C36.8695 15.3107 36.9489 15.5113 36.9489 15.754V16.65H37.9429C38.1669 16.65 38.3535 16.7247 38.5029 16.874C38.6522 17.0233 38.7269 17.21 38.7269 17.434C38.7269 17.6487 38.6522 17.8307 38.5029 17.98C38.3535 18.12 38.1669 18.19 37.9429 18.19H36.9489V21.984C36.9489 22.18 37.0002 22.3247 37.1029 22.418C37.2055 22.502 37.3455 22.544 37.5229 22.544C37.5975 22.544 37.7002 22.5253 37.8309 22.488C37.9429 22.4413 38.0502 22.418 38.1529 22.418ZM44.2034 16.37C45.1274 16.37 45.7667 16.6547 46.1214 17.224C46.476 17.784 46.6534 18.5633 46.6534 19.562V23.146C46.6534 23.3887 46.574 23.594 46.4154 23.762C46.2567 23.9207 46.056 24 45.8134 24C45.5707 24 45.37 23.9207 45.2114 23.762C45.0527 23.594 44.9734 23.3887 44.9734 23.146V19.562C44.9734 19.0487 44.8707 18.6473 44.6654 18.358C44.4694 18.0593 44.1194 17.91 43.6154 17.91C43.0927 17.91 42.682 18.0687 42.3834 18.386C42.094 18.694 41.9494 19.086 41.9494 19.562V23.146C41.9494 23.3887 41.87 23.594 41.7114 23.762C41.5527 23.9207 41.352 24 41.1094 24C40.8667 24 40.666 23.9207 40.5074 23.762C40.3487 23.594 40.2694 23.3887 40.2694 23.146V14.494C40.2694 14.2513 40.3487 14.0507 40.5074 13.892C40.666 13.724 40.8667 13.64 41.1094 13.64C41.352 13.64 41.5527 13.724 41.7114 13.892C41.87 14.0507 41.9494 14.2513 41.9494 14.494V17.588C42.2014 17.252 42.5187 16.9673 42.9014 16.734C43.2934 16.4913 43.7274 16.37 44.2034 16.37Z" fill="white"/>
</svg>
