<svg width="76" height="39" viewBox="0 0 76 39" fill="none" xmlns="http://www.w3.org/2000/svg">
<rect width="76" height="39" rx="19.5" fill="#FDB441"/>
<path d="M20.2327 18.568C20.7274 18.764 21.1287 19.0627 21.4367 19.464C21.7541 19.8653 21.9127 20.3833 21.9127 21.018C21.9127 22.1287 21.5954 22.9033 20.9607 23.342C20.3261 23.7807 19.5701 24 18.6927 24H15.2067C14.9641 24 14.7587 23.9207 14.5907 23.762C14.4321 23.594 14.3527 23.3887 14.3527 23.146V15.054C14.3527 14.8113 14.4321 14.6107 14.5907 14.452C14.7587 14.284 14.9641 14.2 15.2067 14.2H18.7347C20.5081 14.2 21.3947 15.0307 21.3947 16.692C21.3947 17.112 21.2921 17.4853 21.0867 17.812C20.8907 18.1293 20.6061 18.3813 20.2327 18.568ZM19.5747 17C19.5747 16.6173 19.4767 16.3327 19.2807 16.146C19.0941 15.95 18.8281 15.852 18.4827 15.852H16.1727V18.036H18.5247C18.8047 18.036 19.0474 17.9427 19.2527 17.756C19.4674 17.5693 19.5747 17.3173 19.5747 17ZM18.6927 22.39C19.1314 22.39 19.4721 22.2733 19.7147 22.04C19.9667 21.8067 20.0927 21.466 20.0927 21.018C20.0927 20.4673 19.9481 20.108 19.6587 19.94C19.3694 19.772 19.0147 19.688 18.5947 19.688H16.1727V22.39H18.6927ZM24.9686 23.146C24.9686 23.3887 24.8892 23.594 24.7306 23.762C24.5719 23.9207 24.3712 24 24.1286 24C23.8859 24 23.6852 23.9207 23.5266 23.762C23.3679 23.594 23.2886 23.3887 23.2886 23.146V17.364C23.2886 17.1213 23.3679 16.9207 23.5266 16.762C23.6852 16.594 23.8859 16.51 24.1286 16.51C24.3712 16.51 24.5719 16.594 24.7306 16.762C24.8892 16.9207 24.9686 17.1213 24.9686 17.364V23.146ZM24.1146 15.6C23.7972 15.6 23.5732 15.5487 23.4426 15.446C23.3119 15.3433 23.2466 15.1613 23.2466 14.9V14.634C23.2466 14.3727 23.3166 14.1907 23.4566 14.088C23.5966 13.9853 23.8206 13.934 24.1286 13.934C24.4552 13.934 24.6839 13.9853 24.8146 14.088C24.9452 14.1907 25.0106 14.3727 25.0106 14.634V14.9C25.0106 15.1707 24.9406 15.3573 24.8006 15.46C24.6699 15.5533 24.4412 15.6 24.1146 15.6ZM33.8912 20.262C33.8912 21.0087 33.7232 21.6807 33.3872 22.278C33.0512 22.866 32.5892 23.3233 32.0012 23.65C31.4225 23.9767 30.7832 24.14 30.0832 24.14C29.3738 24.14 28.7298 23.9767 28.1512 23.65C27.5725 23.3233 27.1152 22.866 26.7792 22.278C26.4432 21.6807 26.2752 21.0087 26.2752 20.262C26.2752 19.5153 26.4432 18.848 26.7792 18.26C27.1152 17.6627 27.5725 17.2007 28.1512 16.874C28.7298 16.538 29.3738 16.37 30.0832 16.37C30.7832 16.37 31.4225 16.538 32.0012 16.874C32.5892 17.2007 33.0512 17.6627 33.3872 18.26C33.7232 18.848 33.8912 19.5153 33.8912 20.262ZM32.2112 20.262C32.2112 19.8047 32.1132 19.3987 31.9172 19.044C31.7305 18.68 31.4738 18.4 31.1472 18.204C30.8298 18.008 30.4752 17.91 30.0832 17.91C29.6912 17.91 29.3318 18.008 29.0052 18.204C28.6878 18.4 28.4312 18.68 28.2352 19.044C28.0485 19.3987 27.9552 19.8047 27.9552 20.262C27.9552 20.7193 28.0485 21.1253 28.2352 21.48C28.4312 21.8347 28.6878 22.11 29.0052 22.306C29.3318 22.502 29.6912 22.6 30.0832 22.6C30.4752 22.6 30.8298 22.502 31.1472 22.306C31.4738 22.11 31.7305 21.8347 31.9172 21.48C32.1132 21.1253 32.2112 20.7193 32.2112 20.262ZM37.1148 23.146C37.1148 23.3887 37.0308 23.594 36.8628 23.762C36.7041 23.9207 36.5034 24 36.2608 24C36.0274 24 35.8314 23.9207 35.6728 23.762C35.5141 23.594 35.4348 23.3887 35.4348 23.146V14.494C35.4348 14.2513 35.5141 14.0507 35.6728 13.892C35.8408 13.724 36.0461 13.64 36.2888 13.64C36.5221 13.64 36.7181 13.724 36.8768 13.892C37.0354 14.0507 37.1148 14.2513 37.1148 14.494V23.146ZM46.1275 20.262C46.1275 21.0087 45.9595 21.6807 45.6235 22.278C45.2875 22.866 44.8255 23.3233 44.2375 23.65C43.6588 23.9767 43.0195 24.14 42.3195 24.14C41.6102 24.14 40.9662 23.9767 40.3875 23.65C39.8088 23.3233 39.3515 22.866 39.0155 22.278C38.6795 21.6807 38.5115 21.0087 38.5115 20.262C38.5115 19.5153 38.6795 18.848 39.0155 18.26C39.3515 17.6627 39.8088 17.2007 40.3875 16.874C40.9662 16.538 41.6102 16.37 42.3195 16.37C43.0195 16.37 43.6588 16.538 44.2375 16.874C44.8255 17.2007 45.2875 17.6627 45.6235 18.26C45.9595 18.848 46.1275 19.5153 46.1275 20.262ZM44.4475 20.262C44.4475 19.8047 44.3495 19.3987 44.1535 19.044C43.9668 18.68 43.7102 18.4 43.3835 18.204C43.0662 18.008 42.7115 17.91 42.3195 17.91C41.9275 17.91 41.5682 18.008 41.2415 18.204C40.9242 18.4 40.6675 18.68 40.4715 19.044C40.2848 19.3987 40.1915 19.8047 40.1915 20.262C40.1915 20.7193 40.2848 21.1253 40.4715 21.48C40.6675 21.8347 40.9242 22.11 41.2415 22.306C41.5682 22.502 41.9275 22.6 42.3195 22.6C42.7115 22.6 43.0662 22.502 43.3835 22.306C43.7102 22.11 43.9668 21.8347 44.1535 21.48C44.3495 21.1253 44.4475 20.7193 44.4475 20.262ZM53.7331 16.37C53.9758 16.37 54.1764 16.4493 54.3351 16.608C54.4938 16.7667 54.5731 16.972 54.5731 17.224V23.454C54.5731 24.5927 54.2184 25.4327 53.5091 25.974C52.8091 26.5247 51.9178 26.8 50.8351 26.8C50.5551 26.8 50.1678 26.7533 49.6731 26.66C49.1878 26.5667 48.8424 26.4733 48.6371 26.38C48.1798 26.184 47.9511 25.9133 47.9511 25.568C47.9511 25.5027 47.9651 25.428 47.9931 25.344C48.0491 25.1387 48.1424 24.98 48.2731 24.868C48.4131 24.7653 48.5624 24.714 48.7211 24.714C48.8144 24.714 48.9031 24.728 48.9871 24.756C49.0244 24.7653 49.2531 24.8493 49.6731 25.008C50.1024 25.176 50.4898 25.26 50.8351 25.26C51.5258 25.26 52.0391 25.12 52.3751 24.84C52.7204 24.5693 52.8931 24.182 52.8931 23.678V23.006C52.6878 23.2953 52.3751 23.5567 51.9551 23.79C51.5444 24.0233 51.1011 24.14 50.6251 24.14C49.9718 24.14 49.3744 23.9767 48.8331 23.65C48.3011 23.314 47.8811 22.852 47.5731 22.264C47.2651 21.676 47.1111 21.0087 47.1111 20.262C47.1111 19.5153 47.2604 18.848 47.5591 18.26C47.8671 17.6627 48.2824 17.2007 48.8051 16.874C49.3371 16.538 49.9251 16.37 50.5691 16.37C51.0451 16.37 51.4884 16.468 51.8991 16.664C52.3098 16.86 52.6411 17.098 52.8931 17.378V17.224C52.8931 16.9813 52.9724 16.7807 53.1311 16.622C53.2898 16.454 53.4904 16.37 53.7331 16.37ZM50.8351 22.6C51.4604 22.6 51.9691 22.3807 52.3611 21.942C52.7624 21.494 52.9631 20.934 52.9631 20.262C52.9631 19.59 52.7624 19.03 52.3611 18.582C51.9691 18.134 51.4604 17.91 50.8351 17.91C50.2098 17.91 49.7011 18.134 49.3091 18.582C48.9171 19.03 48.7211 19.59 48.7211 20.262C48.7211 20.934 48.9171 21.494 49.3091 21.942C49.7011 22.3807 50.2098 22.6 50.8351 22.6ZM61.9485 16.51C62.1911 16.51 62.3918 16.594 62.5505 16.762C62.7091 16.9207 62.7885 17.1213 62.7885 17.364V23.314C62.7885 24.5273 62.4618 25.4093 61.8085 25.96C61.1551 26.52 60.2825 26.8 59.1905 26.8C58.8731 26.8 58.5465 26.772 58.2105 26.716C57.8838 26.6693 57.6178 26.604 57.4125 26.52C56.9551 26.324 56.7265 26.0533 56.7265 25.708C56.7265 25.6427 56.7405 25.568 56.7685 25.484C56.8245 25.2787 56.9178 25.12 57.0485 25.008C57.1885 24.9053 57.3378 24.854 57.4965 24.854C57.5898 24.854 57.6785 24.868 57.7625 24.896C57.8278 24.924 57.9398 24.9707 58.0985 25.036C58.2665 25.1013 58.4391 25.1527 58.6165 25.19C58.8031 25.2367 58.9945 25.26 59.1905 25.26C59.8531 25.26 60.3385 25.1153 60.6465 24.826C60.9638 24.546 61.1225 24.0607 61.1225 23.37V23.23C60.6371 23.8367 59.8811 24.14 58.8545 24.14C58.3691 24.14 57.9398 24.028 57.5665 23.804C57.1931 23.5707 56.9038 23.2533 56.6985 22.852C56.4931 22.4413 56.3905 21.9747 56.3905 21.452V17.364C56.3905 17.1213 56.4698 16.9207 56.6285 16.762C56.7871 16.594 56.9878 16.51 57.2305 16.51C57.4731 16.51 57.6738 16.594 57.8325 16.762C57.9911 16.9207 58.0705 17.1213 58.0705 17.364V20.948C58.0705 21.536 58.1965 21.9607 58.4485 22.222C58.7098 22.474 59.0878 22.6 59.5825 22.6C60.0678 22.6 60.4411 22.46 60.7025 22.18C60.9731 21.8907 61.1085 21.48 61.1085 20.948V17.364C61.1085 17.1213 61.1878 16.9207 61.3465 16.762C61.5051 16.594 61.7058 16.51 61.9485 16.51Z" fill="white"/>
</svg>
