<svg width="14" height="14" viewBox="0 0 14 14" fill="none" xmlns="http://www.w3.org/2000/svg">
<path d="M7.675 0H6.325C6.21454 0 6.125 0.0895431 6.125 0.2V1.55C6.125 1.66046 6.21454 1.75 6.325 1.75H7.675C7.78546 1.75 7.875 1.66046 7.875 1.55V0.2C7.875 0.0895431 7.78546 0 7.675 0Z" fill="#FF676B"/>
<path d="M12.3657 2.5286L11.4114 1.57361C11.3333 1.49547 11.2067 1.49543 11.1285 1.57351L10.1735 2.52782C10.0954 2.60591 10.0954 2.73255 10.1734 2.81068L11.1278 3.76567C11.2058 3.84381 11.3325 3.84386 11.4106 3.76577L12.3656 2.81146C12.4438 2.73338 12.4438 2.60674 12.3657 2.5286Z" fill="#FF676B"/>
<path d="M13.8 6.125H12.45C12.3395 6.125 12.25 6.21454 12.25 6.325V7.675C12.25 7.78546 12.3395 7.875 12.45 7.875H13.8C13.9105 7.875 14 7.78546 14 7.675V6.325C14 6.21454 13.9105 6.125 13.8 6.125Z" fill="#FF676B"/>
<path d="M10.2346 11.5332L11.1896 12.4875C11.2677 12.5656 11.3944 12.5656 11.4724 12.4874L12.4267 11.5324C12.5048 11.4543 12.5048 11.3277 12.4266 11.2496L11.4717 10.2953C11.3935 10.2172 11.2669 10.2172 11.1888 10.2954L10.2345 11.2504C10.1564 11.3285 10.1564 11.4551 10.2346 11.5332Z" fill="#FF676B"/>
<path d="M7.675 12.25H6.325C6.21454 12.25 6.125 12.3395 6.125 12.45V13.8C6.125 13.9105 6.21454 14 6.325 14H7.675C7.78546 14 7.875 13.9105 7.875 13.8V12.45C7.875 12.3395 7.78546 12.25 7.675 12.25Z" fill="#FF676B"/>
<path d="M1.51173 11.4714L2.46604 12.4264C2.54412 12.5045 2.67076 12.5046 2.7489 12.4265L3.70389 11.4722C3.78203 11.3941 3.78207 11.2675 3.70399 11.1893L2.74968 10.2343C2.67159 10.1562 2.54495 10.1561 2.46682 10.2342L1.51183 11.1885C1.43369 11.2666 1.43364 11.3933 1.51173 11.4714Z" fill="#FF676B"/>
<path d="M1.55 6.125H0.2C0.0895431 6.125 0 6.21454 0 6.325V7.675C0 7.78546 0.0895431 7.875 0.2 7.875H1.55C1.66046 7.875 1.75 7.78546 1.75 7.675V6.325C1.75 6.21454 1.66046 6.125 1.55 6.125Z" fill="#FF676B"/>
<path d="M3.76493 2.58886L2.80994 1.63454C2.7318 1.55646 2.60516 1.55651 2.52708 1.63464L1.57276 2.58963C1.49468 2.66777 1.49473 2.79441 1.57286 2.87249L2.52785 3.82681C2.60599 3.90489 2.73263 3.90485 2.81071 3.82671L3.76503 2.87172C3.84311 2.79358 3.84306 2.66694 3.76493 2.58886Z" fill="#FF676B"/>
<path d="M7 3.5C5.075 3.5 3.5 5.075 3.5 7C3.5 8.925 5.075 10.5 7 10.5C8.925 10.5 10.5 8.925 10.5 7C10.5 5.075 8.925 3.5 7 3.5Z" fill="#FF676B"/>
</svg>
