<svg width="14" height="14" viewBox="0 0 14 14" fill="none" xmlns="http://www.w3.org/2000/svg">
<path d="M13.125 7.875H0.875C0.391751 7.875 0 8.26675 0 8.75C0 9.23325 0.391751 9.625 0.875 9.625H13.125C13.6082 9.625 14 9.23325 14 8.75C14 8.26675 13.6082 7.875 13.125 7.875Z" fill="#FF676B"/>
<path d="M11.375 11.375H2.625C2.14175 11.375 1.75 11.7668 1.75 12.25C1.75 12.7332 2.14175 13.125 2.625 13.125H11.375C11.8582 13.125 12.25 12.7332 12.25 12.25C12.25 11.7668 11.8582 11.375 11.375 11.375Z" fill="#FF676B"/>
<path d="M13.0649 5.25242C13.1315 5.73104 12.7332 6.125 12.25 6.125C11.7668 6.125 11.3842 5.72947 11.2918 5.25514C10.898 3.23437 9.1514 1.75 7 1.75C4.8486 1.75 3.10202 3.23437 2.70825 5.25514C2.61582 5.72947 2.23325 6.125 1.75 6.125C1.26675 6.125 0.868474 5.73104 0.935148 5.25241C1.35179 2.26149 3.88409 0 7 0C10.1159 0 12.6482 2.26149 13.0649 5.25242Z" fill="#FF676B"/>
<path d="M3.9375 1.3125L11.375 1.75L12.25 6.125H1.75L3.9375 1.3125Z" fill="#FF676B"/>
</svg>
