<svg width="50" height="51" viewBox="0 0 50 51" fill="none" xmlns="http://www.w3.org/2000/svg">
<path d="M25.166 48.6462C22.1877 48.6462 19.4401 46.1256 17.4295 41.5487C15.5063 37.1716 14.4473 31.3682 14.4473 25.2087C14.4473 19.0493 15.5063 13.2463 17.4295 8.8688C19.4401 4.29185 22.1877 1.77124 25.166 1.77124C28.1443 1.77124 30.8919 4.29185 32.9026 8.8688C34.8257 13.2463 35.8848 19.0493 35.8848 25.2087C35.8848 31.3682 34.8257 37.1716 32.9026 41.5487C30.8919 46.1256 28.1443 48.6462 25.166 48.6462ZM25.166 3.33374C22.8611 3.33374 20.5505 5.58413 18.8267 9.50796C16.99 13.6888 15.9785 19.2648 15.9785 25.2087C15.9785 31.1527 16.99 36.7287 18.8267 40.9095C20.5505 44.8334 22.8611 47.0837 25.166 47.0837C27.4709 47.0837 29.7815 44.8334 31.5053 40.9095C33.342 36.7287 34.3535 31.1527 34.3535 25.2087C34.3535 19.2648 33.342 13.6888 31.5053 9.50796C29.7815 5.58413 27.4709 3.33374 25.166 3.33374Z" fill="#8FD6E8"/>
<path d="M38.4513 41.6157C37.1582 41.6057 35.8684 41.4793 34.597 41.2381C29.6049 40.3258 23.9086 37.857 18.5572 34.2863C14.5885 31.6379 11.1125 28.5787 8.50502 25.4393C5.91998 22.327 4.31389 19.2917 3.86045 16.6618C3.51276 14.6449 3.84054 12.936 4.835 11.5826C6.67106 9.08412 10.5423 8.23079 15.7345 9.17953C20.7267 10.0918 26.4229 12.5607 31.7744 16.1314C35.7431 18.7797 39.219 21.8389 41.8266 24.9784C44.4116 28.0907 46.0177 31.1259 46.4711 33.7558C46.8188 35.7728 46.491 37.4817 45.4966 38.8351C44.1495 40.6678 41.7071 41.6157 38.4513 41.6157ZM11.9023 10.368C9.15417 10.368 7.09943 11.1059 6.06057 12.5199C5.33007 13.5139 5.09741 14.8164 5.36892 16.391C6.22441 21.352 11.7302 27.8634 19.3957 32.9785C24.5784 36.4369 30.0728 38.824 34.8669 39.7C39.3937 40.5273 42.8218 39.8704 44.271 37.8978C45.0015 36.9037 45.2342 35.6012 44.9626 34.0266C44.1072 29.0657 38.6014 22.5542 30.9359 17.4391C25.7532 13.9807 20.2588 11.5937 15.4646 10.7176C14.2896 10.4946 13.0975 10.3776 11.9023 10.368Z" fill="#8FD6E8"/>
<path d="M11.8804 41.6155C8.62408 41.6155 6.18241 40.6682 4.83548 38.8349C3.84103 37.4815 3.51325 35.7726 3.86094 33.7556C4.31438 31.1257 5.92047 28.0905 8.50551 24.9782C11.113 21.8387 14.589 18.7795 18.5577 16.1312C23.9087 12.5605 29.605 10.0916 34.5975 9.17934C39.7903 8.23051 43.6606 9.08383 45.4967 11.5824C46.4911 12.9358 46.8189 14.6447 46.4712 16.6616C46.0178 19.2915 44.4117 22.3268 41.8267 25.4391C39.2191 28.5786 35.7432 31.6377 31.7745 34.2861C26.4234 37.8568 20.7272 40.3256 15.7346 41.2379C14.4633 41.4792 13.1735 41.6055 11.8804 41.6155ZM18.9768 16.7851L19.3958 17.4389C11.7303 22.554 6.22452 29.0651 5.36903 34.0264C5.09752 35.601 5.33017 36.9036 6.06068 37.8976C7.51 39.8703 10.9377 40.5271 15.4648 39.6998C20.2589 38.8238 25.7528 36.4368 30.936 32.9784C38.6018 27.8632 44.1073 21.3522 44.9628 16.3909C45.2343 14.8163 45.0016 13.5137 44.2711 12.5197C42.8218 10.547 39.3941 9.89018 34.867 10.7174C30.0729 11.5935 24.5785 13.9805 19.3958 17.4389L18.9768 16.7851Z" fill="#8FD6E8"/>
<path d="M25.166 30.6775C28.1259 30.6775 30.5254 28.229 30.5254 25.2087C30.5254 22.1884 28.1259 19.74 25.166 19.74C22.2061 19.74 19.8066 22.1884 19.8066 25.2087C19.8066 28.229 22.2061 30.6775 25.166 30.6775Z" fill="#FF676B"/>
</svg>
