<svg width="58" height="62" viewBox="0 0 58 62" fill="none" xmlns="http://www.w3.org/2000/svg">
<path d="M15.8395 37.3111C15.3229 37.3111 14.9043 36.8924 14.9043 36.3759V24.6325C14.9043 24.116 15.3229 23.6973 15.8395 23.6973C16.3561 23.6973 16.7747 24.116 16.7747 24.6325V36.3759C16.7747 36.8924 16.3561 37.3111 15.8395 37.3111Z" fill="#9FACBA"/>
<path d="M44.6413 36.2833C44.1247 36.2833 43.7061 35.8646 43.7061 35.3481V25.7428C43.7061 25.2264 44.1247 24.8076 44.6413 24.8076C45.1578 24.8076 45.5765 25.2264 45.5765 25.7428V35.3481C45.5765 35.8647 45.1577 36.2833 44.6413 36.2833Z" fill="#9FACBA"/>
<path d="M15.9416 22.1879C15.6154 22.1879 15.2987 22.017 15.1267 21.7128C14.8724 21.2632 15.0308 20.6927 15.4803 20.4384L19.6754 18.0659C20.1252 17.8117 20.6955 17.9699 20.9499 18.4197C21.2042 18.8693 21.0458 19.4398 20.5963 19.6941L16.4012 22.0665C16.2556 22.1487 16.0975 22.1879 15.9416 22.1879Z" fill="#9FACBA"/>
<path d="M23.8971 17.6886C23.571 17.6886 23.2541 17.5177 23.0823 17.2135C22.828 16.7639 22.9864 16.1934 23.4359 15.9391L27.9134 13.407C28.3633 13.1528 28.9336 13.3109 29.1879 13.7607C29.4422 14.2103 29.2838 14.7808 28.8344 15.0351L24.3568 17.5673C24.2111 17.6496 24.0531 17.6886 23.8971 17.6886Z" fill="#9FACBA"/>
<path d="M44.1615 22.0513C44.0055 22.0513 43.8475 22.0122 43.702 21.93L31.5101 15.035C31.0605 14.7807 30.9022 14.2103 31.1565 13.7606C31.4107 13.311 31.9813 13.1528 32.431 13.4069L44.6229 20.3019C45.0725 20.5562 45.2308 21.1267 44.9765 21.5763C44.8044 21.8805 44.4876 22.0513 44.1615 22.0513Z" fill="#9FACBA"/>
<path d="M28.3729 47.5592C28.2169 47.5592 28.0589 47.52 27.9133 47.4378L16.4715 40.9672C16.0219 40.7129 15.8637 40.1424 16.118 39.6928C16.3721 39.2432 16.9427 39.0849 17.3925 39.3391L28.8342 45.8097C29.2839 46.064 29.4421 46.6345 29.1878 47.0841C29.0159 47.3882 28.699 47.5592 28.3729 47.5592Z" fill="#9FACBA"/>
<path d="M31.9718 47.5592C31.6457 47.5592 31.3289 47.3884 31.157 47.0842C30.9027 46.6345 31.0611 46.0641 31.5106 45.8098L43.7024 38.9148C44.1523 38.6605 44.7225 38.8188 44.9769 39.2685C45.2312 39.7182 45.0728 40.2886 44.6233 40.5429L32.4315 47.4379C32.2858 47.5201 32.1278 47.5592 31.9718 47.5592Z" fill="#9FACBA"/>
<path d="M45.7987 22.3987C45.5214 22.3987 45.2468 22.2758 45.0623 22.0408C44.7434 21.6344 44.8144 21.0466 45.2207 20.7277L52.2423 15.2181C52.6485 14.8992 53.2365 14.9701 53.5553 15.3765C53.8742 15.7829 53.8032 16.3707 53.3969 16.6895L46.3753 22.1991C46.2041 22.3336 46.0006 22.3987 45.7987 22.3987Z" fill="#9FACBA"/>
<path d="M54.0807 14.0617C53.5641 14.0617 53.1455 13.6429 53.1455 13.1264V4.70449C53.1455 4.18803 53.5641 3.76929 54.0807 3.76929C54.5973 3.76929 55.0159 4.18803 55.0159 4.70449V13.1264C55.0159 13.643 54.5973 14.0617 54.0807 14.0617Z" fill="#9FACBA"/>
<path d="M30.1725 57.9508C29.6559 57.9508 29.2373 57.5321 29.2373 57.0156V49.1867C29.2373 48.6702 29.6559 48.2515 30.1725 48.2515C30.6891 48.2515 31.1077 48.6702 31.1077 49.1867V57.0156C31.1077 57.5321 30.6891 57.9508 30.1725 57.9508Z" fill="#9FACBA"/>
<path d="M51.3288 46.3727C51.0896 46.3727 50.8502 46.2814 50.6676 46.0988L45.1367 40.5679C44.7715 40.2027 44.7715 39.6106 45.1367 39.2454C45.502 38.8801 46.0941 38.8801 46.4594 39.2454L51.9903 44.7762C52.3555 45.1414 52.3555 45.7336 51.9903 46.0988C51.8075 46.2814 51.5681 46.3727 51.3288 46.3727Z" fill="#9FACBA"/>
<path d="M45.798 54.8851C45.5587 54.8851 45.3193 54.7938 45.1367 54.6112C44.7715 54.246 44.7715 53.6539 45.1367 53.2886L50.6676 47.7578C51.0329 47.3926 51.6249 47.3926 51.9903 47.7578C52.3555 48.123 52.3555 48.7152 51.9903 49.0804L46.4594 54.6112C46.2767 54.7938 46.0373 54.8851 45.798 54.8851Z" fill="#9FACBA"/>
<path d="M14.5491 39.2374H5.8898C5.37321 39.2374 4.95459 38.8186 4.95459 38.3022C4.95459 37.7857 5.37321 37.3669 5.8898 37.3669H14.5491C15.0657 37.3669 15.4843 37.7857 15.4843 38.3022C15.4843 38.8186 15.0657 39.2374 14.5491 39.2374Z" fill="#9FACBA"/>
<path d="M54.0807 5.90841C55.7122 5.90841 57.0349 4.58576 57.0349 2.9542C57.0349 1.32264 55.7122 0 54.0807 0C52.4491 0 51.1265 1.32264 51.1265 2.9542C51.1265 4.58576 52.4491 5.90841 54.0807 5.90841Z" fill="#8AC9FE"/>
<path d="M44.1622 58.3632C45.7938 58.3632 47.1164 57.0406 47.1164 55.409C47.1164 53.7775 45.7938 52.4548 44.1622 52.4548C42.5306 52.4548 41.208 53.7775 41.208 55.409C41.208 57.0406 42.5306 58.3632 44.1622 58.3632Z" fill="#8AC9FE"/>
<path d="M54.0807 17.8288C55.7122 17.8288 57.0349 16.5062 57.0349 14.8746C57.0349 13.2431 55.7122 11.9204 54.0807 11.9204C52.4491 11.9204 51.1265 13.2431 51.1265 14.8746C51.1265 16.5062 52.4491 17.8288 54.0807 17.8288Z" fill="#FDB441"/>
<path d="M30.1725 61.9997C31.804 61.9997 33.1267 60.6771 33.1267 59.0455C33.1267 57.4139 31.804 56.0913 30.1725 56.0913C28.5409 56.0913 27.2183 57.4139 27.2183 59.0455C27.2183 60.6771 28.5409 61.9997 30.1725 61.9997Z" fill="#FDB441"/>
<path d="M52.8194 49.8825C54.451 49.8825 55.7736 48.5599 55.7736 46.9283C55.7736 45.2968 54.451 43.9741 52.8194 43.9741C51.1879 43.9741 49.8652 45.2968 49.8652 46.9283C49.8652 48.5599 51.1879 49.8825 52.8194 49.8825Z" fill="#FDB441"/>
<path d="M3.91905 41.2563C5.55061 41.2563 6.87325 39.9337 6.87325 38.3021C6.87325 36.6705 5.55061 35.3479 3.91905 35.3479C2.28749 35.3479 0.964844 36.6705 0.964844 38.3021C0.964844 39.9337 2.28749 41.2563 3.91905 41.2563Z" fill="#8AC9FE"/>
<path d="M15.8395 25.7429C17.471 25.7429 18.7937 24.4202 18.7937 22.7887C18.7937 21.1571 17.471 19.8345 15.8395 19.8345C14.2079 19.8345 12.8853 21.1571 12.8853 22.7887C12.8853 24.4202 14.2079 25.7429 15.8395 25.7429Z" fill="#FF676B"/>
<path d="M15.8395 41.2565C17.471 41.2565 18.7937 39.9339 18.7937 38.3023C18.7937 36.6708 17.471 35.3481 15.8395 35.3481C14.2079 35.3481 12.8853 36.6708 12.8853 38.3023C12.8853 39.9339 14.2079 41.2565 15.8395 41.2565Z" fill="#FF676B"/>
<path d="M44.6407 25.7429C46.2723 25.7429 47.5949 24.4202 47.5949 22.7887C47.5949 21.1571 46.2723 19.8345 44.6407 19.8345C43.0092 19.8345 41.6865 21.1571 41.6865 22.7887C41.6865 24.4202 43.0092 25.7429 44.6407 25.7429Z" fill="#FF676B"/>
<path d="M44.6407 41.2565C46.2723 41.2565 47.5949 39.9339 47.5949 38.3023C47.5949 36.6708 46.2723 35.3481 44.6407 35.3481C43.0092 35.3481 41.6865 36.6708 41.6865 38.3023C41.6865 39.9339 43.0092 41.2565 44.6407 41.2565Z" fill="#FF676B"/>
<path d="M30.172 16.674C31.8035 16.674 33.1262 15.3514 33.1262 13.7198C33.1262 12.0883 31.8035 10.7656 30.172 10.7656C28.5404 10.7656 27.2178 12.0883 27.2178 13.7198C27.2178 15.3514 28.5404 16.674 30.172 16.674Z" fill="#FF676B"/>
<path d="M30.172 50.0793C31.8035 50.0793 33.1262 48.7567 33.1262 47.1251C33.1262 45.4935 31.8035 44.1709 30.172 44.1709C28.5404 44.1709 27.2178 45.4935 27.2178 47.1251C27.2178 48.7567 28.5404 50.0793 30.172 50.0793Z" fill="#FF676B"/>
</svg>
