<svg width="94" height="30" viewBox="0 0 94 30" fill="none" xmlns="http://www.w3.org/2000/svg">
<path fill-rule="evenodd" clip-rule="evenodd" d="M7.28637 29.1692H9.47301V17.5692H7.28637V29.1692ZM15.3019 28.9952H17.2604V21.6763L25.5041 29.1692V17.7432H23.5511V24.937L15.3019 17.5692V28.9952ZM29.975 26.1858C31.041 27.0105 32.3205 27.4872 33.6922 27.4872C35.0282 27.4872 35.9655 27.0304 35.9655 26.0218C35.9655 25.1427 35.3677 24.7983 34.3209 24.4132L32.6262 23.8287C31.0638 23.2777 29.8756 22.4729 29.8756 20.6233C29.8756 18.6449 31.6743 17.5692 33.8254 17.5692C35.1432 17.5692 36.3442 17.8982 37.2824 18.4809V20.4429C36.3068 19.727 35.239 19.234 33.8674 19.234C32.6864 19.234 31.8039 19.6717 31.8039 20.5843C31.8039 21.409 32.3579 21.7388 33.3335 22.0705L35.2217 22.7285C37.0515 23.3674 37.8911 24.3579 37.8911 25.9873C37.8911 28.0373 36.075 29.1692 33.6922 29.1692C32.1261 29.1692 30.7946 28.7342 29.975 28.185V26.1858ZM42.9927 29.1692H45.1784V17.5692H42.9927V29.1692ZM55.4326 27.4138C57.8967 27.4138 59.2136 25.8442 59.2136 23.3665C59.2136 20.8707 57.8958 19.3065 55.4326 19.3065H52.9959V27.4138H55.4326ZM51.0064 17.5692H55.5056C58.969 17.5692 61.2086 19.8348 61.2086 23.3665C61.2086 26.9008 58.969 29.1692 55.5056 29.1692H51.0064V17.5692ZM72.14 17.5692V19.3065H66.8495V22.0977H71.5942V23.8151H66.8486V27.4138H72.14V29.1692H64.8527V17.5692H72.14ZM79.8991 22.8218H82.0684C83.3524 22.8218 84.0762 22.1222 84.0762 21.0465C84.0762 19.9708 83.3524 19.2702 82.0684 19.2702H79.8991V22.8218ZM79.8991 24.4621V29.1692H77.9689V17.5692H82.1049C84.4631 17.5692 85.989 18.7754 85.989 21.0465C85.989 22.9886 85.1421 24.1042 83.3378 24.3905L87.4419 29.1692H85.2461L81.2726 24.463H79.9L79.8991 24.4621ZM6.5225 6.14138C7.37763 5.83053 8.04385 4.898 8.04385 3.61566C8.04385 1.47872 6.52251 0.371283 4.08854 0.371283H0V12.3003H4.46819C6.90216 12.3003 8.4235 11.1149 8.4235 8.88097C8.4235 7.61766 7.62495 6.51022 6.5225 6.14138ZM1.92016 5.38375V2.12035H4.07029C5.42097 2.12035 6.14285 2.6061 6.14285 3.73256C6.14285 4.85903 5.42006 5.38375 4.07029 5.38375H1.92016ZM1.92016 7.05488H4.42986C5.76229 7.05488 6.48417 7.71463 6.48417 8.80303C6.48417 9.8715 5.76138 10.5521 4.43078 10.5521H1.92107V7.05397L1.92016 7.05488ZM17.3444 12.4942C20.1397 12.4942 22.0225 10.8231 22.0225 7.55966V0.371283H20.0448V7.32585C20.0448 9.61866 19.0939 10.688 17.3444 10.688C15.5949 10.688 14.6448 9.61866 14.6448 7.32585V0.371283H12.6672V7.53972C12.6672 10.8231 14.5682 12.4942 17.3444 12.4942ZM26.6787 11.4448C27.4964 12.0284 28.8279 12.4942 30.3866 12.4942C32.764 12.4942 34.5701 11.2889 34.5701 9.11388C34.5701 7.38475 33.7341 6.33531 31.908 5.65563L30.0262 4.956C29.056 4.6071 28.5048 4.25728 28.5048 3.38275C28.5048 2.41125 29.3791 1.94544 30.5582 1.94544C31.9271 1.94544 32.9922 2.46925 33.9623 3.22778V1.14794C33.0305 0.527158 31.8322 0.177346 30.5199 0.177346C28.3716 0.177346 26.5837 1.32375 26.5837 3.42172C26.5837 5.38375 27.7629 6.23835 29.3216 6.82106L31.0145 7.44275C32.0604 7.85056 32.6499 8.22031 32.6499 9.15285C32.6499 10.2213 31.7182 10.7071 30.3866 10.7071C29.0177 10.7071 27.7437 10.2014 26.6787 9.32775V11.4448ZM41.6365 0.371283H39.6598V12.2993H41.6365V0.371283ZM47.2784 12.2848H49.1839V4.52463L57.204 12.4697V0.353158H55.3039V7.98106L47.2784 0.169189V12.2848ZM69.5618 0.374002V2.16022H64.4274V5.03122H69.0316V6.7975H64.4274V10.4977H69.5618V12.303H62.489V0.374002H69.5618ZM74.166 11.4366C74.9837 12.0202 76.3143 12.486 77.874 12.486C80.2505 12.486 82.0574 11.2816 82.0574 9.10572C82.0574 7.3766 81.2206 6.32806 79.3953 5.64747L77.5126 4.94875C76.5425 4.59894 75.9912 4.24913 75.9912 3.3746C75.9912 2.4031 76.8655 1.93728 78.0446 1.93728C79.4136 1.93728 80.4786 2.462 81.4487 3.21963V1.14069C80.5169 0.519002 79.3187 0.169189 78.0063 0.169189C75.858 0.169189 74.0702 1.3156 74.0702 3.41356C74.0702 5.3756 75.2493 6.23019 76.808 6.81291L78.501 7.4346C79.5468 7.84241 80.1364 8.21216 80.1364 9.14469C80.1364 10.2132 79.2055 10.6989 77.8731 10.6989C76.5041 10.6989 75.2301 10.1941 74.166 9.3196V11.4366ZM86.1086 11.4366C86.9263 12.0202 88.2578 12.486 89.8165 12.486C92.1939 12.486 94 11.2816 94 9.10572C94 7.3766 93.1631 6.32806 91.3379 5.64747L89.4551 4.94875C88.4859 4.59894 87.9338 4.24913 87.9338 3.3746C87.9338 2.4031 88.809 1.93728 89.9872 1.93728C91.3561 1.93728 92.4221 2.462 93.3913 3.21963V1.14069C92.4604 0.519002 91.2621 0.169189 89.9498 0.169189C87.8006 0.169189 86.0137 1.3156 86.0137 3.41356C86.0137 5.3756 87.1928 6.23019 88.7515 6.81291L90.4444 7.4346C91.4903 7.84241 92.0798 8.21216 92.0798 9.14469C92.0798 10.2132 91.1481 10.6989 89.8165 10.6989C88.4476 10.6989 87.1736 10.1941 86.1086 9.3196V11.4366Z" fill="#CABBBB"/>
</svg>
