<svg width="24" height="24" viewBox="0 0 24 24" fill="none" xmlns="http://www.w3.org/2000/svg">
<path d="M1.33301 8.44482H22.6663" stroke="#FF676B" stroke-width="1.8" stroke-linecap="round" stroke-linejoin="round"/>
<path d="M22.6663 8.4444V5.59996C22.6663 5.22276 22.5165 4.86101 22.2498 4.59429C21.9831 4.32758 21.6213 4.17773 21.2441 4.17773H2.75523C2.37803 4.17773 2.01629 4.32758 1.74957 4.59429C1.48285 4.86101 1.33301 5.22276 1.33301 5.59996V21.2444C1.33301 21.6216 1.48285 21.9833 1.74957 22.2501C2.01629 22.5168 2.37803 22.6666 2.75523 22.6666H9.86634" stroke="#FF676B" stroke-width="1.8" stroke-linecap="round" stroke-linejoin="round"/>
<path d="M7.02148 1.3335V4.17794" stroke="#FF676B" stroke-width="1.8" stroke-linecap="round" stroke-linejoin="round"/>
<path d="M16.9775 1.3335V4.17794" stroke="#FF676B" stroke-width="1.8" stroke-linecap="round" stroke-linejoin="round"/>
<path d="M16.978 22.6668C20.1198 22.6668 22.6668 20.1198 22.6668 16.978C22.6668 13.8361 20.1198 11.2891 16.978 11.2891C13.8361 11.2891 11.2891 13.8361 11.2891 16.978C11.2891 20.1198 13.8361 22.6668 16.978 22.6668Z" stroke="#FF676B" stroke-width="1.8" stroke-linecap="round" stroke-linejoin="round"/>
<path d="M16.9775 14.1333V16.9777H19.822" stroke="#FF676B" stroke-width="1.8" stroke-linecap="round" stroke-linejoin="round"/>
</svg>
