<svg width="44" height="30" viewBox="0 0 44 30" fill="none" xmlns="http://www.w3.org/2000/svg">
<rect width="44" height="28" rx="8" fill="white"/>
<path d="M22 23.6719C24.097 23.6719 25.7969 21.972 25.7969 19.875C25.7969 17.778 24.097 16.0781 22 16.0781C19.903 16.0781 18.2031 17.778 18.2031 19.875C18.2031 21.972 19.903 23.6719 22 23.6719Z" fill="#78C7D6"/>
<path d="M27.5454 10.2656L27.3027 9.05236C27.1718 8.39733 26.5918 7.92188 25.9238 7.92188H18.0767C17.4087 7.92188 16.8287 8.39733 16.6978 9.05236L16.4551 10.2656H27.5454Z" fill="#78C7D6"/>
<path d="M31.8906 11.6719C30.2395 11.6719 12.8821 11.6719 12.1094 11.6719C10.9463 11.6719 10 12.6181 10 13.7812V25.9688C10 27.1319 10.9463 28.0781 12.1094 28.0781H31.8906C33.0537 28.0781 34 27.1319 34 25.9688V13.7812C34 12.6181 33.0537 11.6719 31.8906 11.6719ZM16 16.0781H13.75C13.3617 16.0781 13.0469 15.7633 13.0469 15.375C13.0469 14.9867 13.3617 14.6719 13.75 14.6719H16C16.3883 14.6719 16.7031 14.9867 16.7031 15.375C16.7031 15.7633 16.3883 16.0781 16 16.0781ZM22 25.0781C19.131 25.0781 16.7969 22.744 16.7969 19.875C16.7969 17.006 19.131 14.6719 22 14.6719C24.869 14.6719 27.2031 17.006 27.2031 19.875C27.2031 22.744 24.869 25.0781 22 25.0781Z" fill="#78C7D6"/>
</svg>
