<svg width="14" height="26" viewBox="0 0 14 26" fill="none" xmlns="http://www.w3.org/2000/svg">
<path d="M14 17.3064C14 18.1318 13.7559 18.8944 13.2678 19.5942C12.7992 20.294 12.1255 20.8682 11.2469 21.3168C10.3877 21.7654 9.39191 22.0435 8.25941 22.1511V25.1925C8.25941 25.4258 8.17155 25.6142 7.99582 25.7578C7.83961 25.9193 7.63459 26 7.38075 26C7.12692 26 6.91213 25.9193 6.7364 25.7578C6.5802 25.6142 6.50209 25.4258 6.50209 25.1925V22.1781C5.27197 22.1063 4.16876 21.8551 3.19247 21.4244C2.21618 20.9938 1.26918 20.3658 0.351464 19.5404C0.117155 19.3609 0 19.1456 0 18.8944C0 18.6791 0.0878661 18.4817 0.263598 18.3023C0.458856 18.1228 0.67364 18.0331 0.90795 18.0331C1.14226 18.0331 1.35704 18.1228 1.5523 18.3023C2.91911 19.666 4.56904 20.4286 6.50209 20.5901V13.0538C4.66667 12.5335 3.26081 11.8875 2.28452 11.1159C1.30823 10.3444 0.820084 9.21394 0.820084 7.72464C0.820084 6.41477 1.33752 5.32022 2.37239 4.44099C3.40725 3.54382 4.78382 3.02346 6.50209 2.87992V0.807454C6.50209 0.57419 6.5802 0.385784 6.7364 0.242236C6.91213 0.0807454 7.12692 0 7.38075 0C7.63459 0 7.83961 0.0807454 7.99582 0.242236C8.17155 0.385784 8.25941 0.57419 8.25941 0.807454V2.853C9.29428 2.94272 10.2608 3.16701 11.159 3.52588C12.0572 3.88475 12.7796 4.36025 13.3264 4.95238C13.6192 5.25742 13.7657 5.5176 13.7657 5.73292C13.7657 5.9303 13.6681 6.1187 13.4728 6.29814C13.2775 6.45963 13.0628 6.54037 12.8285 6.54037C12.6332 6.54037 12.4672 6.47757 12.3305 6.35197C11.8815 5.84955 11.2957 5.42788 10.5732 5.08696C9.85077 4.74603 9.0795 4.53968 8.25941 4.46791V11.7888C9.47001 12.1297 10.4756 12.5066 11.2762 12.9193C12.0962 13.314 12.7503 13.8703 13.2385 14.588C13.7462 15.2878 14 16.1939 14 17.3064ZM2.63598 7.67081C2.63598 8.56798 2.96792 9.28571 3.6318 9.82402C4.3152 10.3623 5.27197 10.8378 6.50209 11.2505V4.46791C5.33054 4.59351 4.39331 4.94341 3.69038 5.5176C2.98745 6.07384 2.63598 6.79158 2.63598 7.67081ZM8.25941 20.5631C9.41144 20.4196 10.3487 20.0607 11.0711 19.4865C11.7936 18.8944 12.1548 18.1677 12.1548 17.3064C12.1353 16.3734 11.7936 15.6287 11.1297 15.0725C10.4658 14.4983 9.50907 13.9959 8.25941 13.5652V20.5631Z" fill="#78C7D6"/>
</svg>
