<svg width="24" height="24" viewBox="0 0 24 24" fill="none" xmlns="http://www.w3.org/2000/svg">
<path d="M21.0429 5.5433H13.4468C13.1385 5.5433 12.8373 5.41669 12.6293 5.20149L10.2592 2.70475C9.68947 2.13686 8.90998 1.84023 8.12052 1.84478H2.95706C1.32661 1.84473 0 3.17134 0 4.80174V19.1981C0 20.8286 1.32661 22.1552 2.95706 22.1552H21.0538H21.0565C22.6861 22.1479 24.0072 20.815 24 19.1891V8.50031C24 6.86986 22.6733 5.5433 21.0429 5.5433ZM22.1914 19.1927C22.1941 19.8257 21.6814 20.3439 21.052 20.3466H2.95706C2.32406 20.3466 1.80862 19.8312 1.80862 19.1982V4.80174C1.80862 4.16874 2.32406 3.65331 2.95706 3.65237H8.14405C8.15399 3.65237 8.16392 3.65237 8.17391 3.65237C8.47592 3.65237 8.76894 3.77265 8.96605 3.96798L11.3235 6.45296C11.8769 7.02446 12.651 7.35183 13.4468 7.35183H21.0429C21.6759 7.35183 22.1913 7.86727 22.1913 8.50027V19.1927H22.1914Z" fill="white"/>
</svg>
