<svg width="24" height="24" viewBox="0 0 24 24" fill="none" xmlns="http://www.w3.org/2000/svg">
<g clip-path="url(#clip0)">
<path d="M18.75 2.25H20.25C20.6478 2.25 21.0294 2.40804 21.3107 2.68934C21.592 2.97064 21.75 3.35218 21.75 3.75V21.75C21.75 22.1478 21.592 22.5294 21.3107 22.8107C21.0294 23.092 20.6478 23.25 20.25 23.25H3.75C3.35218 23.25 2.97064 23.092 2.68934 22.8107C2.40804 22.5294 2.25 22.1478 2.25 21.75V3.75C2.25 3.35218 2.40804 2.97064 2.68934 2.68934C2.97064 2.40804 3.35218 2.25 3.75 2.25H5.25" stroke="white" stroke-width="1.8" stroke-linecap="round" stroke-linejoin="round"/>
<path d="M15.75 0.75H8.25V3.75H15.75V0.75Z" stroke="white" stroke-width="1.8" stroke-linecap="round" stroke-linejoin="round"/>
<path d="M6.75 9.75H17.25" stroke="white" stroke-width="1.8" stroke-linecap="round" stroke-linejoin="round"/>
<path d="M6.75 14.25H17.25" stroke="white" stroke-width="1.8" stroke-linecap="round" stroke-linejoin="round"/>
<path d="M6.75 18.75H17.25" stroke="white" stroke-width="1.8" stroke-linecap="round" stroke-linejoin="round"/>
</g>
<defs>
<clipPath id="clip0">
<rect width="24" height="24" fill="white"/>
</clipPath>
</defs>
</svg>
