<svg width="44" height="40" viewBox="0 0 44 40" fill="none" xmlns="http://www.w3.org/2000/svg">
<path d="M18.9448 7.7002H17.4388C17.1875 7.7002 16.971 7.87727 16.9211 8.1236L15.9689 12.8299C14.5301 19.9414 14.5884 27.1426 16.1423 34.2333L16.9112 37.7422C16.9643 37.9845 17.1789 38.1572 17.4271 38.1572H18.9389C19.2508 38.1572 19.4828 37.8689 19.416 37.5642L18.5696 33.7013C17.0901 26.95 17.0345 20.0935 18.4045 13.3226L19.4237 8.2854C19.4848 7.98294 19.2535 7.7002 18.9448 7.7002Z" fill="#0ED290"/>
<path d="M39.9866 7.7002H41.4927C41.744 7.7002 41.9605 7.87727 42.0103 8.1236L42.9626 12.8299C44.4014 19.9414 44.3431 27.1426 42.7892 34.2333L42.0203 37.7422C41.9672 37.9845 41.7526 38.1572 41.5044 38.1572H39.9927C39.6808 38.1572 39.4488 37.8689 39.5155 37.5642L40.362 33.7013C41.8414 26.95 41.897 20.0935 40.5271 13.3226L39.5079 8.2854C39.4467 7.98294 39.678 7.7002 39.9866 7.7002Z" fill="#0ED290"/>
<path d="M36.7263 22.2187H21.8972C21.7137 22.2187 21.5649 22.0699 21.5649 21.8864V20.0662C21.5649 19.8826 21.7138 19.7339 21.8972 19.7339H36.7263C36.9099 19.7339 37.0586 19.8827 37.0586 20.0662V21.8864C37.0586 22.07 36.9099 22.2187 36.7263 22.2187Z" fill="#537983"/>
<path d="M4.59175 39.692C4.53127 39.6984 4.47009 39.7036 4.40802 39.7076C1.87673 39.8705 0.540082 38.3542 0.0378194 37.2284C-0.0721172 36.9819 0.067568 36.6958 0.328201 36.6259L1.92539 36.1976C2.27251 36.168 2.33334 36.2977 2.66901 36.7335C3.04367 37.1104 3.56032 37.2721 4.24844 37.2278C5.85149 37.1256 6.19551 34.7485 6.19862 34.7245L9.80414 4.97023C9.99942 3.43014 11.1382 0.481391 14.0607 0.292865C16.5757 0.13098 17.9115 1.62693 18.4212 2.75036C18.5378 3.00736 18.3905 3.30751 18.1178 3.38059L16.5681 3.79609C16.3734 3.84831 16.1647 3.7699 16.0593 3.59806C15.9973 3.49665 15.9124 3.38015 15.7997 3.26683C15.425 2.88996 14.9084 2.72825 14.2203 2.77256C12.6181 2.87628 12.2731 5.25191 12.2701 5.27588L8.66455 35.0302C8.47345 36.5376 7.37755 39.3949 4.59175 39.692Z" fill="#FF676B"/>
<path d="M32.5777 25.3866C32.2295 25.2663 31.8508 25.451 31.7306 25.7985L29.3616 32.6504L26.9311 25.7936C26.8082 25.4469 26.4276 25.2655 26.0809 25.3884C25.7342 25.5113 25.5528 25.8919 25.6757 26.2387L28.6638 34.6689L27.5454 37.9038C27.4251 38.2515 27.6096 38.6308 27.9572 38.7509C28.2174 38.8336 28.613 38.7586 28.8042 38.3391L32.9895 26.2338C33.1096 25.886 32.9253 25.5068 32.5777 25.3866Z" fill="#678D98"/>
<path d="M33.274 16.2726L30.2361 12.2698L32.8194 8.8439C33.0409 8.55014 32.9823 8.1326 32.6886 7.91112C32.3947 7.68965 31.9771 7.74826 31.7558 8.04193L29.3993 11.1672L27.0262 8.04033C26.8038 7.74737 26.3861 7.69001 26.093 7.91246C25.8 8.13482 25.7428 8.55254 25.9651 8.84558L28.5659 12.2725L25.6567 16.1308C25.4353 16.4245 25.4939 16.8421 25.7875 17.0636C25.9738 17.2096 26.4131 17.2865 26.7203 16.9328L29.4028 13.3752L32.213 17.078C32.4243 17.2701 32.6753 17.4831 33.1462 17.2059C33.4391 16.9834 33.4963 16.5657 33.274 16.2726Z" fill="#678D98"/>
</svg>
