<svg width="20" height="20" viewBox="0 0 20 20" fill="none" xmlns="http://www.w3.org/2000/svg">
<path d="M8.33398 11.6667C8.60555 11.9438 8.92969 12.164 9.28742 12.3143C9.64516 12.4647 10.0293 12.5421 10.4173 12.5421C10.8053 12.5421 11.1895 12.4647 11.5472 12.3143C11.9049 12.164 12.2291 11.9438 12.5007 11.6667L15.834 8.33332C16.3865 7.78079 16.6969 7.03139 16.6969 6.24999C16.6969 5.46859 16.3865 4.71919 15.834 4.16666C15.2815 3.61412 14.5321 3.30371 13.7507 3.30371C12.9692 3.30371 12.2199 3.61412 11.6673 4.16666L11.2507 4.58332" stroke="#A18C8D" stroke-width="1.2" stroke-linecap="round" stroke-linejoin="round"/>
<path d="M11.6667 8.33343C11.3951 8.05627 11.071 7.83608 10.7132 7.68576C10.3555 7.53544 9.97136 7.45801 9.58332 7.45801C9.19529 7.45801 8.81116 7.53544 8.45343 7.68576C8.0957 7.83608 7.77156 8.05627 7.49999 8.33343L4.16666 11.6668C3.61412 12.2193 3.30371 12.9687 3.30371 13.7501C3.30371 14.5315 3.61412 15.2809 4.16666 15.8334C4.71919 16.386 5.46859 16.6964 6.24999 16.6964C7.03139 16.6964 7.78079 16.386 8.33332 15.8334L8.74999 15.4168" stroke="#A18C8D" stroke-width="1.2" stroke-linecap="round" stroke-linejoin="round"/>
</svg>
