<svg width="24" height="25" viewBox="0 0 24 25" fill="none" xmlns="http://www.w3.org/2000/svg">
<path d="M7.33301 11.4335V6.3335C7.33301 3.5335 9.53301 1.3335 12.333 1.3335C15.133 1.3335 17.333 3.5335 17.333 6.3335V11.4335" stroke="white" stroke-width="1.8" stroke-miterlimit="10"/>
<path d="M12.333 23.3335C16.199 23.3335 19.333 20.1995 19.333 16.3335C19.333 12.4675 16.199 9.3335 12.333 9.3335C8.46701 9.3335 5.33301 12.4675 5.33301 16.3335C5.33301 20.1995 8.46701 23.3335 12.333 23.3335Z" stroke="white" stroke-width="1.8" stroke-miterlimit="10" stroke-linecap="square"/>
<path d="M12.333 17.3335C13.4376 17.3335 14.333 16.4381 14.333 15.3335C14.333 14.2289 13.4376 13.3335 12.333 13.3335C11.2284 13.3335 10.333 14.2289 10.333 15.3335C10.333 16.4381 11.2284 17.3335 12.333 17.3335Z" stroke="white" stroke-width="1.8" stroke-miterlimit="10" stroke-linecap="square"/>
<path d="M12.333 17.3335V19.3335" stroke="white" stroke-width="1.8" stroke-miterlimit="10" stroke-linecap="square"/>
</svg>
