<svg width="24" height="24" version="1.1" viewBox="0 0 24 24" xmlns="http://www.w3.org/2000/svg">
 <path d="M0 0h24v24H0V0z" fill="none"/>
 <path d="m1.3333 20h21.333c0.73333 0 1.3333-0.6 1.3333-1.3333 0-0.73333-0.6-1.3333-1.3333-1.3333h-21.333c-0.73333 0-1.3333 0.6-1.3333 1.3333 0 0.73333 0.6 1.3333 1.3333 1.3333zm0-6.6667h21.333c0.73333 0 1.3333-0.6 1.3333-1.3333s-0.6-1.3333-1.3333-1.3333h-21.333c-0.73333 0-1.3333 0.6-1.3333 1.3333s0.6 1.3333 1.3333 1.3333zm-1.3333-8c0 0.73333 0.6 1.3333 1.3333 1.3333h21.333c0.73333 0 1.3333-0.6 1.3333-1.3333 0-0.73333-0.6-1.3333-1.3333-1.3333h-21.333c-0.73333 0-1.3333 0.6-1.3333 1.3333z" stroke-width="1.3333"/>
</svg>
