<svg width="116" height="34" viewBox="0 0 116 34" fill="none" xmlns="http://www.w3.org/2000/svg">
<path d="M86.1306 25.6672C82.1512 25.6672 79.6786 23.3654 79.6786 19.6553C79.6786 15.8048 81.9603 13.4092 85.6344 13.4092H85.9426C86.4035 13.4092 87.038 13.4242 87.9049 13.5323V8.88452H90.5001V25.2482C90.5001 25.2482 88.0342 25.6672 86.1306 25.6672ZM86.1073 15.4497C83.5932 15.4497 82.3708 16.8048 82.3708 19.5907C82.3708 22.0922 83.8458 23.6469 86.2155 23.6469C86.6711 23.6469 87.1929 23.6169 87.9041 23.5561V15.6163C87.1936 15.5022 86.6208 15.4497 86.1073 15.4497ZM50.5813 25.2918L43.5706 13.0751L43.5684 25.2918H41.125V9.82594H44.5457L51.5564 21.9338L51.5534 9.82594H54.0291V25.2918H50.5813ZM72.9123 25.5298C71.7319 25.5298 70.5012 25.3976 69.0359 25.1161L68.8773 25.0861V22.9255L69.1089 22.975C70.4012 23.2505 71.5169 23.4855 72.6333 23.4855C73.5348 23.4855 75.6346 23.3444 75.6346 22.0193C75.6346 20.9083 74.1836 20.629 73.0183 20.406L72.9446 20.391C72.7266 20.3505 72.5213 20.3092 72.3484 20.2656C70.6388 19.8227 68.8149 19.1568 68.8149 16.8693C68.8149 14.6381 70.5832 13.3596 73.6671 13.3596C75.1474 13.3596 76.2217 13.5173 77.0856 13.6464L77.5051 13.708V15.8048L77.2818 15.7642C76.3044 15.5848 75.1587 15.4001 74.0573 15.4001C72.8326 15.4001 71.3793 15.6291 71.3793 16.7169C71.3793 17.6201 72.5687 17.8783 73.946 18.1778C75.8721 18.5938 78.2599 19.1163 78.2599 21.7408C78.2599 24.1484 76.3127 25.5298 72.9123 25.5298ZM97.7859 25.5298C95.0997 25.5298 92.6119 25.0568 92.6119 21.632C92.6119 17.9046 96.4589 17.9046 98.7587 17.9046C98.9873 17.9046 100.068 17.9549 100.4 17.9691C100.397 15.8783 100.371 15.3799 97.334 15.3799C96.1304 15.3799 94.7937 15.6171 93.6133 15.8288L93.3878 15.8693V13.8048L93.5397 13.7725C94.908 13.4948 96.2274 13.3596 97.5724 13.3596C100.515 13.3596 103.008 13.6554 103.008 17.301V25.2512L102.829 25.2715C100.791 25.4997 99.1722 25.5298 97.7859 25.5298ZM98.6941 19.7491C96.4762 19.7491 95.1019 20.0749 95.1019 21.6965C95.1019 23.5734 96.8551 23.7288 98.5001 23.7288C99.1136 23.7288 100.218 23.6499 100.556 23.6259V19.8137C100.08 19.7934 98.8437 19.7491 98.6941 19.7491ZM61.3705 25.5298C58.6805 25.5298 56.1935 25.0568 56.1935 21.632C56.1935 17.9046 60.0405 17.9046 62.3396 17.9046C62.5689 17.9046 63.6522 17.9549 63.9845 17.9691C63.9815 15.8783 63.9522 15.3799 60.9156 15.3799C59.7112 15.3799 58.3745 15.6171 57.1942 15.8288L56.9686 15.8693V13.8048L57.1243 13.7725C58.45 13.4988 59.8002 13.3605 61.154 13.3596C64.0958 13.3596 66.5895 13.6554 66.5895 17.301V25.2512L66.4099 25.2715C64.3725 25.4997 62.7538 25.5298 61.3705 25.5298ZM62.2749 19.7491C60.0578 19.7491 58.6865 20.0749 58.6865 21.6965C58.6865 23.5734 60.4367 23.7288 62.0817 23.7288C62.6982 23.7288 63.8026 23.6499 64.1401 23.6259V19.8137C63.6612 19.7934 62.4245 19.7491 62.2749 19.7491Z" fill="#CABBBB"/>
<path fill-rule="evenodd" clip-rule="evenodd" d="M116 13.5849V29.3715L113.342 30.547V25.4735C112.33 25.6147 111.792 25.6147 111.358 25.6147C110.329 25.6147 109.187 25.3917 108.303 25.0194C106.324 24.1973 105.143 22.1103 105.143 19.4324C105.143 18.0961 105.469 15.6525 107.651 14.3357C108.747 13.6825 110.039 13.4033 111.983 13.4033C112.679 13.4033 113.618 13.4558 114.526 13.5084L116 13.5849ZM107.815 19.4324C107.815 16.7876 109.152 15.4438 111.789 15.4445C112.205 15.4445 112.573 15.4656 113.368 15.5181V23.424C112.352 23.5532 111.894 23.5532 111.485 23.5532C109.809 23.5532 107.815 22.8377 107.815 19.4324Z" fill="#CABBBB"/>
<path d="M38.773 0.658447H29.531L20.9468 24.2089C20.8407 24.4989 20.6549 24.7532 20.4108 24.9426C20.1667 25.1321 19.8741 25.2491 19.5665 25.2802V25.2915H28.6408C29.3513 25.2915 29.9595 24.8403 30.1858 24.2097L38.773 0.658447Z" fill="#CABBBB"/>
<path d="M18.8259 24.9342C19.3522 24.9342 19.8131 24.6729 20.095 24.2773C20.1243 24.236 20.2273 24.0918 20.3002 23.8959L23.4488 15.2534L21.6069 10.2063C21.4996 9.95069 21.3258 9.7284 21.1035 9.56245C20.8813 9.3965 20.6186 9.29292 20.3428 9.26244C20.0669 9.23197 19.7879 9.2757 19.5347 9.38912C19.2815 9.50253 19.0633 9.6815 18.9026 9.90748C18.8725 9.94877 18.75 10.1327 18.6974 10.2889L15.5488 18.9283L17.399 23.9957C17.519 24.2743 17.7181 24.5116 17.9717 24.6783C18.2253 24.8451 18.5223 24.9341 18.8259 24.9342Z" fill="#CABBBB"/>
<path d="M10.3245 8.89256H19.4988V8.89556C19.1727 8.90864 18.8578 9.01836 18.5943 9.21074C18.3308 9.40313 18.1307 9.66948 18.0193 9.97587L9.43438 33.5256H0.192383L8.77654 9.97511C9.00585 9.3415 9.61406 8.89256 10.3245 8.89256Z" fill="#CABBBB"/>
</svg>
