<svg width="24" height="24" viewBox="0 0 24 24" fill="none" xmlns="http://www.w3.org/2000/svg">
<path d="M1 9H22" stroke="white" stroke-width="1.8" stroke-miterlimit="10" stroke-linecap="round" stroke-linejoin="round"/>
<path d="M18.5 9L21.6598 16.0546C22.9366 19.4076 20.4614 23 16.8732 23H6.1268C2.5386 23 0.0633989 19.4076 1.3402 16.0546L4.5 9" stroke="white" stroke-width="1.8" stroke-miterlimit="10" stroke-linecap="round" stroke-linejoin="round"/>
<path d="M7.29922 6.2C8.45902 6.2 9.39922 5.2598 9.39922 4.1C9.39922 2.9402 8.45902 2 7.29922 2C6.13942 2 5.19922 2.9402 5.19922 4.1C5.19922 5.2598 6.13942 6.2 7.29922 6.2Z" stroke="white" stroke-width="1.8" stroke-miterlimit="10" stroke-linecap="round" stroke-linejoin="round"/>
<path d="M15.6996 6.2C16.8594 6.2 17.7996 5.2598 17.7996 4.1C17.7996 2.9402 16.8594 2 15.6996 2C14.5398 2 13.5996 2.9402 13.5996 4.1C13.5996 5.2598 14.5398 6.2 15.6996 6.2Z" stroke="white" stroke-width="1.8" stroke-miterlimit="10" stroke-linecap="round" stroke-linejoin="round"/>
</svg>
