<svg width="49" height="49" viewBox="0 0 49 49" fill="none" xmlns="http://www.w3.org/2000/svg">
<path d="M34.4516 12.4697H13.4194C13.0227 12.4697 12.7012 12.7913 12.7012 13.188C12.7012 13.5847 13.0227 13.9062 13.4194 13.9062H34.4515C34.8482 13.9062 35.1698 13.5847 35.1698 13.188C35.1698 12.7912 34.8483 12.4697 34.4516 12.4697Z" fill="#FF676B"/>
<path d="M20.9106 34.4858H13.3979C13.0013 34.4858 12.6797 34.8074 12.6797 35.2041C12.6797 35.6009 13.0013 35.9223 13.3979 35.9223H20.9106C21.3072 35.9223 21.6288 35.6008 21.6288 35.2041C21.6288 34.8073 21.3072 34.4858 20.9106 34.4858Z" fill="#FF676B"/>
<path d="M23.9249 27.1472H13.3979C13.0013 27.1472 12.6797 27.4688 12.6797 27.8655C12.6797 28.2623 13.0013 28.5837 13.3979 28.5837H23.9249C24.3215 28.5837 24.6432 28.2622 24.6432 27.8655C24.6432 27.4687 24.3216 27.1472 23.9249 27.1472Z" fill="#FF676B"/>
<path d="M29.0492 19.8083H13.3979C13.0013 19.8083 12.6797 20.1299 12.6797 20.5266C12.6797 20.9233 13.0013 21.2449 13.3979 21.2449H29.0492C29.4459 21.245 29.7674 20.9234 29.7674 20.5266C29.7674 20.1298 29.4459 19.8083 29.0492 19.8083Z" fill="#FF676B"/>
<path d="M42.642 5.12109H12.9577C10.3283 5.12109 8.18928 7.26025 8.18928 9.88961V38.1512H0.718197C0.526503 38.1512 0.342657 38.2278 0.207811 38.364C0.0728697 38.5003 -0.00197031 38.6848 3.9457e-05 38.8765C0.0283676 41.7285 2.07785 43.879 4.76731 43.879H34.4516H34.542C37.1714 43.879 39.3105 41.7399 39.3105 39.1105V30.407C39.3105 30.0103 38.9888 29.6888 38.5921 29.6888C38.1954 29.6888 37.8739 30.0104 37.8739 30.4071V39.1106C37.8739 40.9479 36.3792 42.4425 34.542 42.4425H34.4516C32.573 42.4425 31.1411 40.9033 31.1208 38.8624C31.1169 38.4684 30.7965 38.1512 30.4026 38.1512H9.62617V9.88951C9.62617 8.0522 11.1209 6.5576 12.958 6.5576H39.2341C39.213 6.57913 39.1931 6.60172 39.1725 6.62373C39.1474 6.65043 39.122 6.67685 39.0975 6.70403C39.0716 6.73283 39.0466 6.76241 39.0214 6.79188C38.9972 6.82012 38.9728 6.84806 38.9493 6.87687C38.9249 6.90673 38.9015 6.93735 38.8778 6.96779C38.8548 6.99726 38.8317 7.02645 38.8094 7.0565C38.7866 7.08732 38.7648 7.1188 38.7427 7.1502C38.7209 7.18101 38.6989 7.21164 38.6779 7.24293C38.6567 7.27461 38.6365 7.30696 38.6161 7.33921C38.5957 7.37127 38.5751 7.40304 38.5555 7.43558C38.5357 7.46831 38.5172 7.50171 38.4983 7.53492C38.4795 7.56794 38.4601 7.60077 38.4421 7.63436C38.4239 7.66795 38.407 7.70231 38.3897 7.73647C38.3724 7.77054 38.3546 7.80433 38.3381 7.83878C38.3216 7.87343 38.3063 7.90874 38.2906 7.94377C38.2749 7.9787 38.2587 8.01334 38.2439 8.04866C38.2288 8.08436 38.2152 8.12072 38.2011 8.1568C38.1871 8.19241 38.1726 8.22772 38.1595 8.2637C38.146 8.30065 38.1341 8.33826 38.1215 8.37568C38.1095 8.41166 38.0968 8.44726 38.0855 8.48363C38.0736 8.52191 38.0634 8.56086 38.0524 8.59962C38.0423 8.6358 38.0314 8.67169 38.022 8.70825C38.0118 8.74844 38.0032 8.78921 37.9939 8.82979C37.9857 8.86549 37.9767 8.90099 37.9695 8.93698C37.9609 8.97918 37.9541 9.02187 37.9466 9.06445C37.9405 9.09967 37.9334 9.13451 37.928 9.16992C37.9211 9.21538 37.9162 9.26141 37.9105 9.30725C37.9065 9.34037 37.9014 9.3731 37.8981 9.4064C37.8929 9.4577 37.8897 9.50957 37.8862 9.56135C37.8843 9.58977 37.8812 9.618 37.8798 9.64652C37.8758 9.72701 37.8737 9.80807 37.8737 9.88961V10.1307V16.2646C37.8737 16.6614 38.1952 16.9829 38.5919 16.9829C38.9886 16.9829 39.3102 16.6613 39.3102 16.2646V10.8489H46.6988C46.8905 10.8489 47.0743 10.7723 47.2091 10.6361C47.3441 10.4998 47.4189 10.3153 47.4169 10.1236C47.3886 7.27164 45.3391 5.12109 42.642 5.12109ZM29.7344 39.5878C29.7442 39.6621 29.7557 39.7357 29.7685 39.8089C29.7727 39.8334 29.7778 39.8574 29.7824 39.8818C29.7915 39.9301 29.8006 39.9784 29.811 40.0261C29.8171 40.0547 29.8241 40.0829 29.8306 40.1112C29.8405 40.1542 29.8506 40.1971 29.8616 40.2395C29.8692 40.2693 29.8776 40.2988 29.8857 40.3282C29.8969 40.3686 29.9082 40.4089 29.9202 40.4488C29.9292 40.4788 29.9387 40.5085 29.9483 40.5382C29.9607 40.5771 29.9736 40.6157 29.987 40.6541C29.9972 40.6837 30.0076 40.7132 30.0184 40.7424C30.0324 40.7805 30.0469 40.8182 30.0617 40.8558C30.073 40.8843 30.0842 40.9128 30.0959 40.941C30.1117 40.979 30.1281 41.0165 30.1447 41.0541C30.1565 41.0809 30.1683 41.1079 30.1807 41.1345C30.1988 41.1738 30.218 41.2124 30.237 41.251C30.2489 41.2749 30.2603 41.2991 30.2725 41.3228C30.2959 41.3681 30.3203 41.4126 30.3449 41.457C30.3538 41.4731 30.3623 41.4896 30.3714 41.5056C30.4056 41.5657 30.4409 41.6248 30.4773 41.683C30.4859 41.6966 30.4949 41.7096 30.5036 41.7231C30.532 41.7676 30.5608 41.8118 30.5906 41.8552C30.6043 41.8752 30.6187 41.8946 30.6327 41.9144C30.6583 41.9506 30.684 41.9867 30.7106 42.022C30.7265 42.0432 30.7429 42.0639 30.7592 42.0849C30.7848 42.1179 30.8107 42.1508 30.8371 42.183C30.8545 42.2041 30.8722 42.225 30.8899 42.2458C30.9163 42.277 30.9431 42.3079 30.9703 42.3383C30.9886 42.3588 31.0071 42.379 31.0258 42.3991C31.0391 42.4134 31.0519 42.4284 31.0654 42.4425H4.76721C3.11882 42.4425 1.81429 41.2572 1.50564 39.5878H29.7344ZM39.3456 9.41224C39.3459 9.40736 39.3464 9.40229 39.347 9.39731C39.3503 9.37539 39.3543 9.35367 39.358 9.33194C39.3632 9.30132 39.3685 9.27069 39.3745 9.24026C39.3791 9.2171 39.3843 9.19413 39.3893 9.17116C39.3956 9.14264 39.4021 9.11422 39.409 9.08599C39.415 9.06225 39.4213 9.03861 39.4277 9.01507C39.4351 8.98818 39.4426 8.96129 39.4506 8.93468C39.4578 8.91056 39.4653 8.88664 39.4731 8.86281C39.4813 8.83735 39.4899 8.81208 39.4988 8.78682C39.5074 8.76241 39.5161 8.73801 39.5253 8.71389C39.5343 8.69006 39.5438 8.66652 39.5534 8.64288C39.5634 8.618 39.5735 8.59321 39.5842 8.56861C39.5937 8.5467 39.6037 8.52507 39.6137 8.50344C39.6254 8.47789 39.6371 8.45214 39.6494 8.42697C39.6586 8.40822 39.6685 8.38984 39.6781 8.37127C39.6922 8.34371 39.7062 8.31615 39.7211 8.28907C39.7269 8.27854 39.7332 8.26839 39.739 8.25796C39.8053 8.14053 39.8782 8.02722 39.9578 7.91917C39.9586 7.91812 39.9592 7.91716 39.96 7.91611C39.9856 7.88146 40.0122 7.84749 40.0391 7.8138C40.0434 7.80844 40.0475 7.80299 40.0518 7.79763C40.0781 7.76509 40.1053 7.73322 40.1327 7.70173C40.1378 7.6959 40.1429 7.68996 40.1481 7.68412C40.176 7.65254 40.2046 7.62163 40.2338 7.5911C40.2386 7.58612 40.2433 7.58105 40.2482 7.57608C40.2784 7.54488 40.3092 7.51416 40.3406 7.4841C40.3442 7.48075 40.3477 7.47741 40.3512 7.47396C40.3843 7.44257 40.418 7.41175 40.4525 7.3817C40.4536 7.38065 40.4549 7.37969 40.456 7.37864C40.8959 6.99554 41.4372 6.72537 42.0346 6.61416C42.0349 6.61407 42.0352 6.61407 42.0355 6.61397C42.0844 6.60488 42.1338 6.59684 42.1835 6.58995C42.1864 6.58957 42.1894 6.58918 42.1924 6.5888C42.2397 6.58229 42.2874 6.57674 42.3354 6.57224C42.3426 6.57157 42.35 6.57119 42.3574 6.57062C42.4013 6.56679 42.4453 6.56353 42.4897 6.56143C42.5154 6.56028 42.5412 6.56009 42.5671 6.55942C42.5948 6.55875 42.6225 6.5575 42.6504 6.5575C44.2988 6.5575 45.6033 7.74279 45.912 9.41224H39.3456Z" fill="#FF676B"/>
<path d="M48.9992 18.3589C48.9991 18.3506 48.9989 18.3422 48.9986 18.3338C48.9957 18.2662 48.9836 18.2012 48.9632 18.1395C48.9622 18.1365 48.9618 18.1333 48.9608 18.1303C48.9599 18.1279 48.9585 18.1256 48.9576 18.1231C48.9463 18.0916 48.9333 18.061 48.918 18.0317C48.9161 18.028 48.9139 18.0247 48.912 18.021C48.8978 17.9952 48.8821 17.9704 48.865 17.9466C48.8613 17.9415 48.8579 17.9363 48.8542 17.9313C48.8353 17.9064 48.8148 17.8829 48.7929 17.8606C48.7881 17.8558 48.7831 17.8513 48.7782 17.8466C48.7575 17.8267 48.7357 17.808 48.7127 17.7907C48.7097 17.7884 48.7068 17.7858 48.7036 17.7835C48.6778 17.7648 48.6504 17.748 48.6222 17.7327C48.6167 17.7297 48.6113 17.727 48.6057 17.7243C48.5769 17.7097 48.5474 17.6964 48.5165 17.6858C48.5163 17.6857 48.5161 17.6856 48.516 17.6856C48.4852 17.6751 48.4534 17.6671 48.4209 17.6607C48.4137 17.6593 48.4066 17.658 48.3993 17.6569C48.3668 17.6515 48.3339 17.6475 48.3001 17.6467C42.2902 17.4911 34.4534 18.9379 30.4914 23.4608C28.7574 25.4403 27.9573 27.9515 27.1837 30.38C27.1203 30.5788 27.0571 30.7774 26.9932 30.9758C26.9906 30.9842 26.988 30.9926 26.9856 31.0011L25.7717 35.3124C25.6642 35.6942 25.8866 36.091 26.2684 36.1985C26.3335 36.2169 26.399 36.2255 26.4634 36.2255C26.777 36.2255 27.0653 36.0184 27.1545 35.7017L28.2803 31.703C29.6567 31.0579 30.7649 30.7563 32.2619 30.3493C33.0384 30.1379 33.9186 29.8987 34.9837 29.5711C37.2863 28.8629 41.7036 25.8999 43.7365 23.7C45.5145 21.7758 47.0106 20.3458 48.739 18.9186C48.741 18.9169 48.7426 18.9149 48.7446 18.9132C48.7698 18.8919 48.7937 18.8692 48.8157 18.8446C48.817 18.843 48.8185 18.8417 48.8198 18.8403C48.8415 18.8157 48.8612 18.7893 48.8795 18.7617C48.8829 18.7566 48.8861 18.7516 48.8894 18.7464C48.9238 18.6915 48.951 18.6319 48.9698 18.5684C48.9716 18.5623 48.9733 18.5564 48.9749 18.5503C48.9833 18.5191 48.9902 18.4873 48.9943 18.4546C48.9945 18.4532 48.9945 18.452 48.9946 18.4507C48.9972 18.4285 48.9992 18.406 48.9997 18.3832C49 18.375 48.9993 18.3669 48.9992 18.3589ZM31.5721 24.4073C33.2439 22.4987 35.8064 21.06 39.1883 20.1313C40.0972 19.8817 41.0577 19.6746 42.0476 19.5111C39.5324 20.7309 37.1274 22.2586 35.7835 23.1564C33.6146 24.6053 31.2733 26.3629 29.5443 27.9261C30.0559 26.6301 30.6745 25.432 31.5721 24.4073ZM42.6815 22.725C40.7029 24.8661 36.4297 27.6233 34.5615 28.1978C33.5189 28.5185 32.6508 28.7546 31.8849 28.9629C31.1919 29.1513 30.5615 29.323 29.9381 29.5209C30.217 29.2538 30.5439 28.9544 30.9293 28.6182C32.4803 27.2653 34.4876 25.7499 36.5815 24.3511C40.2069 21.9291 43.4878 20.229 45.8948 19.492C44.8495 20.4548 43.8212 21.4914 42.6815 22.725Z" fill="#77D2E9"/>
</svg>
