<svg width="214" height="130" viewBox="0 0 214 130" fill="none" xmlns="http://www.w3.org/2000/svg">
<g filter="url(#filter0_d)">
<rect x="37" y="19" width="140" height="56" rx="14" fill="#5A77DE"/>
</g>
<path d="M101.167 52C100.906 52 100.691 51.9207 100.523 51.762C100.365 51.594 100.285 51.3887 100.285 51.146V43.054C100.285 42.8113 100.365 42.6107 100.523 42.452C100.691 42.284 100.897 42.2 101.139 42.2H105.689C105.932 42.2 106.133 42.2793 106.291 42.438C106.459 42.5873 106.543 42.7833 106.543 43.026C106.543 43.2313 106.459 43.4133 106.291 43.572C106.133 43.7307 105.932 43.81 105.689 43.81H101.909L102.035 43.642V46.456L101.937 46.274H105.059C105.302 46.274 105.503 46.3533 105.661 46.512C105.829 46.6613 105.913 46.8573 105.913 47.1C105.913 47.3053 105.829 47.4873 105.661 47.646C105.503 47.8047 105.302 47.884 105.059 47.884H101.909L102.035 47.758V51.146C102.035 51.3887 101.947 51.594 101.769 51.762C101.601 51.9207 101.401 52 101.167 52ZM113.795 44.37C114.038 44.37 114.239 44.4493 114.397 44.608C114.556 44.7667 114.635 44.972 114.635 45.224V51.146C114.635 51.3887 114.556 51.594 114.397 51.762C114.239 51.9207 114.038 52 113.795 52C113.553 52 113.352 51.9207 113.193 51.762C113.035 51.594 112.955 51.3887 112.955 51.146V50.46L113.263 50.586C113.263 50.7073 113.198 50.8567 113.067 51.034C112.937 51.202 112.759 51.37 112.535 51.538C112.311 51.706 112.045 51.8507 111.737 51.972C111.439 52.084 111.112 52.14 110.757 52.14C110.113 52.14 109.53 51.9767 109.007 51.65C108.485 51.314 108.069 50.8567 107.761 50.278C107.463 49.69 107.313 49.018 107.313 48.262C107.313 47.4967 107.463 46.8247 107.761 46.246C108.069 45.658 108.48 45.2007 108.993 44.874C109.507 44.538 110.076 44.37 110.701 44.37C111.103 44.37 111.471 44.4307 111.807 44.552C112.143 44.6733 112.433 44.8273 112.675 45.014C112.927 45.2007 113.119 45.392 113.249 45.588C113.389 45.7747 113.459 45.9333 113.459 46.064L112.955 46.246V45.224C112.955 44.9813 113.035 44.7807 113.193 44.622C113.352 44.454 113.553 44.37 113.795 44.37ZM110.967 50.6C111.378 50.6 111.737 50.4973 112.045 50.292C112.353 50.0867 112.591 49.8067 112.759 49.452C112.937 49.0973 113.025 48.7007 113.025 48.262C113.025 47.814 112.937 47.4127 112.759 47.058C112.591 46.7033 112.353 46.4233 112.045 46.218C111.737 46.0127 111.378 45.91 110.967 45.91C110.566 45.91 110.211 46.0127 109.903 46.218C109.595 46.4233 109.353 46.7033 109.175 47.058C109.007 47.4127 108.923 47.814 108.923 48.262C108.923 48.7007 109.007 49.0973 109.175 49.452C109.353 49.8067 109.595 50.0867 109.903 50.292C110.211 50.4973 110.566 50.6 110.967 50.6ZM119.718 44.37C120.25 44.37 120.712 44.426 121.104 44.538C121.505 44.65 121.813 44.8087 122.028 45.014C122.252 45.21 122.364 45.448 122.364 45.728C122.364 45.9147 122.308 46.092 122.196 46.26C122.084 46.4187 121.921 46.498 121.706 46.498C121.557 46.498 121.431 46.4793 121.328 46.442C121.235 46.3953 121.151 46.3393 121.076 46.274C121.001 46.2087 120.913 46.148 120.81 46.092C120.717 46.036 120.572 45.994 120.376 45.966C120.189 45.9287 120.049 45.91 119.956 45.91C119.48 45.91 119.074 46.0127 118.738 46.218C118.411 46.4233 118.159 46.7033 117.982 47.058C117.805 47.4033 117.716 47.8047 117.716 48.262C117.716 48.71 117.805 49.1113 117.982 49.466C118.169 49.8113 118.421 50.0867 118.738 50.292C119.065 50.4973 119.438 50.6 119.858 50.6C120.091 50.6 120.292 50.586 120.46 50.558C120.628 50.53 120.768 50.488 120.88 50.432C121.011 50.3573 121.127 50.278 121.23 50.194C121.333 50.11 121.487 50.068 121.692 50.068C121.935 50.068 122.121 50.1473 122.252 50.306C122.383 50.4553 122.448 50.642 122.448 50.866C122.448 51.0993 122.317 51.314 122.056 51.51C121.795 51.6967 121.449 51.8507 121.02 51.972C120.6 52.084 120.143 52.14 119.648 52.14C118.911 52.14 118.271 51.972 117.73 51.636C117.189 51.2907 116.769 50.824 116.47 50.236C116.181 49.648 116.036 48.99 116.036 48.262C116.036 47.4967 116.19 46.8247 116.498 46.246C116.815 45.658 117.249 45.2007 117.8 44.874C118.36 44.538 118.999 44.37 119.718 44.37ZM127.119 52.14C126.326 52.14 125.635 51.9767 125.047 51.65C124.468 51.314 124.02 50.8613 123.703 50.292C123.395 49.7227 123.241 49.0787 123.241 48.36C123.241 47.52 123.409 46.806 123.745 46.218C124.09 45.6207 124.538 45.1633 125.089 44.846C125.64 44.5287 126.223 44.37 126.839 44.37C127.315 44.37 127.763 44.468 128.183 44.664C128.612 44.86 128.99 45.1307 129.317 45.476C129.644 45.812 129.9 46.204 130.087 46.652C130.283 47.1 130.381 47.576 130.381 48.08C130.372 48.304 130.283 48.486 130.115 48.626C129.947 48.766 129.751 48.836 129.527 48.836H124.179L123.759 47.436H128.897L128.589 47.716V47.338C128.57 47.0673 128.472 46.8247 128.295 46.61C128.127 46.3953 127.912 46.2273 127.651 46.106C127.399 45.9753 127.128 45.91 126.839 45.91C126.559 45.91 126.298 45.9473 126.055 46.022C125.812 46.0967 125.602 46.2227 125.425 46.4C125.248 46.5773 125.108 46.8153 125.005 47.114C124.902 47.4127 124.851 47.7907 124.851 48.248C124.851 48.752 124.954 49.1813 125.159 49.536C125.374 49.8813 125.644 50.1473 125.971 50.334C126.307 50.5113 126.662 50.6 127.035 50.6C127.38 50.6 127.656 50.572 127.861 50.516C128.066 50.46 128.23 50.3947 128.351 50.32C128.482 50.236 128.598 50.166 128.701 50.11C128.869 50.026 129.028 49.984 129.177 49.984C129.382 49.984 129.55 50.054 129.681 50.194C129.821 50.334 129.891 50.4973 129.891 50.684C129.891 50.936 129.76 51.1647 129.499 51.37C129.256 51.5753 128.916 51.7573 128.477 51.916C128.038 52.0653 127.586 52.14 127.119 52.14ZM135.66 44.37C136.313 44.37 136.897 44.538 137.41 44.874C137.933 45.2007 138.343 45.6533 138.642 46.232C138.95 46.8107 139.104 47.4827 139.104 48.248C139.104 49.0133 138.95 49.69 138.642 50.278C138.343 50.8567 137.937 51.314 137.424 51.65C136.92 51.9767 136.351 52.14 135.716 52.14C135.343 52.14 134.993 52.0793 134.666 51.958C134.339 51.8367 134.05 51.6827 133.798 51.496C133.555 51.3093 133.364 51.1227 133.224 50.936C133.093 50.74 133.028 50.5767 133.028 50.446L133.462 50.264V51.286C133.462 51.5287 133.383 51.734 133.224 51.902C133.065 52.0607 132.865 52.14 132.622 52.14C132.379 52.14 132.179 52.0607 132.02 51.902C131.861 51.7433 131.782 51.538 131.782 51.286V42.494C131.782 42.2513 131.861 42.0507 132.02 41.892C132.179 41.724 132.379 41.64 132.622 41.64C132.865 41.64 133.065 41.724 133.224 41.892C133.383 42.0507 133.462 42.2513 133.462 42.494V46.05L133.224 45.924C133.224 45.8027 133.289 45.658 133.42 45.49C133.551 45.3127 133.728 45.14 133.952 44.972C134.176 44.7947 134.433 44.65 134.722 44.538C135.021 44.426 135.333 44.37 135.66 44.37ZM135.45 45.91C135.039 45.91 134.68 46.0127 134.372 46.218C134.064 46.4233 133.821 46.7033 133.644 47.058C133.476 47.4033 133.392 47.8 133.392 48.248C133.392 48.6867 133.476 49.088 133.644 49.452C133.821 49.8067 134.064 50.0867 134.372 50.292C134.68 50.4973 135.039 50.6 135.45 50.6C135.861 50.6 136.215 50.4973 136.514 50.292C136.822 50.0867 137.06 49.8067 137.228 49.452C137.405 49.088 137.494 48.6867 137.494 48.248C137.494 47.8 137.405 47.4033 137.228 47.058C137.06 46.7033 136.822 46.4233 136.514 46.218C136.215 46.0127 135.861 45.91 135.45 45.91ZM147.701 48.262C147.701 49.0273 147.528 49.704 147.183 50.292C146.847 50.8707 146.389 51.3233 145.811 51.65C145.241 51.9767 144.602 52.14 143.893 52.14C143.183 52.14 142.539 51.9767 141.961 51.65C141.391 51.3233 140.934 50.8707 140.589 50.292C140.253 49.704 140.085 49.0273 140.085 48.262C140.085 47.4967 140.253 46.8247 140.589 46.246C140.934 45.658 141.391 45.2007 141.961 44.874C142.539 44.538 143.183 44.37 143.893 44.37C144.602 44.37 145.241 44.538 145.811 44.874C146.389 45.2007 146.847 45.658 147.183 46.246C147.528 46.8247 147.701 47.4967 147.701 48.262ZM146.021 48.262C146.021 47.786 145.923 47.3753 145.727 47.03C145.54 46.6753 145.283 46.4 144.957 46.204C144.639 46.008 144.285 45.91 143.893 45.91C143.501 45.91 143.141 46.008 142.815 46.204C142.497 46.4 142.241 46.6753 142.045 47.03C141.858 47.3753 141.765 47.786 141.765 48.262C141.765 48.7287 141.858 49.1393 142.045 49.494C142.241 49.8393 142.497 50.11 142.815 50.306C143.141 50.502 143.501 50.6 143.893 50.6C144.285 50.6 144.639 50.502 144.957 50.306C145.283 50.11 145.54 49.8393 145.727 49.494C145.923 49.1393 146.021 48.7287 146.021 48.262ZM156.3 48.262C156.3 49.0273 156.128 49.704 155.782 50.292C155.446 50.8707 154.989 51.3233 154.41 51.65C153.841 51.9767 153.202 52.14 152.492 52.14C151.783 52.14 151.139 51.9767 150.56 51.65C149.991 51.3233 149.534 50.8707 149.188 50.292C148.852 49.704 148.684 49.0273 148.684 48.262C148.684 47.4967 148.852 46.8247 149.188 46.246C149.534 45.658 149.991 45.2007 150.56 44.874C151.139 44.538 151.783 44.37 152.492 44.37C153.202 44.37 153.841 44.538 154.41 44.874C154.989 45.2007 155.446 45.658 155.782 46.246C156.128 46.8247 156.3 47.4967 156.3 48.262ZM154.62 48.262C154.62 47.786 154.522 47.3753 154.326 47.03C154.14 46.6753 153.883 46.4 153.556 46.204C153.239 46.008 152.884 45.91 152.492 45.91C152.1 45.91 151.741 46.008 151.414 46.204C151.097 46.4 150.84 46.6753 150.644 47.03C150.458 47.3753 150.364 47.786 150.364 48.262C150.364 48.7287 150.458 49.1393 150.644 49.494C150.84 49.8393 151.097 50.11 151.414 50.306C151.741 50.502 152.1 50.6 152.492 50.6C152.884 50.6 153.239 50.502 153.556 50.306C153.883 50.11 154.14 49.8393 154.326 49.494C154.522 49.1393 154.62 48.7287 154.62 48.262ZM158.684 52C158.441 52 158.241 51.9207 158.082 51.762C157.923 51.594 157.844 51.3887 157.844 51.146V42.494C157.844 42.2513 157.923 42.0507 158.082 41.892C158.241 41.724 158.441 41.64 158.684 41.64C158.927 41.64 159.127 41.724 159.286 41.892C159.445 42.0507 159.524 42.2513 159.524 42.494V51.146C159.524 51.3887 159.445 51.594 159.286 51.762C159.127 51.9207 158.927 52 158.684 52ZM163.136 44.51C163.351 44.51 163.537 44.5987 163.696 44.776C163.855 44.9533 163.934 45.126 163.934 45.294C163.934 45.518 163.822 45.728 163.598 45.924L159.384 49.802L159.314 47.87L162.52 44.776C162.697 44.5987 162.903 44.51 163.136 44.51ZM163.346 51.986C163.103 51.986 162.898 51.8927 162.73 51.706L160.14 48.962L161.414 47.786L163.934 50.53C164.111 50.7167 164.2 50.9267 164.2 51.16C164.2 51.4027 164.102 51.6033 163.906 51.762C163.719 51.9113 163.533 51.986 163.346 51.986Z" fill="white"/>
<rect x="51" y="30" width="34" height="34" rx="7" fill="white"/>
<path d="M69.6841 57H65.6747V47.5H63V44.226L65.6747 44.2249L65.6703 42.2962C65.6703 39.6252 66.486 38 70.0293 38H72.9793V41.2746H71.1356C69.7558 41.2746 69.6894 41.7321 69.6894 42.5861L69.684 44.2249H73L72.6091 47.4989L69.6867 47.5L69.6841 57Z" fill="#5A77DE"/>
<defs>
<filter id="filter0_d" x="0" y="0" width="214" height="130" filterUnits="userSpaceOnUse" color-interpolation-filters="sRGB">
<feFlood flood-opacity="0" result="BackgroundImageFix"/>
<feColorMatrix in="SourceAlpha" type="matrix" values="0 0 0 0 0 0 0 0 0 0 0 0 0 0 0 0 0 0 127 0"/>
<feOffset dy="18"/>
<feGaussianBlur stdDeviation="18.5"/>
<feColorMatrix type="matrix" values="0 0 0 0 0.352941 0 0 0 0 0.466667 0 0 0 0 0.870588 0 0 0 0.2 0"/>
<feBlend mode="normal" in2="BackgroundImageFix" result="effect1_dropShadow"/>
<feBlend mode="normal" in="SourceGraphic" in2="effect1_dropShadow" result="shape"/>
</filter>
</defs>
</svg>
