<svg width="24" height="24" viewBox="0 0 24 24" fill="none" xmlns="http://www.w3.org/2000/svg">
<g clip-path="url(#clip0)">
<path d="M5.31891 14.5036L4.4835 17.6223L1.43011 17.6869C0.517594 15.9944 0 14.0579 0 12.0001C0 10.0102 0.483938 8.13374 1.34175 6.48145H1.34241L4.06078 6.97982L5.25159 9.68188C5.00236 10.4085 4.86652 11.1885 4.86652 12.0001C4.86661 12.881 5.02617 13.725 5.31891 14.5036Z" fill="#FBBB00"/>
<path d="M23.7904 9.7583C23.9282 10.4842 24.0001 11.2339 24.0001 12.0001C24.0001 12.8592 23.9098 13.6972 23.7377 14.5056C23.1535 17.2563 21.6272 19.6583 19.5127 21.3581L19.512 21.3574L16.0881 21.1827L15.6035 18.1576C17.0065 17.3348 18.103 16.0471 18.6806 14.5056H12.2639V9.7583H18.7742H23.7904Z" fill="#518EF8"/>
<path d="M19.5117 21.3572L19.5123 21.3579C17.4559 23.0109 14.8435 23.9999 11.9998 23.9999C7.42993 23.9999 3.45676 21.4456 1.42993 17.6867L5.31873 14.5034C6.33212 17.208 8.94113 19.1333 11.9998 19.1333C13.3145 19.1333 14.5462 18.7779 15.6031 18.1575L19.5117 21.3572Z" fill="#28B446"/>
<path d="M19.6599 2.76262L15.7724 5.94525C14.6785 5.26153 13.3855 4.86656 12.0003 4.86656C8.87237 4.86656 6.21456 6.88017 5.25193 9.68175L1.3427 6.48131H1.34204C3.3392 2.63077 7.36248 0 12.0003 0C14.9119 0 17.5816 1.03716 19.6599 2.76262Z" fill="#F14336"/>
</g>
<defs>
<clipPath id="clip0">
<rect width="24" height="24" fill="white"/>
</clipPath>
</defs>
</svg>
