<svg width="214" height="130" viewBox="0 0 214 130" fill="none" xmlns="http://www.w3.org/2000/svg">
<g filter="url(#filter0_d)">
<rect x="37" y="19" width="140" height="56" rx="14" fill="#FF6E40"/>
</g>
<path d="M104.888 52.14C104.178 52.14 103.516 52.0093 102.9 51.748C102.284 51.4867 101.742 51.1273 101.276 50.67C100.809 50.2033 100.44 49.6667 100.17 49.06C99.9084 48.4533 99.7778 47.8 99.7778 47.1C99.7778 46.4 99.9084 45.7467 100.17 45.14C100.44 44.5333 100.809 44.0013 101.276 43.544C101.742 43.0773 102.284 42.7133 102.9 42.452C103.516 42.1907 104.178 42.06 104.888 42.06C105.326 42.06 105.751 42.1067 106.162 42.2C106.572 42.2933 106.95 42.4333 107.296 42.62C107.436 42.6947 107.538 42.7973 107.604 42.928C107.678 43.0493 107.716 43.1753 107.716 43.306C107.716 43.53 107.641 43.7307 107.492 43.908C107.342 44.0853 107.151 44.174 106.918 44.174C106.843 44.174 106.764 44.1647 106.68 44.146C106.605 44.1273 106.53 44.0993 106.456 44.062C106.222 43.9593 105.975 43.88 105.714 43.824C105.452 43.768 105.177 43.74 104.888 43.74C104.281 43.74 103.726 43.894 103.222 44.202C102.727 44.5007 102.33 44.9067 102.032 45.42C101.742 45.924 101.598 46.484 101.598 47.1C101.598 47.7067 101.742 48.2667 102.032 48.78C102.33 49.2933 102.727 49.704 103.222 50.012C103.726 50.3107 104.281 50.46 104.888 50.46C105.168 50.46 105.476 50.432 105.812 50.376C106.148 50.32 106.423 50.2453 106.638 50.152L106.512 50.572V48.178L106.75 48.388H105.196C104.953 48.388 104.748 48.3087 104.58 48.15C104.421 47.9913 104.342 47.7907 104.342 47.548C104.342 47.3053 104.421 47.1047 104.58 46.946C104.748 46.7873 104.953 46.708 105.196 46.708H107.492C107.734 46.708 107.935 46.792 108.094 46.96C108.252 47.1187 108.332 47.3193 108.332 47.562V50.53C108.332 50.7167 108.285 50.8707 108.192 50.992C108.108 51.1133 108.01 51.2113 107.898 51.286C107.468 51.5473 106.997 51.7573 106.484 51.916C105.98 52.0653 105.448 52.14 104.888 52.14ZM117.072 48.262C117.072 49.0273 116.899 49.704 116.554 50.292C116.218 50.8707 115.76 51.3233 115.182 51.65C114.612 51.9767 113.973 52.14 113.264 52.14C112.554 52.14 111.91 51.9767 111.332 51.65C110.762 51.3233 110.305 50.8707 109.96 50.292C109.624 49.704 109.456 49.0273 109.456 48.262C109.456 47.4967 109.624 46.8247 109.96 46.246C110.305 45.658 110.762 45.2007 111.332 44.874C111.91 44.538 112.554 44.37 113.264 44.37C113.973 44.37 114.612 44.538 115.182 44.874C115.76 45.2007 116.218 45.658 116.554 46.246C116.899 46.8247 117.072 47.4967 117.072 48.262ZM115.392 48.262C115.392 47.786 115.294 47.3753 115.098 47.03C114.911 46.6753 114.654 46.4 114.328 46.204C114.01 46.008 113.656 45.91 113.264 45.91C112.872 45.91 112.512 46.008 112.186 46.204C111.868 46.4 111.612 46.6753 111.416 47.03C111.229 47.3753 111.136 47.786 111.136 48.262C111.136 48.7287 111.229 49.1393 111.416 49.494C111.612 49.8393 111.868 50.11 112.186 50.306C112.512 50.502 112.872 50.6 113.264 50.6C113.656 50.6 114.01 50.502 114.328 50.306C114.654 50.11 114.911 49.8393 115.098 49.494C115.294 49.1393 115.392 48.7287 115.392 48.262ZM125.671 48.262C125.671 49.0273 125.499 49.704 125.153 50.292C124.817 50.8707 124.36 51.3233 123.781 51.65C123.212 51.9767 122.573 52.14 121.863 52.14C121.154 52.14 120.51 51.9767 119.931 51.65C119.362 51.3233 118.905 50.8707 118.559 50.292C118.223 49.704 118.055 49.0273 118.055 48.262C118.055 47.4967 118.223 46.8247 118.559 46.246C118.905 45.658 119.362 45.2007 119.931 44.874C120.51 44.538 121.154 44.37 121.863 44.37C122.573 44.37 123.212 44.538 123.781 44.874C124.36 45.2007 124.817 45.658 125.153 46.246C125.499 46.8247 125.671 47.4967 125.671 48.262ZM123.991 48.262C123.991 47.786 123.893 47.3753 123.697 47.03C123.511 46.6753 123.254 46.4 122.927 46.204C122.61 46.008 122.255 45.91 121.863 45.91C121.471 45.91 121.112 46.008 120.785 46.204C120.468 46.4 120.211 46.6753 120.015 47.03C119.829 47.3753 119.735 47.786 119.735 48.262C119.735 48.7287 119.829 49.1393 120.015 49.494C120.211 49.8393 120.468 50.11 120.785 50.306C121.112 50.502 121.471 50.6 121.863 50.6C122.255 50.6 122.61 50.502 122.927 50.306C123.254 50.11 123.511 49.8393 123.697 49.494C123.893 49.1393 123.991 48.7287 123.991 48.262ZM130.113 44.37C130.505 44.37 130.864 44.4307 131.191 44.552C131.518 44.6733 131.798 44.8273 132.031 45.014C132.274 45.2007 132.46 45.392 132.591 45.588C132.731 45.7747 132.801 45.9333 132.801 46.064L132.437 46.246V45.224C132.437 44.9813 132.516 44.7807 132.675 44.622C132.834 44.454 133.034 44.37 133.277 44.37C133.52 44.37 133.72 44.4493 133.879 44.608C134.038 44.7667 134.117 44.972 134.117 45.224V51.454C134.117 52.266 133.94 52.9147 133.585 53.4C133.24 53.8947 132.782 54.2493 132.213 54.464C131.644 54.688 131.032 54.8 130.379 54.8C130.192 54.8 129.95 54.7767 129.651 54.73C129.352 54.6833 129.068 54.6273 128.797 54.562C128.526 54.4967 128.321 54.436 128.181 54.38C127.901 54.2587 127.705 54.1047 127.593 53.918C127.49 53.7407 127.472 53.5493 127.537 53.344C127.621 53.0733 127.756 52.8867 127.943 52.784C128.13 52.6907 128.326 52.6813 128.531 52.756C128.624 52.784 128.778 52.84 128.993 52.924C129.208 53.008 129.441 53.0827 129.693 53.148C129.954 53.2227 130.183 53.26 130.379 53.26C131.079 53.26 131.597 53.12 131.933 52.84C132.269 52.56 132.437 52.1727 132.437 51.678V50.46L132.605 50.586C132.605 50.7073 132.54 50.8567 132.409 51.034C132.288 51.202 132.115 51.37 131.891 51.538C131.676 51.706 131.42 51.8507 131.121 51.972C130.822 52.084 130.505 52.14 130.169 52.14C129.506 52.14 128.909 51.9767 128.377 51.65C127.845 51.314 127.425 50.8567 127.117 50.278C126.809 49.69 126.655 49.018 126.655 48.262C126.655 47.4967 126.809 46.8247 127.117 46.246C127.425 45.658 127.84 45.2007 128.363 44.874C128.886 44.538 129.469 44.37 130.113 44.37ZM130.379 45.91C129.959 45.91 129.59 46.0127 129.273 46.218C128.956 46.4233 128.708 46.7033 128.531 47.058C128.354 47.4127 128.265 47.814 128.265 48.262C128.265 48.7007 128.354 49.0973 128.531 49.452C128.708 49.8067 128.956 50.0867 129.273 50.292C129.59 50.4973 129.959 50.6 130.379 50.6C130.808 50.6 131.182 50.4973 131.499 50.292C131.816 50.0867 132.064 49.8067 132.241 49.452C132.418 49.0973 132.507 48.7007 132.507 48.262C132.507 47.814 132.418 47.4127 132.241 47.058C132.064 46.7033 131.816 46.4233 131.499 46.218C131.182 46.0127 130.808 45.91 130.379 45.91ZM137.754 51.146C137.754 51.3887 137.67 51.594 137.502 51.762C137.344 51.9207 137.143 52 136.9 52C136.667 52 136.471 51.9207 136.312 51.762C136.154 51.594 136.074 51.3887 136.074 51.146V42.494C136.074 42.2513 136.154 42.0507 136.312 41.892C136.48 41.724 136.686 41.64 136.928 41.64C137.171 41.64 137.367 41.724 137.516 41.892C137.675 42.0507 137.754 42.2513 137.754 42.494V51.146ZM143.029 52.14C142.236 52.14 141.545 51.9767 140.957 51.65C140.378 51.314 139.93 50.8613 139.613 50.292C139.305 49.7227 139.151 49.0787 139.151 48.36C139.151 47.52 139.319 46.806 139.655 46.218C140 45.6207 140.448 45.1633 140.999 44.846C141.55 44.5287 142.133 44.37 142.749 44.37C143.225 44.37 143.673 44.468 144.093 44.664C144.522 44.86 144.9 45.1307 145.227 45.476C145.554 45.812 145.81 46.204 145.997 46.652C146.193 47.1 146.291 47.576 146.291 48.08C146.282 48.304 146.193 48.486 146.025 48.626C145.857 48.766 145.661 48.836 145.437 48.836H140.089L139.669 47.436H144.807L144.499 47.716V47.338C144.48 47.0673 144.382 46.8247 144.205 46.61C144.037 46.3953 143.822 46.2273 143.561 46.106C143.309 45.9753 143.038 45.91 142.749 45.91C142.469 45.91 142.208 45.9473 141.965 46.022C141.722 46.0967 141.512 46.2227 141.335 46.4C141.158 46.5773 141.018 46.8153 140.915 47.114C140.812 47.4127 140.761 47.7907 140.761 48.248C140.761 48.752 140.864 49.1813 141.069 49.536C141.284 49.8813 141.554 50.1473 141.881 50.334C142.217 50.5113 142.572 50.6 142.945 50.6C143.29 50.6 143.566 50.572 143.771 50.516C143.976 50.46 144.14 50.3947 144.261 50.32C144.392 50.236 144.508 50.166 144.611 50.11C144.779 50.026 144.938 49.984 145.087 49.984C145.292 49.984 145.46 50.054 145.591 50.194C145.731 50.334 145.801 50.4973 145.801 50.684C145.801 50.936 145.67 51.1647 145.409 51.37C145.166 51.5753 144.826 51.7573 144.387 51.916C143.948 52.0653 143.496 52.14 143.029 52.14Z" fill="white"/>
<rect x="51" y="30" width="34" height="34" rx="7" fill="white"/>
<g clip-path="url(#clip0)">
<path d="M62.9892 48.8775L62.3626 51.2165L60.0726 51.2649C59.3882 49.9956 59 48.5432 59 46.9999C59 45.5074 59.363 44.1001 60.0063 42.8608H60.0068L62.0456 43.2346L62.9387 45.2612C62.7518 45.8061 62.6499 46.3911 62.6499 46.9999C62.65 47.6605 62.7696 48.2935 62.9892 48.8775Z" fill="#FBBB00"/>
<path d="M76.8428 45.3188C76.9461 45.8633 77 46.4255 77 47.0002C77 47.6445 76.9323 48.273 76.8032 48.8793C76.3651 50.9424 75.2203 52.7439 73.6344 54.0187L73.6339 54.0182L71.066 53.8872L70.7025 51.6184C71.7548 51.0012 72.5772 50.0354 73.0104 48.8793H68.1979V45.3188H73.0806H76.8428Z" fill="#518EF8"/>
<path d="M73.6339 54.0178L73.6344 54.0183C72.0921 55.258 70.1328 55.9998 68 55.9998C64.5726 55.9998 61.5928 54.0841 60.0726 51.2649L62.9892 48.8774C63.7493 50.9059 65.706 52.3499 68 52.3499C68.9861 52.3499 69.9098 52.0833 70.7025 51.618L73.6339 54.0178Z" fill="#28B446"/>
<path d="M73.7447 40.072L70.8291 42.4589C70.0087 41.9461 69.039 41.6499 68 41.6499C65.6541 41.6499 63.6607 43.1601 62.9388 45.2613L60.0068 42.861H60.0063C61.5042 39.9731 64.5217 38 68 38C70.1838 38 72.186 38.7779 73.7447 40.072Z" fill="#F14336"/>
</g>
<defs>
<filter id="filter0_d" x="0" y="0" width="214" height="130" filterUnits="userSpaceOnUse" color-interpolation-filters="sRGB">
<feFlood flood-opacity="0" result="BackgroundImageFix"/>
<feColorMatrix in="SourceAlpha" type="matrix" values="0 0 0 0 0 0 0 0 0 0 0 0 0 0 0 0 0 0 127 0"/>
<feOffset dy="18"/>
<feGaussianBlur stdDeviation="18.5"/>
<feColorMatrix type="matrix" values="0 0 0 0 1 0 0 0 0 0.431372 0 0 0 0 0.25098 0 0 0 0.2 0"/>
<feBlend mode="normal" in2="BackgroundImageFix" result="effect1_dropShadow"/>
<feBlend mode="normal" in="SourceGraphic" in2="effect1_dropShadow" result="shape"/>
</filter>
<clipPath id="clip0">
<rect width="18" height="18" fill="white" transform="translate(59 38)"/>
</clipPath>
</defs>
</svg>
