<svg width="34" height="34" viewBox="0 0 34 34" fill="none" xmlns="http://www.w3.org/2000/svg">
<rect width="34" height="34" rx="7" fill="white"/>
<g clip-path="url(#clip0)">
<path d="M11.9892 18.8775L11.3626 21.2165L9.07258 21.2649C8.3882 19.9956 8 18.5432 8 16.9999C8 15.5074 8.36295 14.1001 9.00631 12.8608H9.0068L11.0456 13.2346L11.9387 15.2612C11.7518 15.8061 11.6499 16.3911 11.6499 16.9999C11.65 17.6605 11.7696 18.2935 11.9892 18.8775Z" fill="#FBBB00"/>
<path d="M25.8428 15.3188C25.9461 15.8633 26 16.4255 26 17.0002C26 17.6445 25.9323 18.273 25.8032 18.8793C25.3651 20.9424 24.2203 22.7439 22.6344 24.0187L22.6339 24.0182L20.066 23.8872L19.7025 21.6184C20.7548 21.0012 21.5772 20.0354 22.0104 18.8793H17.1979V15.3188H22.0806H25.8428Z" fill="#518EF8"/>
<path d="M22.6339 24.0178L22.6344 24.0183C21.0921 25.258 19.1328 25.9998 17 25.9998C13.5726 25.9998 10.5928 24.0841 9.07263 21.2649L11.9892 18.8774C12.7493 20.9059 14.706 22.3499 17 22.3499C17.9861 22.3499 18.9098 22.0833 19.7025 21.618L22.6339 24.0178Z" fill="#28B446"/>
<path d="M22.7447 10.072L19.8291 12.4589C19.0087 11.9461 18.039 11.6499 17 11.6499C14.6541 11.6499 12.6607 13.1601 11.9388 15.2613L9.00684 12.861H9.00635C10.5042 9.97307 13.5217 8 17 8C19.1838 8 21.186 8.77787 22.7447 10.072Z" fill="#F14336"/>
</g>
<defs>
<clipPath id="clip0">
<rect width="18" height="18" fill="white" transform="translate(8 8)"/>
</clipPath>
</defs>
</svg>
