<svg width="34" height="34" viewBox="0 0 34 34" fill="none" xmlns="http://www.w3.org/2000/svg">
<mask id="mask0" mask-type="alpha" maskUnits="userSpaceOnUse" x="0" y="0" width="34" height="34">
<rect width="34" height="34" rx="7" fill="white"/>
</mask>
<g mask="url(#mask0)">
<path d="M29.0195 0H4.98047C2.23447 0 0 2.23447 0 4.98047V29.0195C0 31.7655 2.23447 34 4.98047 34H29.0195C31.7655 34 34 31.7655 34 29.0195V4.98047C34 2.23447 31.7655 0 29.0195 0ZM12.0195 26.9609H8.03516V13.0156H12.0195V26.9609ZM12.0195 11.0234H8.03516V7.03906H12.0195V11.0234ZM25.9648 26.9609H21.9805V18.9922C21.9805 17.8939 21.0866 17 19.9883 17C18.89 17 17.9961 17.8939 17.9961 18.9922V26.9609H14.0117V13.0156H17.9961V13.7666C19.0399 13.4421 19.718 13.0156 20.9844 13.0156C23.6865 13.0185 25.9648 15.4426 25.9648 18.3074V26.9609Z" fill="white"/>
</g>
</svg>
