<svg width="214" height="130" viewBox="0 0 214 130" fill="none" xmlns="http://www.w3.org/2000/svg">
<g filter="url(#filter0_d)">
<rect x="37" y="19" width="140" height="56" rx="14" fill="#78C7D6"/>
</g>
<mask id="mask0" mask-type="alpha" maskUnits="userSpaceOnUse" x="51" y="30" width="34" height="34">
<rect x="51" y="30" width="34" height="34" rx="7" fill="white"/>
</mask>
<g mask="url(#mask0)">
<path d="M80.0195 30H55.9805C53.2345 30 51 32.2345 51 34.9805V59.0195C51 61.7655 53.2345 64 55.9805 64H80.0195C82.7655 64 85 61.7655 85 59.0195V34.9805C85 32.2345 82.7655 30 80.0195 30ZM63.0195 56.9609H59.0352V43.0156H63.0195V56.9609ZM63.0195 41.0234H59.0352V37.0391H63.0195V41.0234ZM76.9648 56.9609H72.9805V48.9922C72.9805 47.8939 72.0866 47 70.9883 47C69.89 47 68.9961 47.8939 68.9961 48.9922V56.9609H65.0117V43.0156H68.9961V43.7666C70.0399 43.4421 70.718 43.0156 71.9844 43.0156C74.6865 43.0185 76.9648 45.4426 76.9648 48.3074V56.9609Z" fill="white"/>
</g>
<path d="M105.851 50.362C106.094 50.362 106.295 50.4413 106.453 50.6C106.621 50.7493 106.705 50.9453 106.705 51.188C106.705 51.4213 106.621 51.6173 106.453 51.776C106.295 51.9253 106.094 52 105.851 52H101.301C101.059 52 100.853 51.9207 100.685 51.762C100.527 51.594 100.447 51.3887 100.447 51.146V43.054C100.447 42.8113 100.531 42.6107 100.699 42.452C100.867 42.284 101.082 42.2 101.343 42.2C101.567 42.2 101.763 42.284 101.931 42.452C102.109 42.6107 102.197 42.8113 102.197 43.054V50.6L101.889 50.362H105.851ZM109.751 51.146C109.751 51.3887 109.671 51.594 109.513 51.762C109.354 51.9207 109.153 52 108.911 52C108.668 52 108.467 51.9207 108.309 51.762C108.15 51.594 108.071 51.3887 108.071 51.146V45.364C108.071 45.1213 108.15 44.9207 108.309 44.762C108.467 44.594 108.668 44.51 108.911 44.51C109.153 44.51 109.354 44.594 109.513 44.762C109.671 44.9207 109.751 45.1213 109.751 45.364V51.146ZM108.897 43.6C108.579 43.6 108.355 43.5487 108.225 43.446C108.094 43.3433 108.029 43.1613 108.029 42.9V42.634C108.029 42.3633 108.099 42.1813 108.239 42.088C108.388 41.9853 108.612 41.934 108.911 41.934C109.237 41.934 109.466 41.9853 109.597 42.088C109.727 42.1907 109.793 42.3727 109.793 42.634V42.9C109.793 43.1707 109.723 43.3573 109.583 43.46C109.443 43.5533 109.214 43.6 108.897 43.6ZM115.481 44.37C116.172 44.37 116.695 44.5147 117.049 44.804C117.413 45.0933 117.661 45.4807 117.791 45.966C117.931 46.442 118.001 46.974 118.001 47.562V51.146C118.001 51.3887 117.922 51.594 117.763 51.762C117.605 51.9207 117.404 52 117.161 52C116.919 52 116.718 51.9207 116.559 51.762C116.401 51.594 116.321 51.3887 116.321 51.146V47.562C116.321 47.254 116.279 46.9787 116.195 46.736C116.121 46.484 115.981 46.2833 115.775 46.134C115.57 45.9847 115.276 45.91 114.893 45.91C114.52 45.91 114.203 45.9847 113.941 46.134C113.689 46.2833 113.493 46.484 113.353 46.736C113.223 46.9787 113.157 47.254 113.157 47.562V51.146C113.157 51.3887 113.078 51.594 112.919 51.762C112.761 51.9207 112.56 52 112.317 52C112.075 52 111.874 51.9207 111.715 51.762C111.557 51.594 111.477 51.3887 111.477 51.146V45.364C111.477 45.1213 111.557 44.9207 111.715 44.762C111.874 44.594 112.075 44.51 112.317 44.51C112.56 44.51 112.761 44.594 112.919 44.762C113.078 44.9207 113.157 45.1213 113.157 45.364V45.966L112.947 45.924C113.031 45.7653 113.153 45.5973 113.311 45.42C113.47 45.2333 113.657 45.0607 113.871 44.902C114.086 44.7433 114.329 44.6173 114.599 44.524C114.87 44.4213 115.164 44.37 115.481 44.37ZM120.797 52C120.555 52 120.354 51.9207 120.195 51.762C120.037 51.594 119.957 51.3887 119.957 51.146V42.494C119.957 42.2513 120.037 42.0507 120.195 41.892C120.354 41.724 120.555 41.64 120.797 41.64C121.04 41.64 121.241 41.724 121.399 41.892C121.558 42.0507 121.637 42.2513 121.637 42.494V51.146C121.637 51.3887 121.558 51.594 121.399 51.762C121.241 51.9207 121.04 52 120.797 52ZM125.249 44.51C125.464 44.51 125.651 44.5987 125.809 44.776C125.968 44.9533 126.047 45.126 126.047 45.294C126.047 45.518 125.935 45.728 125.711 45.924L121.497 49.802L121.427 47.87L124.633 44.776C124.811 44.5987 125.016 44.51 125.249 44.51ZM125.459 51.986C125.217 51.986 125.011 51.8927 124.843 51.706L122.253 48.962L123.527 47.786L126.047 50.53C126.225 50.7167 126.313 50.9267 126.313 51.16C126.313 51.4027 126.215 51.6033 126.019 51.762C125.833 51.9113 125.646 51.986 125.459 51.986ZM130.931 52.14C130.138 52.14 129.447 51.9767 128.859 51.65C128.281 51.314 127.833 50.8613 127.515 50.292C127.207 49.7227 127.053 49.0787 127.053 48.36C127.053 47.52 127.221 46.806 127.557 46.218C127.903 45.6207 128.351 45.1633 128.901 44.846C129.452 44.5287 130.035 44.37 130.651 44.37C131.127 44.37 131.575 44.468 131.995 44.664C132.425 44.86 132.803 45.1307 133.129 45.476C133.456 45.812 133.713 46.204 133.899 46.652C134.095 47.1 134.193 47.576 134.193 48.08C134.184 48.304 134.095 48.486 133.927 48.626C133.759 48.766 133.563 48.836 133.339 48.836H127.991L127.571 47.436H132.709L132.401 47.716V47.338C132.383 47.0673 132.285 46.8247 132.107 46.61C131.939 46.3953 131.725 46.2273 131.463 46.106C131.211 45.9753 130.941 45.91 130.651 45.91C130.371 45.91 130.11 45.9473 129.867 46.022C129.625 46.0967 129.415 46.2227 129.237 46.4C129.06 46.5773 128.92 46.8153 128.817 47.114C128.715 47.4127 128.663 47.7907 128.663 48.248C128.663 48.752 128.766 49.1813 128.971 49.536C129.186 49.8813 129.457 50.1473 129.783 50.334C130.119 50.5113 130.474 50.6 130.847 50.6C131.193 50.6 131.468 50.572 131.673 50.516C131.879 50.46 132.042 50.3947 132.163 50.32C132.294 50.236 132.411 50.166 132.513 50.11C132.681 50.026 132.84 49.984 132.989 49.984C133.195 49.984 133.363 50.054 133.493 50.194C133.633 50.334 133.703 50.4973 133.703 50.684C133.703 50.936 133.573 51.1647 133.311 51.37C133.069 51.5753 132.728 51.7573 132.289 51.916C131.851 52.0653 131.398 52.14 130.931 52.14ZM141.657 41.64C141.899 41.64 142.1 41.7193 142.259 41.878C142.417 42.0367 142.497 42.242 142.497 42.494V51.146C142.497 51.3887 142.417 51.594 142.259 51.762C142.1 51.9207 141.899 52 141.657 52C141.414 52 141.213 51.9207 141.055 51.762C140.896 51.594 140.817 51.3887 140.817 51.146V50.46L141.125 50.586C141.125 50.7073 141.059 50.8567 140.929 51.034C140.798 51.202 140.621 51.37 140.397 51.538C140.173 51.706 139.907 51.8507 139.599 51.972C139.3 52.084 138.973 52.14 138.619 52.14C137.975 52.14 137.391 51.9767 136.869 51.65C136.346 51.314 135.931 50.8567 135.623 50.278C135.324 49.69 135.175 49.018 135.175 48.262C135.175 47.4967 135.324 46.8247 135.623 46.246C135.931 45.658 136.341 45.2007 136.855 44.874C137.368 44.538 137.937 44.37 138.563 44.37C138.964 44.37 139.333 44.4307 139.669 44.552C140.005 44.6733 140.294 44.8273 140.537 45.014C140.789 45.2007 140.98 45.392 141.111 45.588C141.251 45.7747 141.321 45.9333 141.321 46.064L140.817 46.246V42.494C140.817 42.2513 140.896 42.0507 141.055 41.892C141.213 41.724 141.414 41.64 141.657 41.64ZM138.829 50.6C139.239 50.6 139.599 50.4973 139.907 50.292C140.215 50.0867 140.453 49.8067 140.621 49.452C140.798 49.0973 140.887 48.7007 140.887 48.262C140.887 47.814 140.798 47.4127 140.621 47.058C140.453 46.7033 140.215 46.4233 139.907 46.218C139.599 46.0127 139.239 45.91 138.829 45.91C138.427 45.91 138.073 46.0127 137.765 46.218C137.457 46.4233 137.214 46.7033 137.037 47.058C136.869 47.4127 136.785 47.814 136.785 48.262C136.785 48.7007 136.869 49.0973 137.037 49.452C137.214 49.8067 137.457 50.0867 137.765 50.292C138.073 50.4973 138.427 50.6 138.829 50.6ZM146.207 51.146C146.207 51.3887 146.119 51.594 145.941 51.762C145.764 51.9207 145.559 52 145.325 52C145.064 52 144.854 51.9207 144.695 51.762C144.537 51.594 144.457 51.3887 144.457 51.146V43.054C144.457 42.8113 144.541 42.6107 144.709 42.452C144.877 42.284 145.092 42.2 145.353 42.2C145.577 42.2 145.773 42.284 145.941 42.452C146.119 42.6107 146.207 42.8113 146.207 43.054V51.146ZM152.177 44.37C152.867 44.37 153.39 44.5147 153.745 44.804C154.109 45.0933 154.356 45.4807 154.487 45.966C154.627 46.442 154.697 46.974 154.697 47.562V51.146C154.697 51.3887 154.617 51.594 154.459 51.762C154.3 51.9207 154.099 52 153.857 52C153.614 52 153.413 51.9207 153.255 51.762C153.096 51.594 153.017 51.3887 153.017 51.146V47.562C153.017 47.254 152.975 46.9787 152.891 46.736C152.816 46.484 152.676 46.2833 152.471 46.134C152.265 45.9847 151.971 45.91 151.589 45.91C151.215 45.91 150.898 45.9847 150.637 46.134C150.385 46.2833 150.189 46.484 150.049 46.736C149.918 46.9787 149.853 47.254 149.853 47.562V51.146C149.853 51.3887 149.773 51.594 149.615 51.762C149.456 51.9207 149.255 52 149.013 52C148.77 52 148.569 51.9207 148.411 51.762C148.252 51.594 148.173 51.3887 148.173 51.146V45.364C148.173 45.1213 148.252 44.9207 148.411 44.762C148.569 44.594 148.77 44.51 149.013 44.51C149.255 44.51 149.456 44.594 149.615 44.762C149.773 44.9207 149.853 45.1213 149.853 45.364V45.966L149.643 45.924C149.727 45.7653 149.848 45.5973 150.007 45.42C150.165 45.2333 150.352 45.0607 150.567 44.902C150.781 44.7433 151.024 44.6173 151.295 44.524C151.565 44.4213 151.859 44.37 152.177 44.37Z" fill="white"/>
<defs>
<filter id="filter0_d" x="0" y="0" width="214" height="130" filterUnits="userSpaceOnUse" color-interpolation-filters="sRGB">
<feFlood flood-opacity="0" result="BackgroundImageFix"/>
<feColorMatrix in="SourceAlpha" type="matrix" values="0 0 0 0 0 0 0 0 0 0 0 0 0 0 0 0 0 0 127 0"/>
<feOffset dy="18"/>
<feGaussianBlur stdDeviation="18.5"/>
<feColorMatrix type="matrix" values="0 0 0 0 0.470588 0 0 0 0 0.780392 0 0 0 0 0.839216 0 0 0 0.2 0"/>
<feBlend mode="normal" in2="BackgroundImageFix" result="effect1_dropShadow"/>
<feBlend mode="normal" in="SourceGraphic" in2="effect1_dropShadow" result="shape"/>
</filter>
</defs>
</svg>
