<svg width="1197" height="384" viewBox="0 0 1197 384" fill="none" xmlns="http://www.w3.org/2000/svg">
<g filter="url(#filter0_d)">
<rect x="1104.11" y="10" width="90.6573" height="90.6573" rx="28" transform="rotate(45 1104.11 10)" fill="white"/>
</g>
<path d="M1104 51.5C1099.55 51.5 1095.2 52.8196 1091.5 55.2919C1087.8 57.7643 1084.92 61.2783 1083.21 65.3896C1081.51 69.501 1081.06 74.025 1081.93 78.3895C1082.8 82.7541 1084.94 86.7632 1088.09 89.9099C1091.24 93.0566 1095.25 95.1995 1099.61 96.0677C1103.98 96.9358 1108.5 96.4903 1112.61 94.7873C1116.72 93.0843 1120.24 90.2004 1122.71 86.5003C1125.18 82.8002 1126.5 78.4501 1126.5 74C1126.5 68.0342 1124.12 62.3142 1119.9 58.0958C1115.69 53.8774 1109.97 51.5052 1104 51.5ZM1115.03 67.025L1100.03 82.025C1099.96 82.0961 1099.88 82.1526 1099.79 82.1913C1099.7 82.23 1099.6 82.2499 1099.5 82.2499C1099.4 82.2499 1099.31 82.23 1099.22 82.1913C1099.12 82.1526 1099.04 82.0961 1098.98 82.025L1092.98 76.025C1092.84 75.8853 1092.76 75.6972 1092.76 75.5016C1092.76 75.3059 1092.84 75.1186 1092.98 74.9803C1093.12 74.8419 1093.31 74.7638 1093.5 74.7628C1093.7 74.7618 1093.89 74.8381 1094.03 74.975L1099.5 80.45L1113.98 65.975C1114.04 65.9049 1114.13 65.8491 1114.22 65.8109C1114.31 65.7726 1114.4 65.7527 1114.5 65.7522C1114.6 65.7517 1114.7 65.7707 1114.79 65.808C1114.88 65.8453 1114.96 65.9003 1115.03 65.9697C1115.1 66.0391 1115.16 66.1215 1115.19 66.2123C1115.23 66.303 1115.25 66.4003 1115.25 66.4984C1115.25 66.5966 1115.23 66.6936 1115.19 66.784C1115.15 66.8744 1115.1 66.9563 1115.03 67.025Z" fill="#65D1AD"/>
<rect x="1181.09" y="361.705" width="18" height="18" rx="4" transform="rotate(75 1181.09 361.705)" fill="#FDB441"/>
<rect x="22.7522" y="303.092" width="18" height="18" rx="4" transform="rotate(165 22.7522 303.092)" fill="#FDB441"/>
<rect x="50.7244" y="34" width="18" height="18" rx="4" transform="rotate(45 50.7244 34)" fill="#FF676B"/>
<g filter="url(#filter1_d)">
<rect x="66" y="129" width="99" height="99" rx="49.5" fill="white"/>
</g>
<path d="M115 177.554C118.811 177.554 122.214 173.725 122.214 168.577C122.214 165.845 121.903 163.611 120.897 162.068C119.955 160.624 118.271 159.6 115 159.6C111.729 159.6 110.045 160.624 109.103 162.068C108.096 163.611 107.786 165.845 107.786 168.577L115 177.554ZM115 177.554C111.189 177.554 107.786 173.725 107.786 168.577L115 177.554Z" stroke="#FF676B" stroke-width="2"/>
<path d="M129.514 194.497L129.514 194.293L129.514 194.117L129.514 194.085C129.513 194.06 129.512 194.027 129.51 193.983C129.506 193.884 129.502 193.71 129.497 193.401L129.514 194.497ZM129.514 194.497C129.452 194.579 129.361 194.688 129.234 194.817C128.891 195.169 128.28 195.682 127.259 196.21C125.214 197.268 121.504 198.4 115 198.4C108.496 198.4 104.786 197.268 102.742 196.21C101.721 195.682 101.109 195.169 100.766 194.817C100.642 194.69 100.552 194.583 100.489 194.501C100.494 194.157 100.505 193.631 100.516 193.118C100.52 192.955 100.523 192.792 100.527 192.638C100.533 192.346 100.539 192.083 100.543 191.904C100.543 191.866 100.544 191.832 100.544 191.801C100.545 191.763 100.546 191.731 100.546 191.708C100.687 187.839 101.128 185.515 102.313 183.933C103.556 182.274 105.78 181.235 110.168 180.398C110.385 180.588 110.681 180.816 111.064 181.042C111.936 181.555 113.234 182.04 115 182.04C116.766 182.04 118.064 181.555 118.937 181.042C119.319 180.817 119.616 180.588 119.832 180.398C124.271 181.245 126.496 182.298 127.73 183.991C129.047 185.797 129.42 188.553 129.497 193.401L129.514 194.497Z" fill="#FF676B" fill-opacity="0.1" stroke="#FF676B" stroke-width="2"/>
<path d="M132.071 168.669C132.071 172.783 129.359 175.772 126.399 175.772C125.828 175.772 125.274 175.665 124.748 175.463C125.83 173.399 126.404 171.03 126.404 168.577C126.404 166.567 126.28 163.98 125.358 161.615C125.679 161.583 126.026 161.566 126.399 161.566C129.012 161.566 130.311 162.38 131.032 163.486C131.817 164.689 132.071 166.455 132.071 168.669Z" stroke="#78C7D6" stroke-width="2"/>
<path d="M129.692 178.955C129.974 178.788 130.202 178.62 130.378 178.472C133.916 179.155 135.637 179.997 136.587 181.299C137.534 182.598 137.87 184.547 137.966 187.927C137.967 188.041 137.973 188.356 137.979 188.696C137.98 188.761 137.982 188.827 137.983 188.893C137.988 189.173 137.993 189.453 137.996 189.661C137.991 189.666 137.987 189.672 137.982 189.678C137.852 189.833 137.615 190.079 137.22 190.366C136.563 190.842 135.454 191.443 133.654 191.916C133.514 187.456 133.004 184.066 131.088 181.439L130.28 182.028L131.088 181.439C130.475 180.598 129.756 179.898 128.973 179.311C129.242 179.2 129.481 179.079 129.692 178.955Z" fill="#78C7D6" fill-opacity="0.1" stroke="#78C7D6" stroke-width="2"/>
<path d="M105.251 175.463C104.726 175.665 104.172 175.773 103.6 175.773C100.641 175.773 97.929 172.783 97.929 168.669C97.929 166.455 98.183 164.69 98.9681 163.486C99.6889 162.381 100.987 161.566 103.6 161.566C103.974 161.566 104.321 161.583 104.642 161.615C103.72 163.98 103.595 166.567 103.595 168.577C103.595 171.03 104.17 173.399 105.251 175.463Z" stroke="#78C7D6" stroke-width="2"/>
<path d="M100.308 178.955C100.519 179.079 100.758 179.2 101.027 179.311C100.244 179.898 99.5248 180.598 98.9118 181.439C96.9957 184.066 96.4862 187.456 96.3462 191.916C94.5462 191.442 93.4372 190.842 92.7801 190.366C92.3852 190.079 92.1478 189.833 92.0182 189.678C92.0135 189.672 92.0089 189.666 92.0044 189.661C92.0083 189.426 92.0146 189.094 92.0212 188.76C92.0229 188.675 92.0245 188.589 92.0262 188.504C92.0335 188.133 92.0402 187.794 92.0417 187.668C92.1476 184.447 92.4901 182.565 93.4132 181.299C94.3626 179.997 96.0837 179.155 99.6221 178.472C99.7978 178.62 100.025 178.788 100.308 178.955Z" fill="#78C7D6" fill-opacity="0.1" stroke="#78C7D6" stroke-width="2"/>
<g clip-path="url(#clip0)">
<path d="M1088.46 251.266L1085.23 227.547L1100.32 222.156L1129.43 220L1099.24 236.172L1088.46 251.266Z" fill="#8193EA"/>
<path d="M1090.62 232.937L1088.46 251.266L1129.43 220L1090.62 232.937Z" fill="#A5B1EF"/>
<path d="M1090.62 232.937L1111.33 244.329C1111.81 244.595 1112.42 244.453 1112.74 244L1129.43 220L1090.62 232.937Z" fill="#6C7FD8"/>
<path d="M1085.23 227.547L1074.98 222.027C1073.99 221.496 1074.37 220 1075.49 220H1129.43L1085.23 227.547Z" fill="#6C7FD8"/>
<path d="M1078.99 262.64C1078.42 262.64 1077.95 262.202 1077.91 261.631C1077.87 261.037 1078.32 260.524 1078.92 260.486C1079.21 260.467 1079.5 260.456 1079.78 260.452C1079.79 260.452 1079.79 260.451 1079.8 260.451C1080.38 260.451 1080.87 260.923 1080.87 261.513C1080.88 262.109 1080.41 262.599 1079.81 262.608C1079.56 262.611 1079.31 262.621 1079.06 262.638C1079.03 262.639 1079.01 262.64 1078.99 262.64Z" fill="#78C7D6"/>
<path d="M1084.44 263.271C1084.33 263.271 1084.21 263.254 1084.1 263.218C1083.66 263.074 1083.19 262.953 1082.71 262.859C1082.13 262.744 1081.74 262.178 1081.86 261.594C1081.97 261.009 1082.54 260.628 1083.12 260.743C1083.69 260.854 1084.24 260.996 1084.77 261.167C1085.34 261.351 1085.65 261.959 1085.46 262.526C1085.31 262.981 1084.89 263.271 1084.44 263.271Z" fill="#78C7D6"/>
<path d="M1081.9 279.302C1081.33 279.302 1080.85 278.854 1080.83 278.277C1080.8 277.683 1081.25 277.177 1081.85 277.147L1081.93 277.143C1082.37 277.115 1082.81 277.056 1083.23 276.967C1083.81 276.842 1084.39 277.213 1084.51 277.795C1084.64 278.377 1084.26 278.95 1083.68 279.075C1083.16 279.187 1082.61 279.261 1082.06 279.295C1082.03 279.297 1081.99 279.299 1081.96 279.301C1081.94 279.302 1081.92 279.302 1081.9 279.302ZM1078.82 278.859C1078.7 278.859 1078.58 278.839 1078.46 278.797C1077.9 278.599 1077.36 278.344 1076.85 278.038C1076.34 277.732 1076.17 277.07 1076.48 276.559C1076.78 276.049 1077.44 275.882 1077.95 276.188C1078.34 276.421 1078.75 276.615 1079.18 276.765C1079.65 276.933 1079.95 277.425 1079.89 277.924C1079.81 278.453 1079.35 278.859 1078.82 278.859ZM1086.34 277.916C1085.85 277.916 1085.41 277.567 1085.29 277.086C1085.19 276.646 1085.38 276.177 1085.76 275.932C1086.14 275.686 1086.5 275.402 1086.83 275.088C1087.26 274.678 1087.95 274.695 1088.35 275.127C1088.76 275.559 1088.75 276.241 1088.32 276.651C1087.89 277.058 1087.42 277.425 1086.93 277.744C1086.75 277.86 1086.54 277.916 1086.34 277.916ZM1075.08 276.113C1074.75 276.113 1074.43 275.969 1074.22 275.695C1073.87 275.237 1073.55 274.741 1073.27 274.222C1073 273.695 1073.2 273.043 1073.72 272.764C1074.25 272.486 1074.9 272.687 1075.18 273.213C1075.4 273.624 1075.65 274.015 1075.93 274.375C1076.46 275.069 1075.96 276.113 1075.08 276.113ZM1089.42 274.429C1088.63 274.429 1088.1 273.577 1088.45 272.875C1088.65 272.461 1088.82 272.027 1088.95 271.585C1089.12 271.014 1089.72 270.688 1090.29 270.857C1090.86 271.025 1091.19 271.625 1091.02 272.196C1090.86 272.755 1090.64 273.304 1090.38 273.827C1090.2 274.208 1089.81 274.429 1089.42 274.429ZM1073.23 271.835C1072.71 271.835 1072.26 271.464 1072.17 270.939C1072.07 270.378 1072.01 269.8 1072 269.222C1071.99 268.626 1072.46 268.133 1073.05 268.119C1073.65 268.107 1074.14 268.576 1074.16 269.172C1074.17 269.645 1074.21 270.117 1074.29 270.575C1074.4 271.224 1073.89 271.835 1073.23 271.835ZM1090.33 269.866C1089.77 269.866 1089.3 269.437 1089.25 268.872C1089.22 268.415 1089.14 267.977 1089.01 267.57C1088.83 267.002 1089.15 266.397 1089.72 266.22C1090.29 266.043 1090.89 266.36 1091.07 266.929C1091.24 267.489 1091.36 268.086 1091.4 268.704C1091.45 269.323 1090.95 269.866 1090.33 269.866ZM1073.44 267.167C1072.74 267.167 1072.21 266.481 1072.4 265.806C1072.53 265.316 1072.73 264.756 1072.97 264.187C1073.2 263.639 1073.84 263.384 1074.38 263.618C1074.93 263.851 1075.19 264.484 1074.95 265.032C1074.7 265.638 1074.55 266.094 1074.48 266.371C1074.35 266.851 1073.91 267.167 1073.44 267.167ZM1088.44 265.662C1088.16 265.662 1087.87 265.552 1087.66 265.332C1087.36 265.016 1087.01 264.719 1086.63 264.45C1086.14 264.108 1086.02 263.435 1086.36 262.948C1086.71 262.461 1087.38 262.343 1087.87 262.686C1088.36 263.034 1088.81 263.421 1089.21 263.836C1089.63 264.265 1089.61 264.947 1089.19 265.36C1088.98 265.562 1088.71 265.662 1088.44 265.662ZM1075.45 262.93C1074.61 262.93 1074.09 261.961 1074.55 261.259C1074.85 260.801 1075.18 260.348 1075.52 259.913C1075.88 259.444 1076.56 259.36 1077.03 259.726C1077.5 260.092 1077.59 260.77 1077.22 261.239C1076.92 261.629 1076.62 262.034 1076.36 262.444C1076.15 262.759 1075.8 262.93 1075.45 262.93ZM1078.49 259.342C1077.53 259.342 1077.05 258.127 1077.75 257.475C1078.15 257.101 1078.58 256.738 1079.01 256.397C1079.47 256.027 1080.15 256.105 1080.52 256.571C1080.89 257.037 1080.81 257.716 1080.35 258.086C1079.96 258.392 1079.58 258.717 1079.22 259.053C1079.01 259.247 1078.75 259.342 1078.49 259.342ZM1082.28 256.569C1081.81 256.569 1081.38 256.249 1081.24 255.803C1081.1 255.33 1081.31 254.796 1081.75 254.553C1082.22 254.284 1082.71 254.029 1083.21 253.796C1083.75 253.543 1084.39 253.774 1084.65 254.313C1084.9 254.852 1084.67 255.494 1084.13 255.747C1083.68 255.958 1083.23 256.188 1082.81 256.43C1082.64 256.524 1082.46 256.569 1082.28 256.569Z" fill="#78C7D6"/>
<path d="M1086.61 254.722C1086.07 254.722 1085.6 254.309 1085.54 253.776C1085.47 253.263 1085.8 252.763 1086.29 252.613C1086.56 252.531 1086.83 252.453 1087.11 252.38C1087.68 252.227 1088.27 252.568 1088.43 253.144C1088.58 253.719 1088.24 254.31 1087.66 254.463C1087.41 254.53 1087.16 254.601 1086.92 254.675C1086.82 254.707 1086.71 254.722 1086.61 254.722Z" fill="#78C7D6"/>
<path d="M1064.75 289C1064.35 289 1063.98 288.787 1063.79 288.416C1063.66 288.164 1063.53 287.907 1063.41 287.651C1063.16 287.112 1063.39 286.47 1063.93 286.219C1064.47 285.967 1065.11 286.201 1065.37 286.74C1065.47 286.97 1065.59 287.201 1065.7 287.427C1066.07 288.131 1065.54 289 1064.75 289Z" fill="#78C7D6"/>
<path d="M1063.33 285.441C1062.86 285.441 1062.43 285.132 1062.29 284.657C1062.15 284.143 1062.02 283.618 1061.92 283.097C1061.8 282.513 1062.19 281.947 1062.77 281.833C1063.35 281.719 1063.92 282.1 1064.03 282.684C1064.13 283.146 1064.24 283.611 1064.37 284.068C1064.56 284.746 1064.03 285.441 1063.33 285.441Z" fill="#78C7D6"/>
<path d="M1062.65 280.962C1062.07 280.962 1061.59 280.494 1061.57 279.907C1061.57 279.771 1061.57 279.636 1061.57 279.501C1061.57 279.103 1061.58 278.7 1061.61 278.302C1061.65 277.708 1062.16 277.259 1062.75 277.295C1063.35 277.333 1063.8 277.845 1063.76 278.44C1063.74 278.792 1063.73 279.149 1063.73 279.501C1063.73 279.62 1063.73 279.74 1063.73 279.861C1063.74 280.456 1063.27 280.949 1062.68 280.962C1062.67 280.962 1062.66 280.962 1062.65 280.962ZM1063.13 276.459C1062.45 276.459 1061.92 275.8 1062.08 275.134C1062.2 274.617 1062.35 274.099 1062.51 273.591C1062.69 273.025 1063.3 272.714 1063.87 272.896C1064.43 273.079 1064.74 273.687 1064.56 274.254C1064.42 274.706 1064.29 275.168 1064.18 275.627C1064.06 276.124 1063.62 276.459 1063.13 276.459ZM1064.69 272.206C1063.9 272.206 1063.37 271.341 1063.73 270.638C1063.97 270.164 1064.24 269.695 1064.51 269.243C1064.83 268.736 1065.49 268.577 1066 268.889C1066.5 269.201 1066.66 269.865 1066.35 270.373C1066.1 270.776 1065.87 271.194 1065.65 271.617C1065.46 271.991 1065.08 272.206 1064.69 272.206ZM1067.22 268.449C1066.31 268.449 1065.82 267.343 1066.41 266.661C1066.67 266.363 1066.94 266.073 1067.22 265.799C1067.32 265.697 1067.42 265.596 1067.53 265.497C1067.96 265.086 1068.64 265.102 1069.05 265.533C1069.46 265.964 1069.44 266.646 1069.01 267.057C1068.92 267.145 1068.83 267.234 1068.74 267.324C1068.5 267.564 1068.26 267.819 1068.03 268.08C1067.82 268.324 1067.52 268.449 1067.22 268.449Z" fill="#78C7D6"/>
<path d="M1070.63 265.467C1070.29 265.467 1069.94 265.298 1069.74 264.985C1069.41 264.489 1069.54 263.82 1070.04 263.49C1070.28 263.333 1070.52 263.179 1070.76 263.032C1071.28 262.727 1071.94 262.894 1072.24 263.405C1072.55 263.916 1072.38 264.578 1071.87 264.884C1071.66 265.012 1071.44 265.148 1071.23 265.287C1071.05 265.409 1070.84 265.467 1070.63 265.467Z" fill="#78C7D6"/>
</g>
<defs>
<filter id="filter0_d" x="1012" y="0" width="184.209" height="184.209" filterUnits="userSpaceOnUse" color-interpolation-filters="sRGB">
<feFlood flood-opacity="0" result="BackgroundImageFix"/>
<feColorMatrix in="SourceAlpha" type="matrix" values="0 0 0 0 0 0 0 0 0 0 0 0 0 0 0 0 0 0 127 0"/>
<feOffset dy="18"/>
<feGaussianBlur stdDeviation="14"/>
<feColorMatrix type="matrix" values="0 0 0 0 0.466667 0 0 0 0 0.82353 0 0 0 0 0.913725 0 0 0 0.2 0"/>
<feBlend mode="normal" in2="BackgroundImageFix" result="effect1_dropShadow"/>
<feBlend mode="normal" in="SourceGraphic" in2="effect1_dropShadow" result="shape"/>
</filter>
<filter id="filter1_d" x="29" y="110" width="173" height="173" filterUnits="userSpaceOnUse" color-interpolation-filters="sRGB">
<feFlood flood-opacity="0" result="BackgroundImageFix"/>
<feColorMatrix in="SourceAlpha" type="matrix" values="0 0 0 0 0 0 0 0 0 0 0 0 0 0 0 0 0 0 127 0"/>
<feOffset dy="18"/>
<feGaussianBlur stdDeviation="18.5"/>
<feColorMatrix type="matrix" values="0 0 0 0 1 0 0 0 0 0.403922 0 0 0 0 0.419608 0 0 0 0.3 0"/>
<feBlend mode="normal" in2="BackgroundImageFix" result="effect1_dropShadow"/>
<feBlend mode="normal" in="SourceGraphic" in2="effect1_dropShadow" result="shape"/>
</filter>
<clipPath id="clip0">
<rect width="69" height="69" fill="white" transform="translate(1061 220)"/>
</clipPath>
</defs>
</svg>
