<?xml version="1.0" encoding="utf-8" ?>
<svg xmlns="http://www.w3.org/2000/svg" xmlns:xlink="http://www.w3.org/1999/xlink" width="15" height="15">
    <defs>
        <clipPath id="clip_0">
            <rect x="-1150.5598" y="-880.95996" width="1536" height="984" clip-rule="evenodd"/>
        </clipPath>
        <linearGradient id="gradient_0" gradientUnits="userSpaceOnUse" x1="7.6071439" y1="12.598836" x2="7.6071439"
                        y2="-7.0914297">
            <stop offset="0" stop-color="rgb(243,112,115)"/>
            <stop offset="1" stop-color="rgb(248,78,130)"/>
        </linearGradient>
    </defs>
    <g clip-path="url(#clip_0)">
        <path fill="url(#gradient_0)" stroke="none" transform="matrix(0.96 0 0 0.96 0.47998 0.320007)"
              d="M14.5714 12.7026L14.5714 1.86886C14.5714 1.35658 14.388 0.917042 14.0212 0.550224C13.6544 0.183407 13.2148 0 12.7026 0L1.86886 0C1.35658 0 0.917041 0.183407 0.550223 0.550224C0.183406 0.917042 0 1.35658 0 1.86886L0 12.7026C0 13.2148 0.183406 13.6544 0.550223 14.0212C0.917041 14.388 1.35658 14.5714 1.86886 14.5714L12.7026 14.5714C13.2148 14.5714 13.6544 14.388 14.0212 14.0212C14.388 13.6544 14.5714 13.2148 14.5714 12.7026ZM12.9208 3.84208L12.9208 2.27679C12.9208 2.0997 12.8575 1.94634 12.731 1.81669C12.6045 1.68704 12.4496 1.62221 12.2662 1.62221L10.6155 1.62221C10.4321 1.62221 10.2772 1.68704 10.1507 1.81669C10.0242 1.94634 9.96094 2.0997 9.96094 2.27679L9.96094 3.84208C9.96094 4.02549 10.0242 4.18043 10.1507 4.30692C10.2772 4.43341 10.4321 4.49665 10.6155 4.49665L12.2662 4.49665C12.4496 4.49665 12.6045 4.43341 12.731 4.30692C12.8575 4.18043 12.9208 4.02549 12.9208 3.84208ZM9.36802 5.25084C9.94039 5.80423 10.2266 6.47302 10.2266 7.25726C10.2266 8.04148 9.94039 8.71028 9.36802 9.26367C8.79566 9.81706 8.10473 10.0938 7.2952 10.0938C6.492 10.0938 5.80422 9.81706 5.23186 9.26367C4.6595 8.71028 4.37333 8.04148 4.37333 7.25726C4.37333 6.47302 4.6595 5.80423 5.23186 5.25084C5.80422 4.69745 6.492 4.42076 7.2952 4.42076C8.10473 4.42076 8.79566 4.69745 9.36802 5.25084ZM12.9208 6.1663L12.9208 12.3136C12.9208 12.4781 12.8638 12.6156 12.75 12.7263C12.6362 12.837 12.5002 12.8923 12.3421 12.8923L2.20089 12.8923C2.03646 12.8923 1.8989 12.837 1.78823 12.7263C1.67755 12.6156 1.62221 12.4781 1.62221 12.3136L1.62221 6.1663L2.95982 6.1663C2.83333 6.56473 2.77009 6.97898 2.77009 7.40904C2.77009 8.62333 3.2128 9.65894 4.09822 10.5159C4.98364 11.3729 6.04929 11.8013 7.2952 11.8013C8.11738 11.8013 8.8763 11.6053 9.57199 11.2132C10.2677 10.8211 10.8179 10.2882 11.2227 9.61468C11.6274 8.94112 11.8298 8.20592 11.8298 7.40904C11.8298 6.97898 11.7666 6.56473 11.6401 6.1663L12.9208 6.1663Z"
              fill-rule="evenodd"/>
    </g>
</svg>
