<?xml version="1.0" encoding="utf-8" ?>
<svg xmlns="http://www.w3.org/2000/svg" xmlns:xlink="http://www.w3.org/1999/xlink" width="13" height="16">
    <defs>
        <clipPath id="clip_0">
            <rect x="-1287.5598" y="-879.95996" width="1536" height="984" clip-rule="evenodd"/>
        </clipPath>
        <linearGradient id="gradient_0" gradientUnits="userSpaceOnUse" x1="6.3290691" y1="13.460446" x2="6.3290691"
                        y2="-7.5763988">
            <stop offset="0" stop-color="rgb(243,112,115)"/>
            <stop offset="1" stop-color="rgb(248,78,130)"/>
        </linearGradient>
    </defs>
    <g clip-path="url(#clip_0)">
        <path fill="url(#gradient_0)" stroke="none" transform="matrix(0.96 0 0 0.96 0.76001 0.360016)"
              d="M2.19506 9.00101C2.37747 8.69698 2.46868 8.4183 2.46868 8.16494C2.46868 7.91159 2.42308 7.71397 2.33187 7.57209C2.24066 7.43022 2.13425 7.25287 2.01264 7.04005C1.89103 6.82723 1.82009 6.61948 1.79983 6.4168C1.67822 5.66687 1.75929 4.94228 2.04305 4.24303C2.3268 3.54377 2.74737 2.98132 3.30475 2.55569C3.86213 2.13005 4.47524 1.80576 5.1441 1.58281C5.81295 1.35986 6.50207 1.32945 7.21146 1.4916C7.92086 1.65375 8.53903 1.99831 9.06601 2.52529C9.51192 2.99146 9.78554 3.66537 9.88688 4.54705C9.98822 5.42873 9.93249 6.26985 9.71967 7.07045C9.50685 7.87106 9.12175 8.54497 8.56437 9.09222C8.00699 9.63946 7.37361 9.84215 6.66422 9.70027C6.13724 9.59892 5.81295 9.34557 5.69134 8.94021C5.56973 8.53484 5.59 8.06867 5.75215 7.54169C5.91429 7.01471 6.08657 6.48268 6.26899 5.94556C6.4514 5.40845 6.52234 4.91188 6.48181 4.45584C6.44127 3.9998 6.20818 3.69071 5.78255 3.52857C5.33664 3.36642 4.92621 3.39682 4.55125 3.61977C4.17628 3.84273 3.90266 4.16195 3.73038 4.57745C3.5581 4.99295 3.47196 5.45912 3.47196 5.97596C3.47196 6.49281 3.5733 6.94377 3.77599 7.32888C3.69491 7.73424 3.5733 8.24094 3.41116 8.849C3.24901 9.45705 3.1122 9.97389 3.00072 10.3995C2.88925 10.8252 2.77777 11.3623 2.6663 12.0109C2.55482 12.6594 2.49908 13.227 2.49908 13.7134C2.49908 14.1998 2.52949 14.818 2.59029 15.5679C3.25915 15.0815 3.76078 14.4127 4.09521 13.5614C4.42964 12.7101 4.7286 11.6258 4.99208 10.3083C5.11369 10.3691 5.27584 10.4705 5.47852 10.6123C5.68121 10.7542 5.84335 10.8606 5.96496 10.9316C6.08657 11.0025 6.24365 11.0734 6.4362 11.1444C6.62875 11.2153 6.8365 11.2609 7.05945 11.2812C8.17422 11.3825 9.15215 11.0886 9.99329 10.3995C10.8344 9.7104 11.4273 8.8186 11.7718 7.72411C12.1164 6.62961 12.2076 5.4946 12.0455 4.31903C11.8428 2.83944 11.0878 1.70949 9.78047 0.929155C8.47316 0.148823 6.96825 -0.139998 5.26571 0.0626861C3.90772 0.204565 2.70177 0.777139 1.64781 1.78042C0.593856 2.78371 0.0466174 3.99473 0.0060806 5.41352C-0.074993 7.46063 0.654659 8.65645 2.19506 9.00101Z"/>
    </g>
</svg>
