<?xml version="1.0" encoding="utf-8" ?>
<svg xmlns="http://www.w3.org/2000/svg" xmlns:xlink="http://www.w3.org/1999/xlink" width="18" height="14">
    <defs>
        <clipPath id="clip_0">
            <rect x="-1234.1401" y="-908.48999" width="1584" height="1014.75" clip-rule="evenodd"/>
        </clipPath>
        <linearGradient id="gradient_0" gradientUnits="userSpaceOnUse" x1="8.9954758" y1="12.104762" x2="8.9954758"
                        y2="-6.8133335">
            <stop offset="0" stop-color="rgb(243,112,115)"/>
            <stop offset="1" stop-color="rgb(248,78,130)"/>
        </linearGradient>
    </defs>
    <g clip-path="url(#clip_0)">
        <path fill="url(#gradient_0)" stroke="none" transform="matrix(0.99 0 0 0.99 0.548218 0.329987)"
              d="M16.7596 0.269231C16.0641 0.673079 15.3125 0.953525 14.5048 1.11058C13.8093 0.370188 12.9455 0 11.9135 0C10.9487 0 10.1186 0.347754 9.42308 1.04327C8.72756 1.73878 8.37981 2.56891 8.37981 3.53365C8.37981 3.80289 8.41346 4.07211 8.48077 4.34135C7.04486 4.27404 5.69312 3.91507 4.42548 3.26442C3.15785 2.61378 2.08654 1.73879 1.21154 0.639423C0.874998 1.17789 0.706731 1.77243 0.706731 2.42308C0.706731 3.67949 1.23397 4.65545 2.28846 5.35096C1.72756 5.35096 1.20032 5.20513 0.706731 4.91346L0.706731 4.98077C0.706731 5.8109 0.97035 6.55128 1.4976 7.20192C2.02484 7.85257 2.70352 8.26763 3.53365 8.44711C3.21955 8.51442 2.90545 8.54808 2.59135 8.54808C2.36699 8.54808 2.14263 8.52564 1.91827 8.48077C2.16507 9.19872 2.58573 9.78766 3.18029 10.2476C3.77484 10.7075 4.45352 10.9375 5.21635 10.9375C3.93749 11.9471 2.47917 12.4519 0.841346 12.4519C0.572114 12.4519 0.291668 12.4407 0 12.4183C1.66026 13.4728 3.46634 14 5.41827 14C6.98879 14 8.42467 13.6971 9.72596 13.0913C11.0273 12.4856 12.0873 11.6947 12.9063 10.7187C13.7252 9.74278 14.359 8.66587 14.8077 7.48798C15.2564 6.31009 15.4808 5.12661 15.4808 3.9375C15.4808 3.78045 15.4808 3.63462 15.4808 3.5C16.1763 2.98397 16.7596 2.36699 17.2308 1.64904C16.5801 1.94071 15.9071 2.13141 15.2115 2.22115C15.9744 1.75 16.4904 1.09936 16.7596 0.269231Z"/>
    </g>
</svg>
