<?xml version="1.0" encoding="utf-8" ?>
<svg xmlns="http://www.w3.org/2000/svg" xmlns:xlink="http://www.w3.org/1999/xlink" width="17" height="12">
    <defs>
        <clipPath id="clip_0">
            <rect x="-1191.1201" y="-844.92004" width="1472" height="943" clip-rule="evenodd"/>
        </clipPath>
        <linearGradient id="gradient_0" gradientUnits="userSpaceOnUse" x1="8.7753" y1="10.366866" x2="8.7753"
                        y2="-5.835135">
            <stop offset="0" stop-color="rgb(243,112,115)"/>
            <stop offset="1" stop-color="rgb(248,78,130)"/>
        </linearGradient>
    </defs>
    <g clip-path="url(#clip_0)">
        <path fill="url(#gradient_0)" stroke="none" transform="matrix(0.92 0 0 0.92 0.280029 0.559998)"
              d="M2.25327 0.230262C5.89359 -0.0767539 9.99438 -0.0767539 14.5558 0.230262C15.1917 0.252192 15.6906 0.526309 16.0525 1.05262C16.4143 1.57893 16.6281 2.16006 16.6939 2.79602C16.8474 4.87934 16.8474 6.95167 16.6939 9.01306C16.6281 9.60516 16.3978 10.1863 16.0031 10.7565C15.6084 11.3266 15.1259 11.6665 14.5558 11.7762C10.7839 12.0613 6.68306 12.0613 2.25327 11.7762C1.68309 11.6885 1.20065 11.3595 0.805913 10.7894C0.411178 10.2192 0.18092 9.62709 0.115131 9.01306C-0.038377 6.99553 -0.038377 4.97803 0.115131 2.96049C0.18092 2.34646 0.411178 1.75437 0.805913 1.1842C1.20065 0.614026 1.68309 0.29605 2.25327 0.230262ZM11.5624 5.95388L6.29927 2.9276L6.29927 8.98017L11.5624 5.95388Z"
              fill-rule="evenodd"/>
    </g>
</svg>
