<svg width="8px" height="15px" viewBox="0 0 8 15" version="1.1"
     xmlns="http://www.w3.org/2000/svg">
    <g id="Pages" stroke="none" stroke-width="1" fill="none" fill-rule="evenodd">
        <g id="Desktop---Referal" transform="translate(-1057.000000, -913.000000)"
           fill="#F8EB76">
            <g id="Form" transform="translate(435.000000, 549.000000)">
                <g id="Share-Link" transform="translate(0.000000, 289.000000)">
                    <g id="Btn-Facebook" transform="translate(588.000000, 62.000000)">
                        <path
                            d="M35.875,28 L38.6875,28 L38.6875,20.5 L41.2363281,20.5 L41.5,17.921875 L38.6875,17.921875 L38.6875,16.6328125 C38.6875,16.2421862 38.7460937,15.9687512 38.8632812,15.8125 C38.9804687,15.6562487 39.2636687,15.578125 39.7128906,15.578125 L41.5,15.578125 L41.5,13 L38.921875,13 C37.7499944,13 36.9492212,13.2783175 36.5195312,13.83496 C36.0898412,14.3916044 35.875,15.2460887 35.875,16.3984375 L35.875,17.921875 L34,17.921875 L34,20.5 L35.875,20.5 L35.875,28 Z"
                            id="icon"></path>
                    </g>
                </g>
            </g>
        </g>
    </g>
</svg>
