<svg width="20px" height="16px" viewBox="0 0 20 16" version="1.1" xmlns="http://www.w3.org/2000/svg" xmlns:xlink="http://www.w3.org/1999/xlink">    
    <defs>
        <polygon id="path-1"
                 points="19.9898039 9.23161994 19.9898039 0.0225988295 0.00426335893 0.0225988295 0.00426335893 9.23161994"></polygon>
    </defs>
    <g id="Pages" stroke="none" stroke-width="1" fill="none" fill-rule="evenodd">
        <g id="Desktop---Referal" transform="translate(-606.000000, -730.000000)">
            <g id="Form" transform="translate(435.000000, 549.000000)">
                <g id="Import-Contacts" transform="translate(0.000000, 174.000000)">
                    <g id="icon-Gmail" transform="translate(171.000000, 7.000000)">
                        <g id="Group-13" transform="translate(0.000000, 0.143518)">
                            <path
                                d="M18.7151922,15.1845415 L1.25009412,15.1845415 C0.572917647,15.1845415 0.00264313725,14.6296911 0.00264313725,13.9317169 L0.00264313725,1.25971692 C0.00264313725,0.579544615 0.555035294,0.00681353846 1.25009412,0.00681353846 L18.7151922,0.00681353846 C19.3924471,0.00681353846 19.9626431,0.561664 19.9626431,1.25971692 L19.9626431,13.9317169 C19.9626431,14.6296911 19.4101725,15.1845415 18.7151922,15.1845415"
                                id="Fill-1" fill="#E3E3E3"></path>
                            <polygon id="Fill-3" fill-opacity="0.0434782609" fill="#231F20"
                                     points="2.49763137 15.1845415 9.96484706 9.15286646 10.0183373 8.83070031 2.31943529 3.26431508 2.30155294 14.916096"></polygon>
                            <path
                                d="M1.25012549,15.1845415 C0.555066667,15.1845415 0.00259607843,14.6296911 0.00259607843,13.9317169 L0.00259607843,1.24183631 C0.00259607843,0.543783385 0.555066667,0.418540308 1.25012549,0.418540308 C1.94518431,0.418540308 2.4976549,0.561664 2.4976549,1.24183631 L2.4976549,15.1845415 L1.25012549,15.1845415 Z"
                                id="Fill-5" fill="#F37073"></path>
                            <path
                                d="M1.25012549,0.418500923 C0.555066667,0.418500923 0.00259607843,0.561624615 0.00259607843,1.24179692 L0.00259607843,13.9316775 C0.00259607843,14.6297305 0.555066667,15.1845022 1.25012549,15.1845022 L2.4976549,15.1845022 L2.4976549,1.24179692 C2.4976549,0.543744 1.94518431,0.418500923 1.25012549,0.418500923 M1.25012549,0.597464615 C2.14118431,0.597464615 2.31938039,0.865910154 2.31938039,1.24179692 L2.31938039,15.0056172 L1.25012549,15.0056172 C0.661968627,15.0056172 0.180870588,14.5222892 0.180870588,13.9316775 L0.180870588,1.24179692 C0.180870588,0.848029538 0.359066667,0.597464615 1.25012549,0.597464615"
                                id="Fill-7" fill="#F37073"></path>
                            <path
                                d="M18.7151922,15.1845415 L17.4676627,15.1845415 L17.4676627,1.20599631 C17.4676627,0.507943385 18.0202118,0.418540308 18.7151922,0.418540308 C19.4101725,0.418540308 19.9626431,0.507943385 19.9626431,1.20599631 L19.9626431,13.9495975 C19.9626431,14.6296911 19.4101725,15.1845415 18.7151922,15.1845415"
                                id="Fill-9" fill="#F37073"></path>
                            <path
                                d="M18.7151922,0.418500923 C18.0202118,0.418500923 17.4676627,0.507982769 17.4676627,1.20603569 L17.4676627,15.2024615 L18.7151922,15.2024615 C19.4101725,15.2024615 19.9626431,14.6476111 19.9626431,13.9496369 L19.9626431,1.20603569 C19.9626431,0.507982769 19.4101725,0.418500923 18.7151922,0.418500923 M18.7151922,0.597464615 C19.5171529,0.597464615 19.7845255,0.758547692 19.7845255,1.20603569 L19.7845255,13.9496369 C19.7845255,14.5402486 19.3032706,15.0234978 18.7151922,15.0234978 L17.6458588,15.0234978 L17.6458588,1.20603569 C17.6458588,0.740667077 17.9131529,0.597464615 18.7151922,0.597464615"
                                id="Fill-11" fill="#F37073"></path>
                        </g>
                        <path
                            d="M10.0360784,8.866816 L0.80454902,2.19080862 L0.106980392,1.90582154 L13.3687843,15.3280197 L18.7152157,15.3280197 C19.4101961,15.3280197 19.9626667,14.773248 19.9626667,14.0931545 L19.9626667,14.0931545 L19.9626667,1.55648 L10.0360784,8.866816 Z"
                            id="Fill-14"></path>
                        <g id="Group-22" transform="translate(0.000000, 0.064748)">
                            <g id="Group-18">
                                <mask id="mask-2" fill="white">
                                    <use xlink:href="#path-1"></use>
                                </mask>
                                <g id="Clip-17"></g>
                                <path
                                    d="M9.96481569,9.23161994 L0.537286275,2.35868948 C-0.0151843137,1.94704148 -0.175654902,1.15950671 0.234305882,0.604656246 C0.644188235,0.0498057846 1.44614902,-0.0755160615 2.01642353,0.336131938 L9.98269804,6.15308209 L18.0023843,0.264609477 C18.5547765,-0.147038523 19.3390118,-0.0217954462 19.7488157,0.550935631 C20.1587765,1.10578609 20.0339922,1.89332086 19.4636392,2.30496886 L9.96481569,9.23161994 Z"
                                    id="Fill-16" fill="#F37073" mask="url(#mask-2)"></path>
                            </g>
                            <g id="Group-21" fill="#F37073">
                                <path
                                    d="M18.7151922,0.0140051692 C18.4656235,0.0140051692 18.1983294,0.0856064 17.9845255,0.246689477 L9.96483922,6.13516209 L1.99864314,0.318290708 C1.78476078,0.157207631 1.51746667,0.0856064 1.25009412,0.0856064 C0.858015686,0.0856064 0.465937255,0.264570092 0.216447059,0.604695631 C-0.175631373,1.15946732 -0.0151607843,1.94700209 0.537231373,2.35872886 L9.96483922,9.24953994 L19.4458588,2.30492948 C19.9983294,1.89328148 20.1230353,1.12370609 19.7310353,0.550975015 C19.4815451,0.192968862 19.1072706,0.0140051692 18.7151922,0.0140051692 M18.7151922,0.192968862 L18.7151922,0.192968862 C19.0537804,0.192968862 19.3745647,0.354051938 19.5884471,0.640456862 C19.9270353,1.12370609 19.8201333,1.78591902 19.3567608,2.14392517 L9.96483922,9.01685563 L0.644211765,2.2155264 C0.162956863,1.85752025 0.0382509804,1.17742671 0.376839216,0.712058092 C0.572917647,0.443612554 0.911505882,0.264570092 1.26789804,0.264570092 C1.49958431,0.264570092 1.73127059,0.336171323 1.9095451,0.479373785 L9.85785882,6.27836455 L9.96483922,6.35004455 L10.0717412,6.27836455 L18.0736235,0.389813169 C18.2696235,0.264570092 18.4835059,0.192968862 18.7151922,0.192968862"
                                    id="Fill-19"></path>
                            </g>
                        </g>
                    </g>
                </g>
            </g>
        </g>
    </g>
</svg>
