<?xml version="1.0" encoding="UTF-8"?>
<svg xmlns="http://www.w3.org/2000/svg" xmlns:xlink="http://www.w3.org/1999/xlink" width="14pt" height="14pt" viewBox="0 0 14 14" version="1.1">
<g id="surface1">
<path style=" stroke:none;fill-rule:nonzero;fill:rgb(100%,41.960784%,45.490196%);fill-opacity:1;" d="M 14 8.511719 L 14 13.6875 L 11 13.6875 L 11 8.859375 C 11 7.648438 10.566406 6.820312 9.480469 6.820312 C 8.648438 6.820312 8.15625 7.375 7.941406 7.917969 C 7.859375 8.109375 7.839844 8.378906 7.839844 8.648438 L 7.839844 13.6875 L 4.839844 13.6875 C 4.839844 13.6875 4.878906 5.511719 4.839844 4.664062 L 7.839844 4.664062 L 7.839844 5.941406 C 7.832031 5.953125 7.824219 5.960938 7.820312 5.972656 L 7.839844 5.972656 L 7.839844 5.941406 C 8.238281 5.328125 8.949219 4.449219 10.542969 4.449219 C 12.519531 4.449219 14 5.742188 14 8.511719 Z M 1.699219 0.3125 C 0.671875 0.3125 0 0.984375 0 1.871094 C 0 2.738281 0.652344 3.429688 1.660156 3.429688 L 1.679688 3.429688 C 2.726562 3.429688 3.375 2.738281 3.375 1.871094 C 3.355469 0.984375 2.726562 0.3125 1.699219 0.3125 Z M 0.179688 13.6875 L 3.179688 13.6875 L 3.179688 4.664062 L 0.179688 4.664062 Z M 0.179688 13.6875 "/>
</g>
</svg>
