<svg width="16px" height="16px" viewBox="0 0 16 16" version="1.1"
     xmlns="http://www.w3.org/2000/svg">
    <g id="Pages" stroke="none" stroke-width="1" fill="none" fill-rule="evenodd">
        <g id="Desktop---Referal" transform="translate(-886.000000, -911.000000)"
           fill="#F8EB76">
            <g id="Form" transform="translate(435.000000, 549.000000)">
                <g id="Share-Link" transform="translate(0.000000, 289.000000)">
                    <g id="Btn-Messenger" transform="translate(426.000000, 60.000000)">
                        <path
                            d="M33.7950311,22.9753086 L31.757764,20.8024691 L27.7826087,22.9753086 L32.1552795,18.3333333 L34.242236,20.5061728 L38.1677019,18.3333333 L33.7950311,22.9753086 Z M33,13 C28.5817143,13 25,16.3163951 25,20.4074074 C25,22.7385185 26.1633292,24.8178272 27.9813665,26.1756543 L27.9813665,29 L30.7052919,27.505037 C31.4322484,27.7062222 32.2023851,27.8148148 33,27.8148148 C37.4182857,27.8148148 41,24.4984198 41,20.4074074 C41,16.3163951 37.4182857,13 33,13 L33,13 Z"
                            id="Page-1"></path>
                    </g>
                </g>
            </g>
        </g>
    </g>
</svg>
