<svg width="20px" height="20px" viewBox="0 0 20 20" version="1.1" xmlns="http://www.w3.org/2000/svg" xmlns:xlink="http://www.w3.org/1999/xlink">
    <defs>
        <polygon id="path-1"
                 points="7.58565768 0.0158817204 7.58565768 8.28545161 0.0533321867 8.28545161 0.0533321867 0.0158817204 7.58565768 0.0158817204"></polygon>
    </defs>
    <g id="Pages" stroke="none" stroke-width="1" fill="none" fill-rule="evenodd">
        <g id="Desktop---Referal" transform="translate(-839.000000, -728.000000)">
            <g id="Form" transform="translate(435.000000, 549.000000)">
                <g id="Page-1" transform="translate(404.000000, 179.000000)">
                    <polygon id="Fill-1" fill="#F37073"
                             points="11.7365078 1.07526882e-05 -2.69817802e-05 2.0175914 -2.69817802e-05 17.6866237 11.7365078 19.9776989"></polygon>
                    <g id="Group-9" transform="translate(3.183850, 4.009946)">
                        <g id="Group-4" transform="translate(9.227769, 2.473118)">
                            <mask id="mask-2" fill="white">
                                <use xlink:href="#path-1"></use>
                            </mask>
                            <g id="Clip-3"></g>
                            <path
                                d="M0.0533321867,3.03023656 L0.0533321867,8.28545161 L6.69052633,8.28545161 C6.69052633,8.28545161 7.66181645,8.15088172 7.58087111,6.88147312 L7.58567387,0.0158817204 L2.7244205,3.29287097 C2.7244205,3.29287097 1.34840367,4.39986022 0.0533321867,3.03023656"
                                id="Fill-2" fill="#F37073" mask="url(#mask-2)"></path>
                        </g>
                        <path
                            d="M9.281101,0.0451021505 L15.9722587,0.0451021505 C15.9722587,0.0451021505 16.7595331,-0.00866129032 16.7594791,0.845693548 L10.7110814,4.85967204 L9.281101,3.95155376 L9.281101,0.0451021505 Z"
                            id="Fill-5" fill="#F37073"></path>
                        <path
                            d="M2.68178928,7.90060215 C1.97222243,7.90060215 1.39697088,6.96060215 1.39697088,5.80103226 C1.39697088,4.64146237 1.97222243,3.70146237 2.68178928,3.70146237 C3.39130217,3.70146237 3.96660769,4.64146237 3.96660769,5.80103226 C3.96660769,6.96060215 3.39130217,7.90060215 2.68178928,7.90060215 M2.71314211,2.26323656 C1.2372927,2.26323656 0.0409745314,3.84968817 0.0409745314,5.80678495 C0.0409745314,7.76388172 1.2372927,9.35033333 2.71314211,9.35033333 C4.1888836,9.35033333 5.38525573,7.76388172 5.38525573,5.80678495 C5.38525573,3.84968817 4.1888836,2.26323656 2.71314211,2.26323656"
                            id="Fill-7" fill="#FEFEFE"></path>
                    </g>
                </g>
            </g>
        </g>
    </g>
</svg>
