<svg width="8px" height="13px" viewBox="0 0 8 13" version="1.1" xmlns="http://www.w3.org/2000/svg" xmlns:xlink="http://www.w3.org/1999/xlink">
    <g id="Symbols" stroke="none" stroke-width="1" fill="none" fill-rule="evenodd">
        <g id="Buttons-/-Tumblr" transform="translate(-16.000000, -14.000000)" fill="#F37073">
            <path d="M17.725,23.8769531 C17.725,24.4694037 17.7874992,24.9264301 17.9124992,25.2480469 C18.0375008,25.5696631 18.2583312,25.8658841 18.575,26.1367188 C18.8916688,26.4075534 19.2749984,26.6191398 19.725,26.7714844 C20.1750016,26.9238289 20.6333312,27 21.1,27 C21.6166688,27 22.091664,26.9492193 22.525,26.8476562 C23.0416688,26.7291661 23.5333312,26.5514335 24,26.3144531 L24,24.359375 C23.4833312,24.7148454 22.9250032,24.8925781 22.325,24.8925781 C21.9583312,24.8925781 21.6333344,24.7994802 21.35,24.6132812 C21.1166656,24.4778635 20.9583344,24.2916678 20.875,24.0546875 C20.825,23.9361974 20.8,23.470708 20.8,22.6582031 L20.8,19.6875 L24,19.6875 L24,17.25 L20.8,17.25 L20.8,14 L18.725,14 C18.6583328,14.6770871 18.5166672,15.2314429 18.3,15.6630867 C18.0833328,16.094729 17.7916688,16.462889 17.425,16.7675781 C17.1249986,17.038412 16.6500032,17.275389 16,17.4785156 L16,19.6875 L17.725,19.6875 L17.725,23.8769531 Z" id="Page-1"></path>
        </g>
    </g>
</svg>