<svg width="13px" height="11px" viewBox="0 0 13 11" version="1.1" xmlns="http://www.w3.org/2000/svg" xmlns:xlink="http://www.w3.org/1999/xlink">
    <g id="Symbols" stroke="none" stroke-width="1" fill="none" fill-rule="evenodd">
        <g id="Buttons-/-Twitter" transform="translate(-14.000000, -15.000000)" fill="#ffffff">
            <path d="M26.5697115,15.2019231 C26.0480748,15.5048093 25.4843782,15.7151437 24.8786058,15.8329327 C24.356969,15.277641 23.7091384,15 22.9350962,15 C22.2115347,15 21.5889445,15.2608152 21.0673077,15.7824519 C20.5456709,16.3040887 20.2848558,16.9266789 20.2848558,17.6502404 C20.2848558,17.8521651 20.3100962,18.0540849 20.3605769,18.2560096 C19.2836485,18.2055288 18.2698363,17.9363008 17.3191098,17.4483173 C16.3683848,16.9603338 15.5649071,16.3040903 14.9086538,15.4795673 C14.6562487,15.8834151 14.5300481,16.3293242 14.5300481,16.8173077 C14.5300481,17.7596197 14.9254768,18.4915844 15.7163462,19.0132212 C15.2956709,19.0132212 14.9002422,18.9038467 14.5300481,18.6850962 L14.5300481,18.7355769 C14.5300481,19.3581768 14.7277624,19.9134588 15.1231971,20.4014423 C15.5186318,20.8894258 16.0276405,21.2007201 16.6502404,21.3353365 C16.4146624,21.3858173 16.1790876,21.4110577 15.9435096,21.4110577 C15.7752398,21.4110577 15.6069717,21.3942302 15.4387019,21.3605769 C15.6237992,21.8990412 15.9392999,22.3407438 16.3852172,22.6856963 C16.8311328,23.0306504 17.3401421,23.203125 17.9122596,23.203125 C16.9531202,23.9603403 15.8593804,24.3389423 14.6310096,24.3389423 C14.4290856,24.3389423 14.218751,24.3305289 14,24.3137019 C15.2451986,25.1045713 16.5997515,25.5 18.0637019,25.5 C19.2415919,25.5 20.3185042,25.2728388 21.2944712,24.8185096 C22.2704381,24.3641804 23.0655013,23.7710377 23.6796867,23.0390617 C24.2938737,22.3070873 24.7692297,21.4994031 25.1057692,20.6159848 C25.4423088,19.7325681 25.6105769,18.8449562 25.6105769,17.953125 L25.6105769,17.625 C26.1322137,17.2379781 26.5697099,16.7752431 26.9230769,16.2367788 C26.4350935,16.4555294 25.9302906,16.5985572 25.4086538,16.6658654 C25.9807714,16.3124984 26.3677868,15.824523 26.5697115,15.2019231 Z" id="Page-1"></path>
        </g>
    </g>
</svg>