<svg width="24px" height="14px" viewBox="0 0 24 14" version="1.1" xmlns="http://www.w3.org/2000/svg" xmlns:xlink="http://www.w3.org/1999/xlink">
    
    <g id="Pages" stroke="none" stroke-width="1" fill="none" fill-rule="evenodd">
        <g id="Desktop---Referal" transform="translate(-721.000000, -730.000000)" fill="#F37073">
            <g id="Form" transform="translate(435.000000, 549.000000)">
                <g id="Import-Contacts" transform="translate(0.000000, 174.000000)">
                    <path
                        d="M307.5625,20.546875 L305.078125,20.265625 L305.359375,18.109375 L307.84375,18.390625 L307.5625,20.546875 Z M310,7.515625 L307.65625,16.984375 L305.828125,16.703125 L305.78125,7 L310,7.515625 Z M301.5625,9.203125 C303.218758,10.48438 304.046875,12.093739 304.046875,14.03125 C304.046875,16.03126 303.218758,17.67187 301.5625,18.953125 C300.156244,19.9843801 298.421884,20.5937491 296.359375,20.78125 L293.734375,20.78125 C291.609364,20.5937491 289.875007,19.9843801 288.53125,18.953125 C286.843742,17.703118 286,16.062511 286,14.03125 C286,12.062491 286.843742,10.453132 288.53125,9.203125 C290.187508,7.92187 292.359361,7.28125 295.046875,7.28125 C297.671887,7.28125 299.84374,7.92187 301.5625,9.203125 Z M300.296875,12.390625 L300.625,11.921875 L298.375,11.921875 L296.03125,11.921875 L296.125,12.390625 L297.53125,12.625 C297.499999,12.90625 296.781256,13.578121 295.375,14.640625 C294.624997,13.73437 293.843755,12.687505 293.03125,11.5 L294.671875,11.3125 L294.765625,10.9375 C294.015622,10.906249 293.078131,10.906249 291.953125,10.9375 C290.359366,10.906249 289.515625,10.906249 289.421875,10.9375 L289.421875,11.40625 L290.96875,11.640625 C291.375001,11.984377 291.953122,12.60937 292.703125,13.515625 C293.484379,14.484379 293.921875,15.093748 294.015625,15.34375 L294.0625,16.046875 L294.0625,16.375 C294.0625,16.968754 294.031249,17.296876 293.96875,17.359375 C293.906251,17.421874 293.671876,17.468749 293.265625,17.5 L292.46875,17.546875 L292.375,18.015625 L294.8125,18.015625 L297.578125,18.015625 L297.625,17.5 L295.9375,17.453125 L295.796875,16.421875 L295.84375,16 L295.890625,15.34375 C295.984375,15.093748 296.499994,14.593753 297.4375,13.84375 C298.312504,13.124995 298.84375,12.734374 299.03125,12.671875 L300.296875,12.390625 Z"
                        id="icon-Yahoo"></path>
                </g>
            </g>
        </g>
    </g>
</svg>
