<svg width="56px" height="10px" viewBox="0 0 56 10" version="1.1" xmlns="http://www.w3.org/2000/svg" xmlns:xlink="http://www.w3.org/1999/xlink">
    
    
    <defs>
        <linearGradient x1="50%" y1="0%" x2="50%" y2="100%" id="linearGradient-1">
            <stop stop-color="#FFFFFF" offset="0%"></stop>
            <stop stop-color="#000000" offset="100%"></stop>
        </linearGradient>
    </defs>
    <g id="Pages" stroke="none" stroke-width="1" fill="none" fill-rule="evenodd">
        <g id="Desktop---026-Search-AddCard" transform="translate(-1296.000000, -301.000000)">
            <g id="Group-4" transform="translate(1177.000000, 181.000000)">
                <g id="Page-1" transform="translate(119.000000, 120.000000)">
                    <g id="Group-15">
                        <path d="M4.52476596,6.94873191 C3.98280851,7.43775319 3.2852766,7.64898723 2.17651064,7.64898723 L1.71574468,7.64898723 L1.71574468,1.83502979 L2.17651064,1.83502979 C3.2852766,1.83502979 3.95625532,2.03298723 4.52476596,2.54651915 C5.11795745,3.07366809 5.47148936,3.89017872 5.47148936,4.73358298 C5.47148936,5.57834894 5.11795745,6.42362553 4.52476596,6.94873191 M2.52051064,0.346348936 L0,0.346348936 L0,9.13715745 L2.50723404,9.13715745 C3.83744681,9.13715745 4.79965957,8.8219234 5.64357447,8.12285957 C6.64493617,7.29239149 7.23880851,6.04030638 7.23880851,4.74617872 C7.23880851,2.15077447 5.29991489,0.346348936 2.52051064,0.346348936" id="Fill-4" fill="#001722"></path>
                        <polygon id="Fill-6" fill="#001722" points="8.03029787 9.13719149 9.74314894 9.13719149 9.74314894 0.346382979 8.03029787 0.346382979"></polygon>
                        <path d="M13.9365787,3.71850213 C12.9069617,3.33705532 12.6041532,3.08548085 12.6041532,2.61262979 C12.6041532,2.05875745 13.1433872,1.63714043 13.8827915,1.63714043 C14.396834,1.63714043 14.8187915,1.84786383 15.2683234,2.34726809 L16.1633021,1.17603404 C15.4252596,0.528714894 14.5421957,0.199693617 13.5791319,0.199693617 C12.0252596,0.199693617 10.8380255,1.28105532 10.8380255,2.71645957 C10.8380255,3.93024681 11.391217,4.54914043 12.9998979,5.13058723 C13.6725787,5.36667234 14.0145362,5.52411915 14.1861106,5.63169362 C14.5289191,5.85586383 14.7010043,6.17109787 14.7010043,6.54011915 C14.7010043,7.2528 14.1336851,7.77926809 13.3680681,7.77926809 C12.5507064,7.77926809 11.8923234,7.37109787 11.4965787,6.60667234 L10.3907064,7.67560851 C11.179983,8.83390638 12.1292596,9.34965106 13.4354723,9.34965106 C15.2148766,9.34965106 16.4666213,8.16173617 16.4666213,6.46182128 C16.4666213,5.06437447 15.8880681,4.43118298 13.9365787,3.71850213" id="Fill-8" fill="#001722"></path>
                        <path d="M17.0068085,4.74609362 C17.0068085,7.33230638 19.0374468,9.33537021 21.6481702,9.33537021 C22.3862128,9.33537021 23.0188936,9.18966809 23.7974468,8.8218383 L23.7974468,6.80413617 C23.1109787,7.49026383 22.5045106,7.76634894 21.7264681,7.76634894 C20,7.76634894 18.7732766,6.51375319 18.7732766,4.73349787 C18.7732766,3.0472 20.0382979,1.71545532 21.6481702,1.71545532 C22.4641702,1.71545532 23.084766,2.00532766 23.7974468,2.70388085 L23.7974468,0.686178723 C23.0459574,0.30507234 22.4253617,0.14813617 21.6873191,0.14813617 C19.0898723,0.14813617 17.0068085,2.19171064 17.0068085,4.74609362" id="Fill-9" fill="#001722"></path>
                        <polygon id="Fill-10" fill="#001722" points="37.6905702 6.25150638 35.344017 0.346485106 33.472017 0.346485106 37.2039319 9.36163404 38.1259745 9.36163404 41.9230809 0.346485106 40.0648681 0.346485106"></polygon>
                        <polygon id="Fill-11" fill="#001722" points="42.702383 9.13714043 47.5660426 9.13714043 47.5660426 7.64897021 44.4159149 7.64897021 44.4159149 5.27467234 47.4455319 5.27467234 47.4455319 3.7861617 44.4159149 3.7861617 44.4159149 1.83501277 47.5660426 1.83501277 47.5660426 0.346331915 42.702383 0.346331915"></polygon>
                        <path d="M50.9124766,4.39254468 L50.413583,4.39254468 L50.413583,1.72888511 L50.9398809,1.72888511 C52.0100085,1.72888511 52.5897532,2.17824681 52.5897532,3.03373617 C52.5897532,3.91645957 52.0100085,4.39254468 50.9124766,4.39254468 M54.3533277,2.9408 C54.3533277,1.29399149 53.2212426,0.346417021 51.2426894,0.346417021 L48.6981787,0.346417021 L48.6981787,9.13722553 L50.413583,9.13722553 L50.413583,5.60411915 L50.6380936,5.60411915 L53.0096681,9.13722553 L55.1189447,9.13722553 L52.3489021,5.43424681 C53.6426894,5.16973617 54.3533277,4.2861617 54.3533277,2.9408" id="Fill-12" fill="#001722"></path>
                        <path d="M55.2394383,1.10646809 L55.2050553,1.10646809 L55.2050553,0.905106383 L55.2411404,0.905106383 C55.3323745,0.905106383 55.3786723,0.938297872 55.3786723,1.004 C55.3786723,1.07208511 55.3305021,1.10646809 55.2394383,1.10646809 M55.5626723,1.00110638 C55.5626723,0.84706383 55.4596936,0.763489362 55.2712681,0.763489362 L55.0217362,0.763489362 L55.0217362,1.53778723 L55.2050553,1.53778723 L55.2050553,1.23668085 L55.4217362,1.53778723 L55.6515234,1.53778723 L55.3941617,1.21778723 C55.5025872,1.18902128 55.5626723,1.10902128 55.5626723,1.00110638" id="Fill-13" fill="#231F20"></path>
                        <path d="M55.3072681,1.70388085 C55.0070128,1.70388085 54.7653106,1.4565617 54.7653106,1.15034894 C54.7653106,0.84107234 55.0054809,0.595455319 55.3072681,0.595455319 C55.5990128,0.595455319 55.8396936,0.845838298 55.8396936,1.15034894 C55.8396936,1.45434894 55.5990128,1.70388085 55.3072681,1.70388085 M55.3081191,0.472051064 C54.9331404,0.472051064 54.632034,0.773497872 54.632034,1.1484766 C54.632034,1.52362553 54.9348426,1.82507234 55.3081191,1.82507234 C55.6756085,1.82507234 55.9758638,1.5205617 55.9758638,1.1484766 C55.9758638,0.777923404 55.6756085,0.472051064 55.3081191,0.472051064" id="Fill-14" fill="#231F20"></path>
                        <path d="M24.4473191,4.69923404 C24.4473191,7.35217021 26.456,9.33548936 29.1354894,9.33548936 C31.7480851,9.33548936 33.8108936,7.32595745 33.8108936,4.75131915 C33.8108936,2.19165957 31.7620426,0.181787234 29.1354894,0.181787234 C26.547234,0.181787234 24.4473191,2.20374468 24.4473191,4.69923404" id="Fill-1" fill="url(#linearGradient-1)"></path>
                        <circle id="Oval-3" fill="#F79E1B" cx="29.5" cy="4.5" r="4.5"></circle>
                    </g>
                </g>
            </g>
        </g>
    </g>
</svg>
