<svg width="29px" height="23px" viewBox="0 0 29 23" version="1.1" xmlns="http://www.w3.org/2000/svg" xmlns:xlink="http://www.w3.org/1999/xlink">
    <defs>
        <polygon id="path-1" points="0 28.858595 34.952381 28.858595 34.952381 0 0 0"></polygon>
    </defs>
    <g id="Pages" stroke="none" stroke-width="1" fill="none" fill-rule="evenodd">
        <g id="Desktop---026-Search-AddCard" transform="translate(-1235.000000, -296.000000)">
            <g id="Group-4" transform="translate(1177.000000, 181.000000)">
                <g id="Page-1" transform="translate(55.000000, 112.000000)">
                    <path d="M9.60471429,24.0821033 C9.62709524,23.7000702 9.95280952,23.4086322 10.3320952,23.4311612 C10.711381,23.4539298 11.0009048,23.7815579 10.9785238,24.1635909 C10.9573333,24.5281281 10.6580476,24.8135744 10.2951905,24.8154917 C9.91780952,24.8229215 9.60590476,24.520938 9.5987619,24.141062 C9.59828571,24.1214091 9.5987619,24.1017562 9.59995238,24.0821033 L9.60471429,24.0821033 Z M11.4475714,24.0821033 L11.4475714,22.9364835 L10.9523333,22.9364835 L10.9523333,23.2145 C10.781619,22.9932851 10.5159048,22.868657 10.2380476,22.8787231 C9.58066667,22.8787231 9.04757143,23.415343 9.04757143,24.0770702 C9.04757143,24.7390372 9.58066667,25.2754174 10.2380476,25.2754174 C10.5159048,25.2857231 10.781619,25.161095 10.9523333,24.9398802 L10.9523333,25.2178967 L11.4475714,25.2178967 L11.4475714,24.0821033 Z M28.169,24.0821033 C28.191381,23.7000702 28.5170952,23.4086322 28.896381,23.4311612 C29.2756667,23.4539298 29.5651905,23.7815579 29.5428095,24.1635909 C29.521381,24.5281281 29.2225714,24.8135744 28.8594762,24.8154917 C28.4820952,24.8202851 28.1723333,24.5161446 28.1675714,24.1365083 C28.1673333,24.1180537 28.1678095,24.1000785 28.169,24.0821033 Z M30.7880476,25.0551612 L30.7880476,25.1126818 L30.8404286,25.1126818 C30.8497143,25.1155579 30.8597143,25.1155579 30.8692381,25.1126818 C30.8723333,25.1057314 30.8723333,25.0978223 30.8692381,25.0911116 C30.8723333,25.0844008 30.8723333,25.0760124 30.8692381,25.0693017 C30.8597143,25.0664256 30.8497143,25.0664256 30.8404286,25.0693017 L30.7880476,25.0551612 Z M30.8404286,25.0144174 C30.8625714,25.013219 30.8844762,25.0199298 30.9023333,25.0335909 C30.9173333,25.045814 30.9251905,25.0647479 30.9237619,25.0839215 C30.9244762,25.0999793 30.9185238,25.1155579 30.9070952,25.1268223 C30.8932857,25.1395248 30.8756667,25.1471942 30.8570952,25.1483926 L30.9261429,25.2274835 L30.871381,25.2274835 L30.8070952,25.1483926 L30.7856667,25.1483926 L30.7856667,25.2274835 L30.7406667,25.2274835 L30.7406667,25.0165744 L30.8404286,25.0144174 Z M30.8261429,25.2993843 C30.8497143,25.299624 30.8735238,25.2948306 30.8951905,25.2852438 C30.9156667,25.2758967 30.9342381,25.2629545 30.9499524,25.246657 C31.011619,25.1788306 31.011619,25.0750537 30.9499524,25.0069876 C30.9342381,24.9909298 30.9156667,24.9777479 30.8951905,24.9686405 C30.8735238,24.9590537 30.8497143,24.9545 30.8261429,24.9545 C30.8023333,24.9545 30.779,24.9592934 30.7570952,24.9686405 C30.7356667,24.9775083 30.716381,24.9906901 30.7001905,25.0069876 C30.6382857,25.0750537 30.6382857,25.1788306 30.7001905,25.246657 C30.716381,25.2631942 30.7356667,25.2761364 30.7570952,25.2852438 C30.7811429,25.2955496 30.8073333,25.3005826 30.8332857,25.2993843 L30.8261429,25.2993843 Z M30.8261429,24.8945826 C30.8570952,24.8941033 30.8880476,24.8998554 30.916619,24.9113595 C30.944,24.922624 30.969,24.9386818 30.9904286,24.9590537 C31.011381,24.979905 31.0282857,25.0043512 31.0404286,25.0311942 C31.0649524,25.0875165 31.0649524,25.1519876 31.0404286,25.2083099 C31.0282857,25.2353926 31.011381,25.2595992 30.9904286,25.2804504 C30.969,25.3008223 30.944,25.3168802 30.916619,25.3281446 C30.8882857,25.3408471 30.8573333,25.3473182 30.8261429,25.3473182 C30.734,25.3465992 30.6506667,25.2926736 30.6118571,25.2083099 C30.5878095,25.1517479 30.5878095,25.0877562 30.6118571,25.0311942 C30.624,25.0043512 30.6411429,24.979905 30.6618571,24.9590537 C30.6832857,24.9386818 30.7085238,24.922624 30.7356667,24.9113595 C30.7668571,24.8988967 30.8001905,24.8931446 30.8332857,24.8945826 L30.8261429,24.8945826 Z M29.9999524,24.0821033 L29.9999524,22.0161529 L29.5237619,22.0161529 L29.5237619,23.2145 C29.3530476,22.9932851 29.0873333,22.868657 28.8094762,22.8787231 C28.1518571,22.8787231 27.619,23.415343 27.619,24.0770702 C27.619,24.7390372 28.1518571,25.2754174 28.8094762,25.2754174 C29.0873333,25.2857231 29.3530476,25.161095 29.5237619,24.9398802 L29.5237619,25.2178967 L29.9999524,25.2178967 L29.9999524,24.0821033 Z M17.5928095,23.3247479 C17.9042381,23.3180372 18.1623333,23.566814 18.169,23.8803017 L18.169,23.8805413 L16.9785238,23.8805413 C16.996381,23.5605826 17.2651905,23.3137231 17.5832857,23.3247479 L17.5928095,23.3247479 Z M17.5928095,22.8787231 C16.9354286,22.8883099 16.4099524,23.4321198 16.419,24.0940868 C16.4282857,24.755814 16.9687619,25.2850041 17.6261429,25.2754174 C17.9687619,25.2933926 18.3056667,25.182186 18.571381,24.9640868 L18.3332857,24.5949959 C18.1451905,24.7464669 17.9125714,24.8310702 17.671381,24.8346653 C17.3311429,24.8641446 17.0292381,24.6156074 16.9904286,24.2738388 L18.6809048,24.2738388 L18.6809048,24.0821033 C18.6809048,23.363095 18.2380476,22.8837562 17.5999524,22.8837562 L17.5928095,22.8787231 Z M23.569,24.0770702 C23.591381,23.6952769 23.9170952,23.4040785 24.296381,23.4266074 C24.6759048,23.4488967 24.9651905,23.7770041 24.9428095,24.1585579 C24.921381,24.5233347 24.6223333,24.8085413 24.2594762,24.8104587 C23.8820952,24.8154917 23.5723333,24.5113512 23.5678095,24.1314752 C23.5675714,24.1135 23.5680476,24.0952851 23.569,24.0770702 Z M25.4120952,24.0770702 L25.4120952,22.9364835 L24.9168571,22.9364835 L24.9168571,23.2145 C24.7461429,22.9932851 24.4804286,22.868657 24.2025714,22.8787231 C23.5449524,22.8787231 23.0120952,23.415343 23.0120952,24.0770702 C23.0120952,24.7390372 23.5449524,25.2754174 24.2025714,25.2754174 C24.4804286,25.2857231 24.7461429,25.161095 24.9168571,24.9398802 L24.9168571,25.2178967 L25.4120952,25.2178967 L25.4120952,24.0770702 Z M20.7737619,24.0770702 C20.7504286,24.7162686 21.2461429,25.2531281 21.8809048,25.2766157 C21.916381,25.277814 21.9523333,25.2775744 21.9880476,25.2754174 C22.2854286,25.2907562 22.5775714,25.1934504 22.8070952,25.0024339 L22.569,24.5995496 C22.3978095,24.7311281 22.189,24.8035083 21.9737619,24.805905 C21.571381,24.7730702 21.271619,24.4181198 21.3042381,24.0130785 C21.3330476,23.6535744 21.616619,23.3681281 21.9737619,23.3388884 C22.189,23.3412851 22.3978095,23.4136653 22.569,23.5452438 L22.8070952,23.1423595 C22.5775714,22.9515826 22.2854286,22.8540372 21.9880476,22.8691364 C21.354,22.833186 20.8106667,23.3211529 20.7749524,23.9593926 C20.7728095,23.9955826 20.7723333,24.0315331 20.7737619,24.0674835 L20.7737619,24.0770702 Z M27.1547143,22.8787231 C26.9087619,22.8715331 26.6785238,23.0002355 26.5547143,23.2145 L26.5547143,22.9364835 L26.0642381,22.9364835 L26.0642381,25.2274835 L26.5594762,25.2274835 L26.5594762,23.943095 C26.5594762,23.5644174 26.721619,23.3535083 27.0356667,23.3535083 C27.141619,23.3518306 27.2468571,23.3714835 27.3451905,23.4107893 L27.4975714,22.9314504 C27.3844762,22.8907066 27.2654286,22.8696157 27.1451905,22.8691364 L27.1547143,22.8787231 Z M13.8904286,23.1183926 C13.6101905,22.950624 13.2878095,22.8676983 12.9618571,22.8787231 C12.3856667,22.8787231 12.0094762,23.1569793 12.0094762,23.6121116 C12.0094762,23.9862355 12.2856667,24.2163182 12.7951905,24.2879793 L13.0332857,24.3217727 C13.3047143,24.3598802 13.4332857,24.4320207 13.4332857,24.5614421 C13.4332857,24.7385579 13.2523333,24.839219 12.9142381,24.839219 C12.6423333,24.8471281 12.3756667,24.7630041 12.1570952,24.5995496 L11.919,24.987814 C12.2075714,25.190814 12.5530476,25.2950702 12.9047143,25.2852438 C13.5618571,25.2852438 13.9428095,24.9736736 13.9428095,24.5372355 C13.9428095,24.1010372 13.6428095,23.9239215 13.1475714,23.851781 L12.9094762,23.8182273 C12.6951905,23.7894669 12.5237619,23.7465661 12.5237619,23.5931777 C12.5237619,23.4395496 12.6856667,23.3247479 12.9570952,23.3247479 C13.2080476,23.327624 13.454,23.3952107 13.671381,23.5210372 L13.8904286,23.1183926 Z M20.2761429,22.8787231 C20.0301905,22.8715331 19.7999524,23.0002355 19.6761429,23.2145 L19.6761429,22.9364835 L19.1856667,22.9364835 L19.1856667,25.2274835 L19.6809048,25.2274835 L19.6809048,23.943095 C19.6809048,23.5644174 19.8428095,23.3535083 20.1570952,23.3535083 C20.2630476,23.3518306 20.3682857,23.3714835 20.466619,23.4107893 L20.619,22.9314504 C20.5059048,22.8907066 20.3868571,22.8696157 20.266619,22.8691364 L20.2761429,22.8787231 Z M16.0523333,22.9364835 L15.2380476,22.9364835 L15.2380476,22.2412025 L14.7380476,22.2412025 L14.7380476,22.9364835 L14.2856667,22.9364835 L14.2856667,23.3916157 L14.7475714,23.3916157 L14.7475714,24.4464008 C14.7475714,24.9782273 14.9523333,25.2948306 15.5380476,25.2948306 C15.7568571,25.2953099 15.971381,25.2339545 16.1570952,25.1172355 L16.0142381,24.690624 C15.881381,24.7704339 15.7306667,24.8150124 15.5761429,24.8200455 C15.3380476,24.8200455 15.2475714,24.666657 15.2475714,24.4365744 L15.2475714,23.3916157 L16.0570952,23.3916157 L16.0523333,22.9364835 Z M8.65471429,25.2274835 L8.65471429,23.7894669 C8.68709524,23.3194752 8.33471429,22.9120372 7.86780952,22.8794421 C7.83161905,22.8770455 7.79542857,22.8768058 7.75947619,22.8787231 C7.439,22.8578719 7.13257143,23.0138967 6.95947619,23.2864008 C6.80185714,23.0218058 6.51328571,22.8655413 6.20709524,22.8787231 C5.94066667,22.8653017 5.68709524,22.9947231 5.54042857,23.2190537 L5.54042857,22.9364835 L5.04519048,22.9364835 L5.04519048,25.2274835 L5.54519048,25.2274835 L5.54519048,23.967062 C5.50542857,23.6732273 5.70971429,23.4024008 6.00138095,23.362376 C6.03495238,23.3578223 6.06852381,23.3563843 6.10233333,23.358062 C6.43090476,23.358062 6.59757143,23.5740041 6.59757143,23.9622686 L6.59757143,25.2370702 L7.09757143,25.2370702 L7.09757143,23.967062 C7.0592381,23.6715496 7.26566667,23.4007231 7.559,23.3621364 C7.59090476,23.358062 7.62280952,23.356624 7.65471429,23.358062 C7.99280952,23.358062 8.15471429,23.5740041 8.15471429,23.9622686 L8.15471429,25.2370702 L8.65471429,25.2274835 Z" id="Fill-1" fill="#231F20"></path>
                    <mask id="mask-2" fill="white">
                        <use xlink:href="#path-1"></use>
                    </mask>
                    <g id="Clip-4"></g>
                    <polygon id="Fill-3" fill="#FF5F00" mask="url(#mask-2)" points="13.7261905 19.0441322 21.2261905 19.0441322 21.2261905 5.47644628 13.7261905 5.47644628"></polygon>
                    <path d="M14.2023571,12.2615355 C14.1995,9.6134281 15.406881,7.11127934 17.4761667,5.47649421 C13.7542619,2.5319157 8.36569048,3.18237851 5.44045238,6.92889091 C2.51545238,10.6754033 3.16140476,16.0998413 6.88354762,19.0441802 C9.99188095,21.5031884 14.3678333,21.5031884 17.4761667,19.0441802 C15.4075952,17.4096347 14.2002143,14.9086843 14.2023571,12.2615355" id="Fill-5" fill="#EB001B" mask="url(#mask-2)"></path>
                    <path d="M31.3453333,12.2615355 C31.3450952,17.026643 27.5074762,20.889395 22.7736667,20.889395 C20.8522381,20.889395 18.9867619,20.2394116 17.4762857,19.0441802 C21.1981905,16.0998413 21.844381,10.6754033 18.9191429,6.92889091 C18.4972381,6.38867603 18.0129524,5.90094876 17.4762857,5.47649421 C21.1977143,2.53119669 26.5862857,3.18046116 29.5122381,6.92673388 C30.699619,8.44695702 31.3450952,10.3250066 31.3453333,12.2591388 L31.3453333,12.2615355 Z" id="Fill-6" fill="#F79E1B" mask="url(#mask-2)"></path>
                </g>
            </g>
        </g>
    </g>
</svg>
