<svg width="31px" height="17px" viewBox="0 0 31 17" version="1.1" xmlns="http://www.w3.org/2000/svg" xmlns:xlink="http://www.w3.org/1999/xlink">
    
    
    <defs>
        <polygon id="path-1" points="0.127143871 0.0310421392 26.8804858 0.0310421392 26.8804858 6 0.127143871 6"></polygon>
        <polygon id="path-3" points="0 0.0268096154 9.91930508 0.0268096154 9.91930508 8.89786731 0 8.89786731"></polygon>
    </defs>
    <g id="Pages" stroke="none" stroke-width="1" fill="none" fill-rule="evenodd">
        <g id="Desktop---026-Search-AddCard" transform="translate(-1177.000000, -299.000000)">
            <g id="Group-4" transform="translate(1177.000000, 181.000000)">
                <g id="Page-1" transform="translate(0.000000, 118.000000)">
                    <g id="Group-3" transform="translate(2.000000, 11.000000)">
                        <mask id="mask-2" fill="white">
                            <use xlink:href="#path-1"></use>
                        </mask>
                        <g id="Clip-2"></g>
                        <path d="M0.127143871,6.00001765 C6.37651161,3.28678235 15.1452406,0.827311765 26.7587245,3.28995882 L26.8804858,0.305841176 C14.6277116,-1.04945294 5.83581484,2.90401765 0.127143871,5.70584118 L0.127143871,6.00001765 Z" id="Fill-1" fill="#E7A83A" mask="url(#mask-2)"></path>
                    </g>
                    <polygon id="Fill-4" fill="#1D5B99" points="9 9 11.6423206 0 14 0 11.3575094 9"></polygon>
                    <g id="Group-8">
                        <mask id="mask-4" fill="white">
                            <use xlink:href="#path-3"></use>
                        </mask>
                        <g id="Clip-7"></g>
                        <path d="M7.4650678,0.0268096154 L5.34981356,3.78829038 C4.81133898,4.77344423 4.49659322,5.27104038 4.34523729,5.89359808 L4.3130339,5.89359808 C4.35049153,5.10436731 4.24269492,4.13548269 4.23252542,3.58786731 L3.9989661,0.0268096154 L0.0406610169,0.0268096154 L-1.69491525e-05,0.265482692 C1.0169322,0.265482692 1.61998305,0.787136538 1.78591525,1.85415577 L2.55744068,8.89786731 L4.99354237,8.89786731 L9.91930508,0.0268096154 L7.4650678,0.0268096154 Z" id="Fill-6" fill="#1D5B99" mask="url(#mask-4)"></path>
                    </g>
                    <path d="M26.1972275,3.68111467 C26.1699191,3.01471508 26.1468943,2.11017744 26.1929438,1.56284687 L26.1563541,1.56284687 C26.0057116,2.01045494 25.3583413,3.35468616 25.0734769,4.01580943 L24.1521299,5.99232002 L26.3232389,5.99232002 L26.1972275,3.68111467 Z M26.4813779,9 L26.4128391,7.65893457 L23.3209186,7.65647229 L22.6885412,8.99982412 L20,8.99982412 L24.8748215,0 L28.1745002,0 L29,8.99982412 L26.4813779,8.99982412 L26.4813779,9 Z" id="Fill-9" fill="#1D5B99"></path>
                    <path d="M16.8652923,9 C15.0569846,9 13.8569846,8.48073388 13,8.01778983 L14.2203077,6.33096878 C14.9894154,6.72037659 15.5932923,7.16978329 16.9827077,7.16978329 C17.4294769,7.16978329 17.86,7.06465989 18.1044308,6.68143581 C18.4607385,6.12406455 18.0222769,5.82423725 17.0216615,5.31148911 L16.5276308,5.02068671 C15.0444308,4.103155 14.4028923,3.23175057 15.1011077,1.71055319 C15.5478769,0.73753505 16.7262769,0 18.6700923,0 C20.0109538,0 21.2678154,0.524948469 22,1.03786374 L20.5974769,2.5271397 C19.8828308,2.00386251 19.2904,1.73913205 18.6124923,1.73913205 C18.0719385,1.73913205 17.6613538,1.92781935 17.5195692,2.18235502 C17.2528,2.66084195 17.6057846,2.98707545 18.3850462,3.42511745 L18.9726769,3.76338415 C20.7734154,4.79155447 21.2024615,5.86969601 20.7510769,6.87764387 C19.9749538,8.61259772 18.4550154,9 16.8652923,9" id="Fill-11" fill="#1D5B99"></path>
                    <path d="M30.0024361,0.173869747 C29.5611043,0.173869747 29.2178238,0.513244374 29.2178238,1 C29.2178238,1.45449114 29.5176614,1.82613025 30.0024361,1.82613025 C30.4384896,1.82613025 30.7819732,1.48934475 30.7819732,1 C30.7819732,0.513244374 30.4384896,0.173869747 30.0024361,0.173869747 Z M30.0024361,2 C29.4167682,2 29,1.56960765 29,1 C29,0.398327026 29.4628502,0 30.0024361,0 C30.5369468,0 31,0.398327026 31,1 C31,1.60147381 30.5369468,2 30.0024361,2 Z M30.0079172,0.943835889 C30.1471782,0.943835889 30.2695899,0.930491934 30.2695899,0.769966142 C30.2695899,0.636327425 30.136013,0.62019518 30.0245635,0.62019518 L29.8008526,0.62019518 L29.8008526,0.943835889 L30.0079172,0.943835889 Z M29.8010556,1.57219677 L29.6155095,1.57219677 L29.6155095,0.465245967 L30.043646,0.465245967 C30.316078,0.465245967 30.455136,0.558852818 30.455136,0.783509261 C30.455136,0.983867755 30.3294762,1.06671978 30.1605765,1.08544115 L30.4766545,1.57219677 L30.2669509,1.57219677 L29.9754365,1.09898427 L29.8010556,1.09898427 L29.8010556,1.57219677 Z" id="Fill-13" fill="#1D5B99"></path>
                </g>
            </g>
        </g>
    </g>
</svg>
