<svg width="11px" height="14px" viewBox="0 0 11 14" version="1.1" xmlns="http://www.w3.org/2000/svg" xmlns:xlink="http://www.w3.org/1999/xlink">
    <g stroke="none" stroke-width="1" fill="none" fill-rule="evenodd">
        <g transform="translate(-17.000000, -12.000000)">
            <g transform="translate(17.000000, 12.000000)">
                <mask fill="white">
                    <use xlink:href="#path-1"></use>
                </mask>
                <path d="M7.48684492,2.23104444 C7.95859883,1.64037778 8.27613789,0.818111111 8.18951289,-2.22222225e-05 C7.50948945,0.0282444444 6.68723945,0.468688889 6.1994582,1.059 C5.76233711,1.5818 5.37948555,2.41851111 5.48278242,3.22046667 C6.24075117,3.28113333 7.01509102,2.82206667 7.48684492,2.23104444 M9.18686055,7.42362222 C9.20585273,9.5382 10.9803762,10.2418889 11.0000129,10.2508667 C10.9849738,10.3005111 10.7164621,11.2536667 10.0650988,12.2382889 C9.50203633,13.0894889 8.91766133,13.9376222 7.99705586,13.9551333 C7.0925207,13.9724222 6.80166523,13.4003333 5.76745039,13.4003333 C4.73362227,13.4003333 4.41041133,13.9376222 3.55417305,13.9724222 C2.6655793,14.0071778 1.98890742,13.0519333 1.42116133,12.2038 C0.261048047,10.469 -0.625526172,7.30157778 0.564923047,5.16357778 C1.15630195,4.1018 2.21316133,3.42944444 3.36025508,3.4122 C4.23286445,3.395 5.05644648,4.0194 5.58990352,4.0194 C6.12297383,4.0194 7.12384492,3.26851111 8.17597773,3.37877778 C8.61645039,3.39775556 9.85287617,3.56282222 10.6468098,4.76486667 C10.5828723,4.80588889 9.1715207,5.65571111 9.18686055,7.42362222" mask="url(#mask-2)"></path>
            </g>
        </g>
    </g>
</svg>