<svg width="20" height="22" viewBox="0 0 20 22" fill="none" xmlns="http://www.w3.org/2000/svg">
<path d="M4.53982 22C3.32661 22 2.18601 21.5275 1.32817 20.6697C-0.442724 18.8988 -0.442724 16.0173 1.32817 14.2464L11.519 4.0556C12.7213 2.85317 14.6779 2.85317 15.8803 4.0556C17.0827 5.25803 17.0827 7.21457 15.8803 8.417L8.38441 15.9129C8.0866 16.2108 7.60365 16.2108 7.30579 15.9129C7.00793 15.615 7.00793 15.1322 7.30579 14.8343L14.8017 7.33833C15.4094 6.73066 15.4094 5.74189 14.8017 5.13422C14.5073 4.83982 14.1159 4.67772 13.6996 4.67772C13.2834 4.67772 12.8919 4.83982 12.5976 5.13422L2.40679 15.325C1.23065 16.5012 1.23065 18.4149 2.40679 19.5911C2.97658 20.1608 3.7341 20.4746 4.53982 20.4746C5.34554 20.4746 6.10311 20.1608 6.67285 19.5911L17.1028 9.16109C17.948 8.31597 18.4134 7.19235 18.4134 5.99714C18.4134 4.80194 17.948 3.67832 17.1028 2.83319C15.3582 1.08853 12.5195 1.08858 10.7749 2.83319L3.03978 10.5682C2.74197 10.8661 2.25903 10.8661 1.96117 10.5682C1.66331 10.2704 1.66331 9.78748 1.96117 9.48962L9.69626 1.75452C12.0356 -0.584842 15.8421 -0.584842 18.1814 1.75452C19.3147 2.88775 19.9388 4.3945 19.9388 5.99714C19.9388 7.59979 19.3147 9.10649 18.1814 10.2398L7.75147 20.6697C6.89363 21.5276 5.75303 22 4.53982 22Z" fill="#A18C8D"/>
</svg>
