<svg width="20" height="20" viewBox="0 0 20 20" fill="none" xmlns="http://www.w3.org/2000/svg">
<g clip-path="url(#clip0)">
<path d="M15.2195 9.63856V7.24694C15.2195 5.76692 14.6316 4.34751 13.585 3.30098C12.5385 2.25444 11.1191 1.6665 9.63905 1.6665C8.15902 1.6665 6.73962 2.25444 5.69308 3.30098C4.64655 4.34751 4.05861 5.76692 4.05861 7.24694V9.63856C4.05861 12.2693 1.66699 12.9071 1.66699 14.4218C1.66699 15.777 4.77609 16.8134 9.63905 16.8134C14.502 16.8134 17.6111 15.777 17.6111 14.4218C17.6111 12.9071 15.2195 12.2693 15.2195 9.63856Z" stroke="#FF676B" stroke-width="1.8" stroke-miterlimit="10" stroke-linecap="square"/>
<path d="M9.6393 18.4078C8.83333 18.4078 8.07598 18.3807 7.36328 18.3281C7.51522 18.8128 7.81792 19.2363 8.2273 19.537C8.63668 19.8377 9.13136 19.9999 9.6393 19.9999C10.1472 19.9999 10.6419 19.8377 11.0513 19.537C11.4607 19.2363 11.7634 18.8128 11.9153 18.3281C11.2026 18.3807 10.4453 18.4078 9.6393 18.4078Z" fill="#FF676B"/>
</g>
<defs>
<clipPath id="clip0">
<rect width="20" height="20" fill="white"/>
</clipPath>
</defs>
</svg>
