<svg width="14px" height="15px" viewBox="0 0 14 15" version="1.1" xmlns="http://www.w3.org/2000/svg" xmlns:xlink="http://www.w3.org/1999/xlink">
    
    <g id="Symbols" stroke="none" stroke-width="1" fill="none" fill-rule="evenodd">
        <g id="ToolBAr-5-Copy" transform="translate(-621.000000, -23.000000)">
            <g id="Type-Format" transform="translate(553.000000, 17.000000)">
                <path d="M73.4576239,18.8615065 C73.9131182,19.0584772 74.3439846,19.1569612 74.7502376,19.1569612 C77.0646428,19.1569612 78.2218278,18.1259582 78.2218278,16.0639221 C78.2218278,15.3622128 78.0956459,14.808242 77.843276,14.401989 C77.6770831,14.1311544 77.4878093,13.9034103 77.2754505,13.7187506 C77.0630916,13.534091 76.855351,13.390981 76.6522245,13.2894188 C76.4491001,13.1878546 76.2013505,13.1109141 75.9089717,13.0585953 C75.6165948,13.0062744 75.3580742,12.973959 75.1334034,12.9616492 C74.9087348,12.9493373 74.6178988,12.9431824 74.2608892,12.9431824 C73.8115498,12.9431824 73.5007103,12.973959 73.3283625,13.0355123 C73.3283625,13.3617452 73.3268238,13.8510874 73.3237443,14.5035512 C73.3206668,15.1560171 73.3191281,15.6422818 73.3191281,15.9623578 C73.3191281,16.0116012 73.3160506,16.2193398 73.3098957,16.5855838 C73.3037408,16.9518257 73.3022021,17.2488166 73.3052795,17.4765627 C73.308357,17.7043109 73.3222055,17.9612929 73.3468272,18.247515 C73.3714489,18.5337381 73.4083805,18.7383998 73.4576239,18.8615065 Z M73.3283625,11.9737222 C73.5868853,12.0168086 73.9223464,12.0383528 74.3347543,12.0383528 C74.839492,12.0383528 75.2795908,11.9983439 75.6550672,11.9183238 C76.0305415,11.8383059 76.3690801,11.7013509 76.6706913,11.5074588 C76.9723026,11.3135647 77.2015854,11.038118 77.3585459,10.6811085 C77.5155085,10.3240989 77.5939877,9.88707759 77.5939877,9.37002797 C77.5939877,8.93915536 77.5047353,8.56214648 77.3262305,8.23899099 C77.1477258,7.91583756 76.9045944,7.6634718 76.5968283,7.48188957 C76.2890601,7.30030733 75.9566784,7.16642978 75.5996688,7.08025691 C75.2426593,6.99408198 74.8610342,6.95099554 74.4547812,6.95099554 C74.1470151,6.95099554 73.7469253,6.99100452 73.2544974,7.07102248 C73.2544974,7.3787907 73.2668093,7.84351117 73.2914289,8.46519838 C73.3160506,9.08688766 73.3283625,9.55468559 73.3283625,9.86860872 C73.3283625,10.0348016 73.3268238,10.2810125 73.3237443,10.6072454 C73.3206668,10.9334784 73.3191281,11.1766097 73.3191281,11.3366477 C73.3191281,11.6197942 73.3222055,11.8321489 73.3283625,11.9737222 Z M68.333333,20.1818191 L68.3517989,19.3139213 C68.4441289,19.2893 68.7057267,19.240058 69.1366002,19.1661941 C69.5674734,19.0923301 69.8937012,19.0092342 70.1152932,18.9169044 C70.1583807,18.8430403 70.1968509,18.7599445 70.2307052,18.6676144 C70.2645595,18.5752846 70.2907193,18.4721843 70.3091853,18.3583106 C70.3276514,18.2444369 70.3445783,18.1444142 70.3599666,18.0582389 C70.3753549,17.972064 70.3845879,17.8566532 70.3876655,17.7120046 C70.3907432,17.5673538 70.3922819,17.4627142 70.3922819,17.3980835 C70.3922819,17.3334528 70.3922819,17.224197 70.3922819,17.0703139 C70.3922819,16.9164308 70.3922819,16.824101 70.3922819,16.7933244 C70.3922819,10.7487856 70.3245742,7.59422494 70.1891569,7.32954522 C70.1645356,7.28030388 70.0968279,7.23567665 69.9860318,7.19566767 C69.8752358,7.15565869 69.7382819,7.12180462 69.5751654,7.09410546 C69.4120491,7.0664063 69.2597068,7.04486412 69.1181342,7.02947477 C68.9765616,7.01408543 68.8272969,7.00023689 68.6703358,6.98792707 C68.5133748,6.97561518 68.4195074,6.96638282 68.3887307,6.96022791 L68.3517989,6.19389205 C68.9550217,6.18158224 70.0014127,6.14618944 71.4910042,6.08771366 C72.9805936,6.02923789 74.1285462,6 74.9348952,6 C75.0764685,6 75.2872865,6.00153873 75.5673535,6.00461618 C75.8474205,6.00769364 76.0551611,6.00923236 76.1905774,6.00923236 C76.6214521,6.00923236 77.0415453,6.04924134 77.4508757,6.12926137 C77.8602062,6.2092814 78.2556798,6.3385407 78.637311,6.51704548 C79.0189423,6.69555026 79.3513239,6.91406195 79.6344705,7.17258469 C79.9176149,7.4311095 80.145359,7.75272006 80.3177088,8.13742878 C80.4900587,8.5221375 80.5762316,8.94531027 80.5762316,9.40696156 C80.5762316,9.72703753 80.5254515,10.020951 80.4238872,10.2887082 C80.322325,10.5564653 80.2022981,10.7780545 80.0638023,10.9534797 C79.9253065,11.1289071 79.7268003,11.3058711 79.4682776,11.4843758 C79.2097528,11.6628806 78.9850862,11.8013723 78.7942716,11.8998591 C78.6034549,11.9983439 78.3449363,12.1214483 78.0187033,12.2691764 C78.9666235,12.4846127 79.7560341,12.8970144 80.3869557,13.5063918 C81.0178773,14.1157713 81.333333,14.8790214 81.333333,15.7961649 C81.333333,16.4116993 81.2256159,16.9641314 81.0101796,17.4534818 C80.7947433,17.9428302 80.5069868,18.3444595 80.1468998,18.6583816 C79.7868127,18.9723035 79.3620992,19.2354402 78.8727508,19.4477992 C78.3834024,19.6601583 77.8802117,19.8094229 77.3631621,19.8955974 C76.8461145,19.9817722 76.3044535,20.0248589 75.7381626,20.0248589 C75.467328,20.0248589 75.0610812,20.015626 74.5194119,19.99716 C73.9777427,19.978694 73.571498,19.9694611 73.3006634,19.9694611 C72.6481975,19.9694611 71.7033672,20.003315 70.4661456,20.0710237 C69.2289234,20.1387323 68.517993,20.1756638 68.333333,20.1818191 Z" id="Bold"></path>
            </g>
        </g>
    </g>
</svg>