<svg width="11px" height="15px" viewBox="0 0 11 15" version="1.1" xmlns="http://www.w3.org/2000/svg" xmlns:xlink="http://www.w3.org/1999/xlink">
    <g id="Pages" stroke="none" stroke-width="1" fill="none" fill-rule="evenodd">
        <g id="Desktop---039-Search-Change-Details-InPerson-Edit" transform="translate(-390.000000, -230.000000)">
            <g id="Lesson-Booking" transform="translate(0.000000, 184.000000)">
                <g id="Title" transform="translate(84.000000, 32.000000)">
                    <g id="Subject" transform="translate(306.000000, 11.000000)">
                        <path d="M11,7.09736034 L11,14.8625862 C11,15.0579384 10.9267441,15.2142191 10.7802285,15.33143 C10.6337148,15.4486415 10.4579003,15.5805026 10.2527792,15.727017 C10.0867297,15.8442285 9.92068401,15.8491124 9.75463453,15.7416684 C9.58858317,15.6342244 9.50556031,15.4828285 9.50556031,15.287475 L9.50556031,14.1226925 L9.50556031,11.5513767 L9.50556031,8.95075812 L9.50556031,7.69806743 C9.50556031,7.61992617 9.48846813,7.54667026 9.45428004,7.47829595 C9.42009383,7.40992164 9.35904661,7.35131804 9.27113839,7.30247951 C9.22229987,7.28294373 8.89264827,7.11201265 8.28217048,6.78968064 C7.67169456,6.46735051 7.00994775,6.11816313 6.29691131,5.74210913 C5.58387299,5.36605512 4.93433676,5.02419295 4.34827822,4.71651326 C3.76221969,4.40883168 3.46919605,4.25499465 3.46919605,4.25499465 C3.42035753,4.23545886 3.30314844,4.19394743 3.11756318,4.13045847 C2.93197792,4.06696764 2.70732671,4.1035956 2.44360018,4.24034421 C2.19940944,4.36732213 2.00650177,4.49430004 1.86487099,4.62127795 C1.7232404,4.74825773 1.63777504,4.84593291 1.60847212,4.91430534 L7.74739596,8.2694699 C7.82553722,8.31830843 7.88902618,8.37447029 7.9378647,8.43796112 C7.98670135,8.50145008 8.01112061,8.57714773 8.01112061,8.66505594 L8.01112061,16.7672642 C8.01112061,16.8551728 7.98425961,16.9381965 7.93053761,17.0163375 C7.87681561,17.0944785 7.81088491,17.1579672 7.73274365,17.2068053 C7.69367396,17.2263406 7.65216253,17.2409918 7.60820748,17.2507594 C7.56425431,17.2605271 7.522741,17.2654108 7.48367131,17.2654108 C7.42506583,17.2654108 7.37134383,17.2580852 7.3225053,17.2434338 C7.27366866,17.2287823 7.22971361,17.2068055 7.19064392,17.1775026 C7.15157422,17.1579673 6.82436249,16.9577339 6.20900122,16.5767964 C5.59364182,16.195859 4.91480097,15.7782991 4.17246179,15.3241048 C3.4301226,14.8699095 2.73663132,14.4474663 2.09196731,14.0567599 C1.44730386,13.6660555 1.07613952,13.4414043 0.978463225,13.3827988 C0.890554633,13.3241915 0.805089092,13.2484938 0.722064164,13.1557021 C0.639039424,13.0629085 0.592643877,12.9725605 0.582876247,12.8846504 L0.509619399,5.17803187 C0.509619399,5.0998906 0.514503141,4.99489022 0.524270769,4.86302695 C0.534038399,4.73116369 0.597527035,4.57732478 0.714738573,4.40150834 C0.851485314,4.19638729 1.05416069,3.99371361 1.3227705,3.79347604 C1.59138013,3.59324034 1.88440471,3.424751 2.20185268,3.28800426 C2.5192997,3.15125752 2.83918622,3.06090756 3.16151635,3.01695439 C3.48384836,2.97299934 3.76222156,3.01451077 3.99664535,3.14149056 L10.7362753,6.55525873 C10.8241836,6.5943303 10.8901143,6.65781925 10.9340693,6.74572747 C10.9780225,6.83363569 11,6.95084664 11,7.09736034 Z" id="Page-1"></path>
                    </g>
                </g>
            </g>
        </g>
    </g>
</svg>