<svg width="46" height="46" viewBox="0 0 46 46" fill="none" xmlns="http://www.w3.org/2000/svg">
<rect width="46" height="46" rx="16" fill="white"/>
<path d="M28.5 15.8C29.4941 15.8 30.3 16.6059 30.3 17.6V28.4C30.3 29.3941 29.4941 30.2 28.5 30.2V15.8Z" fill="#78C7D6"/>
<path d="M15 15.8C15 14.8059 15.8059 14 16.8 14H24.9C25.8941 14 26.7 14.8059 26.7 15.8V30.2C26.7 31.1941 25.8941 32 24.9 32H16.8C15.8059 32 15 31.1941 15 30.2V15.8Z" fill="#78C7D6"/>
<path d="M32.1 17.6C32.8456 17.6 33.45 18.2044 33.45 18.95V27.05C33.45 27.7956 32.8456 28.4 32.1 28.4V17.6Z" fill="#78C7D6"/>
</svg>
