<svg width="20" height="20" viewBox="0 0 20 20" fill="none" xmlns="http://www.w3.org/2000/svg">
<g clip-path="url(#clip0)">
<path d="M19.5687 9.26982L2.902 0.103149C2.77415 0.032025 2.62983 -0.00418698 2.48355 -0.00184645C2.33726 0.00049407 2.19418 0.0413046 2.06867 0.116482C1.94551 0.191062 1.84377 0.29628 1.77338 0.421878C1.70299 0.547476 1.66634 0.689171 1.667 0.833149V19.1665C1.6672 19.3113 1.70511 19.4535 1.777 19.5792C1.8489 19.7048 1.95229 19.8096 2.077 19.8832C2.20485 19.9599 2.35123 20.0002 2.50033 19.9998C2.64079 19.9998 2.77896 19.9642 2.902 19.8965L19.5687 10.7298C19.6993 10.6579 19.8083 10.5522 19.8842 10.4238C19.96 10.2954 20.0001 10.149 20.0001 9.99982C20.0001 9.85067 19.96 9.70425 19.8842 9.57584C19.8083 9.44744 19.6993 9.34175 19.5687 9.26982Z" fill="white"/>
</g>
<defs>
<clipPath id="clip0">
<rect width="20" height="20" fill="white"/>
</clipPath>
</defs>
</svg>
