<svg width="64" height="64" viewBox="0 0 64 64" fill="none" xmlns="http://www.w3.org/2000/svg">
<path d="M32 2C26.0666 2 20.2664 3.75947 15.3329 7.05591C10.3994 10.3524 6.55426 15.0377 4.28363 20.5195C2.013 26.0013 1.4189 32.0333 2.57646 37.8527C3.73401 43.6721 6.59123 49.0176 10.7868 53.2132C14.9824 57.4088 20.3279 60.266 26.1473 61.4236C31.9667 62.5811 37.9987 61.987 43.4805 59.7164C48.9623 57.4458 53.6477 53.6006 56.9441 48.6671C60.2405 43.7336 62 37.9334 62 32C61.9931 24.0456 58.8302 16.419 53.2056 10.7944C47.581 5.1698 39.9544 2.00688 32 2ZM46.7 22.7L26.7 42.7C26.6097 42.7948 26.5011 42.8702 26.3808 42.9217C26.2604 42.9733 26.1309 42.9999 26 42.9999C25.8691 42.9999 25.7396 42.9733 25.6193 42.9217C25.4989 42.8702 25.3903 42.7948 25.3 42.7L17.3 34.7C17.1174 34.5137 17.0158 34.2629 17.0171 34.0021C17.0184 33.7412 17.1226 33.4915 17.307 33.307C17.4915 33.1226 17.7413 33.0184 18.0021 33.0171C18.2629 33.0158 18.5137 33.1174 18.7 33.3L26 40.6L45.3 21.3C45.3916 21.2065 45.5008 21.1322 45.6213 21.0812C45.7418 21.0302 45.8712 21.0036 46.0021 21.0029C46.1329 21.0023 46.2626 21.0276 46.3836 21.0773C46.5047 21.1271 46.6146 21.2004 46.7071 21.2929C46.7996 21.3854 46.8729 21.4954 46.9227 21.6164C46.9725 21.7374 46.9977 21.8671 46.9971 21.9979C46.9964 22.1288 46.9698 22.2582 46.9188 22.3787C46.8678 22.4992 46.7935 22.6084 46.7 22.7Z" fill="#65D1AD"/>
</svg>
