<svg width="19px" height="21px" viewBox="0 0 19 21" version="1.1" xmlns="http://www.w3.org/2000/svg" xmlns:xlink="http://www.w3.org/1999/xlink">
    
    <g id="Pages" stroke="none" stroke-width="1">
        <g id="Desktop---01-Register" transform="translate(-268.000000, -462.000000)">
            <g id="Intro" transform="translate(241.000000, 304.000000)">
                <g id="item-1" transform="translate(3.000000, 136.000000)">
                    <g id="icon-1">
                        <path d="M27.95,33.9085366 L29.1416667,33.9085366 L29.1416667,32.6829268 L27.95,32.6829268 L27.95,33.9085366 Z M27.95,38.8109756 L29.1416667,38.8109756 L29.1416667,37.5853659 L27.95,37.5853659 L27.95,38.8109756 Z M37.4833333,38.8109756 L38.675,38.8109756 L38.675,37.5853659 L37.4833333,37.5853659 L37.4833333,38.8109756 Z M32.7166667,38.8109756 L33.9083333,38.8109756 L33.9083333,37.5853659 L32.7166667,37.5853659 L32.7166667,38.8109756 Z M37.4833333,33.9085366 L38.675,33.9085366 L38.675,32.6829268 L37.4833333,32.6829268 L37.4833333,33.9085366 Z M39.8666667,24.1036585 L37.4833333,24.1036585 L37.4833333,23.4908537 C37.4833333,23.324884 37.424372,23.1812597 37.3064447,23.0599758 C37.1885198,22.9386895 37.0488731,22.8780488 36.8875,22.8780488 C36.7261269,22.8780488 36.5864802,22.9386895 36.4685553,23.0599758 C36.3506279,23.1812597 36.2916667,23.324884 36.2916667,23.4908537 L36.2916667,24.1036585 L30.3333333,24.1036585 L30.3333333,23.4908537 C30.3333333,23.324884 30.274372,23.1812597 30.1564447,23.0599758 C30.0385198,22.9386895 29.8988731,22.8780488 29.7375,22.8780488 C29.5761269,22.8780488 29.4364802,22.9386895 29.3185553,23.0599758 C29.2006279,23.1812597 29.1416667,23.324884 29.1416667,23.4908537 L29.1416667,24.1036585 L26.7583333,24.1036585 C26.1004308,24.1036585 25.5387392,24.3430324 25.0732423,24.8217899 C24.6077451,25.3005449 24.375,25.8782361 24.375,26.554878 L24.375,40.0365854 C24.375,40.7132274 24.6077451,41.290918 25.0732423,41.769674 C25.5387392,42.2484304 26.1004308,42.4878049 26.7583333,42.4878049 L39.8666667,42.4878049 C40.5245691,42.4878049 41.0862612,42.2484304 41.5517572,41.769674 C42.0172556,41.290918 42.25,40.7132274 42.25,40.0365854 L42.25,26.554878 C42.25,25.8782361 42.0172556,25.3005449 41.5517572,24.8217899 C41.0862612,24.3430324 40.5245691,24.1036585 39.8666667,24.1036585 Z M30.3333333,38.8109756 C30.3333333,39.1429124 30.2154084,39.4301635 29.9795561,39.6727312 C29.7437062,39.9153015 29.4644105,40.0365854 29.1416667,40.0365854 L27.95,40.0365854 C27.6272561,40.0365854 27.3479605,39.9153015 27.1121106,39.6727312 C26.8762583,39.4301635 26.7583333,39.1429124 26.7583333,38.8109756 L26.7583333,37.5853659 C26.7583333,37.2534291 26.8762583,36.966178 27.1121106,36.7236102 C27.3479605,36.48104 27.6272561,36.3597561 27.95,36.3597561 L29.1416667,36.3597561 C29.4644105,36.3597561 29.7437062,36.48104 29.9795561,36.7236102 C30.2154084,36.966178 30.3333333,37.2534291 30.3333333,37.5853659 L30.3333333,38.8109756 Z M30.3333333,33.9085366 C30.3333333,34.2404734 30.2154084,34.5277244 29.9795561,34.7702922 C29.7437062,35.0128625 29.4644105,35.1341463 29.1416667,35.1341463 L27.95,35.1341463 C27.6272561,35.1341463 27.3479605,35.0128625 27.1121106,34.7702922 C26.8762583,34.5277244 26.7583333,34.2404734 26.7583333,33.9085366 L26.7583333,32.6829268 C26.7583333,32.35099 26.8762583,32.063739 27.1121106,31.8211712 C27.3479605,31.578601 27.6272561,31.4573171 27.95,31.4573171 L29.1416667,31.4573171 C29.4644105,31.4573171 29.7437062,31.578601 29.9795561,31.8211712 C30.2154084,32.063739 30.3333333,32.35099 30.3333333,32.6829268 L30.3333333,33.9085366 Z M35.1,38.8109756 C35.1,39.1429124 34.982075,39.4301635 34.7462228,39.6727312 C34.5103729,39.9153015 34.2310772,40.0365854 33.9083333,40.0365854 L32.7166667,40.0365854 C32.3939228,40.0365854 32.1146271,39.9153015 31.8787772,39.6727312 C31.6429249,39.4301635 31.525,39.1429124 31.525,38.8109756 L31.525,37.5853659 C31.525,37.2534291 31.6429249,36.966178 31.8787772,36.7236102 C32.1146271,36.48104 32.3939228,36.3597561 32.7166667,36.3597561 L33.9083333,36.3597561 C34.2310772,36.3597561 34.5103729,36.48104 34.7462228,36.7236102 C34.982075,36.966178 35.1,37.2534291 35.1,37.5853659 L35.1,38.8109756 Z M35.1,33.9085366 C35.1,34.2404734 34.982075,34.5277244 34.7462228,34.7702922 C34.5103729,35.0128625 34.2310772,35.1341463 33.9083333,35.1341463 L32.7166667,35.1341463 C32.3939228,35.1341463 32.1146271,35.0128625 31.8787772,34.7702922 C31.6429249,34.5277244 31.525,34.2404734 31.525,33.9085366 L31.525,32.6829268 C31.525,32.35099 31.6429249,32.063739 31.8787772,31.8211712 C32.1146271,31.578601 32.3939228,31.4573171 32.7166667,31.4573171 L33.9083333,31.4573171 C34.2310772,31.4573171 34.5103729,31.578601 34.7462228,31.8211712 C34.982075,32.063739 35.1,32.35099 35.1,32.6829268 L35.1,33.9085366 Z M39.8666667,38.8109756 C39.8666667,39.1429124 39.7487417,39.4301635 39.5128894,39.6727312 C39.2770395,39.9153015 38.9977438,40.0365854 38.675,40.0365854 L37.4833333,40.0365854 C37.1605895,40.0365854 36.8812938,39.9153015 36.6454439,39.6727312 C36.4095916,39.4301635 36.2916667,39.1429124 36.2916667,38.8109756 L36.2916667,37.5853659 C36.2916667,37.2534291 36.4095916,36.966178 36.6454439,36.7236102 C36.8812938,36.48104 37.1605895,36.3597561 37.4833333,36.3597561 L38.675,36.3597561 C38.9977438,36.3597561 39.2770395,36.48104 39.5128894,36.7236102 C39.7487417,36.966178 39.8666667,37.2534291 39.8666667,37.5853659 L39.8666667,38.8109756 Z M39.8666667,33.9085366 C39.8666667,34.2404734 39.7487417,34.5277244 39.5128894,34.7702922 C39.2770395,35.0128625 38.9977438,35.1341463 38.675,35.1341463 L37.4833333,35.1341463 C37.1605895,35.1341463 36.8812938,35.0128625 36.6454439,34.7702922 C36.4095916,34.5277244 36.2916667,34.2404734 36.2916667,33.9085366 L36.2916667,32.6829268 C36.2916667,32.35099 36.4095916,32.063739 36.6454439,31.8211712 C36.8812938,31.578601 37.1605895,31.4573171 37.4833333,31.4573171 L38.675,31.4573171 C38.9977438,31.4573171 39.2770395,31.578601 39.5128894,31.8211712 C39.7487417,32.063739 39.8666667,32.35099 39.8666667,32.6829268 L39.8666667,33.9085366 Z M41.0583333,27.7804878 L25.5666667,27.7804878 L25.5666667,26.554878 C25.5666667,26.2229413 25.6845909,25.9356902 25.9204427,25.6931224 C26.1562945,25.4505522 26.4355888,25.3292683 26.7583333,25.3292683 L29.1416667,25.3292683 L29.1416667,25.9420732 C29.1416667,26.1080428 29.2006279,26.2516671 29.3185553,26.372951 C29.4364802,26.4942373 29.5761269,26.554878 29.7375,26.554878 C29.8988731,26.554878 30.0385198,26.4942373 30.1564447,26.372951 C30.274372,26.2516671 30.3333333,26.1080428 30.3333333,25.9420732 L30.3333333,25.3292683 L36.2916667,25.3292683 L36.2916667,25.9420732 C36.2916667,26.1080428 36.3506279,26.2516671 36.4685553,26.372951 C36.5864802,26.4942373 36.7261269,26.554878 36.8875,26.554878 C37.0488731,26.554878 37.1885198,26.4942373 37.3064447,26.372951 C37.424372,26.2516671 37.4833333,26.1080428 37.4833333,25.9420732 L37.4833333,25.3292683 L39.8666667,25.3292683 C40.1894105,25.3292683 40.4687062,25.4505522 40.7045561,25.6931224 C40.9404084,25.9356902 41.0583333,26.2229413 41.0583333,26.554878 L41.0583333,27.7804878 Z M32.7166667,33.9085366 L33.9083333,33.9085366 L33.9083333,32.6829268 L32.7166667,32.6829268 L32.7166667,33.9085366 Z" id="Page-1"></path>
                    </g>
                </g>
            </g>
        </g>
    </g>
</svg>