<?xml version="1.0" encoding="utf-8" ?>
<svg xmlns="http://www.w3.org/2000/svg" xmlns:xlink="http://www.w3.org/1999/xlink" width="19" height="15">
    <defs>
        <clipPath id="clip_0">
            <rect x="-28" y="-342" width="1600" height="953" clip-rule="evenodd"/>
        </clipPath>
    </defs>
    <g clip-path="url(#clip_0)">
        <path fill="rgb(255,255,255)" stroke="none" d="M18.4648 0.548244C18.108 0.182748 17.662 0 17.1268 0L1.87324 0C1.33803 0 0.892021 0.182748 0.535211 0.548244C0.178402 0.913743 0 1.35965 0 1.88596L0 13.114C0 13.6404 0.178402 14.0863 0.535211 14.4518C0.892021 14.8173 1.33803 15 1.87324 15L17.1268 15C17.662 15 18.108 14.8173 18.4648 14.4518C18.8216 14.0863 19 13.6404 19 13.114L19 1.88596C19 1.35965 18.8216 0.913743 18.4648 0.548244ZM17.1268 3.77193L17.1268 1.88596L1.87324 1.88596L1.87324 3.77193L17.1268 3.77193ZM17.1268 13.114L17.1268 7.5L1.87324 7.5L1.87324 13.114L17.1268 13.114Z" fill-rule="evenodd"/>
    </g>
</svg>
