<?xml version="1.0" encoding="utf-8" ?>
<svg xmlns="http://www.w3.org/2000/svg" xmlns:xlink="http://www.w3.org/1999/xlink" width="20" height="20" viewBox="0 0 8 8">
    <defs>
        <clipPath id="clip_0">
            <rect x="-647" y="-621" width="1600" height="953" clip-rule="evenodd"/>
        </clipPath>
    </defs>
    <g clip-path="url(#clip_0)">
        <path fill="currentColor" stroke="none" d="M2.6074 7C2.49139 7 2.38221 6.9772 2.27985 6.9316C2.17749 6.886 2.09219 6.8176 2.02395 6.7264L0.150749 4.36173C0.027916 4.2119 -0.0198517 4.0409 0.00744448 3.84873C0.0347407 3.65656 0.130276 3.5051 0.294054 3.39436C0.451007 3.2771 0.630136 3.2315 0.831446 3.25756C1.03276 3.28362 1.19483 3.37156 1.31766 3.52139L2.54598 5.07504L5.64751 0.326147C5.74987 0.163291 5.89999 0.0606915 6.09789 0.018349C6.29579 -0.0239947 6.48004 0.00694856 6.65064 0.111177C6.82124 0.208891 6.93042 0.352203 6.97819 0.541118C7.02596 0.730032 6.99525 0.905916 6.88607 1.06877L3.22156 6.67754C3.16015 6.77526 3.07826 6.85343 2.9759 6.91206C2.87354 6.97069 2.76094 7 2.63811 7C2.63128 7 2.62446 7 2.61764 7C2.61081 7 2.6074 7 2.6074 7Z"/>
    </g>
</svg>
