<svg width="13px" height="13px" viewBox="0 0 13 13" version="1.1" xmlns="http://www.w3.org/2000/svg" xmlns:xlink="http://www.w3.org/1999/xlink">
    
    <g id="Page-1" stroke="none" stroke-width="1" fill="none" fill-rule="evenodd">
        <circle id="Oval" stroke="#89C0CA" stroke-width="0.5" cx="6.5" cy="6.5" r="5.5"></circle>
        <path d="M5.78973483,8.94286877 C5.80630251,8.95001017 5.81576872,8.95239061 5.82523584,8.95715157 C5.83470296,8.96191252 5.83943606,8.96429297 5.83943606,8.96429297 C5.86783651,8.97381488 5.88676984,8.98333665 5.89623696,8.99285856 L5.95303785,8.99285856 C5.9814383,9.00238048 6.00510564,9.00238048 6.02403897,8.99285856 L6.05243941,8.99285856 C6.09030698,8.98333665 6.12344053,8.969054 6.15184097,8.95001017 C6.15184097,8.95001017 6.15657408,8.94524928 6.1660412,8.93572737 C6.19444164,8.91668354 6.21100842,8.90478136 6.21574152,8.90002037 C6.22047554,8.89525937 6.22520864,8.88811807 6.22994266,8.87859617 C6.23467576,8.86907427 6.23704231,8.86431337 6.23704231,8.86431337 L8.94928494,4.49377675 C8.99661963,4.41760121 9.01081894,4.33666596 8.99188561,4.25096916 C8.97295229,4.16527237 8.92798506,4.09861991 8.85698304,4.05100997 C8.78598192,4.00340003 8.70788115,3.98911815 8.62267981,4.00816157 C8.53747847,4.027205 8.47121137,4.0700534 8.42387669,4.13670677 L5.91043718,8.178739 L4.53301553,6.82187306 C4.46674752,6.76474186 4.39101375,6.73617626 4.30581196,6.73617626 C4.22061016,6.73617626 4.14724313,6.76950249 4.0857085,6.83615585 C4.02417389,6.90280922 3.99577373,6.98136416 4.00050716,7.07182159 C4.00524059,7.16227993 4.0407408,7.23607424 4.10700883,7.29320544 L5.76843495,8.92144457 C5.78026862,8.93334692 5.78500172,8.93810781 5.78973483,8.94286877 Z" id="check" fill="#89C0CA"></path>
    </g>
</svg>