<svg width="7px" height="7px" viewBox="0 0 7 7" version="1.1" xmlns="http://www.w3.org/2000/svg" xmlns:xlink="http://www.w3.org/1999/xlink">
    <g id="Symbols" stroke="none" stroke-width="1" fill="none" fill-rule="evenodd">
        <g transform="translate(-9.000000, -7.000000)">
            <path d="M9.16816613,13.8318339 C9.39726203,14.0609298 9.6213741,14.0559494 9.84050923,13.8168929 L12.4999997,11.1872843 L15.1594902,13.8168929 C15.3786255,14.0559494 15.602737,14.0609298 15.8318343,13.8318339 C16.0609296,13.602738 16.0559496,13.3786259 15.8168924,13.1594908 L13.1872838,10.5000003 L15.8168924,7.84050979 C16.0559496,7.62137447 16.0609296,7.39726297 15.8318343,7.16816573 C15.602737,6.93907041 15.3786255,6.94405041 15.1594902,7.18310765 L12.4999997,9.81271622 L9.84050923,7.18310765 C9.6213741,6.94405041 9.39726203,6.93907041 9.16816613,7.16816573 C8.93907024,7.39726297 8.94405062,7.62137447 9.18310709,7.84050979 L11.8127157,10.5000003 L9.18310709,13.1594908 C8.94405062,13.3786259 8.93907024,13.602738 9.16816613,13.8318339 Z"></path>
        </g>
    </g>
</svg>