<svg width="25px" height="18px" viewBox="0 0 25 18" version="1.1" xmlns="http://www.w3.org/2000/svg" xmlns:xlink="http://www.w3.org/1999/xlink">
    
    <g id="Pages" stroke="none" stroke-width="1" fill="none" fill-rule="evenodd">
        <g id="Desktop---03-Full-Board" transform="translate(-33.000000, -270.000000)">
            <g id="Left-Side" transform="translate(0.000000, 80.000000)">
                <g id="icons" transform="translate(33.000000, 108.000000)">
                    <path d="M7.15399592,96.6735003 C7.00749768,96.6735003 6.86100256,96.6490842 6.71450432,96.6002512 C6.56800296,96.5514181 6.43778438,96.470031 6.32384234,96.356089 L0,90.7403199 L6.66566845,84.8071427 C6.92611185,84.5792555 7.22724348,84.4734517 7.56907584,84.4897283 C7.9109082,84.5060079 8.19576016,84.6443648 8.42364735,84.9048082 C8.66781422,85.1652516 8.77768712,85.4704524 8.75326918,85.820423 C8.72885437,86.1703905 8.58642526,86.4593147 8.32598186,86.687205 L3.76012155,90.7403199 L7.98415575,94.5004446 C8.24459603,94.7283318 8.382956,95.0131838 8.39923254,95.3550161 C8.41550908,95.6968485 8.30970844,95.9979801 8.08182125,96.2584235 C7.95159955,96.4049208 7.80510131,96.5107243 7.6423234,96.5758348 C7.47954861,96.6409453 7.31677383,96.6735003 7.15399592,96.6735003 Z M18.3366982,96.6735003 L25.0023666,90.7403199 L18.6785243,85.1245571 C18.418084,84.8966668 18.1169524,84.7908662 17.77512,84.8071427 C17.4332877,84.8234192 17.1484357,84.9617792 16.9205454,85.2222226 C16.6926582,85.4826629 16.5868576,85.7837945 16.6031341,86.1256269 C16.6194106,86.4674592 16.7577706,86.7523112 17.0182109,86.9802015 L21.2422451,90.7403199 L16.6763848,94.8178559 C16.4159414,95.0457431 16.2735123,95.3305982 16.2490975,95.6724305 C16.2246795,96.0142598 16.3345524,96.3153914 16.5787193,96.5758348 C16.6926613,96.7223337 16.8310182,96.8281371 16.9937961,96.8932477 C17.156574,96.9583582 17.327487,96.9909132 17.5065384,96.9909132 C17.6530397,96.9909132 17.7995348,96.9664971 17.9460362,96.917664 C18.0925345,96.868831 18.222753,96.7874439 18.3366982,96.6735003 Z M12.4767685,98.4558956 L14.9916534,83.4398258 C15.0404862,83.1142731 14.9672386,82.8090723 14.7719045,82.524211 C14.5765735,82.2393528 14.3079981,82.0725088 13.9661657,82.0236761 C13.6243334,81.9585668 13.3109943,82.0277452 13.0261361,82.2312145 C12.7412748,82.4346869 12.574434,82.7073314 12.5255981,83.0491638 L10.0107132,98.0408172 C9.96188046,98.382648 10.035128,98.6919192 10.2304621,98.9686394 C10.4257931,99.2453597 10.6943685,99.4162726 11.0362009,99.4813833 C11.0850336,99.4813833 11.1257281,99.4854526 11.1582812,99.4935915 C11.1908374,99.5017303 11.2233936,99.5057996 11.2559467,99.5057996 C11.5489463,99.5057996 11.8134557,99.4081351 12.0494812,99.2128032 C12.2855067,99.0174712 12.4279326,98.7651711 12.4767685,98.4558956 Z" id="code"></path>
                </g>
            </g>
        </g>
    </g>
</svg>