<svg width="669" height="180" viewBox="0 0 669 180" fill="none" xmlns="http://www.w3.org/2000/svg">
<path d="M332.52 140.76C329.819 139.32 326.579 140.22 325.138 142.92C324.958 143.1 315.236 160.2 289.132 162.18H288.952C265.728 165.06 241.423 145.98 223.78 132.12C221.44 130.32 219.279 128.52 217.119 127.08C214.058 124.74 210.998 122.58 207.757 120.78C215.139 108.36 225.04 91.2604 234.222 75.0603C234.582 75.2403 234.942 75.4203 235.302 75.4203C246.104 79.5604 256.186 79.3803 265.368 74.8803C284.451 65.5203 292.012 40.5003 292.372 39.4203C296.513 25.5603 292.192 13.8603 281.03 8.28035C280.85 8.28035 280.67 8.10035 280.49 8.10035C269.508 3.96035 259.606 9.00035 250.965 23.4003C250.785 23.7603 241.243 40.5003 229.721 60.8403C223.24 57.2403 219.099 53.1003 217.479 48.6003C215.319 42.6603 216.759 34.9203 222.16 25.0203C223.6 22.3203 222.52 19.0803 219.999 17.6403C217.299 16.2003 214.058 17.2803 212.618 19.8003C205.777 32.7603 203.977 43.3803 207.397 52.3803C210.098 59.4003 215.679 65.3403 224.5 70.3803C215.319 86.5803 205.417 103.68 198.215 115.74C185.613 110.16 173.551 108.9 164.91 112.5C158.068 115.38 153.568 121.32 152.667 129.06C151.587 137.88 156.088 145.44 164.369 148.32C174.991 152.1 190.654 148.5 198.756 135.9C199.656 134.46 200.916 132.48 202.356 130.14C205.057 131.76 207.757 133.56 210.638 135.72C212.618 137.34 214.778 138.96 217.119 140.76C234.942 154.62 258.706 173.34 284.271 173.34C286.251 173.34 288.232 173.16 290.212 172.98C322.078 170.64 334.32 149.04 334.86 148.14C336.12 145.62 335.22 142.2 332.52 140.76ZM260.687 28.9803C268.608 15.8403 273.829 17.2803 276.53 18.1803C282.831 21.4203 284.631 27.5403 281.931 36.3603C281.931 36.5403 275.449 57.7803 260.687 64.9803C254.386 68.0403 247.544 68.2203 239.983 65.3403C250.785 46.2603 259.787 30.4203 260.687 28.9803ZM189.574 129.96C184.713 137.7 174.451 140.22 168.15 137.88C164.549 136.62 163.109 134.1 163.649 130.14C164.189 126.36 165.99 123.84 169.23 122.4C171.031 121.68 173.371 121.14 176.072 121.14C180.572 121.14 186.333 122.22 192.634 124.92C191.374 127.08 190.294 128.7 189.574 129.96Z" fill="white"/>
<path d="M617.151 45.0004H602.568L617.871 20.8804C619.491 18.3604 618.771 14.9404 616.25 13.3204C613.73 11.7004 610.309 12.4204 608.689 14.9404L589.606 45.0004H573.583C570.522 45.0004 568.182 47.5204 568.182 50.4004C568.182 53.4604 570.702 55.8004 573.583 55.8004H582.584L540.817 122.04C536.136 129.78 529.115 127.08 527.675 126.36C525.334 125.1 524.614 123.84 524.434 122.58C523.354 118.08 526.594 111.06 530.195 106.2C530.375 106.02 530.375 106.02 530.555 105.84C530.555 105.84 544.778 82.8004 547.118 78.8404C549.278 75.2404 552.159 67.5004 549.459 60.1204C548.018 56.5204 544.778 51.8404 536.856 49.5004C529.115 47.1604 522.274 49.1404 517.413 51.6604C516.513 49.5004 515.252 47.1604 513.272 44.4604C511.472 42.1204 508.051 41.5804 505.531 43.5604C503.19 45.3604 502.65 48.7804 504.63 51.3004C507.691 55.2604 507.871 57.7804 507.691 58.5004L477.806 111.96C474.385 118.08 468.084 121.68 461.063 121.68C457.822 121.68 454.942 120.06 453.501 117.18C451.881 114.48 451.881 111.06 453.501 108.36L469.164 81.5404C470.604 79.2004 469.884 76.1404 467.724 74.3404C467.544 74.1604 453.321 63.3604 449.721 60.3004C445.04 56.3404 449.001 49.5004 449.361 48.7804C450.981 46.2604 450.261 42.8404 447.74 41.2204C445.22 39.6004 441.799 40.3204 440.179 42.8404C437.838 46.4404 435.318 53.1004 436.938 59.5804C416.055 101.88 402.192 115.74 395.891 120.42C391.39 123.66 386.889 124.2 383.649 122.22C380.588 120.24 379.328 116.28 380.228 111.78C380.228 111.6 380.228 111.24 380.228 111.06C388.15 100.8 394.091 89.4604 397.691 82.4404C398.591 80.6404 399.312 79.2004 400.032 78.3004C404.533 70.5604 407.413 69.3004 411.374 67.6804C414.254 66.6004 415.514 63.3604 414.434 60.4804C413.354 57.6004 410.114 56.3404 407.233 57.4204C404.893 58.3204 402.732 59.4004 400.572 60.8404C399.852 59.0404 398.952 57.0604 397.691 55.2604C395.351 52.2004 390.85 48.4204 382.389 47.7004C363.485 46.2604 351.243 67.1404 339.181 87.4804C337.921 89.4604 336.84 91.4404 335.58 93.6004C322.438 115.56 309.115 125.28 294.533 123.48C289.132 122.76 281.931 120.96 279.05 116.46C276.71 112.5 277.61 107.28 278.87 103.5C279.05 102.96 279.23 102.42 279.41 101.88C288.412 105.66 303.534 107.82 315.597 96.1204C325.138 86.9404 335.22 72.0004 331.799 59.7604C330.179 53.8204 325.318 49.5004 318.297 47.8804C299.754 43.5604 292.913 54.7204 290.392 58.8604C290.212 59.2204 290.032 59.5804 289.852 59.7604C287.151 63.0004 271.849 89.4604 268.248 100.08C265.368 108.72 265.728 116.46 269.508 122.4C273.649 129.06 281.57 133.02 292.913 134.46C294.533 134.64 296.153 134.82 297.773 134.82C308.575 134.82 318.837 130.14 328.379 120.78C329.459 123.3 331.079 125.64 333.06 127.8C336.84 131.58 341.701 133.56 346.922 133.56C351.063 133.56 355.384 132.3 359.704 129.96C363.305 127.98 366.726 125.28 369.966 122.22C371.407 126 373.927 129.24 377.348 131.58C380.408 133.56 383.829 134.46 387.429 134.46C392.11 134.46 397.151 132.84 401.832 129.42C413.894 120.78 427.757 100.8 443.6 70.0204C446.84 72.7204 452.961 77.4004 456.742 80.2804L443.419 102.96C439.819 109.08 439.819 116.46 443.239 122.76C446.84 129.06 453.141 132.66 460.343 132.84H460.523C471.324 132.84 481.406 126.9 486.627 117.54L515.072 66.4204C515.252 66.2404 515.432 66.2404 515.612 66.0604C515.972 65.7004 523.534 57.4204 532.896 60.3004C537.216 61.5604 538.116 63.7204 538.297 64.2604C539.557 67.3204 537.936 71.8204 536.856 73.2604C534.516 76.8604 521.734 97.7404 520.473 100.08C517.953 103.68 510.391 114.84 513.092 125.28C514.352 130.14 517.413 133.92 522.274 136.26C525.514 137.88 528.755 138.6 531.635 138.6C540.457 138.6 546.938 132.3 549.459 127.8L553.239 121.86C553.599 122.58 553.959 123.48 554.499 124.2C559.36 131.94 568.182 135.54 574.843 135.54C603.108 135.54 615.17 98.6404 615.53 97.2004C616.43 94.3204 614.81 91.2604 611.93 90.3604C609.049 89.4604 605.989 91.0804 605.088 93.9604C605.088 93.9604 602.568 101.88 597.167 109.8C590.506 119.7 582.945 124.74 574.663 124.74C571.062 124.74 566.021 122.58 563.681 118.62C561.341 114.84 561.701 110.16 564.581 104.4C564.761 104.04 564.941 103.68 564.941 103.32L594.647 56.1604H616.25C619.311 56.1604 621.651 53.6404 621.651 50.7604C622.732 47.5204 620.211 45.0004 617.151 45.0004ZM299.034 66.9604C299.574 66.2404 300.114 65.5204 300.654 64.6204C302.814 61.0204 305.695 56.1604 316.677 58.6804C321.178 59.7604 321.898 61.9204 322.078 62.8204C323.338 67.6804 319.197 78.3004 308.755 88.3804C300.114 96.6604 289.852 94.1404 284.811 91.9804C290.212 81.3604 297.773 68.5804 299.034 66.9604ZM355.024 120.6C349.623 123.66 344.762 123.48 341.521 120.24C338.461 117.18 337.561 112.5 339.361 109.26C339.361 109.26 339.361 109.08 339.541 109.08C341.701 106.2 343.682 103.14 345.662 99.7204C346.922 97.7404 348.002 95.5804 349.263 93.6004C359.524 76.1404 370.146 58.3204 382.209 59.2204C385.629 59.5804 388.15 60.4804 389.59 62.4604C391.93 65.5204 391.75 70.2004 391.39 71.8204C391.39 72.1804 391.39 72.5404 391.39 72.7204C391.39 72.9004 391.21 72.9004 391.21 73.0804C390.67 74.1604 389.77 75.7804 388.69 77.5804C382.929 87.8404 370.146 112.14 355.024 120.6Z" fill="white"/>
<path d="M57.7904 180C57.6103 179.82 57.4303 179.82 57.2503 179.64C54.9098 178.74 54.3698 176.22 56.1701 174.42C56.3501 174.24 56.5301 174.06 56.7102 173.88C55.2699 173.7 54.0097 173.7 52.7495 173.34C49.8689 172.8 46.9884 172.26 43.9279 171.54C43.0277 171.36 42.3076 171 41.5875 170.46C38.887 168.84 38.7069 165.6 41.0474 163.62C41.4074 163.26 41.9475 162.9 42.4876 162.36C40.5073 161.46 38.7069 160.38 38.5269 158.04C38.3469 155.7 39.6071 154.44 41.4074 153.18C41.0474 153 40.6873 152.82 40.5073 152.64C39.067 151.92 38.3469 150.84 38.1668 149.22C38.1668 147.6 38.887 146.34 40.3272 145.8C43.2077 144.72 46.0883 143.46 49.1488 142.74C55.2699 141.12 61.571 140.04 67.8722 139.14C72.0129 138.6 76.1537 138.24 80.2944 137.88C80.8345 137.88 81.3746 137.88 81.9147 137.7C82.2748 137.52 82.6348 137.16 82.6348 136.98C83.1749 133.02 83.715 128.88 84.2551 124.92C85.5153 116.1 86.7756 107.28 90.3762 99C92.5366 93.96 95.057 88.92 97.3975 83.88C100.638 77.04 103.699 70.02 105.679 62.64C106.579 59.22 107.119 55.8 107.119 52.2C106.939 38.88 102.798 27 92.8967 17.64C86.5955 11.7 79.0342 8.28 70.5727 6.66C66.6119 5.94 62.6512 5.58 58.5105 5.76C50.409 6.12 42.4876 7.38 35.1063 10.98C25.2045 16.74 18.7234 25.2 16.2029 36.54C15.1227 41.58 15.1227 46.62 15.8428 51.66C16.2029 55.26 16.563 58.68 16.3829 62.28C16.2029 66.6 14.5826 70.56 12.4222 74.34C10.4419 77.76 8.64155 81.18 6.84123 84.42C6.1211 85.68 6.30113 85.68 7.56136 86.22C10.0818 87.12 12.6023 88.02 15.1227 88.92C17.1031 89.64 19.0834 90.54 20.5237 92.16C21.7839 93.6 21.7839 95.58 21.9639 97.38C22.324 103.86 23.2242 110.16 25.3846 116.1C26.2847 118.62 27.905 120.6 30.4255 121.68C34.2061 123.48 38.1668 124.74 42.3076 124.92C46.9884 125.28 51.6693 125.28 56.3501 125.28C57.2503 125.28 57.9704 125.28 58.8706 125.1C59.0506 125.1 59.5907 124.74 59.5907 124.56C59.5907 119.34 59.7707 113.94 59.5907 108.72C59.5907 104.22 58.6905 99.72 57.7904 95.22C57.6103 94.68 57.6103 94.5 56.8902 94.5C49.3288 96.12 40.3272 91.44 37.2667 83.16C35.1063 77.22 35.4664 71.46 39.067 66.24C40.6873 63.9 42.8477 62.28 45.7282 61.56C48.2487 60.84 50.5891 61.38 52.7495 63.18C55.2699 65.16 56.7102 68.04 57.7904 70.92C59.0506 74.7 60.1308 78.66 61.211 82.44C61.391 82.8 61.391 82.98 61.571 83.7C61.9311 83.16 62.1111 82.8 62.2912 82.44C63.0113 80.28 63.7314 78.12 64.2715 76.14C65.5318 72.36 66.972 68.58 69.6725 65.34C70.7527 64.08 72.0129 62.64 73.6332 61.74C77.2339 59.4 81.5546 59.94 84.9752 63.18C88.936 66.78 89.8361 71.46 87.4957 76.86C86.2355 79.92 84.2551 82.62 82.0947 85.14C78.4941 89.1 74.1733 92.34 69.3124 94.68C68.0522 95.22 66.972 95.22 65.8918 94.5C64.0915 93.06 64.2715 90.36 66.4319 89.46C69.1324 88.2 71.6528 86.58 73.9933 84.6C77.4139 81.72 80.2944 78.66 81.9147 74.52C82.6348 72.54 82.9949 70.56 81.5546 68.76C79.3942 66.06 77.4139 66.06 75.4335 68.22C75.0735 68.58 74.8934 68.94 74.5334 69.3C72.1929 72.18 70.9327 75.6 69.8525 79.2C69.1324 81.54 68.4123 84.06 67.3321 86.4C66.4319 88.2 64.9917 89.82 63.7314 91.44C63.3714 91.98 63.1913 92.34 63.3714 92.88C64.4516 98.1 65.5318 103.5 65.5318 108.9C65.7118 114.12 65.5318 119.34 65.5318 124.38C65.5318 126.36 65.5318 128.16 65.5318 130.14C65.5318 131.04 65.3517 131.22 64.4516 131.4C62.6512 131.58 60.8509 131.94 59.0506 131.94C54.9098 132.12 50.5891 132.3 46.4483 132.12C39.067 131.94 32.0457 130.5 25.5646 126.72C23.5842 125.46 21.9639 123.84 20.8837 121.86C18.7234 118.08 17.6432 114.12 16.923 109.8C16.563 105.3 16.2029 101.16 15.8428 97.2C15.6628 95.94 15.1227 95.4 14.0425 95.04C11.162 93.96 8.10145 93.06 5.22094 91.98C4.32078 91.62 3.42061 91.26 2.70048 90.72C1.44026 89.82 0.540097 88.74 0.180032 87.12C0.180032 86.76 0 86.58 0 86.4C0 86.22 0 85.86 0 85.68C0 85.5 0.180032 85.5 0.180032 85.32C0.540097 83.16 1.44026 81.36 2.52045 79.56C4.32078 76.32 6.1211 73.08 7.92142 69.84C10.0818 65.88 10.6219 61.56 10.2618 57.06C10.0818 54.54 9.54171 51.84 9.54171 49.32C9.36168 45 9.36168 40.86 10.2618 36.72C12.7823 22.86 20.3436 12.6 32.9459 6.12C40.6873 2.16 49.1488 0.54 57.7904 0.36C58.3305 0.18 58.8706 0 59.4107 0C60.4908 0 61.571 0 62.6512 0C63.1913 0 63.5514 0.18 64.0915 0.18C68.2322 0.36 72.373 0.9 76.3337 1.98C86.4155 4.68 95.057 9.9 101.718 18C109.28 27 112.88 37.62 113.42 49.32C113.42 49.68 113.6 50.04 113.6 50.4C113.6 51.3 113.6 52.38 113.6 53.28C113.6 53.64 113.42 53.82 113.42 54.18C112.88 57.24 112.7 60.3 111.98 63.36C110.18 71.1 106.939 78.3 103.699 85.32C101.178 90.9 98.2976 96.3 95.9572 101.88C93.2567 108.54 92.1765 115.56 91.0963 122.58C90.0161 128.88 89.296 135.18 88.3959 141.48C88.2158 142.2 88.0358 142.56 87.3157 142.74C84.9752 143.1 82.6348 143.46 80.2944 143.64C77.4139 144 74.5334 144 71.6528 144.36C67.152 144.9 62.6512 145.8 58.1504 146.52C56.1701 146.88 54.1897 147.42 52.0293 147.78C52.0293 147.96 52.0293 147.96 52.0293 148.14C52.9295 148.14 53.8297 148.32 54.5498 148.14C56.1701 147.78 57.7904 147.42 59.4107 147.06C64.8116 145.98 70.2126 145.08 75.7936 145.26C77.7739 145.26 79.5743 145.44 81.3746 146.34C83.715 147.42 83.8951 150.48 81.7347 151.92C80.6545 152.64 79.2142 153 77.954 153.36C77.4139 153.54 76.8738 153.54 76.5137 153.72V153.9C76.8738 153.9 77.2338 153.9 77.4139 154.08C78.6741 154.44 79.9343 154.62 81.0145 155.16C83.535 156.24 83.535 159.84 81.0145 161.1C80.1144 161.46 79.2142 162 78.314 162C75.2535 162.36 72.373 162.9 69.3124 163.08C65.3517 163.26 61.211 163.44 57.2503 163.44C55.63 163.44 54.1897 163.62 52.7495 164.16C51.6693 164.52 50.409 165.06 49.3288 165.42C48.9688 165.6 48.7887 165.78 48.2487 165.96C48.7887 166.14 48.9688 166.14 49.3288 166.32C54.5498 167.22 59.9508 167.76 65.3517 167.58C66.0718 167.58 66.6119 167.4 67.3321 167.04C69.1324 166.32 70.7527 165.24 72.373 164.52C74.8934 163.44 77.4139 162.36 80.1144 162.36C81.9147 162.36 83.535 163.44 84.0751 165.06C84.6152 166.68 84.2551 168.66 82.6348 169.74C81.7347 170.46 80.6545 171 79.5743 171.36C76.5137 172.44 73.2731 172.98 70.0326 173.16C69.1324 173.34 68.0522 173.52 67.3321 173.88C64.2715 175.68 61.211 177.48 58.1504 179.28C58.1504 180 57.9704 180 57.7904 180ZM54.0097 88.92C54.5498 88.92 54.9098 88.92 55.4499 88.74C56.1701 88.74 56.3501 88.38 56.1701 87.66C55.99 87.12 55.81 86.4 55.81 85.68C54.7298 81.18 53.6496 76.68 51.8493 72.54C51.3092 71.1 50.409 69.66 49.5089 68.4C48.6087 67.14 47.7086 66.96 46.2683 67.86C44.648 68.76 43.5678 70.2 42.8477 71.82C41.9475 74.16 41.9475 76.5 42.3076 78.84C43.3878 84.6 48.4287 88.92 54.0097 88.92ZM48.0686 157.32C48.0686 157.5 48.0686 157.5 48.0686 157.68C49.8689 157.86 51.8493 157.86 53.6496 158.04C54.1897 158.04 54.7298 158.04 55.0899 157.86C57.7904 157.14 60.4908 156.6 63.3714 155.88C63.9115 155.7 64.2715 155.7 64.9917 155.52C64.8116 155.16 64.8116 154.98 64.8116 154.98C61.571 154.98 58.3305 154.98 55.0899 154.98C54.9098 154.98 54.7298 154.98 54.7298 154.98C52.7495 155.52 50.9491 156.06 48.9688 156.78C48.6087 156.96 48.2487 157.14 48.0686 157.32Z" fill="white"/>
<path d="M48.0686 157.32C48.4286 157.14 48.6087 156.96 48.9687 156.96C50.9491 156.42 52.7494 155.7 54.7298 155.16C54.9098 155.16 55.0898 155.16 55.0898 155.16C58.3304 155.16 61.571 155.16 64.8116 155.16C64.8116 155.16 64.9916 155.16 65.1716 155.34C64.4515 155.52 64.0914 155.7 63.5513 155.7C60.8509 156.42 58.1504 157.14 55.2699 157.68C54.7298 157.86 54.1897 157.86 53.8296 157.86C52.0293 157.86 50.0489 157.68 48.2486 157.5C48.0686 157.5 48.0686 157.32 48.0686 157.32Z" fill="white"/>
<path d="M667.74 14.5798L669 30.4198C669 30.5998 669 30.7798 668.82 30.7798C668.64 30.9598 668.64 30.9598 668.46 30.9598H666.3C666.119 30.9598 666.119 30.9598 665.939 30.7798C665.759 30.5998 665.759 30.5998 665.759 30.4198L665.039 20.6998L661.979 27.7198C661.979 27.8998 661.799 28.0798 661.439 28.0798H659.458C659.278 28.0798 659.098 27.8998 658.918 27.7198L655.858 20.6998L655.137 30.4198C655.137 30.5998 655.137 30.5998 654.957 30.7798C654.777 30.9598 654.777 30.9598 654.597 30.9598H652.437C652.257 30.9598 652.077 30.9598 652.077 30.7798C651.897 30.5998 651.897 30.5998 651.897 30.4198L653.157 14.5798C653.157 14.3998 653.157 14.3998 653.337 14.2198C653.517 14.0398 653.517 14.0398 653.697 14.0398H656.038C656.218 14.0398 656.398 14.2198 656.578 14.3998L660.178 23.0398C660.358 23.2198 660.358 23.5798 660.538 23.9398C660.538 23.9398 660.538 23.7598 660.718 23.5798C660.718 23.3998 660.899 23.2198 660.899 23.2198L664.499 14.5798C664.679 14.3998 664.679 14.2198 665.039 14.2198H667.38C667.56 14.2198 667.56 14.2198 667.74 14.3998C667.74 14.3998 667.74 14.3998 667.74 14.5798ZM650.637 14.5798V16.5598C650.637 16.7398 650.637 16.7398 650.457 16.9198C650.277 17.0998 650.277 17.0998 650.097 17.0998H645.236V30.5998C645.236 30.7798 645.236 30.7798 645.056 30.9598C644.876 31.1398 644.876 31.1398 644.696 31.1398H642.535C642.355 31.1398 642.355 31.1398 642.175 30.9598C641.995 30.7798 641.995 30.7798 641.995 30.5998V17.0998H637.134C636.954 17.0998 636.954 17.0998 636.774 16.9198C636.594 16.7398 636.594 16.7398 636.594 16.5598V14.5798C636.594 14.3998 636.594 14.2198 636.774 14.2198C636.954 14.2198 636.954 14.0398 637.134 14.0398H650.277C650.457 14.0398 650.457 14.0398 650.637 14.2198C650.457 14.3998 650.637 14.3998 650.637 14.5798Z" fill="white"/>
</svg>
