<?xml version="1.0" encoding="utf-8" ?>
<svg xmlns="http://www.w3.org/2000/svg" xmlns:xlink="http://www.w3.org/1999/xlink" width="5" height="6">
    <defs>
        <clipPath id="clip_0">
            <rect x="-911" y="-350" width="1600" height="953" clip-rule="evenodd"/>
        </clipPath>
    </defs>
    <g clip-path="url(#clip_0)">
        <path fill="rgb(68,68,68)" stroke="none" d="M4.81328 5.79699C4.6888 5.93233 4.53838 6 4.36203 6C4.18568 6 4.03527 5.93233 3.91079 5.79699L2.5 4.04887L1.08921 5.79699C0.96473 5.93233 0.814316 6 0.637967 6C0.461617 6 0.311204 5.93233 0.186722 5.79699C0.06224 5.66165 0 5.5 0 5.31203C0 5.12406 0.06224 4.96241 0.186722 4.82707L1.65975 3L0.186722 1.18421C0.06224 1.04887 0 0.885339 0 0.693609C0 0.501879 0.06224 0.338346 0.186722 0.203008C0.311204 0.0676692 0.461617 0 0.637967 0C0.814316 0 0.96473 0.0676692 1.08921 0.203008L2.5 1.95113L3.91079 0.203008C4.03527 0.0676692 4.18568 0 4.36203 0C4.53838 0 4.6888 0.0676692 4.81328 0.203008C4.93776 0.338346 5 0.501879 5 0.693609C5 0.885339 4.93776 1.04887 4.81328 1.18421L3.34025 3L4.81328 4.82707C4.93776 4.96241 5 5.12406 5 5.31203C5 5.5 4.93776 5.66165 4.81328 5.79699Z"/>
    </g>
</svg>
