<svg width="13px" height="25px" viewBox="0 0 13 25" version="1.1" xmlns="http://www.w3.org/2000/svg" xmlns:xlink="http://www.w3.org/1999/xlink">
    
    <g id="Pages" stroke="none" stroke-width="1">
        <g id="Desktop---01-Register" transform="translate(-270.000000, -730.000000)">
            <g id="Intro" transform="translate(241.000000, 304.000000)">
                <g id="item-3" transform="translate(3.000000, 405.000000)">
                    <g id="icon-3" transform="translate(0.000000, 0.634146)">
                        <path d="M33.0092166,31.4253119 C33.8878699,31.666292 34.6167403,31.9072721 35.1958545,32.1482522 C35.7749648,32.3892323 36.3840233,32.720578 37.0230415,33.1422971 C37.6620596,33.5640123 38.1513025,34.0961696 38.4907815,34.7387884 C38.8302643,35.3814071 39,36.1445005 39,37.0280994 C39,38.2731684 38.590633,39.2872821 37.7718875,40.0704713 C36.9531458,40.8536624 35.8648285,41.3657401 34.5069124,41.6067214 L34.5069124,44.3779926 L30.6728111,44.3779926 L30.6728111,41.6067214 C29.3548322,41.3255766 28.2665175,40.7632952 27.4078341,39.9198606 C26.5491507,39.0764264 26.0798775,37.9920275 26,36.6666292 L28.8156682,36.6666292 C28.9754233,38.4739877 30.2334767,39.3776554 32.5898618,39.3776554 C33.8279621,39.3776554 34.7165879,39.1467193 35.2557585,38.6848395 C35.7949328,38.2229558 36.0645161,37.6907985 36.0645161,37.0883444 C36.0645161,35.642456 34.7864951,34.5982179 32.2304147,33.955603 C28.2365391,33.0318395 26.2396313,31.2646726 26.2396313,28.6540407 C26.2396313,27.4892971 26.658982,26.4952638 27.4976959,25.6719138 C28.3364097,24.84856 29.3947709,24.2963184 30.6728111,24.0151737 L30.6728111,21.2439024 L34.5069124,21.2439024 L34.5069124,24.0754187 C35.8248925,24.3967281 36.8333301,24.9991706 37.5322561,25.8827695 C38.231186,26.7663683 38.6006132,27.7905222 38.640553,28.9552658 L35.8248848,28.9552658 C35.745009,27.1479073 34.6666756,26.2442396 32.5898618,26.2442396 C31.5514529,26.2442396 30.7227387,26.4651355 30.1036847,26.9069349 C29.4846361,27.3487344 29.1751152,27.9310965 29.1751152,28.6540407 C29.1751152,29.8187843 30.4531362,30.7425324 33.0092166,31.4253119 Z" id="Page-1"></path>
                    </g>
                </g>
            </g>
        </g>
    </g>
</svg>