<svg width="11px" height="14px" viewBox="0 0 11 14" version="1.1" xmlns="http://www.w3.org/2000/svg" xmlns:xlink="http://www.w3.org/1999/xlink">
    <g id="Symbols" stroke="none" stroke-width="1" fill="none" fill-rule="evenodd">
        <g id="Buttons-/-Download-PDF" transform="translate(-22.000000, -13.000000)">
            <path d="M32.5397727,22.6647727 L28.3636364,26.6420455 C28.125,26.880683 27.8200775,27 27.4488636,27 C27.1041658,27 26.8125,26.880683 26.5738636,26.6420455 L22.3579545,22.6647727 C22.119317,22.4261364 22,22.1410989 22,21.8096604 C22,21.4782193 22.119317,21.1931818 22.3579545,20.9545455 C22.5965922,20.7159091 22.9015132,20.5965909 23.2727273,20.5965909 C23.6439413,20.5965909 23.9488624,20.7159091 24.1875,20.9545455 L26.1761364,22.8636364 L26.1761364,14.2329545 C26.1761364,13.8882567 26.3020829,13.5965909 26.553976,13.3579545 C26.8058716,13.1193182 27.1041658,13 27.4488636,13 C27.7935615,13 28.0918556,13.1193182 28.3437513,13.3579545 C28.5956444,13.5965909 28.7215909,13.8882567 28.7215909,14.2329545 L28.7215909,22.8636364 L30.7102273,20.9545455 C30.9488636,20.7159091 31.2537862,20.5965909 31.625,20.5965909 C31.9962138,20.5965909 32.3011364,20.7159091 32.5397727,20.9545455 C32.7784091,21.1931818 32.8977273,21.4782193 32.8977273,21.8096604 C32.8977273,22.1410989 32.7784091,22.4261364 32.5397727,22.6647727 Z" id="Page-1" transform="translate(27.448864, 20.000000) rotate(-360.000000) translate(-27.448864, -20.000000) "></path>
        </g>
    </g>
</svg>
