<svg width="17px" height="17px" viewBox="0 0 17 17" version="1.1" xmlns="http://www.w3.org/2000/svg" xmlns:xlink="http://www.w3.org/1999/xlink">

    <g id="Pages" stroke="none" stroke-width="1" fill="#f37073" fill-rule="evenodd">
        <g id="Desktop---03-Full-Board" transform="translate(-39.000000, -112.000000)">
            <path d="M43.8056008,121.588849 L42.218634,125.634491 L46.1972232,123.980471 L43.8056008,121.588849 Z M55.3613894,112.916418 L54.8696537,112.402329 C54.5865312,112.13411 54.2475361,112 53.852654,112 C53.4577748,112 53.1187769,112.13411 52.8356572,112.402329 L51.8298327,113.430504 L54.3555677,115.956239 L55.3613894,114.950414 C55.6445119,114.667292 55.7860717,114.328297 55.7860717,113.933415 C55.7860717,113.538536 55.6445119,113.199538 55.3613894,112.916418 Z M43.8726542,121.365329 L44.2526333,121.007703 L46.7783655,123.533438 L53.8414789,116.470325 L51.3157467,113.92224 L51.8298327,113.430504 L43.8726542,121.365329 Z M52.6121381,127.154402 L40.430504,127.154402 L40.430504,114.972768 L48.9688247,114.972768 L50.3099222,113.564614 L39.715252,113.564614 C39.5215369,113.564614 39.3539015,113.635392 39.2123404,113.776955 C39.0707794,113.918515 39,114.08615 39,114.279866 L39,127.869654 C39,128.063369 39.0707794,128.231004 39.2123404,128.372565 C39.3539015,128.514126 39.5215369,128.584906 39.715252,128.584906 L53.3050399,128.584906 C53.4987559,128.584906 53.666391,128.514126 53.8079508,128.372565 C53.9495134,128.231004 54.0202919,128.063369 54.0202919,127.869654 L54.0202919,117.811422 L52.5674377,119.219573 L52.6121381,127.154402 Z" id="edit"></path>
        </g>
    </g>
</svg>
