<svg width="44" height="44" viewBox="0 0 44 44" fill="none" xmlns="http://www.w3.org/2000/svg">
<path d="M39.2413 7.69995H8.55287C7.08047 7.69995 5.88258 8.89784 5.88258 10.3702V16.0695H1.6978C1.36764 16.0695 1.09998 16.3371 1.09998 16.6673C1.09998 16.9976 1.36764 17.2652 1.6978 17.2652H8.87172C9.20187 17.2652 9.46954 16.9976 9.46954 16.6673C9.46954 16.3371 9.20187 16.0695 8.87172 16.0695H7.07824V10.3702C7.07824 10.1836 7.1145 10.0055 7.17811 9.84097L18.7871 21.45L7.17811 33.0589C7.1145 32.8944 7.07824 32.7163 7.07824 32.5297V28.6239C7.07824 28.2936 6.81057 28.026 6.48041 28.026C6.15025 28.026 5.88258 28.2936 5.88258 28.6239V32.5297C5.88258 34.0021 7.08047 35.2 8.55287 35.2H39.2413C40.7137 35.2 41.9116 34.0021 41.9116 32.5297V10.3702C41.9116 8.89784 40.7137 7.69995 39.2413 7.69995ZM29.0071 21.45L40.616 9.84097C40.6797 10.0055 40.7159 10.1836 40.7159 10.3702V32.5297C40.7159 32.7163 40.6797 32.8944 40.616 33.0589L29.0071 21.45ZM39.2413 8.8956C39.428 8.8956 39.606 8.93187 39.7706 8.99548L26.4335 22.3326C25.0349 23.7313 22.7593 23.7313 21.3607 22.3326L8.0236 8.99548C8.18812 8.93187 8.36619 8.8956 8.55287 8.8956H39.2413ZM8.55287 34.0043C8.36619 34.0043 8.18812 33.968 8.0236 33.9044L19.6326 22.2954L20.5153 23.1781C21.4477 24.1104 22.6724 24.5767 23.8972 24.5767C25.1219 24.5767 26.3466 24.1104 27.2789 23.1781L28.1617 22.2954L39.7706 33.9044C39.6061 33.968 39.428 34.0043 39.2414 34.0043H8.55287Z" fill="#78C7D6" stroke="#78C7D6" stroke-width="0.5"/>
<path d="M6.48041 18.4609C6.15025 18.4609 5.88258 18.7285 5.88258 19.0588V20.8522H1.6978C1.36764 20.8522 1.09998 21.1198 1.09998 21.4501C1.09998 21.7803 1.36764 22.0479 1.6978 22.0479H11.263C11.5932 22.0479 11.8608 21.7803 11.8608 21.4501C11.8608 21.1198 11.5932 20.8522 11.263 20.8522H7.07824V19.0588C7.07824 18.7285 6.81057 18.4609 6.48041 18.4609Z" fill="#78C7D6" stroke="#78C7D6" stroke-width="0.5"/>
<path d="M8.87171 26.8304C9.20187 26.8304 9.46954 26.5628 9.46954 26.2325C9.46954 25.9023 9.20187 25.6347 8.87171 25.6347H7.07824V23.8412C7.07824 23.511 6.81057 23.2434 6.48041 23.2434C6.15025 23.2434 5.88258 23.511 5.88258 23.8412V25.6347H1.6978C1.36764 25.6347 1.09998 25.9023 1.09998 26.2325C1.09998 26.5628 1.36764 26.8304 1.6978 26.8304H8.87171Z" fill="#78C7D6" stroke="#78C7D6" stroke-width="0.5"/>
</svg>
