<svg width="24" height="24" viewBox="0 0 24 24" fill="none" xmlns="http://www.w3.org/2000/svg">
<path d="M16.623 14.5131C16.426 14.3366 16.1232 14.3538 15.9477 14.5504C14.9501 15.6652 13.5114 16.3042 11.9997 16.3042C10.4884 16.3042 9.04926 15.6652 8.05161 14.5504C7.87513 14.3538 7.57335 14.3366 7.37631 14.5131C7.17926 14.6891 7.163 14.9914 7.339 15.1884C8.51792 16.5055 10.2167 17.2607 11.9997 17.2607C13.7831 17.2607 15.4819 16.5051 16.6603 15.1884C16.8363 14.9914 16.8196 14.6891 16.623 14.5131Z" fill="#A18C8D" stroke="#A18C8D" stroke-width="0.5"/>
<path d="M12 1C5.9347 1 1 5.9347 1 12C1 18.0653 5.9347 23 12 23C18.0653 23 23 18.0653 23 12C23 5.9347 18.0653 1 12 1ZM12 22.0435C6.46174 22.0435 1.95652 17.5383 1.95652 12C1.95652 6.46174 6.46174 1.95652 12 1.95652C17.5383 1.95652 22.0435 6.46174 22.0435 12C22.0435 17.5383 17.5383 22.0435 12 22.0435Z" fill="#A18C8D" stroke="#A18C8D" stroke-width="0.5"/>
<path d="M15.8264 8.65234C14.5078 8.65234 13.4351 9.72508 13.4351 11.0436C13.4351 11.3076 13.6493 11.5219 13.9133 11.5219C14.1773 11.5219 14.3916 11.3076 14.3916 11.0436C14.3916 10.2526 15.0353 9.60887 15.8264 9.60887C16.6174 9.60887 17.2611 10.2526 17.2611 11.0436C17.2611 11.3076 17.4754 11.5219 17.7394 11.5219C18.0034 11.5219 18.2177 11.3076 18.2177 11.0436C18.2177 9.72508 17.1449 8.65234 15.8264 8.65234Z" fill="#A18C8D" stroke="#A18C8D" stroke-width="0.5"/>
<path d="M9.60905 11.0436C9.60905 11.3076 9.82331 11.5219 10.0873 11.5219C10.3513 11.5219 10.5656 11.3076 10.5656 11.0436C10.5656 9.72508 9.49283 8.65234 8.17426 8.65234C6.8557 8.65234 5.78296 9.72508 5.78296 11.0436C5.78296 11.3076 5.99722 11.5219 6.26122 11.5219C6.52522 11.5219 6.73948 11.3076 6.73948 11.0436C6.73948 10.2526 7.38322 9.60887 8.17426 9.60887C8.96531 9.60887 9.60905 10.2526 9.60905 11.0436Z" fill="#A18C8D" stroke="#A18C8D" stroke-width="0.5"/>
</svg>
