<svg width="18px" height="20px" viewBox="0 0 18 20" version="1.1" xmlns="http://www.w3.org/2000/svg" xmlns:xlink="http://www.w3.org/1999/xlink">
    
    <g id="Symbols" stroke="none" stroke-width="1" fill="currentColor" fill-rule="evenodd">
        <g id="ToolBar-Video-&amp;-Chat" transform="translate(-249.000000, -20.000000)">
            <g id="01" transform="translate(160.000000, 20.000000)">
                <path d="M105.781561,3.22693875 L102.209886,0.476082276 C101.70704,0.0915530044 101.145042,-0.0600387098 100.523878,0.0213042937 C99.9027136,0.102647297 99.3998726,0.394736433 99.0153433,0.897583058 L89.476083,13.27644 C89.0915527,13.7644952 88.9399613,14.3190991 89.0213043,14.9402631 C89.1026472,15.5614271 89.394738,16.064268 89.8975852,16.4487973 L93.4692617,19.1996538 C93.9721084,19.584184 94.5341066,19.7357754 95.1552705,19.6544325 C95.7764345,19.5730895 96.2792755,19.2883936 96.6638047,18.8003359 L106.203065,6.42148176 C106.587594,5.91863514 106.739186,5.35663693 106.657843,4.73547295 C106.5765,4.11430897 106.284411,3.61146803 105.781561,3.22693875 Z M96.1979325,17.1808801 L95.5767713,17.9573315 C95.488034,18.0756486 95.380811,18.164385 95.2550993,18.2235434 C95.1293877,18.2827018 94.9925874,18.3122807 94.84469,18.3122807 C94.7855327,18.3122807 94.7041897,18.3011887 94.600661,18.2790041 C94.4971351,18.2568198 94.4010034,18.2087543 94.3122661,18.1348061 L90.7184053,15.3617639 C90.6296674,15.3026066 90.5557204,15.2212665 90.496562,15.1177377 C90.4374036,15.014209 90.4004301,14.8958945 90.3856404,14.7627885 C90.3708506,14.6444711 90.3782455,14.5298538 90.4078247,14.4189307 C90.4374039,14.3080105 90.4891668,14.2007875 90.563115,14.0972587 L91.1620918,13.3208059 C91.2508297,13.21728 91.3580527,13.1322398 91.4837644,13.0656882 C91.6094763,12.9991338 91.7462786,12.9658566 91.894176,12.9658566 C91.9681218,12.9658566 92.053162,12.9806481 92.1492936,13.0102281 C92.2454281,13.0398053 92.345254,13.0915683 92.4487827,13.165517 L96.0204579,15.9163735 C96.1239866,15.9903222 96.2053296,16.0790566 96.2644869,16.1825854 C96.3236441,16.2861141 96.3606185,16.3970344 96.3754071,16.5153489 C96.3901985,16.6336662 96.3828042,16.7519836 96.3532242,16.8702981 C96.3236441,16.9886166 96.2718812,17.0921422 96.1979325,17.1808801 Z" id="Page-1"></path>
            </g>
        </g>
    </g>
</svg>
