<svg width="22px" height="22px" viewBox="0 0 22 22" version="1.1" xmlns="http://www.w3.org/2000/svg" xmlns:xlink="http://www.w3.org/1999/xlink">
    
    <g id="Pages" stroke="none" stroke-width="1">
        <g id="Desktop---01-Register" transform="translate(-263.000000, -600.000000)">
            <g id="Intro" transform="translate(241.000000, 304.000000)">
                <g id="item-2" transform="translate(3.000000, 273.000000)">
                    <g id="icon-2" transform="translate(0.000000, 0.268293)">
                        <path d="M34.7961717,33.525535 L27.7452352,27.612832 L27.7452352,31.1696894 L19.5,31.1696894 L19.5,35.9044726 L27.7452352,35.9044726 L27.7452352,39.438238 L34.7961717,33.525535 Z M38.3101586,41.8171757 L28.9165622,41.8171757 L28.9165622,44.1730183 L38.3101586,44.1730183 C38.9685543,44.1730183 39.5274171,43.9420556 39.9867645,43.4801234 C40.4461119,43.0181911 40.6757812,42.4638808 40.6757812,41.8171757 L40.6757812,25.2569864 C40.6757812,24.6102816 40.4461119,24.0521224 39.9867645,23.5824912 C39.5274171,23.11286 38.9685543,22.8780488 38.3101586,22.8780488 L28.9165622,22.8780488 L28.9165622,25.2569864 L38.3101586,25.2569864 L38.3101586,41.8171757 Z" id="Page-1"></path>
                    </g>
                </g>
            </g>
        </g>
    </g>
</svg>