<svg width="22px" height="20px" viewBox="0 0 22 20" version="1.1" xmlns="http://www.w3.org/2000/svg" xmlns:xlink="http://www.w3.org/1999/xlink">
    
    <g id="Symbols" stroke="none" stroke-width="1" fill="none" fill-rule="evenodd">
        <g id="ToolBar-Video-&amp;-Chat" transform="translate(-561.000000, -20.000000)">
            <g id="Group-7-Copy" transform="translate(487.000000, -1.000000)">
                <path d="M79.1333333,22.4285714 L80.6,21 L93.2041667,33.3214286 L90.5458333,33.8571429 L83.075,41 L74,32.4285714 L80.9666667,25.6428571 L79.1333333,22.4285714 Z M88.1625,32.4285714 L83.1208333,27.5178571 L78.0791667,32.4285714 L88.1625,32.4285714 Z M93.2041667,33.3214286 C95.0680653,35.2857229 96,36.7589229 96,37.7410714 C96,38.4851229 95.7250029,39.1175569 95.175,39.6383929 C94.6249971,40.1592289 93.9680595,40.4196429 93.2041667,40.4196429 C92.4402739,40.4196429 91.7909747,40.1592289 91.2562485,39.6383929 C90.7215253,39.1175569 90.4541667,38.4851229 90.4541667,37.7410714 C90.4541667,37.29464 90.6833304,36.7068486 91.1416667,35.97768 C91.6000029,35.2485086 92.0583304,34.6309543 92.5166667,34.125 L93.2041667,33.3214286 Z" id="Page-1"></path>
            </g>
        </g>
    </g>
</svg>