<svg width="10px" height="10px" viewBox="0 0 10 10" version="1.1" xmlns="http://www.w3.org/2000/svg" xmlns:xlink="http://www.w3.org/1999/xlink">
    
    <g id="Symbols" stroke="none" stroke-width="1" fill="none" fill-rule="evenodd">
        <g id="Buttons-/-Fullscreen" transform="translate(-15.000000, -15.000000)">
            <path d="M23.352865,17.688802 L21.0416663,20.0000007 L23.352865,22.311198 L24.2903648,21.3736982 C24.4162336,21.239148 24.5681408,21.2087665 24.746094,21.2825524 C24.9153656,21.3563367 25,21.484374 25,21.6666672 L25,24.5833333 C25,24.6961812 24.9587671,24.7938364 24.8763013,24.8763021 C24.7938369,24.9587678 24.696181,25 24.5833338,25 L21.6666672,25 C21.484374,25 21.3563367,24.9131953 21.2825524,24.7395834 C21.2087665,24.5703117 21.239148,24.4205736 21.3736982,24.2903647 L22.311198,23.352865 L19.9999993,21.0416663 L17.688802,23.352865 L18.6263018,24.2903647 C18.760852,24.4205736 18.7912335,24.5703117 18.7174476,24.7395834 C18.6436633,24.9131953 18.515626,25 18.3333328,25 L15.4166667,25 C15.3038188,25 15.2061636,24.9587678 15.1236979,24.8763021 C15.0412322,24.7938364 15,24.6961812 15,24.5833333 L15,21.6666672 C15,21.484374 15.0868047,21.3563367 15.2604166,21.2825524 C15.4296883,21.2087665 15.5794264,21.239148 15.7096353,21.3736982 L16.647135,22.311198 L18.9583337,20.0000007 L16.647135,17.688802 L15.7096353,18.6263018 C15.6271697,18.7087676 15.5295144,18.7500005 15.4166667,18.7500005 C15.364583,18.7500005 15.3125003,18.7391491 15.2604166,18.7174476 C15.0868047,18.6436633 15,18.515626 15,18.3333328 L15,15.4166662 C15,15.303819 15.0412322,15.2061631 15.1236979,15.1236987 C15.2061636,15.0412329 15.3038188,15 15.4166667,15 L18.3333328,15 C18.515626,15 18.6436633,15.0868044 18.7174476,15.2604175 C18.7912335,15.4296892 18.760852,15.5794264 18.6263018,15.7096352 L17.688802,16.647135 L19.9999993,18.9583337 L22.311198,16.647135 L21.3736982,15.7096352 C21.239148,15.5794264 21.2087665,15.4296892 21.2825524,15.2604175 C21.3563367,15.0868044 21.484374,15 21.6666672,15 L24.5833338,15 C24.696181,15 24.7938369,15.0412329 24.8763013,15.1236987 C24.9587671,15.2061631 25,15.303819 25,15.4166662 L25,18.3333328 C25,18.515626 24.9153656,18.6436633 24.746094,18.7174476 C24.6896696,18.7391491 24.6354167,18.7500005 24.5833338,18.7500005 C24.470485,18.7500005 24.3728306,18.7087676 24.2903648,18.6263018 L23.352865,17.688802 Z" id="Page-1"></path>
        </g>
    </g>
</svg>