<svg width="16px" height="16px" viewBox="0 0 16 16" version="1.1" xmlns="http://www.w3.org/2000/svg" xmlns:xlink="http://www.w3.org/1999/xlink">
    
    <g id="Symbols" stroke="none" stroke-width="1" fill="none" fill-rule="evenodd">
        <g id="Buttons-/-Close-Fullscreen" transform="translate(-12.000000, -12.000000)" stroke="#FFFFFF">
            <path d="M26.7104851,13.1735343 C26.4740741,12.9371253 26.242808,12.9422643 26.0166769,13.1889532 L21.9155054,17.2592888 L21.9155054,14.5148959 C21.9155054,14.3709945 21.8692526,14.2527919 21.776745,14.1602823 C21.6842354,14.0677747 21.5660328,14.0215219 21.4221314,14.0215219 C21.27823,14.0215219 21.1600275,14.0677747 21.0675179,14.1602823 C20.9750103,14.2527919 20.9287574,14.3709945 20.9287574,14.5148959 L20.9287574,18.461888 C20.9287574,18.5235597 20.9390354,18.5852315 20.9595933,18.6469032 C20.9801512,18.708575 21.0212651,18.7599687 21.0829368,18.8010826 C21.1240506,18.8627543 21.1754444,18.9038682 21.2371162,18.9244261 C21.2987879,18.944984 21.3604597,18.955262 21.4221314,18.955262 L25.3691235,18.955262 C25.5130249,18.955262 25.6312275,18.9090091 25.7237371,18.8165015 C25.8162447,18.7239919 25.8624975,18.6057894 25.8624975,18.461888 C25.8624975,18.3179865 25.8162447,18.199784 25.7237371,18.1072744 C25.6312275,18.0147668 25.5130249,17.9685139 25.3691235,17.9685139 L22.6247306,17.9685139 L26.6950662,13.8673425 C26.9417551,13.6412114 26.9468941,13.4099453 26.7104851,13.1735343 Z M13.1735347,26.7104847 C13.4099444,26.9468943 13.6412111,26.9417549 13.8673419,26.6950667 L17.9685134,22.6247312 L17.9685134,25.3691241 C17.9685134,25.5130255 18.0147662,25.6312286 18.1072738,25.7237367 C18.1997834,25.8162447 18.317986,25.8624981 18.4618874,25.8624981 C18.6057888,25.8624981 18.7239913,25.8162447 18.8165009,25.7237367 C18.9090086,25.6312286 18.9552614,25.5130255 18.9552614,25.3691241 L18.9552614,21.422132 C18.9552614,21.3604603 18.9449834,21.2987885 18.9244255,21.2371168 C18.8627538,21.1137733 18.7702461,21.0212656 18.6469026,20.9595939 C18.5852309,20.939036 18.5235591,20.928758 18.4618874,20.928758 L14.5148953,20.928758 C14.3709939,20.928758 14.2527908,20.9750108 14.1602827,21.0675185 C14.0677747,21.1600281 14.0215213,21.2782306 14.0215213,21.422132 C14.0215213,21.5660334 14.0677747,21.684236 14.1602827,21.7767456 C14.2527908,21.8692532 14.3709939,21.915506 14.5148953,21.915506 L17.2592882,21.915506 L13.1889527,26.0166775 C12.9422645,26.2428083 12.9371251,26.474075 13.1735347,26.7104847 Z" id="Page-1"></path>
        </g>
    </g>
</svg>