<svg width="13px" height="13px" viewBox="0 0 13 13" version="1.1" xmlns="http://www.w3.org/2000/svg" xmlns:xlink="http://www.w3.org/1999/xlink">
    <g stroke="none" stroke-width="1" fill="none" fill-rule="evenodd">
        <g transform="translate(-16.000000, -14.000000)">
            <g transform="translate(16.000000, 14.000000)">
                <path d="M6.48969286,0 C2.90215714,0 -9.28571426e-05,2.90178571 -9.28571426e-05,6.49071429 C-9.28571426e-05,10.0796429 2.90169286,12.9814286 6.48969286,12.9814286 C10.2364786,12.9814286 12.7204071,10.3489286 12.7204071,6.63928571 C12.7204071,6.21214286 12.7204071,5.88714286 12.6182643,5.56214286 L6.48969286,5.56214286 L6.48969286,7.79071429 L10.1714786,7.79071429 C10.0229071,8.7425 9.05719286,10.5903571 6.48969286,10.5903571 C4.27505,10.5903571 2.46619286,8.75178571 2.46619286,6.49071429 C2.46619286,4.22964286 4.27505,2.39107143 6.48969286,2.39107143 C7.75255,2.39107143 8.59755,2.92964286 9.07576429,3.39392857 L10.84005,1.69928571 C9.70719286,0.640714286 8.24469286,0 6.48969286,0" id="Fill-1"></path>
            </g>
        </g>
    </g>
</svg>