<svg width="34" height="34" viewBox="0 0 34 34" fill="none" xmlns="http://www.w3.org/2000/svg">
<rect width="34" height="34" rx="7" fill="white"/>
<g clip-path="url(#clip0)">
<path d="M11.9892 18.8776L11.3626 21.2166L9.07258 21.2651C8.3882 19.9957 8 18.5433 8 17C8 15.5076 8.36295 14.1002 9.00631 12.861H9.0068L11.0456 13.2347L11.9387 15.2613C11.7518 15.8062 11.6499 16.3912 11.6499 17C11.65 17.6606 11.7696 18.2936 11.9892 18.8776Z" fill="#FBBB00"/>
<path d="M25.8426 15.3187C25.946 15.8632 25.9999 16.4254 25.9999 17C25.9999 17.6444 25.9321 18.2729 25.8031 18.8792C25.365 20.9423 24.2202 22.7437 22.6343 24.0186L22.6338 24.0181L20.0659 23.887L19.7024 21.6182C20.7547 21.0011 21.5771 20.0353 22.0103 18.8792H17.1978V15.3187H22.0805H25.8426Z" fill="#518EF8"/>
<path d="M22.6341 24.0181L22.6346 24.0185C21.0922 25.2583 19.133 26 17.0002 26C13.5728 26 10.5929 24.0843 9.07275 21.2651L11.9894 18.8777C12.7494 20.9061 14.7062 22.3501 17.0002 22.3501C17.9862 22.3501 18.91 22.0835 19.7026 21.6182L22.6341 24.0181Z" fill="#28B446"/>
<path d="M22.7447 10.072L19.8291 12.4589C19.0087 11.9461 18.039 11.6499 17 11.6499C14.6541 11.6499 12.6607 13.1601 11.9388 15.2613L9.00684 12.861H9.00635C10.5042 9.97307 13.5217 8 17 8C19.1838 8 21.186 8.77787 22.7447 10.072Z" fill="#F14336"/>
</g>
<defs>
<clipPath id="clip0">
<rect width="18" height="18" fill="white" transform="translate(8 8)"/>
</clipPath>
</defs>
</svg>
