<svg width="24px" height="20px" viewBox="0 0 24 20" version="1.1" xmlns="http://www.w3.org/2000/svg" xmlns:xlink="http://www.w3.org/1999/xlink">
    
    <g id="Symbols" stroke="none" stroke-width="1" fill="none" fill-rule="evenodd">
        <g id="ToolBar-Video-&amp;-Chat" transform="translate(-833.000000, -20.000000)" fill="#FFFFFF">
            <g id="Group-8" transform="translate(762.000000, 0.000000)">
                <path d="M71.7974607,31.5353438 L73.3858981,31.9437962 L74.5885707,30.0603648 L72.3193758,29.4930642 C72.0319429,29.4325533 71.763424,29.4779372 71.5138113,29.6292189 C71.2641982,29.7804977 71.1015742,29.9922874 71.0259339,30.2645939 C70.9654217,30.5520244 71.0108052,30.8205433 71.1620857,31.0701564 C71.3133662,31.3197694 71.5251557,31.47483 71.7974607,31.5353438 Z M92.4698376,31.8530284 L87.29607,36.5048823 L81.1919334,31.784954 C81.1314225,31.73957 81.0671269,31.7017496 80.9990524,31.6714927 C80.9309751,31.6412387 80.8666824,31.6185453 80.8061715,31.6034183 L79.9892608,31.3991891 L78.7865853,33.2826235 L80.0800287,33.600311 L86.6833885,38.7060027 C86.7892862,38.781643 86.8989628,38.8383724 87.0124212,38.8761923 C87.1258825,38.9140124 87.2355591,38.9329223 87.3414568,38.9329223 C87.4624787,38.9329223 87.5872852,38.9102307 87.7158735,38.8648464 C87.8444618,38.8194622 87.9541384,38.7513872 88.0449062,38.6606188 L93.8994327,33.3960819 C94.1112253,33.2145462 94.2246837,32.9762842 94.2398136,32.6812872 C94.2549406,32.3862903 94.1641728,32.1328984 93.9675101,31.9211057 C93.7708444,31.7093131 93.5287978,31.5958548 93.2413672,31.5807248 C92.9539338,31.5655978 92.6967601,31.6563657 92.4698376,31.8530284 Z M81.1011655,26.7246476 L86.7741563,30.3553617 C87.0162059,30.5066405 87.2771613,30.5558062 87.5570283,30.5028588 C87.8368983,30.4499084 88.0524698,30.3024143 88.2037485,30.0603648 L94.0582779,21.6643384 C94.2246837,21.4222889 94.2814158,21.1575517 94.2284655,20.8701183 C94.175518,20.5826877 94.028021,20.3557681 93.7859744,20.1893623 C93.5439248,20.0229536 93.2791877,19.9662215 92.9917542,20.0191718 C92.7043207,20.0721193 92.477404,20.2196163 92.3109953,20.4616658 L87.0464599,28.0407786 L81.3507786,24.387374 C81.2297538,24.3117331 81.0973838,24.2587857 80.9536685,24.2285288 C80.8099503,24.1982748 80.6700197,24.1982748 80.5338679,24.2285288 C80.3977132,24.2587857 80.2729096,24.3155149 80.1594484,24.3987192 C80.04599,24.4819236 79.9514404,24.5840367 79.8757995,24.7050615 L71.1620857,38.3656233 C71.0108052,38.6228001 70.9654217,38.891319 71.0259339,39.1711881 C71.0864461,39.4510569 71.2452883,39.6666284 71.5024652,39.8179089 C71.5781054,39.8784211 71.6650904,39.9238046 71.7634226,39.9540607 C71.8617551,39.9843168 71.9563038,39.9994446 72.0470723,39.9994446 C72.2286089,39.9994446 72.398797,39.9540611 72.5576416,39.8632928 C72.7164859,39.7725245 72.8488545,39.6515019 72.9547508,39.5002214 L81.1011655,26.7246476 Z" id="Page-1"></path>
            </g>
        </g>
    </g>
</svg>