<svg width="42" height="37" viewBox="0 0 42 37" fill="none" xmlns="http://www.w3.org/2000/svg">
<path d="M36.4636 3.27273C36.4636 3.76978 36.8666 4.17273 37.3636 4.17273C37.8607 4.17273 38.2636 3.76978 38.2636 3.27273H36.4636ZM3.73635 3.27273C3.73635 3.76978 4.1393 4.17273 4.63635 4.17273C5.13341 4.17273 5.53635 3.76978 5.53635 3.27273H3.73635ZM38.2636 3.27273V3H36.4636V3.27273H38.2636ZM35.3636 0.1H6.63635V1.9H35.3636V0.1ZM3.73635 3.0001C3.73635 3.00028 3.73635 3.00047 3.73635 3.00065C3.73635 3.00083 3.73635 3.00102 3.73635 3.0012C3.73635 3.00139 3.73635 3.00157 3.73635 3.00176C3.73635 3.00194 3.73635 3.00213 3.73635 3.00231C3.73635 3.00249 3.73635 3.00268 3.73635 3.00286C3.73635 3.00305 3.73635 3.00323 3.73635 3.00342C3.73635 3.0036 3.73635 3.00378 3.73635 3.00397C3.73635 3.00415 3.73635 3.00434 3.73635 3.00452C3.73635 3.00471 3.73635 3.00489 3.73635 3.00508C3.73635 3.00526 3.73635 3.00544 3.73635 3.00563C3.73635 3.00581 3.73635 3.006 3.73635 3.00618C3.73635 3.00636 3.73635 3.00655 3.73635 3.00673C3.73635 3.00692 3.73635 3.0071 3.73635 3.00729C3.73635 3.00747 3.73635 3.00765 3.73635 3.00784C3.73635 3.00802 3.73635 3.00821 3.73635 3.00839C3.73635 3.00857 3.73635 3.00876 3.73635 3.00894C3.73635 3.00913 3.73635 3.00931 3.73635 3.0095C3.73635 3.00968 3.73635 3.00986 3.73635 3.01005C3.73635 3.01023 3.73635 3.01042 3.73635 3.0106C3.73635 3.01078 3.73635 3.01097 3.73635 3.01115C3.73635 3.01134 3.73635 3.01152 3.73635 3.0117C3.73635 3.01189 3.73635 3.01207 3.73635 3.01226C3.73635 3.01244 3.73635 3.01262 3.73635 3.01281C3.73635 3.01299 3.73635 3.01318 3.73635 3.01336C3.73635 3.01354 3.73635 3.01373 3.73635 3.01391C3.73635 3.0141 3.73635 3.01428 3.73635 3.01446C3.73635 3.01465 3.73635 3.01483 3.73635 3.01501C3.73635 3.0152 3.73635 3.01538 3.73635 3.01557C3.73635 3.01575 3.73635 3.01593 3.73635 3.01612C3.73635 3.0163 3.73635 3.01649 3.73635 3.01667C3.73635 3.01685 3.73635 3.01704 3.73635 3.01722C3.73635 3.0174 3.73635 3.01759 3.73635 3.01777C3.73635 3.01796 3.73635 3.01814 3.73635 3.01832C3.73635 3.01851 3.73635 3.01869 3.73635 3.01887C3.73635 3.01906 3.73635 3.01924 3.73635 3.01943C3.73635 3.01961 3.73635 3.01979 3.73635 3.01998C3.73635 3.02016 3.73635 3.02034 3.73635 3.02053C3.73635 3.02071 3.73635 3.02089 3.73635 3.02108C3.73635 3.02126 3.73635 3.02145 3.73635 3.02163C3.73635 3.02181 3.73635 3.022 3.73635 3.02218C3.73635 3.02236 3.73635 3.02255 3.73635 3.02273C3.73635 3.02291 3.73635 3.0231 3.73635 3.02328C3.73635 3.02346 3.73635 3.02365 3.73635 3.02383C3.73635 3.02401 3.73635 3.0242 3.73635 3.02438C3.73635 3.02456 3.73635 3.02475 3.73635 3.02493C3.73635 3.02512 3.73635 3.0253 3.73635 3.02548C3.73635 3.02567 3.73635 3.02585 3.73635 3.02603C3.73635 3.02622 3.73635 3.0264 3.73635 3.02658C3.73635 3.02677 3.73635 3.02695 3.73635 3.02713C3.73635 3.02732 3.73635 3.0275 3.73635 3.02768C3.73635 3.02787 3.73635 3.02805 3.73635 3.02823C3.73635 3.02842 3.73635 3.0286 3.73635 3.02878C3.73635 3.02897 3.73635 3.02915 3.73635 3.02933C3.73635 3.02952 3.73635 3.0297 3.73635 3.02988C3.73635 3.03006 3.73635 3.03025 3.73635 3.03043C3.73635 3.03061 3.73635 3.0308 3.73635 3.03098C3.73635 3.03116 3.73635 3.03135 3.73635 3.03153C3.73635 3.03171 3.73635 3.0319 3.73635 3.03208C3.73635 3.03226 3.73635 3.03245 3.73635 3.03263C3.73635 3.03281 3.73635 3.03299 3.73635 3.03318C3.73635 3.03336 3.73635 3.03354 3.73635 3.03373C3.73635 3.03391 3.73635 3.03409 3.73635 3.03428C3.73635 3.03446 3.73635 3.03464 3.73635 3.03483C3.73635 3.03501 3.73635 3.03519 3.73635 3.03537C3.73635 3.03556 3.73635 3.03574 3.73635 3.03592C3.73635 3.03611 3.73635 3.03629 3.73635 3.03647C3.73635 3.03665 3.73635 3.03684 3.73635 3.03702C3.73635 3.0372 3.73635 3.03739 3.73635 3.03757C3.73635 3.03775 3.73635 3.03793 3.73635 3.03812C3.73635 3.0383 3.73635 3.03848 3.73635 3.03867C3.73635 3.03885 3.73635 3.03903 3.73635 3.03921C3.73635 3.0394 3.73635 3.03958 3.73635 3.03976C3.73635 3.03995 3.73635 3.04013 3.73635 3.04031C3.73635 3.04049 3.73635 3.04068 3.73635 3.04086C3.73635 3.04104 3.73635 3.04122 3.73635 3.04141C3.73635 3.04159 3.73635 3.04177 3.73635 3.04196C3.73635 3.04214 3.73635 3.04232 3.73635 3.0425C3.73635 3.04269 3.73635 3.04287 3.73635 3.04305C3.73635 3.04323 3.73635 3.04342 3.73635 3.0436C3.73635 3.04378 3.73635 3.04396 3.73635 3.04415C3.73635 3.04433 3.73635 3.04451 3.73635 3.04469C3.73635 3.04488 3.73635 3.04506 3.73635 3.04524C3.73635 3.04542 3.73635 3.04561 3.73635 3.04579C3.73635 3.04597 3.73635 3.04615 3.73635 3.04634C3.73635 3.04652 3.73635 3.0467 3.73635 3.04688C3.73635 3.04707 3.73635 3.04725 3.73635 3.04743C3.73635 3.04761 3.73635 3.0478 3.73635 3.04798C3.73635 3.04816 3.73635 3.04834 3.73635 3.04853C3.73635 3.04871 3.73635 3.04889 3.73635 3.04907C3.73635 3.04926 3.73635 3.04944 3.73635 3.04962C3.73635 3.0498 3.73635 3.04999 3.73635 3.05017C3.73635 3.05035 3.73635 3.05053 3.73635 3.05071C3.73635 3.0509 3.73635 3.05108 3.73635 3.05126C3.73635 3.05144 3.73635 3.05163 3.73635 3.05181C3.73635 3.05199 3.73635 3.05217 3.73635 3.05235C3.73635 3.05254 3.73635 3.05272 3.73635 3.0529C3.73635 3.05308 3.73635 3.05327 3.73635 3.05345C3.73635 3.05363 3.73635 3.05381 3.73635 3.05399C3.73635 3.05418 3.73635 3.05436 3.73635 3.05454C3.73635 3.05472 3.73635 3.0549 3.73635 3.05509C3.73635 3.05527 3.73635 3.05545 3.73635 3.05563C3.73635 3.05581 3.73635 3.056 3.73635 3.05618C3.73635 3.05636 3.73635 3.05654 3.73635 3.05672C3.73635 3.05691 3.73635 3.05709 3.73635 3.05727C3.73635 3.05745 3.73635 3.05763 3.73635 3.05782C3.73635 3.058 3.73635 3.05818 3.73635 3.05836C3.73635 3.05854 3.73635 3.05873 3.73635 3.05891C3.73635 3.05909 3.73635 3.05927 3.73635 3.05945C3.73635 3.05964 3.73635 3.05982 3.73635 3.06C3.73635 3.06018 3.73635 3.06036 3.73635 3.06054C3.73635 3.06073 3.73635 3.06091 3.73635 3.06109C3.73635 3.06127 3.73635 3.06145 3.73635 3.06164C3.73635 3.06182 3.73635 3.062 3.73635 3.06218C3.73635 3.06236 3.73635 3.06254 3.73635 3.06273C3.73635 3.06291 3.73635 3.06309 3.73635 3.06327C3.73635 3.06345 3.73635 3.06363 3.73635 3.06382C3.73635 3.064 3.73635 3.06418 3.73635 3.06436C3.73635 3.06454 3.73635 3.06472 3.73635 3.06491C3.73635 3.06509 3.73635 3.06527 3.73635 3.06545C3.73635 3.06563 3.73635 3.06581 3.73635 3.066C3.73635 3.06618 3.73635 3.06636 3.73635 3.06654C3.73635 3.06672 3.73635 3.0669 3.73635 3.06708C3.73635 3.06727 3.73635 3.06745 3.73635 3.06763C3.73635 3.06781 3.73635 3.06799 3.73635 3.06817C3.73635 3.06835 3.73635 3.06854 3.73635 3.06872C3.73635 3.0689 3.73635 3.06908 3.73635 3.06926C3.73635 3.06944 3.73635 3.06962 3.73635 3.06981C3.73635 3.06999 3.73635 3.07017 3.73635 3.07035C3.73635 3.07053 3.73635 3.07071 3.73635 3.07089C3.73635 3.07108 3.73635 3.07126 3.73635 3.07144C3.73635 3.07162 3.73635 3.0718 3.73635 3.07198C3.73635 3.07216 3.73635 3.07234 3.73635 3.07253C3.73635 3.07271 3.73635 3.07289 3.73635 3.07307C3.73635 3.07325 3.73635 3.07343 3.73635 3.07361C3.73635 3.07379 3.73635 3.07398 3.73635 3.07416C3.73635 3.07434 3.73635 3.07452 3.73635 3.0747C3.73635 3.07488 3.73635 3.07506 3.73635 3.07524C3.73635 3.07542 3.73635 3.07561 3.73635 3.07579C3.73635 3.07597 3.73635 3.07615 3.73635 3.07633C3.73635 3.07651 3.73635 3.07669 3.73635 3.07687C3.73635 3.07705 3.73635 3.07723 3.73635 3.07742C3.73635 3.0776 3.73635 3.07778 3.73635 3.07796C3.73635 3.07814 3.73635 3.07832 3.73635 3.0785C3.73635 3.07868 3.73635 3.07886 3.73635 3.07904C3.73635 3.07923 3.73635 3.07941 3.73635 3.07959C3.73635 3.07977 3.73635 3.07995 3.73635 3.08013C3.73635 3.08031 3.73635 3.08049 3.73635 3.08067C3.73635 3.08085 3.73635 3.08103 3.73635 3.08122C3.73635 3.0814 3.73635 3.08158 3.73635 3.08176C3.73635 3.08194 3.73635 3.08212 3.73635 3.0823C3.73635 3.08248 3.73635 3.08266 3.73635 3.08284C3.73635 3.08302 3.73635 3.0832 3.73635 3.08338C3.73635 3.08356 3.73635 3.08375 3.73635 3.08393C3.73635 3.08411 3.73635 3.08429 3.73635 3.08447C3.73635 3.08465 3.73635 3.08483 3.73635 3.08501C3.73635 3.08519 3.73635 3.08537 3.73635 3.08555C3.73635 3.08573 3.73635 3.08591 3.73635 3.08609C3.73635 3.08627 3.73635 3.08646 3.73635 3.08664C3.73635 3.08682 3.73635 3.087 3.73635 3.08718C3.73635 3.08736 3.73635 3.08754 3.73635 3.08772C3.73635 3.0879 3.73635 3.08808 3.73635 3.08826C3.73635 3.08844 3.73635 3.08862 3.73635 3.0888C3.73635 3.08898 3.73635 3.08916 3.73635 3.08934C3.73635 3.08952 3.73635 3.0897 3.73635 3.08988C3.73635 3.09006 3.73635 3.09024 3.73635 3.09043C3.73635 3.09061 3.73635 3.09079 3.73635 3.09097C3.73635 3.09115 3.73635 3.09133 3.73635 3.09151C3.73635 3.09169 3.73635 3.09187 3.73635 3.09205C3.73635 3.09223 3.73635 3.09241 3.73635 3.09259C3.73635 3.09277 3.73635 3.09295 3.73635 3.09313C3.73635 3.09331 3.73635 3.09349 3.73635 3.09367C3.73635 3.09385 3.73635 3.09403 3.73635 3.09421C3.73635 3.09439 3.73635 3.09457 3.73635 3.09475C3.73635 3.09493 3.73635 3.09511 3.73635 3.09529C3.73635 3.09547 3.73635 3.09565 3.73635 3.09583C3.73635 3.09601 3.73635 3.09619 3.73635 3.09637C3.73635 3.09655 3.73635 3.09673 3.73635 3.09691C3.73635 3.09709 3.73635 3.09727 3.73635 3.09745C3.73635 3.09763 3.73635 3.09781 3.73635 3.09799C3.73635 3.09817 3.73635 3.09835 3.73635 3.09853C3.73635 3.09871 3.73635 3.09889 3.73635 3.09907C3.73635 3.09925 3.73635 3.09943 3.73635 3.09961C3.73635 3.09979 3.73635 3.09997 3.73635 3.10015C3.73635 3.10033 3.73635 3.10051 3.73635 3.10069C3.73635 3.10087 3.73635 3.10105 3.73635 3.10123C3.73635 3.10141 3.73635 3.10159 3.73635 3.10177C3.73635 3.10195 3.73635 3.10213 3.73635 3.10231C3.73635 3.10249 3.73635 3.10267 3.73635 3.10285C3.73635 3.10303 3.73635 3.10321 3.73635 3.10339C3.73635 3.10357 3.73635 3.10375 3.73635 3.10393C3.73635 3.10411 3.73635 3.10429 3.73635 3.10447C3.73635 3.10465 3.73635 3.10482 3.73635 3.105C3.73635 3.10518 3.73635 3.10536 3.73635 3.10554C3.73635 3.10572 3.73635 3.1059 3.73635 3.10608C3.73635 3.10626 3.73635 3.10644 3.73635 3.10662C3.73635 3.1068 3.73635 3.10698 3.73635 3.10716C3.73635 3.10734 3.73635 3.10752 3.73635 3.1077C3.73635 3.10788 3.73635 3.10806 3.73635 3.10824C3.73635 3.10842 3.73635 3.10859 3.73635 3.10877C3.73635 3.10895 3.73635 3.10913 3.73635 3.10931C3.73635 3.10949 3.73635 3.10967 3.73635 3.10985C3.73635 3.11003 3.73635 3.11021 3.73635 3.11039C3.73635 3.11057 3.73635 3.11075 3.73635 3.11093C3.73635 3.11111 3.73635 3.11129 3.73635 3.11146C3.73635 3.11164 3.73635 3.11182 3.73635 3.112C3.73635 3.11218 3.73635 3.11236 3.73635 3.11254C3.73635 3.11272 3.73635 3.1129 3.73635 3.11308C3.73635 3.11326 3.73635 3.11344 3.73635 3.11362C3.73635 3.11379 3.73635 3.11397 3.73635 3.11415C3.73635 3.11433 3.73635 3.11451 3.73635 3.11469C3.73635 3.11487 3.73635 3.11505 3.73635 3.11523C3.73635 3.11541 3.73635 3.11559 3.73635 3.11576C3.73635 3.11594 3.73635 3.11612 3.73635 3.1163C3.73635 3.11648 3.73635 3.11666 3.73635 3.11684C3.73635 3.11702 3.73635 3.1172 3.73635 3.11738C3.73635 3.11755 3.73635 3.11773 3.73635 3.11791C3.73635 3.11809 3.73635 3.11827 3.73635 3.11845C3.73635 3.11863 3.73635 3.11881 3.73635 3.11899C3.73635 3.11916 3.73635 3.11934 3.73635 3.11952C3.73635 3.1197 3.73635 3.11988 3.73635 3.12006C3.73635 3.12024 3.73635 3.12042 3.73635 3.1206C3.73635 3.12077 3.73635 3.12095 3.73635 3.12113C3.73635 3.12131 3.73635 3.12149 3.73635 3.12167C3.73635 3.12185 3.73635 3.12203 3.73635 3.1222C3.73635 3.12238 3.73635 3.12256 3.73635 3.12274C3.73635 3.12292 3.73635 3.1231 3.73635 3.12328C3.73635 3.12346 3.73635 3.12363 3.73635 3.12381C3.73635 3.12399 3.73635 3.12417 3.73635 3.12435C3.73635 3.12453 3.73635 3.12471 3.73635 3.12488C3.73635 3.12506 3.73635 3.12524 3.73635 3.12542C3.73635 3.1256 3.73635 3.12578 3.73635 3.12596C3.73635 3.12613 3.73635 3.12631 3.73635 3.12649C3.73635 3.12667 3.73635 3.12685 3.73635 3.12703C3.73635 3.1272 3.73635 3.12738 3.73635 3.12756C3.73635 3.12774 3.73635 3.12792 3.73635 3.1281C3.73635 3.12827 3.73635 3.12845 3.73635 3.12863C3.73635 3.12881 3.73635 3.12899 3.73635 3.12917C3.73635 3.12935 3.73635 3.12952 3.73635 3.1297C3.73635 3.12988 3.73635 3.13006 3.73635 3.13024C3.73635 3.13041 3.73635 3.13059 3.73635 3.13077C3.73635 3.13095 3.73635 3.13113 3.73635 3.13131C3.73635 3.13148 3.73635 3.13166 3.73635 3.13184C3.73635 3.13202 3.73635 3.1322 3.73635 3.13238C3.73635 3.13255 3.73635 3.13273 3.73635 3.13291C3.73635 3.13309 3.73635 3.13327 3.73635 3.13344C3.73635 3.13362 3.73635 3.1338 3.73635 3.13398C3.73635 3.13416 3.73635 3.13433 3.73635 3.13451C3.73635 3.13469 3.73635 3.13487 3.73635 3.13505C3.73635 3.13522 3.73635 3.1354 3.73635 3.13558C3.73635 3.13576 3.73635 3.13594 3.73635 3.13611C3.73635 3.13629 3.73635 3.13647 3.73635 3.13665C3.73635 3.13683 3.73635 3.137 3.73635 3.13718C3.73635 3.13736 3.73635 3.13754 3.73635 3.13772C3.73635 3.13789 3.73635 3.13807 3.73635 3.13825C3.73635 3.13843 3.73635 3.1386 3.73635 3.13878C3.73635 3.13896 3.73635 3.13914 3.73635 3.13932C3.73635 3.13949 3.73635 3.13967 3.73635 3.13985C3.73635 3.14003 3.73635 3.1402 3.73635 3.14038C3.73635 3.14056 3.73635 3.14074 3.73635 3.14092C3.73635 3.14109 3.73635 3.14127 3.73635 3.14145C3.73635 3.14163 3.73635 3.1418 3.73635 3.14198C3.73635 3.14216 3.73635 3.14234 3.73635 3.14251C3.73635 3.14269 3.73635 3.14287 3.73635 3.14305C3.73635 3.14322 3.73635 3.1434 3.73635 3.14358C3.73635 3.14376 3.73635 3.14394 3.73635 3.14411C3.73635 3.14429 3.73635 3.14447 3.73635 3.14465C3.73635 3.14482 3.73635 3.145 3.73635 3.14518C3.73635 3.14535 3.73635 3.14553 3.73635 3.14571C3.73635 3.14589 3.73635 3.14606 3.73635 3.14624C3.73635 3.14642 3.73635 3.1466 3.73635 3.14677C3.73635 3.14695 3.73635 3.14713 3.73635 3.14731C3.73635 3.14748 3.73635 3.14766 3.73635 3.14784C3.73635 3.14802 3.73635 3.14819 3.73635 3.14837C3.73635 3.14855 3.73635 3.14872 3.73635 3.1489C3.73635 3.14908 3.73635 3.14926 3.73635 3.14943C3.73635 3.14961 3.73635 3.14979 3.73635 3.14997C3.73635 3.15014 3.73635 3.15032 3.73635 3.1505C3.73635 3.15067 3.73635 3.15085 3.73635 3.15103C3.73635 3.15121 3.73635 3.15138 3.73635 3.15156C3.73635 3.15174 3.73635 3.15191 3.73635 3.15209C3.73635 3.15227 3.73635 3.15244 3.73635 3.15262C3.73635 3.1528 3.73635 3.15298 3.73635 3.15315C3.73635 3.15333 3.73635 3.15351 3.73635 3.15368C3.73635 3.15386 3.73635 3.15404 3.73635 3.15421C3.73635 3.15439 3.73635 3.15457 3.73635 3.15475C3.73635 3.15492 3.73635 3.1551 3.73635 3.15528C3.73635 3.15545 3.73635 3.15563 3.73635 3.15581C3.73635 3.15598 3.73635 3.15616 3.73635 3.15634C3.73635 3.15651 3.73635 3.15669 3.73635 3.15687C3.73635 3.15704 3.73635 3.15722 3.73635 3.1574C3.73635 3.15757 3.73635 3.15775 3.73635 3.15793C3.73635 3.1581 3.73635 3.15828 3.73635 3.15846C3.73635 3.15864 3.73635 3.15881 3.73635 3.15899C3.73635 3.15917 3.73635 3.15934 3.73635 3.15952C3.73635 3.15969 3.73635 3.15987 3.73635 3.16005C3.73635 3.16022 3.73635 3.1604 3.73635 3.16058C3.73635 3.16075 3.73635 3.16093 3.73635 3.16111C3.73635 3.16128 3.73635 3.16146 3.73635 3.16164C3.73635 3.16181 3.73635 3.16199 3.73635 3.16217C3.73635 3.16234 3.73635 3.16252 3.73635 3.1627C3.73635 3.16287 3.73635 3.16305 3.73635 3.16323C3.73635 3.1634 3.73635 3.16358 3.73635 3.16375C3.73635 3.16393 3.73635 3.16411 3.73635 3.16428C3.73635 3.16446 3.73635 3.16464 3.73635 3.16481C3.73635 3.16499 3.73635 3.16517 3.73635 3.16534C3.73635 3.16552 3.73635 3.16569 3.73635 3.16587C3.73635 3.16605 3.73635 3.16622 3.73635 3.1664C3.73635 3.16658 3.73635 3.16675 3.73635 3.16693C3.73635 3.1671 3.73635 3.16728 3.73635 3.16746C3.73635 3.16763 3.73635 3.16781 3.73635 3.16799C3.73635 3.16816 3.73635 3.16834 3.73635 3.16851C3.73635 3.16869 3.73635 3.16887 3.73635 3.16904C3.73635 3.16922 3.73635 3.16939 3.73635 3.16957C3.73635 3.16975 3.73635 3.16992 3.73635 3.1701C3.73635 3.17027 3.73635 3.17045 3.73635 3.17063C3.73635 3.1708 3.73635 3.17098 3.73635 3.17115C3.73635 3.17133 3.73635 3.17151 3.73635 3.17168C3.73635 3.17186 3.73635 3.17203 3.73635 3.17221C3.73635 3.17239 3.73635 3.17256 3.73635 3.17274C3.73635 3.17291 3.73635 3.17309 3.73635 3.17326C3.73635 3.17344 3.73635 3.17362 3.73635 3.17379C3.73635 3.17397 3.73635 3.17414 3.73635 3.17432C3.73635 3.1745 3.73635 3.17467 3.73635 3.17485C3.73635 3.17502 3.73635 3.1752 3.73635 3.17537C3.73635 3.17555 3.73635 3.17573 3.73635 3.1759C3.73635 3.17608 3.73635 3.17625 3.73635 3.17643C3.73635 3.1766 3.73635 3.17678 3.73635 3.17696C3.73635 3.17713 3.73635 3.17731 3.73635 3.17748C3.73635 3.17766 3.73635 3.17783 3.73635 3.17801C3.73635 3.17818 3.73635 3.17836 3.73635 3.17854C3.73635 3.17871 3.73635 3.17889 3.73635 3.17906C3.73635 3.17924 3.73635 3.17941 3.73635 3.17959C3.73635 3.17976 3.73635 3.17994 3.73635 3.18011C3.73635 3.18029 3.73635 3.18047 3.73635 3.18064C3.73635 3.18082 3.73635 3.18099 3.73635 3.18117C3.73635 3.18134 3.73635 3.18152 3.73635 3.18169C3.73635 3.18187 3.73635 3.18204 3.73635 3.18222C3.73635 3.18239 3.73635 3.18257 3.73635 3.18274C3.73635 3.18292 3.73635 3.1831 3.73635 3.18327C3.73635 3.18345 3.73635 3.18362 3.73635 3.1838C3.73635 3.18397 3.73635 3.18415 3.73635 3.18432C3.73635 3.1845 3.73635 3.18467 3.73635 3.18485C3.73635 3.18502 3.73635 3.1852 3.73635 3.18537C3.73635 3.18555 3.73635 3.18572 3.73635 3.1859C3.73635 3.18607 3.73635 3.18625 3.73635 3.18642C3.73635 3.1866 3.73635 3.18677 3.73635 3.18695C3.73635 3.18712 3.73635 3.1873 3.73635 3.18747C3.73635 3.18765 3.73635 3.18782 3.73635 3.188C3.73635 3.18817 3.73635 3.18835 3.73635 3.18852C3.73635 3.1887 3.73635 3.18887 3.73635 3.18905C3.73635 3.18922 3.73635 3.1894 3.73635 3.18957C3.73635 3.18975 3.73635 3.18992 3.73635 3.1901C3.73635 3.19027 3.73635 3.19045 3.73635 3.19062C3.73635 3.1908 3.73635 3.19097 3.73635 3.19115C3.73635 3.19132 3.73635 3.1915 3.73635 3.19167C3.73635 3.19184 3.73635 3.19202 3.73635 3.19219C3.73635 3.19237 3.73635 3.19254 3.73635 3.19272C3.73635 3.19289 3.73635 3.19307 3.73635 3.19324C3.73635 3.19342 3.73635 3.19359 3.73635 3.19377C3.73635 3.19394 3.73635 3.19411 3.73635 3.19429C3.73635 3.19446 3.73635 3.19464 3.73635 3.19481C3.73635 3.19499 3.73635 3.19516 3.73635 3.19534C3.73635 3.19551 3.73635 3.19569 3.73635 3.19586C3.73635 3.19603 3.73635 3.19621 3.73635 3.19638C3.73635 3.19656 3.73635 3.19673 3.73635 3.19691C3.73635 3.19708 3.73635 3.19726 3.73635 3.19743C3.73635 3.1976 3.73635 3.19778 3.73635 3.19795C3.73635 3.19813 3.73635 3.1983 3.73635 3.19848C3.73635 3.19865 3.73635 3.19882 3.73635 3.199C3.73635 3.19917 3.73635 3.19935 3.73635 3.19952C3.73635 3.1997 3.73635 3.19987 3.73635 3.20004C3.73635 3.20022 3.73635 3.20039 3.73635 3.20057C3.73635 3.20074 3.73635 3.20092 3.73635 3.20109C3.73635 3.20126 3.73635 3.20144 3.73635 3.20161C3.73635 3.20179 3.73635 3.20196 3.73635 3.20213C3.73635 3.20231 3.73635 3.20248 3.73635 3.20266C3.73635 3.20283 3.73635 3.203 3.73635 3.20318C3.73635 3.20335 3.73635 3.20353 3.73635 3.2037C3.73635 3.20387 3.73635 3.20405 3.73635 3.20422C3.73635 3.2044 3.73635 3.20457 3.73635 3.20474C3.73635 3.20492 3.73635 3.20509 3.73635 3.20527C3.73635 3.20544 3.73635 3.20561 3.73635 3.20579C3.73635 3.20596 3.73635 3.20614 3.73635 3.20631C3.73635 3.20648 3.73635 3.20666 3.73635 3.20683C3.73635 3.207 3.73635 3.20718 3.73635 3.20735C3.73635 3.20753 3.73635 3.2077 3.73635 3.20787C3.73635 3.20805 3.73635 3.20822 3.73635 3.20839C3.73635 3.20857 3.73635 3.20874 3.73635 3.20891C3.73635 3.20909 3.73635 3.20926 3.73635 3.20944C3.73635 3.20961 3.73635 3.20978 3.73635 3.20996C3.73635 3.21013 3.73635 3.2103 3.73635 3.21048C3.73635 3.21065 3.73635 3.21082 3.73635 3.211C3.73635 3.21117 3.73635 3.21134 3.73635 3.21152C3.73635 3.21169 3.73635 3.21187 3.73635 3.21204C3.73635 3.21221 3.73635 3.21239 3.73635 3.21256C3.73635 3.21273 3.73635 3.21291 3.73635 3.21308C3.73635 3.21325 3.73635 3.21343 3.73635 3.2136C3.73635 3.21377 3.73635 3.21395 3.73635 3.21412C3.73635 3.21429 3.73635 3.21447 3.73635 3.21464C3.73635 3.21481 3.73635 3.21499 3.73635 3.21516C3.73635 3.21533 3.73635 3.21551 3.73635 3.21568C3.73635 3.21585 3.73635 3.21603 3.73635 3.2162C3.73635 3.21637 3.73635 3.21654 3.73635 3.21672C3.73635 3.21689 3.73635 3.21706 3.73635 3.21724C3.73635 3.21741 3.73635 3.21758 3.73635 3.21776C3.73635 3.21793 3.73635 3.2181 3.73635 3.21828C3.73635 3.21845 3.73635 3.21862 3.73635 3.2188C3.73635 3.21897 3.73635 3.21914 3.73635 3.21931C3.73635 3.21949 3.73635 3.21966 3.73635 3.21983C3.73635 3.22001 3.73635 3.22018 3.73635 3.22035C3.73635 3.22052 3.73635 3.2207 3.73635 3.22087C3.73635 3.22104 3.73635 3.22122 3.73635 3.22139C3.73635 3.22156 3.73635 3.22173 3.73635 3.22191C3.73635 3.22208 3.73635 3.22225 3.73635 3.22243C3.73635 3.2226 3.73635 3.22277 3.73635 3.22294C3.73635 3.22312 3.73635 3.22329 3.73635 3.22346C3.73635 3.22364 3.73635 3.22381 3.73635 3.22398C3.73635 3.22415 3.73635 3.22433 3.73635 3.2245C3.73635 3.22467 3.73635 3.22484 3.73635 3.22502C3.73635 3.22519 3.73635 3.22536 3.73635 3.22553C3.73635 3.22571 3.73635 3.22588 3.73635 3.22605C3.73635 3.22622 3.73635 3.2264 3.73635 3.22657C3.73635 3.22674 3.73635 3.22691 3.73635 3.22709C3.73635 3.22726 3.73635 3.22743 3.73635 3.2276C3.73635 3.22778 3.73635 3.22795 3.73635 3.22812C3.73635 3.22829 3.73635 3.22847 3.73635 3.22864C3.73635 3.22881 3.73635 3.22898 3.73635 3.22916C3.73635 3.22933 3.73635 3.2295 3.73635 3.22967C3.73635 3.22985 3.73635 3.23002 3.73635 3.23019C3.73635 3.23036 3.73635 3.23053 3.73635 3.23071C3.73635 3.23088 3.73635 3.23105 3.73635 3.23122C3.73635 3.2314 3.73635 3.23157 3.73635 3.23174C3.73635 3.23191 3.73635 3.23208 3.73635 3.23226C3.73635 3.23243 3.73635 3.2326 3.73635 3.23277C3.73635 3.23294 3.73635 3.23312 3.73635 3.23329C3.73635 3.23346 3.73635 3.23363 3.73635 3.23381C3.73635 3.23398 3.73635 3.23415 3.73635 3.23432C3.73635 3.23449 3.73635 3.23467 3.73635 3.23484C3.73635 3.23501 3.73635 3.23518 3.73635 3.23535C3.73635 3.23553 3.73635 3.2357 3.73635 3.23587C3.73635 3.23604 3.73635 3.23621 3.73635 3.23638C3.73635 3.23656 3.73635 3.23673 3.73635 3.2369C3.73635 3.23707 3.73635 3.23724 3.73635 3.23742C3.73635 3.23759 3.73635 3.23776 3.73635 3.23793C3.73635 3.2381 3.73635 3.23827 3.73635 3.23845C3.73635 3.23862 3.73635 3.23879 3.73635 3.23896C3.73635 3.23913 3.73635 3.2393 3.73635 3.23948C3.73635 3.23965 3.73635 3.23982 3.73635 3.23999C3.73635 3.24016 3.73635 3.24033 3.73635 3.24051C3.73635 3.24068 3.73635 3.24085 3.73635 3.24102C3.73635 3.24119 3.73635 3.24136 3.73635 3.24154C3.73635 3.24171 3.73635 3.24188 3.73635 3.24205C3.73635 3.24222 3.73635 3.24239 3.73635 3.24256C3.73635 3.24274 3.73635 3.24291 3.73635 3.24308C3.73635 3.24325 3.73635 3.24342 3.73635 3.24359C3.73635 3.24376 3.73635 3.24394 3.73635 3.24411C3.73635 3.24428 3.73635 3.24445 3.73635 3.24462C3.73635 3.24479 3.73635 3.24496 3.73635 3.24514C3.73635 3.24531 3.73635 3.24548 3.73635 3.24565C3.73635 3.24582 3.73635 3.24599 3.73635 3.24616C3.73635 3.24633 3.73635 3.2465 3.73635 3.24668C3.73635 3.24685 3.73635 3.24702 3.73635 3.24719C3.73635 3.24736 3.73635 3.24753 3.73635 3.2477C3.73635 3.24787 3.73635 3.24804 3.73635 3.24822C3.73635 3.24839 3.73635 3.24856 3.73635 3.24873C3.73635 3.2489 3.73635 3.24907 3.73635 3.24924C3.73635 3.24941 3.73635 3.24958 3.73635 3.24976C3.73635 3.24993 3.73635 3.2501 3.73635 3.25027C3.73635 3.25044 3.73635 3.25061 3.73635 3.25078C3.73635 3.25095 3.73635 3.25112 3.73635 3.25129C3.73635 3.25146 3.73635 3.25164 3.73635 3.25181C3.73635 3.25198 3.73635 3.25215 3.73635 3.25232C3.73635 3.25249 3.73635 3.25266 3.73635 3.25283C3.73635 3.253 3.73635 3.25317 3.73635 3.25334C3.73635 3.25351 3.73635 3.25368 3.73635 3.25385C3.73635 3.25403 3.73635 3.2542 3.73635 3.25437C3.73635 3.25454 3.73635 3.25471 3.73635 3.25488C3.73635 3.25505 3.73635 3.25522 3.73635 3.25539C3.73635 3.25556 3.73635 3.25573 3.73635 3.2559C3.73635 3.25607 3.73635 3.25624 3.73635 3.25641C3.73635 3.25658 3.73635 3.25675 3.73635 3.25693C3.73635 3.2571 3.73635 3.25727 3.73635 3.25744C3.73635 3.25761 3.73635 3.25778 3.73635 3.25795C3.73635 3.25812 3.73635 3.25829 3.73635 3.25846C3.73635 3.25863 3.73635 3.2588 3.73635 3.25897C3.73635 3.25914 3.73635 3.25931 3.73635 3.25948C3.73635 3.25965 3.73635 3.25982 3.73635 3.25999C3.73635 3.26016 3.73635 3.26033 3.73635 3.2605C3.73635 3.26067 3.73635 3.26084 3.73635 3.26101C3.73635 3.26118 3.73635 3.26135 3.73635 3.26152C3.73635 3.26169 3.73635 3.26186 3.73635 3.26203C3.73635 3.2622 3.73635 3.26237 3.73635 3.26254C3.73635 3.26271 3.73635 3.26288 3.73635 3.26305C3.73635 3.26322 3.73635 3.26339 3.73635 3.26356C3.73635 3.26373 3.73635 3.2639 3.73635 3.26407C3.73635 3.26424 3.73635 3.26441 3.73635 3.26458C3.73635 3.26475 3.73635 3.26492 3.73635 3.26509C3.73635 3.26526 3.73635 3.26543 3.73635 3.2656C3.73635 3.26577 3.73635 3.26594 3.73635 3.26611C3.73635 3.26628 3.73635 3.26645 3.73635 3.26662C3.73635 3.26679 3.73635 3.26696 3.73635 3.26713C3.73635 3.2673 3.73635 3.26747 3.73635 3.26764C3.73635 3.26781 3.73635 3.26798 3.73635 3.26815C3.73635 3.26832 3.73635 3.26849 3.73635 3.26866C3.73635 3.26883 3.73635 3.269 3.73635 3.26917C3.73635 3.26934 3.73635 3.26951 3.73635 3.26968C3.73635 3.26985 3.73635 3.27002 3.73635 3.27019C3.73635 3.27036 3.73635 3.27052 3.73635 3.27069C3.73635 3.27086 3.73635 3.27103 3.73635 3.2712C3.73635 3.27137 3.73635 3.27154 3.73635 3.27171C3.73635 3.27188 3.73635 3.27205 3.73635 3.27222C3.73635 3.27239 3.73635 3.27256 3.73635 3.27273H5.53635C5.53635 3.27256 5.53635 3.27239 5.53635 3.27222C5.53635 3.27205 5.53635 3.27188 5.53635 3.27171C5.53635 3.27154 5.53635 3.27137 5.53635 3.2712C5.53635 3.27103 5.53635 3.27086 5.53635 3.27069C5.53635 3.27052 5.53635 3.27036 5.53635 3.27019C5.53635 3.27002 5.53635 3.26985 5.53635 3.26968C5.53635 3.26951 5.53635 3.26934 5.53635 3.26917C5.53635 3.269 5.53635 3.26883 5.53635 3.26866C5.53635 3.26849 5.53635 3.26832 5.53635 3.26815C5.53635 3.26798 5.53635 3.26781 5.53635 3.26764C5.53635 3.26747 5.53635 3.2673 5.53635 3.26713C5.53635 3.26696 5.53635 3.26679 5.53635 3.26662C5.53635 3.26645 5.53635 3.26628 5.53635 3.26611C5.53635 3.26594 5.53635 3.26577 5.53635 3.2656C5.53635 3.26543 5.53635 3.26526 5.53635 3.26509C5.53635 3.26492 5.53635 3.26475 5.53635 3.26458C5.53635 3.26441 5.53635 3.26424 5.53635 3.26407C5.53635 3.2639 5.53635 3.26373 5.53635 3.26356C5.53635 3.26339 5.53635 3.26322 5.53635 3.26305C5.53635 3.26288 5.53635 3.26271 5.53635 3.26254C5.53635 3.26237 5.53635 3.2622 5.53635 3.26203C5.53635 3.26186 5.53635 3.26169 5.53635 3.26152C5.53635 3.26135 5.53635 3.26118 5.53635 3.26101C5.53635 3.26084 5.53635 3.26067 5.53635 3.2605C5.53635 3.26033 5.53635 3.26016 5.53635 3.25999C5.53635 3.25982 5.53635 3.25965 5.53635 3.25948C5.53635 3.25931 5.53635 3.25914 5.53635 3.25897C5.53635 3.2588 5.53635 3.25863 5.53635 3.25846C5.53635 3.25829 5.53635 3.25812 5.53635 3.25795C5.53635 3.25778 5.53635 3.25761 5.53635 3.25744C5.53635 3.25727 5.53635 3.2571 5.53635 3.25693C5.53635 3.25675 5.53635 3.25658 5.53635 3.25641C5.53635 3.25624 5.53635 3.25607 5.53635 3.2559C5.53635 3.25573 5.53635 3.25556 5.53635 3.25539C5.53635 3.25522 5.53635 3.25505 5.53635 3.25488C5.53635 3.25471 5.53635 3.25454 5.53635 3.25437C5.53635 3.2542 5.53635 3.25403 5.53635 3.25385C5.53635 3.25368 5.53635 3.25351 5.53635 3.25334C5.53635 3.25317 5.53635 3.253 5.53635 3.25283C5.53635 3.25266 5.53635 3.25249 5.53635 3.25232C5.53635 3.25215 5.53635 3.25198 5.53635 3.25181C5.53635 3.25164 5.53635 3.25146 5.53635 3.25129C5.53635 3.25112 5.53635 3.25095 5.53635 3.25078C5.53635 3.25061 5.53635 3.25044 5.53635 3.25027C5.53635 3.2501 5.53635 3.24993 5.53635 3.24976C5.53635 3.24958 5.53635 3.24941 5.53635 3.24924C5.53635 3.24907 5.53635 3.2489 5.53635 3.24873C5.53635 3.24856 5.53635 3.24839 5.53635 3.24822C5.53635 3.24804 5.53635 3.24787 5.53635 3.2477C5.53635 3.24753 5.53635 3.24736 5.53635 3.24719C5.53635 3.24702 5.53635 3.24685 5.53635 3.24668C5.53635 3.2465 5.53635 3.24633 5.53635 3.24616C5.53635 3.24599 5.53635 3.24582 5.53635 3.24565C5.53635 3.24548 5.53635 3.24531 5.53635 3.24514C5.53635 3.24496 5.53635 3.24479 5.53635 3.24462C5.53635 3.24445 5.53635 3.24428 5.53635 3.24411C5.53635 3.24394 5.53635 3.24376 5.53635 3.24359C5.53635 3.24342 5.53635 3.24325 5.53635 3.24308C5.53635 3.24291 5.53635 3.24274 5.53635 3.24256C5.53635 3.24239 5.53635 3.24222 5.53635 3.24205C5.53635 3.24188 5.53635 3.24171 5.53635 3.24154C5.53635 3.24136 5.53635 3.24119 5.53635 3.24102C5.53635 3.24085 5.53635 3.24068 5.53635 3.24051C5.53635 3.24033 5.53635 3.24016 5.53635 3.23999C5.53635 3.23982 5.53635 3.23965 5.53635 3.23948C5.53635 3.2393 5.53635 3.23913 5.53635 3.23896C5.53635 3.23879 5.53635 3.23862 5.53635 3.23845C5.53635 3.23827 5.53635 3.2381 5.53635 3.23793C5.53635 3.23776 5.53635 3.23759 5.53635 3.23742C5.53635 3.23724 5.53635 3.23707 5.53635 3.2369C5.53635 3.23673 5.53635 3.23656 5.53635 3.23638C5.53635 3.23621 5.53635 3.23604 5.53635 3.23587C5.53635 3.2357 5.53635 3.23553 5.53635 3.23535C5.53635 3.23518 5.53635 3.23501 5.53635 3.23484C5.53635 3.23467 5.53635 3.23449 5.53635 3.23432C5.53635 3.23415 5.53635 3.23398 5.53635 3.23381C5.53635 3.23363 5.53635 3.23346 5.53635 3.23329C5.53635 3.23312 5.53635 3.23294 5.53635 3.23277C5.53635 3.2326 5.53635 3.23243 5.53635 3.23226C5.53635 3.23208 5.53635 3.23191 5.53635 3.23174C5.53635 3.23157 5.53635 3.2314 5.53635 3.23122C5.53635 3.23105 5.53635 3.23088 5.53635 3.23071C5.53635 3.23053 5.53635 3.23036 5.53635 3.23019C5.53635 3.23002 5.53635 3.22985 5.53635 3.22967C5.53635 3.2295 5.53635 3.22933 5.53635 3.22916C5.53635 3.22898 5.53635 3.22881 5.53635 3.22864C5.53635 3.22847 5.53635 3.22829 5.53635 3.22812C5.53635 3.22795 5.53635 3.22778 5.53635 3.2276C5.53635 3.22743 5.53635 3.22726 5.53635 3.22709C5.53635 3.22691 5.53635 3.22674 5.53635 3.22657C5.53635 3.2264 5.53635 3.22622 5.53635 3.22605C5.53635 3.22588 5.53635 3.22571 5.53635 3.22553C5.53635 3.22536 5.53635 3.22519 5.53635 3.22502C5.53635 3.22484 5.53635 3.22467 5.53635 3.2245C5.53635 3.22433 5.53635 3.22415 5.53635 3.22398C5.53635 3.22381 5.53635 3.22364 5.53635 3.22346C5.53635 3.22329 5.53635 3.22312 5.53635 3.22294C5.53635 3.22277 5.53635 3.2226 5.53635 3.22243C5.53635 3.22225 5.53635 3.22208 5.53635 3.22191C5.53635 3.22173 5.53635 3.22156 5.53635 3.22139C5.53635 3.22122 5.53635 3.22104 5.53635 3.22087C5.53635 3.2207 5.53635 3.22052 5.53635 3.22035C5.53635 3.22018 5.53635 3.22001 5.53635 3.21983C5.53635 3.21966 5.53635 3.21949 5.53635 3.21931C5.53635 3.21914 5.53635 3.21897 5.53635 3.2188C5.53635 3.21862 5.53635 3.21845 5.53635 3.21828C5.53635 3.2181 5.53635 3.21793 5.53635 3.21776C5.53635 3.21758 5.53635 3.21741 5.53635 3.21724C5.53635 3.21706 5.53635 3.21689 5.53635 3.21672C5.53635 3.21654 5.53635 3.21637 5.53635 3.2162C5.53635 3.21603 5.53635 3.21585 5.53635 3.21568C5.53635 3.21551 5.53635 3.21533 5.53635 3.21516C5.53635 3.21499 5.53635 3.21481 5.53635 3.21464C5.53635 3.21447 5.53635 3.21429 5.53635 3.21412C5.53635 3.21395 5.53635 3.21377 5.53635 3.2136C5.53635 3.21343 5.53635 3.21325 5.53635 3.21308C5.53635 3.21291 5.53635 3.21273 5.53635 3.21256C5.53635 3.21239 5.53635 3.21221 5.53635 3.21204C5.53635 3.21187 5.53635 3.21169 5.53635 3.21152C5.53635 3.21134 5.53635 3.21117 5.53635 3.211C5.53635 3.21082 5.53635 3.21065 5.53635 3.21048C5.53635 3.2103 5.53635 3.21013 5.53635 3.20996C5.53635 3.20978 5.53635 3.20961 5.53635 3.20944C5.53635 3.20926 5.53635 3.20909 5.53635 3.20891C5.53635 3.20874 5.53635 3.20857 5.53635 3.20839C5.53635 3.20822 5.53635 3.20805 5.53635 3.20787C5.53635 3.2077 5.53635 3.20753 5.53635 3.20735C5.53635 3.20718 5.53635 3.207 5.53635 3.20683C5.53635 3.20666 5.53635 3.20648 5.53635 3.20631C5.53635 3.20614 5.53635 3.20596 5.53635 3.20579C5.53635 3.20561 5.53635 3.20544 5.53635 3.20527C5.53635 3.20509 5.53635 3.20492 5.53635 3.20474C5.53635 3.20457 5.53635 3.2044 5.53635 3.20422C5.53635 3.20405 5.53635 3.20387 5.53635 3.2037C5.53635 3.20353 5.53635 3.20335 5.53635 3.20318C5.53635 3.203 5.53635 3.20283 5.53635 3.20266C5.53635 3.20248 5.53635 3.20231 5.53635 3.20213C5.53635 3.20196 5.53635 3.20179 5.53635 3.20161C5.53635 3.20144 5.53635 3.20126 5.53635 3.20109C5.53635 3.20092 5.53635 3.20074 5.53635 3.20057C5.53635 3.20039 5.53635 3.20022 5.53635 3.20004C5.53635 3.19987 5.53635 3.1997 5.53635 3.19952C5.53635 3.19935 5.53635 3.19917 5.53635 3.199C5.53635 3.19882 5.53635 3.19865 5.53635 3.19848C5.53635 3.1983 5.53635 3.19813 5.53635 3.19795C5.53635 3.19778 5.53635 3.1976 5.53635 3.19743C5.53635 3.19726 5.53635 3.19708 5.53635 3.19691C5.53635 3.19673 5.53635 3.19656 5.53635 3.19638C5.53635 3.19621 5.53635 3.19603 5.53635 3.19586C5.53635 3.19569 5.53635 3.19551 5.53635 3.19534C5.53635 3.19516 5.53635 3.19499 5.53635 3.19481C5.53635 3.19464 5.53635 3.19446 5.53635 3.19429C5.53635 3.19411 5.53635 3.19394 5.53635 3.19377C5.53635 3.19359 5.53635 3.19342 5.53635 3.19324C5.53635 3.19307 5.53635 3.19289 5.53635 3.19272C5.53635 3.19254 5.53635 3.19237 5.53635 3.19219C5.53635 3.19202 5.53635 3.19184 5.53635 3.19167C5.53635 3.1915 5.53635 3.19132 5.53635 3.19115C5.53635 3.19097 5.53635 3.1908 5.53635 3.19062C5.53635 3.19045 5.53635 3.19027 5.53635 3.1901C5.53635 3.18992 5.53635 3.18975 5.53635 3.18957C5.53635 3.1894 5.53635 3.18922 5.53635 3.18905C5.53635 3.18887 5.53635 3.1887 5.53635 3.18852C5.53635 3.18835 5.53635 3.18817 5.53635 3.188C5.53635 3.18782 5.53635 3.18765 5.53635 3.18747C5.53635 3.1873 5.53635 3.18712 5.53635 3.18695C5.53635 3.18677 5.53635 3.1866 5.53635 3.18642C5.53635 3.18625 5.53635 3.18607 5.53635 3.1859C5.53635 3.18572 5.53635 3.18555 5.53635 3.18537C5.53635 3.1852 5.53635 3.18502 5.53635 3.18485C5.53635 3.18467 5.53635 3.1845 5.53635 3.18432C5.53635 3.18415 5.53635 3.18397 5.53635 3.1838C5.53635 3.18362 5.53635 3.18345 5.53635 3.18327C5.53635 3.1831 5.53635 3.18292 5.53635 3.18274C5.53635 3.18257 5.53635 3.18239 5.53635 3.18222C5.53635 3.18204 5.53635 3.18187 5.53635 3.18169C5.53635 3.18152 5.53635 3.18134 5.53635 3.18117C5.53635 3.18099 5.53635 3.18082 5.53635 3.18064C5.53635 3.18047 5.53635 3.18029 5.53635 3.18011C5.53635 3.17994 5.53635 3.17976 5.53635 3.17959C5.53635 3.17941 5.53635 3.17924 5.53635 3.17906C5.53635 3.17889 5.53635 3.17871 5.53635 3.17854C5.53635 3.17836 5.53635 3.17818 5.53635 3.17801C5.53635 3.17783 5.53635 3.17766 5.53635 3.17748C5.53635 3.17731 5.53635 3.17713 5.53635 3.17696C5.53635 3.17678 5.53635 3.1766 5.53635 3.17643C5.53635 3.17625 5.53635 3.17608 5.53635 3.1759C5.53635 3.17573 5.53635 3.17555 5.53635 3.17537C5.53635 3.1752 5.53635 3.17502 5.53635 3.17485C5.53635 3.17467 5.53635 3.1745 5.53635 3.17432C5.53635 3.17414 5.53635 3.17397 5.53635 3.17379C5.53635 3.17362 5.53635 3.17344 5.53635 3.17326C5.53635 3.17309 5.53635 3.17291 5.53635 3.17274C5.53635 3.17256 5.53635 3.17239 5.53635 3.17221C5.53635 3.17203 5.53635 3.17186 5.53635 3.17168C5.53635 3.17151 5.53635 3.17133 5.53635 3.17115C5.53635 3.17098 5.53635 3.1708 5.53635 3.17063C5.53635 3.17045 5.53635 3.17027 5.53635 3.1701C5.53635 3.16992 5.53635 3.16975 5.53635 3.16957C5.53635 3.16939 5.53635 3.16922 5.53635 3.16904C5.53635 3.16887 5.53635 3.16869 5.53635 3.16851C5.53635 3.16834 5.53635 3.16816 5.53635 3.16799C5.53635 3.16781 5.53635 3.16763 5.53635 3.16746C5.53635 3.16728 5.53635 3.1671 5.53635 3.16693C5.53635 3.16675 5.53635 3.16658 5.53635 3.1664C5.53635 3.16622 5.53635 3.16605 5.53635 3.16587C5.53635 3.16569 5.53635 3.16552 5.53635 3.16534C5.53635 3.16517 5.53635 3.16499 5.53635 3.16481C5.53635 3.16464 5.53635 3.16446 5.53635 3.16428C5.53635 3.16411 5.53635 3.16393 5.53635 3.16375C5.53635 3.16358 5.53635 3.1634 5.53635 3.16323C5.53635 3.16305 5.53635 3.16287 5.53635 3.1627C5.53635 3.16252 5.53635 3.16234 5.53635 3.16217C5.53635 3.16199 5.53635 3.16181 5.53635 3.16164C5.53635 3.16146 5.53635 3.16128 5.53635 3.16111C5.53635 3.16093 5.53635 3.16075 5.53635 3.16058C5.53635 3.1604 5.53635 3.16022 5.53635 3.16005C5.53635 3.15987 5.53635 3.15969 5.53635 3.15952C5.53635 3.15934 5.53635 3.15917 5.53635 3.15899C5.53635 3.15881 5.53635 3.15864 5.53635 3.15846C5.53635 3.15828 5.53635 3.1581 5.53635 3.15793C5.53635 3.15775 5.53635 3.15757 5.53635 3.1574C5.53635 3.15722 5.53635 3.15704 5.53635 3.15687C5.53635 3.15669 5.53635 3.15651 5.53635 3.15634C5.53635 3.15616 5.53635 3.15598 5.53635 3.15581C5.53635 3.15563 5.53635 3.15545 5.53635 3.15528C5.53635 3.1551 5.53635 3.15492 5.53635 3.15475C5.53635 3.15457 5.53635 3.15439 5.53635 3.15421C5.53635 3.15404 5.53635 3.15386 5.53635 3.15368C5.53635 3.15351 5.53635 3.15333 5.53635 3.15315C5.53635 3.15298 5.53635 3.1528 5.53635 3.15262C5.53635 3.15244 5.53635 3.15227 5.53635 3.15209C5.53635 3.15191 5.53635 3.15174 5.53635 3.15156C5.53635 3.15138 5.53635 3.15121 5.53635 3.15103C5.53635 3.15085 5.53635 3.15067 5.53635 3.1505C5.53635 3.15032 5.53635 3.15014 5.53635 3.14997C5.53635 3.14979 5.53635 3.14961 5.53635 3.14943C5.53635 3.14926 5.53635 3.14908 5.53635 3.1489C5.53635 3.14872 5.53635 3.14855 5.53635 3.14837C5.53635 3.14819 5.53635 3.14802 5.53635 3.14784C5.53635 3.14766 5.53635 3.14748 5.53635 3.14731C5.53635 3.14713 5.53635 3.14695 5.53635 3.14677C5.53635 3.1466 5.53635 3.14642 5.53635 3.14624C5.53635 3.14606 5.53635 3.14589 5.53635 3.14571C5.53635 3.14553 5.53635 3.14535 5.53635 3.14518C5.53635 3.145 5.53635 3.14482 5.53635 3.14465C5.53635 3.14447 5.53635 3.14429 5.53635 3.14411C5.53635 3.14394 5.53635 3.14376 5.53635 3.14358C5.53635 3.1434 5.53635 3.14322 5.53635 3.14305C5.53635 3.14287 5.53635 3.14269 5.53635 3.14251C5.53635 3.14234 5.53635 3.14216 5.53635 3.14198C5.53635 3.1418 5.53635 3.14163 5.53635 3.14145C5.53635 3.14127 5.53635 3.14109 5.53635 3.14092C5.53635 3.14074 5.53635 3.14056 5.53635 3.14038C5.53635 3.1402 5.53635 3.14003 5.53635 3.13985C5.53635 3.13967 5.53635 3.13949 5.53635 3.13932C5.53635 3.13914 5.53635 3.13896 5.53635 3.13878C5.53635 3.1386 5.53635 3.13843 5.53635 3.13825C5.53635 3.13807 5.53635 3.13789 5.53635 3.13772C5.53635 3.13754 5.53635 3.13736 5.53635 3.13718C5.53635 3.137 5.53635 3.13683 5.53635 3.13665C5.53635 3.13647 5.53635 3.13629 5.53635 3.13611C5.53635 3.13594 5.53635 3.13576 5.53635 3.13558C5.53635 3.1354 5.53635 3.13522 5.53635 3.13505C5.53635 3.13487 5.53635 3.13469 5.53635 3.13451C5.53635 3.13433 5.53635 3.13416 5.53635 3.13398C5.53635 3.1338 5.53635 3.13362 5.53635 3.13344C5.53635 3.13327 5.53635 3.13309 5.53635 3.13291C5.53635 3.13273 5.53635 3.13255 5.53635 3.13238C5.53635 3.1322 5.53635 3.13202 5.53635 3.13184C5.53635 3.13166 5.53635 3.13148 5.53635 3.13131C5.53635 3.13113 5.53635 3.13095 5.53635 3.13077C5.53635 3.13059 5.53635 3.13041 5.53635 3.13024C5.53635 3.13006 5.53635 3.12988 5.53635 3.1297C5.53635 3.12952 5.53635 3.12935 5.53635 3.12917C5.53635 3.12899 5.53635 3.12881 5.53635 3.12863C5.53635 3.12845 5.53635 3.12827 5.53635 3.1281C5.53635 3.12792 5.53635 3.12774 5.53635 3.12756C5.53635 3.12738 5.53635 3.1272 5.53635 3.12703C5.53635 3.12685 5.53635 3.12667 5.53635 3.12649C5.53635 3.12631 5.53635 3.12613 5.53635 3.12596C5.53635 3.12578 5.53635 3.1256 5.53635 3.12542C5.53635 3.12524 5.53635 3.12506 5.53635 3.12488C5.53635 3.12471 5.53635 3.12453 5.53635 3.12435C5.53635 3.12417 5.53635 3.12399 5.53635 3.12381C5.53635 3.12363 5.53635 3.12346 5.53635 3.12328C5.53635 3.1231 5.53635 3.12292 5.53635 3.12274C5.53635 3.12256 5.53635 3.12238 5.53635 3.1222C5.53635 3.12203 5.53635 3.12185 5.53635 3.12167C5.53635 3.12149 5.53635 3.12131 5.53635 3.12113C5.53635 3.12095 5.53635 3.12077 5.53635 3.1206C5.53635 3.12042 5.53635 3.12024 5.53635 3.12006C5.53635 3.11988 5.53635 3.1197 5.53635 3.11952C5.53635 3.11934 5.53635 3.11916 5.53635 3.11899C5.53635 3.11881 5.53635 3.11863 5.53635 3.11845C5.53635 3.11827 5.53635 3.11809 5.53635 3.11791C5.53635 3.11773 5.53635 3.11755 5.53635 3.11738C5.53635 3.1172 5.53635 3.11702 5.53635 3.11684C5.53635 3.11666 5.53635 3.11648 5.53635 3.1163C5.53635 3.11612 5.53635 3.11594 5.53635 3.11576C5.53635 3.11559 5.53635 3.11541 5.53635 3.11523C5.53635 3.11505 5.53635 3.11487 5.53635 3.11469C5.53635 3.11451 5.53635 3.11433 5.53635 3.11415C5.53635 3.11397 5.53635 3.11379 5.53635 3.11362C5.53635 3.11344 5.53635 3.11326 5.53635 3.11308C5.53635 3.1129 5.53635 3.11272 5.53635 3.11254C5.53635 3.11236 5.53635 3.11218 5.53635 3.112C5.53635 3.11182 5.53635 3.11164 5.53635 3.11146C5.53635 3.11129 5.53635 3.11111 5.53635 3.11093C5.53635 3.11075 5.53635 3.11057 5.53635 3.11039C5.53635 3.11021 5.53635 3.11003 5.53635 3.10985C5.53635 3.10967 5.53635 3.10949 5.53635 3.10931C5.53635 3.10913 5.53635 3.10895 5.53635 3.10877C5.53635 3.10859 5.53635 3.10842 5.53635 3.10824C5.53635 3.10806 5.53635 3.10788 5.53635 3.1077C5.53635 3.10752 5.53635 3.10734 5.53635 3.10716C5.53635 3.10698 5.53635 3.1068 5.53635 3.10662C5.53635 3.10644 5.53635 3.10626 5.53635 3.10608C5.53635 3.1059 5.53635 3.10572 5.53635 3.10554C5.53635 3.10536 5.53635 3.10518 5.53635 3.105C5.53635 3.10482 5.53635 3.10465 5.53635 3.10447C5.53635 3.10429 5.53635 3.10411 5.53635 3.10393C5.53635 3.10375 5.53635 3.10357 5.53635 3.10339C5.53635 3.10321 5.53635 3.10303 5.53635 3.10285C5.53635 3.10267 5.53635 3.10249 5.53635 3.10231C5.53635 3.10213 5.53635 3.10195 5.53635 3.10177C5.53635 3.10159 5.53635 3.10141 5.53635 3.10123C5.53635 3.10105 5.53635 3.10087 5.53635 3.10069C5.53635 3.10051 5.53635 3.10033 5.53635 3.10015C5.53635 3.09997 5.53635 3.09979 5.53635 3.09961C5.53635 3.09943 5.53635 3.09925 5.53635 3.09907C5.53635 3.09889 5.53635 3.09871 5.53635 3.09853C5.53635 3.09835 5.53635 3.09817 5.53635 3.09799C5.53635 3.09781 5.53635 3.09763 5.53635 3.09745C5.53635 3.09727 5.53635 3.09709 5.53635 3.09691C5.53635 3.09673 5.53635 3.09655 5.53635 3.09637C5.53635 3.09619 5.53635 3.09601 5.53635 3.09583C5.53635 3.09565 5.53635 3.09547 5.53635 3.09529C5.53635 3.09511 5.53635 3.09493 5.53635 3.09475C5.53635 3.09457 5.53635 3.09439 5.53635 3.09421C5.53635 3.09403 5.53635 3.09385 5.53635 3.09367C5.53635 3.09349 5.53635 3.09331 5.53635 3.09313C5.53635 3.09295 5.53635 3.09277 5.53635 3.09259C5.53635 3.09241 5.53635 3.09223 5.53635 3.09205C5.53635 3.09187 5.53635 3.09169 5.53635 3.09151C5.53635 3.09133 5.53635 3.09115 5.53635 3.09097C5.53635 3.09079 5.53635 3.09061 5.53635 3.09043C5.53635 3.09024 5.53635 3.09006 5.53635 3.08988C5.53635 3.0897 5.53635 3.08952 5.53635 3.08934C5.53635 3.08916 5.53635 3.08898 5.53635 3.0888C5.53635 3.08862 5.53635 3.08844 5.53635 3.08826C5.53635 3.08808 5.53635 3.0879 5.53635 3.08772C5.53635 3.08754 5.53635 3.08736 5.53635 3.08718C5.53635 3.087 5.53635 3.08682 5.53635 3.08664C5.53635 3.08646 5.53635 3.08627 5.53635 3.08609C5.53635 3.08591 5.53635 3.08573 5.53635 3.08555C5.53635 3.08537 5.53635 3.08519 5.53635 3.08501C5.53635 3.08483 5.53635 3.08465 5.53635 3.08447C5.53635 3.08429 5.53635 3.08411 5.53635 3.08393C5.53635 3.08375 5.53635 3.08356 5.53635 3.08338C5.53635 3.0832 5.53635 3.08302 5.53635 3.08284C5.53635 3.08266 5.53635 3.08248 5.53635 3.0823C5.53635 3.08212 5.53635 3.08194 5.53635 3.08176C5.53635 3.08158 5.53635 3.0814 5.53635 3.08122C5.53635 3.08103 5.53635 3.08085 5.53635 3.08067C5.53635 3.08049 5.53635 3.08031 5.53635 3.08013C5.53635 3.07995 5.53635 3.07977 5.53635 3.07959C5.53635 3.07941 5.53635 3.07923 5.53635 3.07904C5.53635 3.07886 5.53635 3.07868 5.53635 3.0785C5.53635 3.07832 5.53635 3.07814 5.53635 3.07796C5.53635 3.07778 5.53635 3.0776 5.53635 3.07742C5.53635 3.07723 5.53635 3.07705 5.53635 3.07687C5.53635 3.07669 5.53635 3.07651 5.53635 3.07633C5.53635 3.07615 5.53635 3.07597 5.53635 3.07579C5.53635 3.07561 5.53635 3.07542 5.53635 3.07524C5.53635 3.07506 5.53635 3.07488 5.53635 3.0747C5.53635 3.07452 5.53635 3.07434 5.53635 3.07416C5.53635 3.07398 5.53635 3.07379 5.53635 3.07361C5.53635 3.07343 5.53635 3.07325 5.53635 3.07307C5.53635 3.07289 5.53635 3.07271 5.53635 3.07253C5.53635 3.07234 5.53635 3.07216 5.53635 3.07198C5.53635 3.0718 5.53635 3.07162 5.53635 3.07144C5.53635 3.07126 5.53635 3.07108 5.53635 3.07089C5.53635 3.07071 5.53635 3.07053 5.53635 3.07035C5.53635 3.07017 5.53635 3.06999 5.53635 3.06981C5.53635 3.06962 5.53635 3.06944 5.53635 3.06926C5.53635 3.06908 5.53635 3.0689 5.53635 3.06872C5.53635 3.06854 5.53635 3.06835 5.53635 3.06817C5.53635 3.06799 5.53635 3.06781 5.53635 3.06763C5.53635 3.06745 5.53635 3.06727 5.53635 3.06708C5.53635 3.0669 5.53635 3.06672 5.53635 3.06654C5.53635 3.06636 5.53635 3.06618 5.53635 3.066C5.53635 3.06581 5.53635 3.06563 5.53635 3.06545C5.53635 3.06527 5.53635 3.06509 5.53635 3.06491C5.53635 3.06472 5.53635 3.06454 5.53635 3.06436C5.53635 3.06418 5.53635 3.064 5.53635 3.06382C5.53635 3.06363 5.53635 3.06345 5.53635 3.06327C5.53635 3.06309 5.53635 3.06291 5.53635 3.06273C5.53635 3.06254 5.53635 3.06236 5.53635 3.06218C5.53635 3.062 5.53635 3.06182 5.53635 3.06164C5.53635 3.06145 5.53635 3.06127 5.53635 3.06109C5.53635 3.06091 5.53635 3.06073 5.53635 3.06054C5.53635 3.06036 5.53635 3.06018 5.53635 3.06C5.53635 3.05982 5.53635 3.05964 5.53635 3.05945C5.53635 3.05927 5.53635 3.05909 5.53635 3.05891C5.53635 3.05873 5.53635 3.05854 5.53635 3.05836C5.53635 3.05818 5.53635 3.058 5.53635 3.05782C5.53635 3.05763 5.53635 3.05745 5.53635 3.05727C5.53635 3.05709 5.53635 3.05691 5.53635 3.05672C5.53635 3.05654 5.53635 3.05636 5.53635 3.05618C5.53635 3.056 5.53635 3.05581 5.53635 3.05563C5.53635 3.05545 5.53635 3.05527 5.53635 3.05509C5.53635 3.0549 5.53635 3.05472 5.53635 3.05454C5.53635 3.05436 5.53635 3.05418 5.53635 3.05399C5.53635 3.05381 5.53635 3.05363 5.53635 3.05345C5.53635 3.05327 5.53635 3.05308 5.53635 3.0529C5.53635 3.05272 5.53635 3.05254 5.53635 3.05235C5.53635 3.05217 5.53635 3.05199 5.53635 3.05181C5.53635 3.05163 5.53635 3.05144 5.53635 3.05126C5.53635 3.05108 5.53635 3.0509 5.53635 3.05071C5.53635 3.05053 5.53635 3.05035 5.53635 3.05017C5.53635 3.04999 5.53635 3.0498 5.53635 3.04962C5.53635 3.04944 5.53635 3.04926 5.53635 3.04907C5.53635 3.04889 5.53635 3.04871 5.53635 3.04853C5.53635 3.04834 5.53635 3.04816 5.53635 3.04798C5.53635 3.0478 5.53635 3.04761 5.53635 3.04743C5.53635 3.04725 5.53635 3.04707 5.53635 3.04688C5.53635 3.0467 5.53635 3.04652 5.53635 3.04634C5.53635 3.04615 5.53635 3.04597 5.53635 3.04579C5.53635 3.04561 5.53635 3.04542 5.53635 3.04524C5.53635 3.04506 5.53635 3.04488 5.53635 3.04469C5.53635 3.04451 5.53635 3.04433 5.53635 3.04415C5.53635 3.04396 5.53635 3.04378 5.53635 3.0436C5.53635 3.04342 5.53635 3.04323 5.53635 3.04305C5.53635 3.04287 5.53635 3.04269 5.53635 3.0425C5.53635 3.04232 5.53635 3.04214 5.53635 3.04196C5.53635 3.04177 5.53635 3.04159 5.53635 3.04141C5.53635 3.04122 5.53635 3.04104 5.53635 3.04086C5.53635 3.04068 5.53635 3.04049 5.53635 3.04031C5.53635 3.04013 5.53635 3.03995 5.53635 3.03976C5.53635 3.03958 5.53635 3.0394 5.53635 3.03921C5.53635 3.03903 5.53635 3.03885 5.53635 3.03867C5.53635 3.03848 5.53635 3.0383 5.53635 3.03812C5.53635 3.03793 5.53635 3.03775 5.53635 3.03757C5.53635 3.03739 5.53635 3.0372 5.53635 3.03702C5.53635 3.03684 5.53635 3.03665 5.53635 3.03647C5.53635 3.03629 5.53635 3.03611 5.53635 3.03592C5.53635 3.03574 5.53635 3.03556 5.53635 3.03537C5.53635 3.03519 5.53635 3.03501 5.53635 3.03483C5.53635 3.03464 5.53635 3.03446 5.53635 3.03428C5.53635 3.03409 5.53635 3.03391 5.53635 3.03373C5.53635 3.03354 5.53635 3.03336 5.53635 3.03318C5.53635 3.03299 5.53635 3.03281 5.53635 3.03263C5.53635 3.03245 5.53635 3.03226 5.53635 3.03208C5.53635 3.0319 5.53635 3.03171 5.53635 3.03153C5.53635 3.03135 5.53635 3.03116 5.53635 3.03098C5.53635 3.0308 5.53635 3.03061 5.53635 3.03043C5.53635 3.03025 5.53635 3.03006 5.53635 3.02988C5.53635 3.0297 5.53635 3.02952 5.53635 3.02933C5.53635 3.02915 5.53635 3.02897 5.53635 3.02878C5.53635 3.0286 5.53635 3.02842 5.53635 3.02823C5.53635 3.02805 5.53635 3.02787 5.53635 3.02768C5.53635 3.0275 5.53635 3.02732 5.53635 3.02713C5.53635 3.02695 5.53635 3.02677 5.53635 3.02658C5.53635 3.0264 5.53635 3.02622 5.53635 3.02603C5.53635 3.02585 5.53635 3.02567 5.53635 3.02548C5.53635 3.0253 5.53635 3.02512 5.53635 3.02493C5.53635 3.02475 5.53635 3.02456 5.53635 3.02438C5.53635 3.0242 5.53635 3.02401 5.53635 3.02383C5.53635 3.02365 5.53635 3.02346 5.53635 3.02328C5.53635 3.0231 5.53635 3.02291 5.53635 3.02273C5.53635 3.02255 5.53635 3.02236 5.53635 3.02218C5.53635 3.022 5.53635 3.02181 5.53635 3.02163C5.53635 3.02145 5.53635 3.02126 5.53635 3.02108C5.53635 3.02089 5.53635 3.02071 5.53635 3.02053C5.53635 3.02034 5.53635 3.02016 5.53635 3.01998C5.53635 3.01979 5.53635 3.01961 5.53635 3.01943C5.53635 3.01924 5.53635 3.01906 5.53635 3.01887C5.53635 3.01869 5.53635 3.01851 5.53635 3.01832C5.53635 3.01814 5.53635 3.01796 5.53635 3.01777C5.53635 3.01759 5.53635 3.0174 5.53635 3.01722C5.53635 3.01704 5.53635 3.01685 5.53635 3.01667C5.53635 3.01649 5.53635 3.0163 5.53635 3.01612C5.53635 3.01593 5.53635 3.01575 5.53635 3.01557C5.53635 3.01538 5.53635 3.0152 5.53635 3.01501C5.53635 3.01483 5.53635 3.01465 5.53635 3.01446C5.53635 3.01428 5.53635 3.0141 5.53635 3.01391C5.53635 3.01373 5.53635 3.01354 5.53635 3.01336C5.53635 3.01318 5.53635 3.01299 5.53635 3.01281C5.53635 3.01262 5.53635 3.01244 5.53635 3.01226C5.53635 3.01207 5.53635 3.01189 5.53635 3.0117C5.53635 3.01152 5.53635 3.01134 5.53635 3.01115C5.53635 3.01097 5.53635 3.01078 5.53635 3.0106C5.53635 3.01042 5.53635 3.01023 5.53635 3.01005C5.53635 3.00986 5.53635 3.00968 5.53635 3.0095C5.53635 3.00931 5.53635 3.00913 5.53635 3.00894C5.53635 3.00876 5.53635 3.00857 5.53635 3.00839C5.53635 3.00821 5.53635 3.00802 5.53635 3.00784C5.53635 3.00765 5.53635 3.00747 5.53635 3.00729C5.53635 3.0071 5.53635 3.00692 5.53635 3.00673C5.53635 3.00655 5.53635 3.00636 5.53635 3.00618C5.53635 3.006 5.53635 3.00581 5.53635 3.00563C5.53635 3.00544 5.53635 3.00526 5.53635 3.00508C5.53635 3.00489 5.53635 3.00471 5.53635 3.00452C5.53635 3.00434 5.53635 3.00415 5.53635 3.00397C5.53635 3.00378 5.53635 3.0036 5.53635 3.00342C5.53635 3.00323 5.53635 3.00305 5.53635 3.00286C5.53635 3.00268 5.53635 3.00249 5.53635 3.00231C5.53635 3.00213 5.53635 3.00194 5.53635 3.00176C5.53635 3.00157 5.53635 3.00139 5.53635 3.0012C5.53635 3.00102 5.53635 3.00083 5.53635 3.00065C5.53635 3.00047 5.53635 3.00028 5.53635 3.0001H3.73635ZM6.63635 0.1C5.03467 0.1 3.73635 1.39853 3.73635 3.0001H5.53635C5.53635 2.39253 6.0289 1.9 6.63635 1.9V0.1ZM38.2636 3C38.2636 1.39837 36.9652 0.1 35.3636 0.1V1.9C35.9711 1.9 36.4636 2.39249 36.4636 3H38.2636Z" fill="#78C7D6"/>
<path d="M39 6.45459H3C1.89543 6.45459 1 7.35002 1 8.45459V33.5455C1 34.6501 1.89543 35.5455 3 35.5455H39C40.1046 35.5455 41 34.6501 41 33.5455V8.45459C41 7.35002 40.1046 6.45459 39 6.45459Z" stroke="#78C7D6" stroke-width="1.8" stroke-miterlimit="10" stroke-linecap="square"/>
<path d="M21 24.6363C23.0083 24.6363 24.6364 23.0082 24.6364 20.9999C24.6364 18.9916 23.0083 17.3635 21 17.3635C18.9917 17.3635 17.3636 18.9916 17.3636 20.9999C17.3636 23.0082 18.9917 24.6363 21 24.6363Z" stroke="#78C7D6" stroke-width="1.8" stroke-miterlimit="10" stroke-linecap="square"/>
<path d="M30.4521 13.8652C30.0559 12.8341 29.1955 11.9092 28.091 11.9092H13.9091C12.8046 11.9092 11.9442 12.8341 11.548 13.8652C10.995 15.3044 9.84977 16.4496 8.41064 17.0026C7.37956 17.3987 6.45459 18.2592 6.45459 19.3637V22.6365C6.45459 23.741 7.37956 24.6014 8.41064 24.9976C9.84977 25.5505 10.995 26.6958 11.548 28.1349C11.9442 29.166 12.8046 30.091 13.9091 30.091H28.091C29.1955 30.091 30.0559 29.166 30.4521 28.1349C31.005 26.6958 32.1503 25.5505 33.5894 24.9976C34.6205 24.6014 35.5455 23.741 35.5455 22.6365V19.3637C35.5455 18.2592 34.6205 17.3987 33.5894 17.0026C32.1503 16.4496 31.005 15.3044 30.4521 13.8652Z" stroke="#78C7D6" stroke-width="1.8" stroke-miterlimit="10" stroke-linecap="square"/>
</svg>
