<?xml version="1.0" encoding="utf-8" ?>
<svg xmlns="http://www.w3.org/2000/svg" xmlns:xlink="http://www.w3.org/1999/xlink" width="6" height="7">
    <defs>
        <clipPath id="clip_0">
            <rect x="-1515" y="-410" width="1600" height="953" clip-rule="evenodd"/>
        </clipPath>
    </defs>
    <g clip-path="url(#clip_0)">
        <path fill="rgb(68,68,68)" stroke="none" d="M5.72727 6.5625L5.18182 6.5625L5.18182 5.03125C5.18182 4.82161 5.1321 4.62337 5.03267 4.43652C4.93324 4.24967 4.79688 4.08675 4.62358 3.94775C4.45028 3.80876 4.24716 3.69938 4.0142 3.61963C3.78125 3.53988 3.53409 3.5 3.27273 3.5C3.53409 3.5 3.78125 3.46012 4.0142 3.38037C4.24716 3.30062 4.45028 3.19124 4.62358 3.05225C4.79688 2.91325 4.93324 2.75033 5.03267 2.56348C5.1321 2.37663 5.18182 2.17839 5.18182 1.96875L5.18182 0.4375L5.72727 0.4375C5.80114 0.4375 5.86506 0.415853 5.91903 0.372558C5.97301 0.329264 6 0.277995 6 0.21875C6 0.159505 5.97301 0.108236 5.91903 0.0649416C5.86506 0.0216466 5.80114 0 5.72727 0L0.272727 0C0.198863 0 0.134943 0.0216466 0.0809659 0.0649416C0.0269884 0.108236 0 0.159505 0 0.21875C0 0.277995 0.0269884 0.329264 0.0809659 0.372558C0.134943 0.415853 0.198863 0.4375 0.272727 0.4375L0.818182 0.4375L0.818182 1.96875C0.818182 2.17839 0.867897 2.37663 0.96733 2.56348C1.06676 2.75033 1.20312 2.91325 1.37642 3.05225C1.54972 3.19124 1.75284 3.30062 1.98579 3.38037C2.21875 3.46012 2.46591 3.5 2.72727 3.5C2.46591 3.5 2.21875 3.53988 1.98579 3.61963C1.75284 3.69938 1.54972 3.80876 1.37642 3.94775C1.20312 4.08675 1.06676 4.24967 0.96733 4.43652C0.867897 4.62337 0.818182 4.82161 0.818182 5.03125L0.818182 6.5625L0.272727 6.5625C0.198863 6.5625 0.134943 6.58415 0.0809659 6.62744C0.0269884 6.67074 0 6.722 0 6.78125C0 6.8405 0.0269884 6.89176 0.0809659 6.93506C0.134943 6.97835 0.198863 7 0.272727 7L5.72727 7C5.80114 7 5.86506 6.97835 5.91903 6.93506C5.97301 6.89176 6 6.8405 6 6.78125C6 6.722 5.97301 6.67074 5.91903 6.62744C5.86506 6.58415 5.80114 6.5625 5.72727 6.5625ZM1.36364 1.96875L1.36364 0.4375L4.63636 0.4375L4.63636 1.96875C4.63636 2.26953 4.49716 2.52702 4.21875 2.74121C3.94034 2.9554 3.60227 3.0625 3.20455 3.0625L2.79545 3.0625C2.39773 3.0625 2.05966 2.9554 1.78125 2.74121C1.50284 2.52702 1.36364 2.26953 1.36364 1.96875ZM1.36364 6.5625L4.63636 6.5625L4.63636 5.03125C4.63636 4.73047 4.49716 4.47298 4.21875 4.25879C3.94034 4.0446 3.60227 3.9375 3.20455 3.9375L2.79545 3.9375C2.39773 3.9375 2.05966 4.0446 1.78125 4.25879C1.50284 4.47298 1.36364 4.73047 1.36364 5.03125L1.36364 6.5625Z" fill-rule="evenodd"/>
    </g>
    <defs>
        <clipPath id="clip_1">
            <rect x="-1515" y="-410" width="1600" height="953" clip-rule="evenodd"/>
        </clipPath>
    </defs>
    <g clip-path="url(#clip_1)">
        <path fill="none" stroke="rgb(43,43,43)" stroke-width="0.2" stroke-miterlimit="4" d="M5.72727 6.5625L5.18182 6.5625L5.18182 5.03125C5.18182 4.82161 5.1321 4.62337 5.03267 4.43652C4.93324 4.24967 4.79688 4.08675 4.62358 3.94775C4.45028 3.80876 4.24716 3.69938 4.0142 3.61963C3.78125 3.53988 3.53409 3.5 3.27273 3.5C3.53409 3.5 3.78125 3.46012 4.0142 3.38037C4.24716 3.30062 4.45028 3.19124 4.62358 3.05225C4.79688 2.91325 4.93324 2.75033 5.03267 2.56348C5.1321 2.37663 5.18182 2.17839 5.18182 1.96875L5.18182 0.4375L5.72727 0.4375C5.80114 0.4375 5.86506 0.415853 5.91903 0.372558C5.97301 0.329264 6 0.277995 6 0.21875C6 0.159505 5.97301 0.108236 5.91903 0.0649416C5.86506 0.0216466 5.80114 0 5.72727 0L0.272727 0C0.198863 0 0.134943 0.0216466 0.0809659 0.0649416C0.0269884 0.108236 0 0.159505 0 0.21875C0 0.277995 0.0269884 0.329264 0.0809659 0.372558C0.134943 0.415853 0.198863 0.4375 0.272727 0.4375L0.818182 0.4375L0.818182 1.96875C0.818182 2.17839 0.867897 2.37663 0.96733 2.56348C1.06676 2.75033 1.20312 2.91325 1.37642 3.05225C1.54972 3.19124 1.75284 3.30062 1.98579 3.38037C2.21875 3.46012 2.46591 3.5 2.72727 3.5C2.46591 3.5 2.21875 3.53988 1.98579 3.61963C1.75284 3.69938 1.54972 3.80876 1.37642 3.94775C1.20312 4.08675 1.06676 4.24967 0.96733 4.43652C0.867897 4.62337 0.818182 4.82161 0.818182 5.03125L0.818182 6.5625L0.272727 6.5625C0.198863 6.5625 0.134943 6.58415 0.0809659 6.62744C0.0269884 6.67074 0 6.722 0 6.78125C0 6.8405 0.0269884 6.89176 0.0809659 6.93506C0.134943 6.97835 0.198863 7 0.272727 7L5.72727 7C5.80114 7 5.86506 6.97835 5.91903 6.93506C5.97301 6.89176 6 6.8405 6 6.78125C6 6.722 5.97301 6.67074 5.91903 6.62744C5.86506 6.58415 5.80114 6.5625 5.72727 6.5625ZM1.36364 1.96875L1.36364 0.4375L4.63636 0.4375L4.63636 1.96875C4.63636 2.26953 4.49716 2.52702 4.21875 2.74121C3.94034 2.9554 3.60227 3.0625 3.20455 3.0625L2.79545 3.0625C2.39773 3.0625 2.05966 2.9554 1.78125 2.74121C1.50284 2.52702 1.36364 2.26953 1.36364 1.96875ZM1.36364 6.5625L4.63636 6.5625L4.63636 5.03125C4.63636 4.73047 4.49716 4.47298 4.21875 4.25879C3.94034 4.0446 3.60227 3.9375 3.20455 3.9375L2.79545 3.9375C2.39773 3.9375 2.05966 4.0446 1.78125 4.25879C1.50284 4.47298 1.36364 4.73047 1.36364 5.03125L1.36364 6.5625Z" fill-rule="evenodd"/>
    </g>
</svg>
