<svg width="5px" height="10px" viewBox="0 0 5 10" version="1.1" xmlns="http://www.w3.org/2000/svg" xmlns:xlink="http://www.w3.org/1999/xlink">
    
    <g id="Pages" stroke="none" stroke-width="1" fill="none" fill-rule="evenodd">
        <g id="Desktop---036-Search-Book-Lesson-InPerson" transform="translate(-234.000000, -614.000000)">
            <g id="Lesson-Booking" transform="translate(0.000000, 312.000000)">
                <g id="details" transform="translate(84.000000, 180.000000)">
                    <g id="Where" transform="translate(0.000000, 103.000000)">
                        <path d="M153.965552,27.7553298 C154.115472,27.7053562 154.237906,27.7528304 154.332856,27.8977538 C154.427806,28.0426772 154.410316,28.1751053 154.280384,28.2950419 C154.240406,28.3350207 154.152952,28.3999855 154.018024,28.4899379 C153.883096,28.5798903 153.648224,28.6848334 153.3134,28.80477 C152.978576,28.9247066 152.641259,28.984674 152.301439,28.984674 C151.431899,28.984674 150.837222,28.6698452 150.517391,28.0401778 C150.237539,27.4504895 150.287512,26.7808533 150.667311,26.0312494 L151.296975,24.7869132 C151.516859,24.3471453 151.526854,24.057303 151.326959,23.917377 C151.28698,23.877399 151.202027,23.857409 151.072095,23.857409 C150.982143,23.857409 150.884696,23.867403 150.779751,23.887393 C150.674807,23.907383 150.587354,23.927371 150.517391,23.947361 L150.427439,23.977345 C150.277518,24.027319 150.155085,23.982343 150.060135,23.842417 C149.965185,23.702491 149.982676,23.5725609 150.112607,23.4526249 C150.162581,23.4026509 150.250033,23.3351888 150.374967,23.2502329 C150.499901,23.1652769 150.729776,23.0603348 151.064599,22.9354008 C151.399422,22.8104668 151.736739,22.7480008 152.076559,22.7480008 C152.966089,22.7480008 153.565764,23.0628291 153.8756,23.692497 C154.155452,24.2821849 154.10548,24.9518215 153.72568,25.7014254 L153.096016,26.9457616 C152.876132,27.395524 152.866138,27.6903638 153.066032,27.8302898 C153.096016,27.8602738 153.18097,27.8752658 153.320896,27.8752658 C153.410848,27.8752658 153.508296,27.8652712 153.61324,27.8452818 C153.718184,27.8252924 153.805636,27.8053032 153.8756,27.7853138 L153.965552,27.7553298 Z M151.881663,20.5591683 C151.881663,19.5197184 152.401382,19 153.440832,19 C154.480282,19 155,19.5197184 155,20.5591683 C155,21.5986182 154.480282,22.1183366 153.440832,22.1183366 C152.401382,22.1183366 151.881663,21.5986182 151.881663,20.5591683 Z" id="Page-1"></path>
                    </g>
                </g>
            </g>
        </g>
    </g>
</svg>
