<svg width="10px" height="14px" viewBox="0 0 10 14" version="1.1" xmlns="http://www.w3.org/2000/svg" xmlns:xlink="http://www.w3.org/1999/xlink">
    
    <g id="Symbols" stroke="none" stroke-width="1" fill="none" fill-rule="evenodd">
        <g id="ToolBAr-5-Copy" transform="translate(-650.000000, -23.000000)">
            <g id="Type-Format" transform="translate(553.000000, 17.000000)">
                <path d="M97.4999995,19.9817708 L97.6549474,19.2070312 C97.6914059,19.1948784 97.9390162,19.1295579 98.3977858,19.0110677 C98.8565555,18.8925776 99.1953108,18.7786464 99.4140619,18.6692709 C99.5842022,18.4565962 99.7087663,18.1497417 99.7877604,17.7486971 C99.7938364,17.706163 99.9822026,16.8281341 100.352863,15.1145837 C100.723526,13.4010333 101.069876,11.7497905 101.391926,10.1608084 C101.713977,8.57182415 101.871961,7.67100817 101.865885,7.45833389 L101.865885,7.2304696 C101.720051,7.15147548 101.554472,7.09527044 101.369139,7.06184835 C101.183809,7.02842831 100.972656,7.00412431 100.735676,6.98893227 C100.498695,6.97374227 100.322483,6.95703123 100.207031,6.93880323 L100.380207,6 C100.580729,6.01215404 100.94531,6.03190104 101.473959,6.05924508 C102.002605,6.08658912 102.456811,6.10785512 102.836587,6.12304716 C103.216364,6.13823921 103.582463,6.14583421 103.934896,6.14583421 C104.226564,6.14583421 104.525821,6.13823921 104.832682,6.12304716 C105.13954,6.10785512 105.507159,6.08658912 105.935545,6.05924508 C106.363934,6.03190104 106.663193,6.01215404 106.833334,6 C106.802951,6.23698033 106.745225,6.50737661 106.660155,6.81119907 C106.477863,6.87196315 106.16949,6.95855023 105.735025,7.07096439 C105.30056,7.18337856 104.970921,7.28515564 104.746093,7.37630176 C104.697481,7.49175393 104.654947,7.62087709 104.618489,7.76367125 C104.582031,7.90646746 104.554687,8.02799358 104.536459,8.12825575 C104.518229,8.22851587 104.495441,8.36675303 104.468097,8.54296928 C104.440755,8.71918553 104.421006,8.84678765 104.408854,8.92578177 C104.24479,9.825091 103.978951,11.0996014 103.611328,12.7493497 C103.243704,14.399096 103.008247,15.4791641 102.904946,15.9895828 C102.892794,16.0442709 102.853298,16.2204851 102.786458,16.5182295 C102.719616,16.8159739 102.658854,17.0894082 102.604166,17.3385426 C102.549478,17.5876749 102.500868,17.8413622 102.458332,18.0996094 C102.415798,18.3578573 102.39757,18.5325517 102.403646,18.623698 L102.41276,18.7877604 C102.516058,18.8120661 103.078119,18.9062492 104.098958,19.0703126 C104.080728,19.337675 104.032118,19.6384531 103.953124,19.9726562 C103.886284,19.9726562 103.787543,19.9772135 103.6569,19.9863281 C103.526258,19.9954428 103.427517,20 103.360677,20 C103.184461,20 102.920141,19.9696184 102.567708,19.9088542 C102.215276,19.84809 101.953993,19.8177083 101.783853,19.8177083 C100.945308,19.8055555 100.319445,19.7994792 99.9062486,19.7994792 C99.5963522,19.7994792 99.1618947,19.8268227 98.6028641,19.8815104 C98.0438335,19.9361982 97.6762157,19.969618 97.4999995,19.9817708 Z" id="Page-1"></path>
            </g>
        </g>
    </g>
</svg>