<svg width="190px" height="67px" viewBox="0 0 190 67" version="1.1" xmlns="http://www.w3.org/2000/svg" xmlns:xlink="http://www.w3.org/1999/xlink">
    
    
    <defs>
        <polygon id="path-1" points="0 0.09949373 73.7863708 0.09949373 73.7863708 66.2635995 0 66.2635995"></polygon>
    </defs>
    <g id="Page-1" stroke="none" stroke-width="1" fill="none" fill-rule="evenodd">
        <g id="Desktop---Affiliate-Landing" transform="translate(-705.000000, -234.000000)">
            <g id="Top" transform="translate(0.000000, 140.000000)">
                <g id="Copy" transform="translate(472.000000, 94.000000)">
                    <g id="Logo" transform="translate(233.000000, 0.000000)">
                        <g id="Group-3" transform="translate(0.000000, 0.443751)">
                            <mask id="mask-2" fill="white">
                                <use xlink:href="#path-1"></use>
                            </mask>
                            <g id="Clip-2"></g>
                            <path d="M14.956093,49.0295615 C12.9715872,52.0657504 8.87664535,53.1194546 6.29728488,52.201537 C4.86068605,51.6888067 4.25699419,50.6937624 4.45196512,49.1588304 C4.6458314,47.636934 5.38373837,46.6310267 6.70876744,46.0846213 C7.44225581,45.7820887 8.37955233,45.6180585 9.48033721,45.6180585 C11.3157151,45.6180585 13.6051047,46.075931 16.1618198,47.1160565 C15.6757733,47.904162 15.2687093,48.5510495 14.956093,49.0295615 M43.651064,8.94589417 C46.8153372,3.70561689 48.9478663,4.28026587 50.0315291,4.67893539 C52.5473721,5.98140066 53.291907,8.40437712 52.2441453,11.8826872 C52.2187384,11.9674181 49.6338547,20.3709805 43.6571395,23.2675807 C41.1280407,24.4934623 38.3835349,24.5401729 35.2700756,23.4077125 C39.6914419,15.8074637 43.3091744,9.53901013 43.651064,8.94589417 M72.6442907,53.3242208 C71.574436,52.7435972 70.2322849,53.1265155 69.6424012,54.1769608 C69.6037384,54.2453972 65.6800174,61.0309263 55.120657,61.7951334 C55.0864128,61.7978491 55.0516163,61.801108 55.0173721,61.80491 C45.6250756,62.9205329 35.878186,55.3936089 28.759814,49.895337 C27.831907,49.1783837 26.9465291,48.4951054 26.1086512,47.8650555 C24.8753081,46.9384476 23.6237384,46.1025451 22.3688547,45.3622365 C25.3171686,40.4418725 29.3137965,33.628643 33.0491744,27.2222302 C33.1889128,27.2765449 33.3303081,27.3314027 33.4728081,27.384631 C37.8251337,29.0336237 41.9090291,28.9592127 45.6101628,27.1651998 C53.3035058,23.4364992 56.3551047,13.5338525 56.4810349,13.1161729 C58.1380116,7.61681472 56.4362965,2.99463814 51.9293198,0.751986307 C51.8608314,0.718311225 51.790686,0.687895022 51.7188837,0.660737698 C47.2803953,-1.00454942 43.2876337,1.03768136 39.8295233,6.76516103 C39.7405988,6.91887149 35.90525,13.5648119 31.2292616,21.6006641 C28.5814128,20.1493767 26.9437674,18.5367748 26.2572267,16.7199498 C25.3724012,14.3741001 25.9882442,11.3161854 28.1412093,7.37022622 C28.7178372,6.31326316 28.3140872,4.99613293 27.2387093,4.429088 C26.1627791,3.86095678 24.8239419,4.25854001 24.247314,5.31658936 C21.4602791,10.424882 20.7626919,14.6494754 22.1147849,18.2320696 C23.1697267,21.025472 25.4491744,23.3810983 29.0365291,25.3652124 C25.2989419,31.7737977 21.3277209,38.5424892 18.4418198,43.3558534 C13.3571105,41.1609984 8.50713953,40.6341463 5.00097674,42.0772865 C2.20952326,43.2282139 0.457546512,45.5517946 0.0676046512,48.6200291 C-0.381436047,52.1499381 1.42908721,55.0878174 4.79164535,56.2865417 C9.04786628,57.8024636 15.4034767,56.3821355 18.6732442,51.3781269 C19.039436,50.8186861 19.5265872,50.0419866 20.1109477,49.0914802 C21.1929535,49.7334794 22.3009186,50.4721586 23.4254535,51.3172945 C24.2489709,51.9364815 25.1188837,52.6083537 26.0302209,53.3122716 C33.1889128,58.8415028 42.796064,66.2646858 53.0847849,66.2635995 C53.8845523,66.2635995 54.689843,66.2185183 55.4967907,66.1250971 C68.3786802,65.1702456 73.3076337,56.6390438 73.5108895,56.2762219 C74.1007733,55.2252335 73.711936,53.9037581 72.6442907,53.3242208" id="Fill-1" fill="#F37073" mask="url(#mask-2)"></path>
                        </g>
                        <path d="M81.6852529,45.7614492 C79.491968,46.9639755 77.5483343,46.9058588 76.2089448,45.5990484 C74.9987994,44.4171616 74.6033343,42.5003977 75.3086541,41.2348664 C75.3246715,41.2055364 75.3329564,41.1745771 75.3473169,41.144704 C76.1862994,39.998665 77.0131308,38.7689813 77.8233924,37.4339273 C78.3099913,36.632243 78.7932762,35.8229548 79.2760087,35.0158391 C83.3991192,28.1146199 87.665282,20.9983146 92.530718,21.3540756 C93.9358343,21.463248 94.9101366,21.8831003 95.5099622,22.6402465 C96.4483634,23.8237627 96.3682762,25.7329226 96.261125,26.3548253 C96.2368227,26.4851804 96.2290901,26.6144493 96.2285378,26.7426319 C96.1976076,26.7947739 96.167782,26.8414845 96.1368517,26.8947129 C95.8849913,27.3281438 95.5530436,27.9457013 95.1492936,28.7012181 C92.9554564,32.7998015 87.8193808,42.3971998 81.6852529,45.7614492 M59.1122587,24.5092135 C59.3486541,24.2381834 59.5287122,23.9454275 59.7374913,23.6065041 C60.6074041,22.1943232 61.798218,20.2596354 66.1881017,21.2568524 C68.0328692,21.6750752 68.2775494,22.5522567 68.3697878,22.8819467 C68.9138285,24.8329288 67.2220552,29.0395983 63.0138866,32.9937047 C59.523189,36.2737664 55.3597587,35.2586256 53.3437703,34.4569414 C55.5701948,30.1715156 58.6118517,25.1360046 59.1122587,24.5092135 M187.472724,15.7808495 L181.577753,15.7808495 L187.732317,6.19322778 C188.383509,5.1791733 188.074759,3.83705834 187.043015,3.19668863 C186.011823,2.55631893 184.646474,2.85939467 183.995282,3.87453544 L176.352753,15.7808495 L169.910427,15.7808495 C168.69034,15.7808495 167.701125,16.7536249 167.701125,17.9534355 C167.701125,19.153246 168.69034,20.1260214 169.910427,20.1260214 L173.564061,20.1260214 L156.718131,46.3692301 C154.800456,49.4635356 151.993538,48.3359635 151.451154,48.0790552 C150.472985,47.6141218 150.220573,47.0454474 150.110108,46.6022399 C149.669904,44.8419022 151.001561,42.0126521 152.424904,40.128477 C152.463567,40.076878 152.500573,40.0241928 152.534265,39.969335 C152.534265,39.969335 158.239235,30.8308955 159.205253,29.2927046 C160.079584,27.8995339 161.257142,24.7688375 160.124875,21.8657196 C159.571997,20.4486504 158.241997,18.5666478 155.046241,17.6465577 C151.927259,16.7487366 149.197666,17.4857863 147.177259,18.5204804 C146.843102,17.6623089 146.320049,16.7118026 145.508683,15.6917735 C144.75752,14.7472418 143.369526,14.5799526 142.406823,15.3202613 C141.446328,16.0594837 141.277317,17.4249539 142.029584,18.3700288 C143.256299,19.9114785 143.313189,20.9331371 143.292753,21.2568524 L131.271387,42.4716109 C129.914323,44.8668869 127.364235,46.3279509 124.551241,46.317088 C123.261561,46.3067682 122.112172,45.6414138 121.476445,44.5388264 C120.840166,43.4362391 120.849555,42.1250834 121.501852,41.0311864 L127.845311,30.3893174 C128.409788,29.442613 128.166765,28.2303101 127.27973,27.5638693 C127.221735,27.5204176 121.493567,23.2203269 119.998422,21.9678311 C118.081299,20.3628333 119.692433,17.7187962 119.887404,17.4157204 C120.544672,16.4114426 120.254701,15.0720434 119.23566,14.4191813 C118.21441,13.7657761 116.845747,14.0482122 116.178538,15.0535764 C115.244003,16.4641278 114.221648,19.1130532 114.84909,21.6995168 C106.390224,38.493606 100.864206,44.0092586 98.3201948,45.8021851 C96.5290029,47.0650007 94.6825785,47.3300562 93.3829564,46.5131639 C92.1661831,45.7484136 91.6260087,44.1580807 91.9739738,42.3618953 C91.9922006,42.2663015 91.9938576,42.1723372 91.9993808,42.0778297 C95.165311,37.9971702 97.5751076,33.498831 99.0592064,30.7249819 C99.4336831,30.0254092 99.7396715,29.4529328 99.9727529,29.0510044 C101.760078,25.9778816 102.938741,25.5140345 104.570863,24.8720354 C105.703131,24.4266553 106.253799,23.1622102 105.800892,22.0476737 C105.347433,20.9331371 104.061067,20.39162 102.928799,20.8375433 C101.977695,21.2123144 101.085689,21.6050093 100.208044,22.1921506 C99.9473459,21.4529283 99.5712122,20.7050155 99.0249622,20.0065292 C98.0727529,18.7882516 96.2329564,17.2815633 92.8759215,17.0230255 C85.2687413,16.4271938 80.277375,24.7617766 75.4660669,32.8144664 C74.9888576,33.6134349 74.5105436,34.4140328 74.029468,35.2070267 C68.7542064,43.8984567 63.3441773,47.7721774 57.4933924,47.0416454 C55.2868517,46.7678996 52.4142064,46.0601797 51.2615029,44.2476999 C50.2822297,42.7078796 50.6959215,40.5906946 51.2151076,39.0856357 C51.2874622,38.8765243 51.3725203,38.6505754 51.4691773,38.4099615 C55.0736541,39.9036143 61.1658052,40.7400599 66.0660378,36.1347209 C69.9345262,32.5005277 73.9747878,26.5470991 72.6304273,21.7321055 C71.963218,19.3411747 70.0284215,17.6688267 67.1817355,17.0230255 C59.6772878,15.3208045 56.9758634,19.7045397 55.9584797,21.3546187 C55.8695552,21.4985526 55.7972006,21.6245625 55.7574331,21.6810498 C54.6549913,22.9454948 48.498218,33.4379986 47.0312413,37.6897493 C45.8453983,41.1251508 46.0127529,44.1895832 47.5156308,46.5517273 C49.1786831,49.1675208 52.349032,50.7822953 56.9388576,51.3531422 C57.5894971,51.4335279 58.2346134,51.4742639 58.8758634,51.4742639 C63.2193517,51.4742639 67.3441192,49.6156166 71.2137122,45.9271088 C71.6434215,46.9368181 72.275282,47.8808067 73.0960378,48.6824909 C74.6552529,50.2054737 76.6055145,50.9761985 78.7142936,50.9761985 C80.3618808,50.9761985 82.106125,50.5052905 83.8371134,49.5558705 C85.3057471,48.7509274 86.6942936,47.6977664 87.999439,46.4946969 C88.5782762,48.0100756 89.6006308,49.2929876 91.0035378,50.1745143 C92.2429564,50.9533864 93.6342645,51.3390204 95.0813576,51.3390204 C96.9951657,51.3384773 99.0067355,50.6638893 100.894032,49.3337236 C105.729642,45.9265657 111.386009,37.9960839 117.721183,25.7546484 C119.062782,26.8268196 121.462637,28.6512486 123.046154,29.8478003 L117.689701,38.8336157 C116.231009,41.2810338 116.209468,44.2151111 117.632811,46.6826256 C119.056706,49.1506832 121.628887,50.6383614 124.514235,50.6622599 C124.547927,50.6622599 124.581619,50.662803 124.615863,50.662803 C128.981445,50.6622599 133.004032,48.341395 135.13159,44.5871665 L146.632666,24.2897823 C146.694526,24.2360108 146.760253,24.1876708 146.817695,24.1257521 C146.946939,23.9867066 150.014003,20.7245688 153.804613,21.8168364 C155.571503,22.3257647 155.893509,23.1508042 155.999555,23.4223774 C156.486706,24.670528 155.823363,26.4080536 155.445573,27.0093168 C154.531474,28.4649494 149.377172,36.7213191 148.817666,37.6175108 C147.772666,39.0188287 144.784584,43.5008735 145.818538,47.6391065 C146.299061,49.5618451 147.582666,51.066904 149.529613,51.9918825 C150.872317,52.6289933 152.129962,52.8924193 153.284323,52.8924193 C156.854003,52.8924193 159.436677,50.3749354 160.499352,48.6167702 L162.016038,46.2535399 C162.158538,46.5604176 162.315951,46.8613208 162.497666,47.1535336 C164.430253,50.2538137 168.019265,51.641553 170.719032,51.641553 C182.149962,51.641553 186.967346,37.0265674 187.166735,36.4041215 C187.534032,35.2597119 186.887811,34.0398049 185.724061,33.6791556 C184.560311,33.3168769 183.319788,33.9534446 182.953044,35.0973111 C182.942549,35.1288136 181.923509,38.2649414 179.783247,41.3988966 C177.111096,45.312267 174.061154,47.2963811 170.719032,47.2963811 C169.25316,47.2963811 167.252637,46.4675396 166.265078,44.8826381 C165.338276,43.3960462 165.455369,41.5091553 166.612491,39.275737 C166.686503,39.1318032 166.740631,38.982981 166.779846,38.8325295 L178.789061,20.1260214 L187.472724,20.1260214 C188.692811,20.1260214 189.682026,19.153246 189.682026,17.9534355 C189.682026,16.7536249 188.692811,15.7808495 187.472724,15.7808495" id="Fill-4" fill="#F37073"></path>
                    </g>
                </g>
            </g>
        </g>
    </g>
</svg>
