<svg width="125" height="38" viewBox="0 0 125 38" fill="none" xmlns="http://www.w3.org/2000/svg">
    <mask id="mask0" mask-type="alpha" maskUnits="userSpaceOnUse" x="0" y="0" width="41" height="38">
        <path d="M0 0.53537H40.7399V37.0668H0V0.53537Z" fill="white"/>
    </mask>
    <g mask="url(#mask0)">
        <path fill-rule="evenodd" clip-rule="evenodd" d="M8.25777 27.5513C7.16206 29.2277 4.90111 29.8094 3.47696 29.3026C2.68376 29.0195 2.35045 28.4701 2.4581 27.6227C2.56514 26.7824 2.97256 26.227 3.70415 25.9253C4.10914 25.7582 4.62665 25.6677 5.23443 25.6677C6.2478 25.6677 7.51185 25.9205 8.9235 26.4948C8.65513 26.9299 8.43038 27.2871 8.25777 27.5513ZM24.1012 5.41976C25.8483 2.52643 27.0258 2.84371 27.6241 3.06383C29.0132 3.78297 29.4242 5.12077 28.8457 7.04126C28.8317 7.08804 27.4045 11.7279 24.1046 13.3272C22.7082 14.0041 21.1928 14.0299 19.4738 13.4046C21.915 9.20826 23.9125 5.74724 24.1012 5.41976ZM40.1093 29.9225C39.5186 29.6019 38.7776 29.8133 38.4519 30.3933C38.4305 30.4311 36.2641 34.1776 30.434 34.5996C30.4151 34.6011 30.3958 34.6029 30.3769 34.605C25.1911 35.2209 19.8096 31.0651 15.8793 28.0293C15.3669 27.6335 14.8781 27.2562 14.4155 26.9083C13.7345 26.3967 13.0435 25.9352 12.3506 25.5264C13.9785 22.8097 16.1851 19.0479 18.2476 15.5107C18.3247 15.5407 18.4028 15.571 18.4815 15.6004C20.8845 16.5109 23.1394 16.4698 25.1829 15.4792C29.4307 13.4205 31.1155 7.95292 31.1851 7.72231C32.0999 4.68593 31.1604 2.13388 28.6719 0.895633C28.6341 0.87704 28.5954 0.860246 28.5557 0.845251C26.1051 -0.074209 23.9006 1.05337 21.9912 4.21571C21.9421 4.30057 19.8245 7.97002 17.2427 12.4069C15.7808 11.6056 14.8766 10.7152 14.4975 9.71208C14.009 8.41685 14.349 6.72848 15.5377 4.54978C15.8561 3.9662 15.6332 3.23897 15.0394 2.92588C14.4454 2.6122 13.7061 2.83172 13.3878 3.4159C11.849 6.23636 11.4638 8.5689 12.2103 10.547C12.7928 12.0893 14.0514 13.3899 16.032 14.4854C13.9684 18.0238 11.7758 21.761 10.1824 24.4186C7.37492 23.2068 4.69709 22.9159 2.76122 23.7127C1.21997 24.3482 0.252645 25.6311 0.0373457 27.3252C-0.210585 29.2741 0.789065 30.8962 2.64565 31.5581C4.99565 32.3951 8.50479 31.6109 10.3101 28.848C10.5123 28.5391 10.7813 28.1103 11.1039 27.5855C11.7014 27.9399 12.3131 28.3478 12.934 28.8144C13.3887 29.1563 13.869 29.5273 14.3722 29.9159C18.3247 32.9688 23.6291 37.0674 29.3099 37.0668C29.7515 37.0668 30.1961 37.0419 30.6416 36.9903C37.7542 36.4631 40.4756 31.7527 40.5878 31.5524C40.9135 30.9721 40.6988 30.2425 40.1093 29.9225Z" fill="#FF676B"/>
    </g>
    <path fill-rule="evenodd" clip-rule="evenodd" d="M45.1009 25.5016C43.8899 26.1655 42.8168 26.1335 42.0773 25.4119C41.4091 24.7594 41.1908 23.7011 41.5802 23.0023C41.589 22.9861 41.5936 22.969 41.6015 22.9525C42.0648 22.3198 42.5213 21.6408 42.9687 20.9037C43.2373 20.4611 43.5042 20.0142 43.7707 19.5686C46.0472 15.7582 48.4027 11.829 51.0891 12.0255C51.8649 12.0857 52.4028 12.3176 52.734 12.7356C53.2521 13.3891 53.2079 14.4432 53.1487 14.7866C53.1353 14.8585 53.131 14.9299 53.1307 15.0007C53.1137 15.0295 53.0972 15.0553 53.0801 15.0846C52.9411 15.324 52.7578 15.6649 52.5349 16.0821C51.3236 18.345 48.4878 23.6441 45.1009 25.5016ZM32.6376 13.7675C32.7681 13.6179 32.8676 13.4562 32.9828 13.2691C33.4631 12.4894 34.1206 11.4212 36.5444 11.9718C37.563 12.2027 37.6981 12.687 37.749 12.8691C38.0494 13.9463 37.1153 16.2689 34.7918 18.4521C32.8645 20.2631 30.5657 19.7026 29.4526 19.26C30.6819 16.8939 32.3613 14.1136 32.6376 13.7675ZM103.51 8.94831H100.255L103.653 3.65466C104.013 3.09477 103.842 2.35374 103.272 2.00017C102.703 1.64661 101.949 1.81394 101.59 2.37444L97.37 8.94831H93.813C93.1393 8.94831 92.5931 9.48541 92.5931 10.1479C92.5931 10.8103 93.1393 11.3474 93.813 11.3474H95.8302L86.529 25.8372C85.4702 27.5456 83.9204 26.9231 83.621 26.7812C83.0809 26.5245 82.9415 26.2105 82.8805 25.9658C82.6375 24.9939 83.3727 23.4318 84.1586 22.3914C84.18 22.363 84.2004 22.3339 84.219 22.3036C84.219 22.3036 87.3689 17.2579 87.9023 16.4087C88.385 15.6394 89.0352 13.9109 88.41 12.308C88.1048 11.5256 87.3704 10.4864 85.6059 9.97843C83.8838 9.48271 82.3768 9.88966 81.2612 10.4609C81.0767 9.98712 80.7879 9.46232 80.3399 8.89913C79.9252 8.37762 79.1588 8.28525 78.6273 8.694C78.097 9.10215 78.0037 9.85607 78.419 10.3779C79.0963 11.229 79.1277 11.7931 79.1165 11.9718L72.4791 23.6852C71.7298 25.0077 70.3218 25.8144 68.7686 25.8084C68.0566 25.8027 67.422 25.4353 67.0709 24.8265C66.7196 24.2178 66.7248 23.4938 67.085 22.8899L70.5874 17.0141C70.8991 16.4914 70.7649 15.8221 70.2751 15.4541C70.2431 15.4301 67.0804 13.0559 66.2549 12.3643C65.1964 11.4782 66.0859 10.0183 66.1936 9.85097C66.5565 9.29648 66.3964 8.55695 65.8337 8.19649C65.2699 7.83572 64.5142 7.99166 64.1458 8.54676C63.6298 9.32557 63.0653 10.7881 63.4118 12.2162C58.7413 21.4888 55.6903 24.5342 54.2856 25.5241C53.2966 26.2213 52.2772 26.3677 51.5596 25.9166C50.8878 25.4944 50.5895 24.6163 50.7817 23.6246C50.7917 23.5718 50.7926 23.5199 50.7957 23.4677C52.5437 21.2147 53.8742 18.731 54.6936 17.1995C54.9004 16.8132 55.0694 16.4971 55.198 16.2752C56.1849 14.5784 56.8357 14.3223 57.7368 13.9679C58.362 13.7219 58.666 13.0238 58.416 12.4084C58.1656 11.7931 57.4553 11.4941 56.8302 11.7403C56.305 11.9472 55.8125 12.164 55.328 12.4882C55.184 12.0801 54.9763 11.6671 54.6747 11.2814C54.149 10.6088 53.1332 9.7769 51.2797 9.63415C47.0795 9.30518 44.3236 13.907 41.6671 18.3531C41.4036 18.7943 41.1395 19.2363 40.8739 19.6741C37.9613 24.473 34.9742 26.6118 31.7438 26.2084C30.5255 26.0573 28.9394 25.6665 28.3029 24.6658C27.7623 23.8156 27.9907 22.6466 28.2773 21.8157C28.3173 21.7002 28.3642 21.5754 28.4176 21.4426C30.4078 22.2673 33.7714 22.7291 36.477 20.1864C38.6129 18.1798 40.8437 14.8927 40.1014 12.2342C39.7331 10.9141 38.6648 9.99072 37.093 9.63415C32.9496 8.6943 31.458 11.1147 30.8963 12.0258C30.8472 12.1052 30.8073 12.1748 30.7853 12.206C30.1766 12.9041 26.7773 18.6974 25.9673 21.0449C25.3125 22.9417 25.4049 24.6337 26.2347 25.9379C27.153 27.3822 28.9034 28.2738 31.4376 28.589C31.7968 28.6333 32.153 28.6558 32.5071 28.6558C34.9053 28.6558 37.1827 27.6296 39.3192 25.5931C39.5565 26.1506 39.9054 26.6718 40.3585 27.1144C41.2194 27.9553 42.2962 28.3808 43.4605 28.3808C44.3702 28.3808 45.3333 28.1208 46.289 27.5966C47.0999 27.1522 47.8666 26.5707 48.5872 25.9064C48.9068 26.7431 49.4713 27.4515 50.2458 27.9382C50.9302 28.3682 51.6984 28.5812 52.4973 28.5812C53.554 28.5809 54.6647 28.2084 55.7067 27.474C58.3766 25.5928 61.4997 21.2141 64.9975 14.4552C65.7383 15.0472 67.0633 16.0545 67.9376 16.7151L64.9802 21.6765C64.1748 23.0278 64.1629 24.6478 64.9487 26.0102C65.7349 27.3729 67.1551 28.1943 68.7482 28.2075C68.7668 28.2075 68.7854 28.2078 68.8043 28.2078C71.2147 28.2075 73.4357 26.9261 74.6104 24.8532L80.9605 13.6464C80.9947 13.6167 81.031 13.59 81.0627 13.5558C81.134 13.479 82.8275 11.6779 84.9204 12.281C85.896 12.562 86.0737 13.0175 86.1323 13.1674C86.4013 13.8566 86.035 14.8159 85.8264 15.1479C85.3217 15.9516 82.4759 20.5102 82.1669 21.0051C81.59 21.7788 79.9401 24.2535 80.511 26.5383C80.7763 27.5999 81.4851 28.4309 82.56 28.9416C83.3014 29.2934 83.9958 29.4388 84.6331 29.4388C86.6041 29.4388 88.0301 28.0489 88.6168 27.0781L89.4542 25.7733C89.5329 25.9427 89.6198 26.1089 89.7201 26.2702C90.7872 27.982 92.7688 28.7482 94.2594 28.7482C100.571 28.7482 103.231 20.6788 103.341 20.3351C103.544 19.7032 103.187 19.0297 102.544 18.8306C101.902 18.6305 101.217 18.982 101.014 19.6136C101.008 19.631 100.446 21.3625 99.2641 23.0929C97.7887 25.2536 96.1047 26.3491 94.2594 26.3491C93.4501 26.3491 92.3455 25.8914 91.8002 25.0164C91.2885 24.1956 91.3532 23.1538 91.9921 21.9206C92.0329 21.8411 92.0628 21.759 92.0845 21.6759L98.7151 11.3474H103.51C104.183 11.3474 104.73 10.8103 104.73 10.1479C104.73 9.48541 104.183 8.94831 103.51 8.94831Z" fill="#FF676B"/>
    <path d="M115.647 3.91996C115.827 3.91996 115.973 3.97096 116.087 4.07295C116.2 4.17494 116.257 4.3088 116.257 4.47454C116.257 4.64027 116.2 4.77413 116.087 4.87612C115.973 4.97174 115.827 5.01955 115.647 5.01955H114.076V10.0298C114.076 10.1956 114.013 10.3358 113.886 10.4506C113.759 10.5589 113.602 10.6131 113.416 10.6131C113.229 10.6131 113.076 10.5589 112.955 10.4506C112.835 10.3358 112.775 10.1956 112.775 10.0298V5.01955H111.205C111.025 5.01955 110.878 4.96855 110.765 4.86656C110.651 4.76457 110.594 4.63071 110.594 4.46498C110.594 4.30561 110.651 4.17494 110.765 4.07295C110.885 3.97096 111.031 3.91996 111.205 3.91996H115.647Z" fill="#FF676B"/>
    <path d="M123.38 3.9104C123.546 3.9104 123.69 3.96777 123.81 4.08251C123.937 4.19088 124 4.32792 124 4.49366V10.0298C124 10.1956 123.943 10.3358 123.83 10.4506C123.716 10.5589 123.566 10.6131 123.38 10.6131C123.193 10.6131 123.039 10.5589 122.919 10.4506C122.806 10.3422 122.749 10.202 122.749 10.0298V6.17651L121.099 8.58604C121.032 8.66253 120.955 8.72627 120.869 8.77727C120.782 8.82189 120.692 8.84101 120.598 8.83464C120.512 8.84101 120.425 8.82189 120.338 8.77727C120.252 8.72627 120.175 8.66253 120.108 8.58604L118.458 6.09045V10.0298C118.458 10.202 118.404 10.3422 118.297 10.4506C118.191 10.5589 118.051 10.6131 117.877 10.6131C117.711 10.6131 117.574 10.5589 117.467 10.4506C117.36 10.3358 117.307 10.1956 117.307 10.0298V4.49366C117.307 4.3343 117.367 4.19725 117.487 4.08251C117.614 3.96777 117.764 3.9104 117.937 3.9104C118.037 3.9104 118.137 3.9359 118.237 3.98689C118.338 4.03151 118.414 4.09207 118.468 4.16856L120.648 7.37171L122.889 4.16856C122.943 4.09207 123.013 4.03151 123.1 3.98689C123.193 3.9359 123.286 3.9104 123.38 3.9104Z" fill="#FF676B"/>
    <path d="M115.647 3.91996C115.827 3.91996 115.973 3.97096 116.087 4.07295C116.2 4.17494 116.257 4.3088 116.257 4.47454C116.257 4.64027 116.2 4.77413 116.087 4.87612C115.973 4.97174 115.827 5.01955 115.647 5.01955H114.076V10.0298C114.076 10.1956 114.013 10.3358 113.886 10.4506C113.759 10.5589 113.602 10.6131 113.416 10.6131C113.229 10.6131 113.076 10.5589 112.955 10.4506C112.835 10.3358 112.775 10.1956 112.775 10.0298V5.01955H111.205C111.025 5.01955 110.878 4.96855 110.765 4.86656C110.651 4.76457 110.594 4.63071 110.594 4.46498C110.594 4.30561 110.651 4.17494 110.765 4.07295C110.885 3.97096 111.031 3.91996 111.205 3.91996H115.647Z" stroke="#FF676B" stroke-width="0.6"/>
    <path d="M123.38 3.9104C123.546 3.9104 123.69 3.96777 123.81 4.08251C123.937 4.19088 124 4.32792 124 4.49366V10.0298C124 10.1956 123.943 10.3358 123.83 10.4506C123.716 10.5589 123.566 10.6131 123.38 10.6131C123.193 10.6131 123.039 10.5589 122.919 10.4506C122.806 10.3422 122.749 10.202 122.749 10.0298V6.17651L121.099 8.58604C121.032 8.66253 120.955 8.72627 120.869 8.77727C120.782 8.82189 120.692 8.84101 120.598 8.83464C120.512 8.84101 120.425 8.82189 120.338 8.77727C120.252 8.72627 120.175 8.66253 120.108 8.58604L118.458 6.09045V10.0298C118.458 10.202 118.404 10.3422 118.297 10.4506C118.191 10.5589 118.051 10.6131 117.877 10.6131C117.711 10.6131 117.574 10.5589 117.467 10.4506C117.36 10.3358 117.307 10.1956 117.307 10.0298V4.49366C117.307 4.3343 117.367 4.19725 117.487 4.08251C117.614 3.96777 117.764 3.9104 117.937 3.9104C118.037 3.9104 118.137 3.9359 118.237 3.98689C118.338 4.03151 118.414 4.09207 118.468 4.16856L120.648 7.37171L122.889 4.16856C122.943 4.09207 123.013 4.03151 123.1 3.98689C123.193 3.9359 123.286 3.9104 123.38 3.9104Z" stroke="#FF676B" stroke-width="0.6"/>
</svg>
