<svg width="20px" height="19px" viewBox="0 0 20 19" version="1.1" xmlns="http://www.w3.org/2000/svg" xmlns:xlink="http://www.w3.org/1999/xlink">
    
    <g id="Pages" stroke="none" stroke-width="1" fill="none" fill-rule="evenodd">
        <g id="Desktop---03-Full-Board" transform="translate(-36.000000, -188.000000)">
            <g id="Left-Side" transform="translate(0.000000, 80.000000)">
                <g id="icons" transform="translate(33.000000, 108.000000)">
                    <path d="M11.7139424,5.18028838 L9.67067462,10.5889437 C9.93509694,10.5889437 10.4819666,10.596956 11.3112997,10.6129806 C12.1406301,10.6290079 12.7836529,10.6370202 13.2403841,10.6370202 C13.3926287,10.6370202 13.6209929,10.6290079 13.9254822,10.6129806 C13.2283629,8.58572665 12.4911902,6.77484808 11.7139424,5.18028838 Z M3,18.4615399 L3.02403846,17.5120205 C3.20833425,17.4559306 3.43269102,17.405851 3.6971155,17.3617803 C3.96153971,17.3177094 4.18990288,17.2756427 4.38221173,17.2355784 C4.57452032,17.1955139 4.77283572,17.1374217 4.97716358,17.0612994 C5.18149143,16.9851774 5.35977498,16.8689924 5.51201934,16.7127417 C5.66426369,16.5564909 5.78846093,16.3541693 5.8846167,16.1057705 L8.73317264,8.70192396 L12.0985574,0 L13.0000013,0 L13.6370202,0 C13.7011214,0.112180391 13.7451918,0.196315011 13.7692314,0.252403861 L16.233175,6.02163458 C16.4975973,6.64663769 16.9222739,7.6782789 17.5072128,9.11658783 C18.0921516,10.5548968 18.5488774,11.6546453 18.8774036,12.4158657 C18.997599,12.688303 19.2299667,13.2672246 19.5745202,14.1526466 C19.9190737,15.0380659 20.2075329,15.7131405 20.439906,16.1778859 C20.6001629,16.5384648 20.7403837,16.7668277 20.8605791,16.8629821 C21.012821,16.9831751 21.3653841,17.1013631 21.9182711,17.2175494 C22.471158,17.3337359 22.8076938,17.4158667 22.9278865,17.4639437 C22.9759631,17.7684324 23,17.9967956 23,18.14904 C23,18.1810914 22.9979969,18.2331742 22.9939908,18.3052899 C22.9899846,18.3774056 22.9879815,18.4294885 22.9879815,18.4615399 C22.4831711,18.4615399 21.7219615,18.429489 20.7043283,18.365386 C19.6866952,18.3012832 18.9214767,18.2692322 18.408654,18.2692322 C17.7996782,18.2692322 16.9383066,18.2972768 15.8245204,18.3533668 C14.7107314,18.4094569 13.9975983,18.4415078 13.6850968,18.4495207 C13.6850968,18.1049677 13.7011214,17.7924707 13.7331733,17.5120205 L15.3076942,17.1754821 C15.3157065,17.1754821 15.3657861,17.1654661 15.457933,17.145434 C15.5500826,17.1254019 15.6121807,17.1113796 15.6442327,17.1033667 C15.6762819,17.0953539 15.7343765,17.0773251 15.8185111,17.0492801 C15.9026457,17.0212352 15.9627407,16.9951938 15.9987988,16.9711553 C16.0348569,16.9471167 16.0789273,16.9150656 16.13101,16.8750014 C16.1830927,16.8349372 16.2191508,16.790867 16.2391842,16.7427897 C16.259215,16.6947126 16.2692304,16.6386235 16.2692304,16.5745205 C16.2692304,16.4463149 16.1450342,16.0597 15.8966365,15.4146659 C15.6482361,14.7696293 15.3597769,14.0584993 15.0312507,13.2812515 C14.7027245,12.5040038 14.5344553,12.1033669 14.526443,12.0793272 L9.11778766,12.0552903 C8.90945419,12.5200365 8.60296725,13.30328 8.19831876,14.4050504 C7.79366758,15.5068182 7.59134603,16.157853 7.59134603,16.3581744 C7.59134603,16.5344573 7.64743488,16.6846962 7.75961527,16.8088955 C7.87179567,16.9330949 8.04607414,17.0312511 8.28245338,17.1033667 C8.51883263,17.1754826 8.71314187,17.2295684 8.8653838,17.2656265 C9.01762842,17.3016843 9.24599267,17.3357385 9.55048192,17.3677898 C9.85497116,17.3998412 10.0192316,17.4158667 10.0432685,17.4158667 C10.0512835,17.568111 10.0552896,17.8004806 10.0552896,18.1129822 C10.0552896,18.185098 10.0472773,18.2932699 10.03125,18.4375014 C9.56650384,18.4375014 8.86739226,18.3974377 7.93389375,18.3173091 C7.00039523,18.2371805 6.30128365,18.1971168 5.83653747,18.1971168 C5.77243631,18.1971168 5.66626704,18.2131423 5.51802911,18.2451938 C5.36979118,18.2772452 5.28365402,18.2932707 5.25961548,18.2932707 C4.61858667,18.4054507 3.86538905,18.4615399 3,18.4615399 Z" id="Type-"></path>
                </g>
            </g>
        </g>
    </g>
</svg>