<?xml version="1.0" encoding="utf-8" ?>
<svg transform="translate(5, 0)" viewBox="0 0 24 24" xmlns="http://www.w3.org/2000/svg">
    <path fill="rgb(255,255,255)" stroke="none" d="M5.08594 9.39844C5.85157 9.13281 6.65625 9 7.5 9C8.53126 9 9.5039 9.19531 10.418 9.58594C11.332 9.97656 12.1289 10.5117 12.8086 11.1914C13.4883 11.8711 14.0234 12.668 14.4141 13.582C14.8047 14.4961 15 15.4687 15 16.5C15 17.5313 14.8047 18.5039 14.4141 19.418C14.0234 20.332 13.4883 21.1289 12.8086 21.8086C12.1289 22.4883 11.332 23.0234 10.418 23.4141C9.5039 23.8047 8.53126 24 7.5 24C6.46874 24 5.4961 23.8047 4.58203 23.4141C3.66797 23.0234 2.8711 22.4883 2.19141 21.8086C1.51172 21.1289 0.976564 20.332 0.585938 19.418C0.195311 18.5039 0 17.5313 0 16.5C0 15.6562 0.132811 14.8555 0.398438 14.0977C0.664064 13.3398 1.03125 12.6484 1.5 12.0234L1.5 6C1.5 5.17187 1.65625 4.39454 1.96875 3.66797C2.28125 2.9414 2.71093 2.30469 3.25781 1.75781C3.80469 1.21093 4.4414 0.781251 5.16797 0.46875C5.89454 0.156249 6.67187 0 7.5 0C8.32813 0 9.10546 0.156249 9.83203 0.46875C10.5586 0.781251 11.1953 1.21093 11.7422 1.75781C12.2891 2.30469 12.7187 2.9414 13.0313 3.66797C13.3438 4.39454 13.5 5.17187 13.5 6L12 6C12 4.74999 11.5625 3.6875 10.6875 2.8125C9.8125 1.9375 8.75001 1.5 7.5 1.5C6.24999 1.5 5.1875 1.9375 4.3125 2.8125C3.4375 3.6875 3 4.74999 3 6L3 10.5C3.625 10.0312 4.32031 9.66406 5.08594 9.39844ZM8.02734 19.2773C8.17578 19.1289 8.25 18.9531 8.25 18.75L8.25 15.75C8.25 15.5469 8.17578 15.3711 8.02734 15.2227C7.87891 15.0742 7.70313 15 7.5 15C7.29687 15 7.12109 15.0742 6.97266 15.2227C6.82422 15.3711 6.75 15.5469 6.75 15.75L6.75 18.75C6.75 18.9531 6.82422 19.1289 6.97266 19.2773C7.12109 19.4258 7.29687 19.5 7.5 19.5C7.70313 19.5 7.87891 19.4258 8.02734 19.2773Z" fill-rule="evenodd"/>
</svg>
