<svg width="20px" height="26px" viewBox="0 0 20 26" version="1.1" xmlns="http://www.w3.org/2000/svg" xmlns:xlink="http://www.w3.org/1999/xlink">
    <g id="Pages" stroke="none" stroke-width="1">
        <g id="Desktop---01-Register" transform="translate(-859.000000, -2799.000000)" fill-rule="nonzero">
            <g id="locked" transform="translate(859.000000, 2799.000000)">
                <path d="M18.0148137,10.178929 L17.5236889,10.178929 L17.5236889,7.88031582 C17.5236889,3.62885501 14.1498728,0.0773661366 9.9330041,0.00155353688 C9.81778345,-0.000517845626 9.58754928,-0.000517845626 9.47238041,0.00155353688 C5.25540812,0.0773661366 1.88164387,3.62885501 1.88164387,7.88031582 L1.88164387,10.178929 L1.39046729,10.178929 C0.633584124,10.178929 0.0162085681,10.9599438 0.0162085681,11.9245348 L0.0162085681,23.4534356 C0.0162085681,24.4169391 0.633584124,25.2052555 1.39051908,25.2052555 L18.0148137,25.2052555 C18.7716968,25.2052555 19.3891242,24.4169391 19.3891242,23.4534356 L19.3891242,11.9245348 C19.3891242,10.9599955 18.7717486,10.178929 18.0148137,10.178929 Z M11.2601389,17.6772819 L11.2601389,21.1608812 C11.2601389,21.5597777 10.9261802,21.8973612 10.526973,21.8973612 L8.87846326,21.8973612 C8.47920429,21.8973612 8.14524564,21.5597777 8.14524564,21.1608812 L8.14524564,17.6772819 C7.75805247,17.2961475 7.53263427,16.769136 7.53263427,16.1861454 C7.53263427,15.0813735 8.38661349,14.1320589 9.4724322,14.0881974 C9.5874975,14.0835368 9.81799058,14.0835368 9.93305588,14.0881974 C11.0188746,14.1320589 11.8728538,15.0813735 11.8728538,16.1861454 C11.8727502,16.769136 11.647332,17.2961475 11.2601389,17.6772819 Z M14.2866358,10.178929 L9.9330041,10.178929 L9.47238041,10.178929 L5.11874866,10.178929 L5.11874866,7.88031582 C5.11874866,5.34779178 7.17687432,3.25377942 9.70266636,3.25377942 C12.2284584,3.25377942 14.2866876,5.34779178 14.2866876,7.88031582 L14.2866876,10.178929 L14.2866358,10.178929 Z" id="Shape"></path>
            </g>
        </g>
    </g>
</svg>