<?xml version="1.0" encoding="UTF-8"?>
<svg width="29px" height="46px" viewBox="0 0 29 46" version="1.1" xmlns="http://www.w3.org/2000/svg" xmlns:xlink="http://www.w3.org/1999/xlink">
    <defs>
        <polygon id="path-1"
                 points="28.1094218 0.0449208524 0 0.0449208524 0 22.8846032 0 45.7242856 28.1094218 45.7242856 28.1094218 0.0449208524"></polygon>
    </defs>
    <g id="Symbols" stroke="none" stroke-width="1" fill="none" fill-rule="evenodd">
        <g id="Header-/-Desktop-LogedIn" transform="translate(-33.000000, -17.000000)">
            <g id="Left" transform="translate(33.000000, 0.000000)">
                <g id="Logo" transform="translate(0.000000, 17.000000)">
                    <g id="logo">
                        <g id="Group-3" transform="translate(0.000000, 0.028121)">
                            <mask id="mask-2" fill="white">
                                <use xlink:href="#path-1"></use>
                            </mask>
                            <g id="Clip-2"></g>
                            <path
                                d="M11.8740037,39.9535264 C11.880336,39.9812094 11.8866682,40.0089654 11.8930716,40.0367213 C12.3563207,40.0652808 12.8194274,40.0991723 13.2830323,40.1189667 C13.4078271,40.1242987 13.5368908,40.0978575 13.6596222,40.067472 C14.3383807,39.8993293 15.0158584,39.7259275 15.6935497,39.5533291 C15.8162811,39.5221402 15.9379454,39.4864226 16.0990971,39.4420131 C16.0360594,39.407099 16.0231104,39.3936592 16.0101613,39.3935862 C15.2122288,39.3902263 14.4143675,39.3875967 13.6165061,39.386355 C13.57958,39.386282 13.5415866,39.3955583 13.5059411,39.4066607 C13.0314505,39.5544978 12.5568177,39.7019697 12.0833943,39.8534589 C12.0105381,39.8768323 11.9436583,39.919708 11.8740037,39.9535264 L11.8740037,39.9535264 Z M13.3487736,22.6110827 C13.4687303,22.6026829 13.5891139,22.5984464 13.7085014,22.5847145 C13.8720722,22.5660158 13.9512607,22.495238 13.8893613,22.3064244 C13.8369248,22.1465353 13.8164339,21.9759092 13.7782271,21.8109072 C13.5151904,20.6773678 13.2648182,19.5383503 12.8182891,18.4623681 C12.6666712,18.0967927 12.4657473,17.7447301 12.2390676,17.4222495 C12.009542,17.0958977 11.7912578,17.0754459 11.4542977,17.2665969 C11.0547978,17.4931733 10.7931841,17.8439212 10.6249175,18.2725318 C10.3984512,18.8495639 10.3835811,19.4469017 10.4851103,20.0497176 C10.7278696,21.4914944 11.9775251,22.6028289 13.3487736,22.6110827 L13.3487736,22.6110827 Z M14.3036601,45.7242856 C14.2583384,45.7004008 14.2149377,45.6712571 14.1674104,45.6532887 C13.5959442,45.4373034 13.4594099,44.7751774 13.8985395,44.3464936 C13.9344696,44.3113604 13.9669846,44.272429 14.0358565,44.1974148 C13.679117,44.1541009 13.3605843,44.1338683 13.0493088,44.0739008 C12.3261536,43.9344635 11.6042079,43.7863343 10.8870292,43.6183376 C10.6862476,43.5712985 10.4932212,43.4603477 10.3144246,43.3488125 C9.64925557,42.9340067 9.59005986,42.1371912 10.1781749,41.6137719 C10.2891668,41.5149461 10.4064199,41.4234974 10.5510651,41.3035624 C10.0663291,41.0568264 9.62897819,40.8084104 9.569071,40.2164047 C9.51030219,39.6359397 9.84014748,39.2827814 10.301191,38.9769544 C10.1999464,38.917206 10.1385451,38.8791511 10.0755073,38.844164 C9.74153541,38.6587833 9.52531456,38.3957589 9.51585179,37.9850436 C9.50610442,37.5627145 9.70304397,37.247246 10.0621314,37.1016001 C10.7743297,36.8127189 11.4935717,36.5269784 12.2318816,36.3242137 C13.7512618,35.9070707 15.3003109,35.6249093 16.8614553,35.4278419 C17.8836484,35.2987766 18.9103951,35.2081314 19.9351496,35.0998831 C20.0622211,35.0864434 20.1959095,35.0906068 20.3138028,35.0487537 C20.3943432,35.0201212 20.5026314,34.9332742 20.5133038,34.8594287 C20.6615065,33.8366211 20.783313,32.8097231 20.9343617,31.7873537 C21.2640647,29.5566499 21.5736326,27.3151359 22.4308319,25.2164921 C22.960605,23.9194847 23.5790294,22.6605322 24.1652234,21.3881399 C24.967994,19.6457221 25.7316328,17.8884768 26.2058387,16.0146564 C26.4262574,15.1436301 26.5811481,14.2577763 26.5714718,13.3599436 C26.5349014,9.96531494 25.4893715,6.98227817 23.0484025,4.61038412 C21.500634,3.10637555 19.641092,2.22285908 17.5504591,1.8328146 C16.5683227,1.64955213 15.5787157,1.57322321 14.5831322,1.61047464 C12.5720435,1.68556186 10.6121818,2.01812225 8.79326576,2.95634721 C6.20928788,4.28929133 4.61256913,6.41766323 4.0228177,9.32422498 C3.76597095,10.5904087 3.75650818,11.8723695 3.91303528,13.1547685 C4.02182162,14.0461005 4.1011524,14.9402811 4.04814663,15.8381868 C3.98254754,16.9484258 3.61179176,17.9602041 3.07191555,18.9188808 C2.59301376,19.7690901 2.13965435,20.6345652 1.68437393,21.4985064 C1.52571236,21.7995126 1.53908832,21.8236895 1.85719408,21.9407759 C2.47327053,22.1674984 3.09368704,22.3818768 3.71083072,22.6055315 C4.21890347,22.7895974 4.70449323,23.009454 5.06720922,23.4470488 C5.38744944,23.8333681 5.38744944,24.2995955 5.41028817,24.7629011 C5.49075733,26.3904237 5.7194292,27.9891678 6.27196987,29.5269949 C6.50697397,30.1811594 6.90455281,30.6611186 7.53642427,30.9635126 C8.47551574,31.4128672 9.44897202,31.7338139 10.4794184,31.7961188 C11.6364383,31.866093 12.7975137,31.8658739 13.9569526,31.8893204 C14.1594417,31.8934108 14.3642788,31.8752233 14.5642066,31.8425735 C14.6263906,31.8323476 14.7237931,31.740826 14.72422,31.6858983 C14.7343943,30.3478413 14.7521103,29.009419 14.7291293,27.6718002 C14.7092788,26.5105779 14.5102759,25.3684196 14.2850192,24.2320316 C14.2596191,24.1039158 14.2273176,24.034745 14.0815339,24.0661531 C12.2086871,24.4701486 9.98201796,23.2703601 9.23901226,21.1663843 C8.70802964,19.66296 8.77313068,18.2007315 9.69471958,16.8555894 C10.0960693,16.2697922 10.6420643,15.8549135 11.328151,15.6805621 C11.9590264,15.5201618 12.5395285,15.6555817 13.0429766,16.0888671 C13.6522228,16.6133089 14.0276032,17.3065509 14.27826,18.0568387 C14.6000655,19.0202631 14.8571257,20.0065498 15.1419339,20.9829757 C15.1649149,21.061715 15.1866153,21.1408926 15.2275969,21.2863923 C15.3057182,21.13819 15.3676887,21.0524387 15.3988518,20.9561693 C15.5720277,20.4212094 15.7341756,19.8824513 15.9068534,19.3473454 C16.2233939,18.3660987 16.59479,17.4062533 17.2386856,16.5986275 C17.511612,16.2562794 17.8371883,15.9327763 18.1977699,15.6945862 C19.0986545,15.0994397 20.1764147,15.2553844 21.0018106,16.0388333 C21.9682943,16.9561682 22.1821673,18.1351398 21.63603,19.5217698 C21.3234027,20.3155176 20.8451412,20.9983876 20.2852011,21.6220935 C19.3811148,22.628978 18.3311025,23.4371881 17.1219306,24.0230583 C16.8317151,24.1636642 16.5516028,24.1642486 16.2916255,23.9632369 C15.8351355,23.6100786 15.905217,22.9309338 16.4346343,22.6679824 C17.1038589,22.3356412 17.7285443,21.9353708 18.295457,21.4431405 C19.1207106,20.7265982 19.8528305,19.9300017 20.2614374,18.8787807 C20.4548907,18.3810723 20.5439688,17.8634964 20.1882254,17.4017977 C19.6721129,16.7320022 19.1868789,16.6959195 18.6608055,17.2619222 C18.5828265,17.3457745 18.5054168,17.4311606 18.4366871,17.5229744 C17.8761067,18.271071 17.5600642,19.1388104 17.2735485,20.0223268 C17.0763955,20.6299635 16.9132515,21.2566642 16.6439538,21.829752 C16.4252427,22.2950298 16.079389,22.6996096 15.7720978,23.117264 C15.6820947,23.2395364 15.6419669,23.3311311 15.6744818,23.4885367 C15.9502541,24.8265207 16.1968554,26.1722472 16.229655,27.5426619 C16.2611027,28.8567611 16.2418926,30.1721752 16.2424617,31.4870049 C16.2426752,31.9671102 16.2243188,32.4475077 16.2374102,32.9271747 C16.2431021,33.136148 16.1726649,33.2177359 15.9791405,33.2368729 C15.5301923,33.2814286 15.0832362,33.3668878 14.6337189,33.3817883 C13.5941655,33.4164103 12.5522641,33.4608198 11.513778,33.4253214 C9.70354201,33.3633818 7.9562015,33.012853 6.36851864,32.0452652 C5.86485711,31.7382695 5.49879713,31.3109005 5.21747524,30.7966116 C4.69808985,29.846919 4.40346315,28.8135203 4.24060382,27.7494439 C4.08678036,26.7445315 3.9982714,25.7279325 3.91474285,24.7135977 C3.88841784,24.3934545 3.74932216,24.2434261 3.48308379,24.1486176 C2.75082154,23.8878575 2.01841699,23.6275357 1.29085056,23.3534089 C1.07349133,23.2715288 0.861824,23.1614544 0.66566708,23.0347265 C0.340090706,22.8243654 0.125577426,22.5239436 0.0601206373,22.1237462 C0.0517962414,22.0733472 0.0205619695,22.0268195 0,21.9784656 L0,21.7925736 C0.015723859,21.7664976 0.0419065744,21.7418825 0.0456063059,21.7141265 C0.117324179,21.1720815 0.373744033,20.7046125 0.62247983,20.2374356 C1.05968849,19.4163701 1.51368824,18.604727 1.9560196,17.7865101 C2.50663926,16.7682311 2.62374999,15.6639085 2.53687745,14.5276666 C2.48629074,13.8664901 2.36676095,13.2096231 2.33837262,12.5480813 C2.29226828,11.4745825 2.3099843,10.401522 2.50180115,9.336423 C3.13787038,5.80440229 4.99150702,3.20337537 8.12375665,1.58929245 C10.054305,0.594459918 12.1255143,0.18169937 14.2706471,0.105443484 C14.4028414,0.100768793 14.5341107,0.065781658 14.6658069,0.0448916356 L15.4805305,0.0448916356 C15.5973566,0.065708616 15.7136136,0.101499214 15.8308666,0.10493219 C16.8656531,0.135755929 17.8810871,0.301926562 18.8773109,0.581531477 C21.3729933,1.28207765 23.4937932,2.60822886 25.1515576,4.65866491 C27.0158665,6.96452895 27.9279215,9.6483125 28.0515067,12.6287198 C28.0555622,12.7254274 28.0895001,12.8208933 28.1094218,12.9169436 L28.1094218,13.6604385 C28.0892155,13.7407848 28.0620367,13.8200354 28.049728,13.9016233 C27.932475,14.6785715 27.8644569,15.4669872 27.693202,16.2310069 C27.2548549,18.1863422 26.4577051,20.0084489 25.633163,21.8173349 C24.9945324,23.2182081 24.3132838,24.6012591 23.7378332,26.0291578 C23.0605689,27.709709 22.805074,29.5099761 22.5292305,31.2951965 C22.2819177,32.8957666 22.0682582,34.501888 21.8502587,36.1069867 C21.8244317,36.2974073 21.7436779,36.3833778 21.5742729,36.4066782 C21.0008145,36.4856366 20.4284945,36.5756975 19.8533997,36.6382215 C19.1354384,36.7163764 18.4110736,36.7417951 17.6966697,36.8432505 C16.5874617,37.0008752 15.4828784,37.1950939 14.3791489,37.3907005 C13.8784044,37.4794466 13.3844191,37.6085849 12.8874456,37.7194627 L12.8928529,37.818946 C13.1028127,37.818946 13.3179663,37.8489663 13.5218784,37.8125913 C13.9215205,37.7413753 14.3132652,37.6248733 14.7111998,37.5418245 C16.0403995,37.26463 17.3785639,37.0488638 18.7391402,37.0623035 C19.210856,37.0669052 19.6901846,37.0997741 20.126753,37.3259853 C20.6858393,37.61567 20.762253,38.3867017 20.2366777,38.7321175 C19.9599093,38.9139191 19.615692,38.9900289 19.2982265,39.1028789 C19.1793371,39.1451702 19.0499176,39.1562726 18.9253363,39.1816182 C18.9260478,39.2016317 18.9267593,39.2215722 18.9274708,39.2415127 C19.0045959,39.2558289 19.0832864,39.2643018 19.1585617,39.285484 C19.4540422,39.3686058 19.7657445,39.4178362 20.0398093,39.5491657 C20.6540358,39.8434521 20.6573798,40.7367562 20.0543947,41.0395885 C19.8464983,41.1439656 19.624799,41.247247 19.3994711,41.2816498 C18.6637226,41.3936963 17.925555,41.5082262 17.1842569,41.5577487 C16.1924442,41.6239978 15.1969318,41.6444496 14.2027001,41.6551137 C13.8186396,41.6592041 13.4555678,41.7106987 13.1004647,41.853642 C12.8199966,41.9664919 12.5358999,42.0698464 12.2547915,42.1810894 C12.1807257,42.2103793 12.1117115,42.2531819 11.9816517,42.3200154 C12.111498,42.3596772 12.1781644,42.3869219 12.2474632,42.4001425 C13.5545356,42.6489967 14.872565,42.7640379 16.2016224,42.7183136 C16.3601417,42.7129085 16.5265584,42.6610487 16.6719152,42.59217 C17.0956768,42.3912314 17.5037145,42.1546482 17.9306066,41.9616712 C18.5439082,41.6843305 19.1636844,41.4156819 19.8542535,41.4215983 C20.3148701,41.4256156 20.6925984,41.6887131 20.8341843,42.1047605 C20.9798968,42.533079 20.8607228,43.0148643 20.4937379,43.2899406 C20.2657063,43.460859 20.0058713,43.6018301 19.7411271,43.7035776 C18.9812592,43.9955267 18.1816191,44.0944256 17.3788485,44.1776205 C17.1463346,44.2017243 16.8968162,44.2528538 16.696248,44.3675297 C15.934886,44.8029333 15.190315,45.2694528 14.439483,45.7242856 L14.3036601,45.7242856 Z"
                                id="Fill-1" fill="#F37073" mask="url(#mask-2)"></path>
                        </g>
                        <path
                            d="M11.8740037,39.9816476 C11.9436583,39.9478292 12.0105381,39.9049535 12.0833943,39.88158 C12.5568177,39.7300909 13.0314505,39.582619 13.5059411,39.4347819 C13.5415866,39.4236795 13.57958,39.4144032 13.6165061,39.4144762 C14.4143675,39.4157179 15.2122288,39.4183474 16.0101613,39.4217074 C16.0231104,39.4217804 16.0360594,39.4352202 16.0990971,39.4701342 C15.9379454,39.5145438 15.8162811,39.5502614 15.6935497,39.5814503 C15.0158584,39.7540486 14.3383807,39.9274504 13.6596222,40.0955932 C13.5368908,40.1259787 13.4078271,40.1524199 13.2830323,40.1470878 C12.8194274,40.1272935 12.3563207,40.0934019 11.8930716,40.0648425 C11.8866682,40.0370865 11.880336,40.0093306 11.8740037,39.9816476"
                            id="Fill-4" fill="#FFFFFF"></path>
                    </g>
                </g>
            </g>
        </g>
    </g>
</svg>
