<svg width="38" height="38" viewBox="0 0 38 38" fill="none" xmlns="http://www.w3.org/2000/svg">
<g opacity="0.35" clip-path="url(#clip0)">
<path d="M33.6055 3.36279H4.3944C1.97131 3.36279 0 5.33418 0 7.75727V25.1418C0 27.5649 1.97131 29.5363 4.3944 29.5363H22.8858V32.1223C22.8858 34.4589 25.787 35.5185 27.3006 33.7623L30.9426 29.5364H33.6054C36.0285 29.5364 37.9999 27.565 37.9999 25.1419V7.75727C38 5.33418 36.0286 3.36279 33.6055 3.36279ZM9.22747 19.2396C7.64195 19.2396 6.35671 17.9543 6.35671 16.3688C6.35671 14.7834 7.64202 13.4981 9.22747 13.4981C10.8129 13.4981 12.0982 14.7833 12.0982 16.3688C12.0982 17.9544 10.8129 19.2396 9.22747 19.2396ZM19 19.2396C17.4144 19.2396 16.1292 17.9543 16.1292 16.3688C16.1292 14.7834 17.4145 13.4981 19 13.4981C20.5854 13.4981 21.8707 14.7833 21.8707 16.3688C21.8707 17.9544 20.5855 19.2396 19 19.2396ZM28.7725 19.2396C27.1871 19.2396 25.9018 17.9543 25.9018 16.3688C25.9018 14.7834 27.1871 13.4981 28.7725 13.4981C30.3581 13.4981 31.6433 14.7833 31.6433 16.3688C31.6433 17.9544 30.358 19.2396 28.7725 19.2396Z" fill="#FF676B"/>
</g>
<defs>
<clipPath id="clip0">
<rect width="38" height="38" fill="white"/>
</clipPath>
</defs>
</svg>
