<svg width="15px" height="12px" viewBox="0 0 15 12" version="1.1" xmlns="http://www.w3.org/2000/svg" xmlns:xlink="http://www.w3.org/1999/xlink">
    <g id="Symbols" stroke="none" stroke-width="1" fill="none" fill-rule="evenodd">
        <g id="Inbox-/-Empty-Mobile" transform="translate(-146.000000, -21.000000)" fill="#ffffff">
            <g id="Menu">
                <path d="M160.454545,24.6159687 L160.454545,30.9399346 C160.454545,31.2903827 160.329766,31.5903831 160.080206,31.8399448 C159.830643,32.0895063 159.530643,32.2142853 159.180194,32.2142853 L147.456169,32.2142853 C147.105721,32.2142853 146.80572,32.0895063 146.556158,31.8399448 C146.306597,31.5903831 146.181818,31.2903827 146.181818,30.9399346 L146.181818,24.6159687 C146.41545,24.8761498 146.683592,25.1071236 146.986252,25.3088971 C148.908407,26.6151139 150.227878,27.5310448 150.944704,28.0567165 C151.247364,28.2797279 151.492939,28.4536232 151.681437,28.5784043 C151.869937,28.7031836 152.120821,28.8306177 152.4341,28.9607082 C152.74738,29.0907988 153.039416,29.1558432 153.310217,29.1558432 L153.318182,29.1558432 L153.326146,29.1558432 C153.596948,29.1558432 153.888984,29.0907988 154.202263,28.9607082 C154.515542,28.8306177 154.766426,28.7031836 154.954926,28.5784043 C155.143424,28.4536232 155.388999,28.2797279 155.69166,28.0567165 C156.594329,27.403609 157.916455,26.4876781 159.658075,25.3088971 C159.960736,25.1018141 160.226223,24.8708404 160.454545,24.6159687 Z M160.454545,22.2743494 C160.454545,22.6938266 160.324457,23.0947118 160.064275,23.4770193 C159.804094,23.859325 159.4802,24.1858743 159.092583,24.4566762 C157.096091,25.8425383 155.85361,26.7053711 155.365107,27.0452012 C155.312009,27.0823691 155.199177,27.1633419 155.026608,27.288123 C154.85404,27.4129041 154.710675,27.5137891 154.596515,27.5907815 C154.482353,27.667774 154.3443,27.754058 154.182351,27.8496335 C154.020402,27.9452108 153.867746,28.016892 153.724382,28.0646807 C153.581016,28.1124693 153.448272,28.1363637 153.326146,28.1363637 L153.318182,28.1363637 L153.310217,28.1363637 C153.188091,28.1363637 153.055348,28.1124693 152.911982,28.0646807 C152.768617,28.016892 152.615962,27.9452108 152.454013,27.8496335 C152.292064,27.754058 152.154011,27.667774 152.039848,27.5907815 C151.925688,27.5137891 151.782324,27.4129041 151.609756,27.288123 C151.437186,27.1633419 151.324355,27.0823691 151.271257,27.0452012 C150.788062,26.7053711 150.092486,26.2208584 149.184507,25.5916434 C148.276528,24.9624302 147.732279,24.584112 147.551745,24.4566762 C147.222536,24.233663 146.911916,23.9270259 146.619876,23.5367543 C146.327836,23.1464826 146.181818,22.7840927 146.181818,22.4495739 C146.181818,22.0354079 146.291995,21.6902737 146.512353,21.4141642 C146.73271,21.138053 147.047312,21 147.456169,21 L159.180194,21 C159.525334,21 159.824007,21.1247775 160.076222,21.3743397 C160.328439,21.6239019 160.454545,21.9239022 160.454545,22.2743494 Z" id="Page-1"></path>
            </g>
        </g>
    </g>
</svg>
