<svg width="38" height="38" viewBox="0 0 38 38" fill="none" xmlns="http://www.w3.org/2000/svg">
<g opacity="0.35" clip-path="url(#clip0)">
<path d="M26.2757 2.34668H4.29727C1.92746 2.34668 0 4.27414 0 6.64395V25.9037C0 26.8159 1.03157 27.33 1.75973 26.8099L7.88055 22.4429C8.39414 22.077 8.99828 21.8833 9.62914 21.8833H23.0917C25.4615 21.8833 27.3889 19.9558 27.3889 17.586V3.45996C27.3889 2.84543 26.8902 2.34668 26.2757 2.34668ZM20.8681 15.833H8.00523C7.3907 15.833 6.89195 15.335 6.89195 14.7197C6.89195 14.1052 7.3907 13.6064 8.00523 13.6064H20.8681C21.4826 13.6064 21.9814 14.1052 21.9814 14.7197C21.9814 15.335 21.4826 15.833 20.8681 15.833ZM20.8681 10.6377H8.00523C7.3907 10.6377 6.89195 10.1396 6.89195 9.52438C6.89195 8.90984 7.3907 8.41109 8.00523 8.41109H20.8681C21.4826 8.41109 21.9814 8.90984 21.9814 9.52438C21.9814 10.1396 21.4826 10.6377 20.8681 10.6377Z" fill="#FF676B"/>
<path d="M37.9998 15.2795V34.5385C37.9998 35.4445 36.9734 35.9685 36.24 35.4447L30.1192 31.0784C29.6056 30.7125 29.0015 30.5188 28.3706 30.5188H14.9081C12.5383 30.5188 10.6108 28.5906 10.6108 26.2208V24.11H23.0914C26.6888 24.11 29.6153 21.1836 29.6153 17.5862V10.9814H33.7025C36.0723 10.9814 37.9998 12.9096 37.9998 15.2795Z" fill="#FF676B"/>
</g>
<defs>
<clipPath id="clip0">
<rect width="38" height="38" fill="white"/>
</clipPath>
</defs>
</svg>
