<svg width="40" height="40" viewBox="0 0 40 40" fill="none" xmlns="http://www.w3.org/2000/svg">
<g opacity="0.94">
<path d="M15.625 24.375H24.375V26.875H15.625V24.375Z" fill="white"/>
<path d="M37.5 19.375H2.5V35.625H37.5V19.375ZM25.625 27.5C25.625 27.6658 25.5592 27.8247 25.4419 27.9419C25.3247 28.0592 25.1658 28.125 25 28.125H15C14.8342 28.125 14.6753 28.0592 14.5581 27.9419C14.4408 27.8247 14.375 27.6658 14.375 27.5V23.75C14.375 23.5842 14.4408 23.4253 14.5581 23.3081C14.6753 23.1908 14.8342 23.125 15 23.125H25C25.1658 23.125 25.3247 23.1908 25.4419 23.3081C25.5592 23.4253 25.625 23.5842 25.625 23.75V27.5Z" fill="white"/>
<path d="M33.75 7.32129L21.5377 14.2239C21.0681 14.4875 20.5386 14.626 20 14.626C19.4614 14.626 18.9319 14.4875 18.4623 14.2239L6.25 7.32129V18.1251H33.75V7.32129Z" fill="white"/>
<path d="M20.9228 13.1356L33.7176 5.90375C33.6363 5.47435 33.4079 5.08673 33.0716 4.80767C32.7353 4.52862 32.3121 4.3756 31.8751 4.375H8.12514C7.68813 4.3756 7.26501 4.52862 6.9287 4.80767C6.59238 5.08673 6.36393 5.47435 6.28271 5.90375L19.0775 13.1356C19.3593 13.2938 19.677 13.3769 20.0001 13.3769C20.3233 13.3769 20.641 13.2938 20.9228 13.1356Z" fill="white"/>
</g>
</svg>
