<svg width="38" height="38" viewBox="0 0 38 38" fill="none" xmlns="http://www.w3.org/2000/svg">
<g opacity="0.35" clip-path="url(#clip0)">
<path d="M13.8542 27.8857V35.2292C13.8542 35.7422 14.1836 36.1966 14.6712 36.3581C14.7932 36.3977 14.9182 36.4167 15.0417 36.4167C15.4122 36.4167 15.7701 36.2426 15.9981 35.9322L20.2937 30.0866L13.8542 27.8857Z" fill="#FF676B"/>
<path d="M37.5013 0.220224C37.1372 -0.0378597 36.659 -0.072693 36.2632 0.134724L0.638154 18.7389C0.216987 18.959 -0.0315962 19.4086 0.00323709 19.8821C0.0396538 20.3571 0.354737 20.7624 0.80282 20.916L10.7066 24.3011L31.7982 6.26697L15.4772 25.9304L32.0752 31.6035C32.1987 31.6446 32.3286 31.6668 32.4584 31.6668C32.6737 31.6668 32.8875 31.6082 33.0759 31.4942C33.3767 31.3106 33.581 31.0018 33.6332 30.6551L37.9874 1.36339C38.0523 0.920057 37.8655 0.47989 37.5013 0.220224Z" fill="#FF676B"/>
</g>
<defs>
<clipPath id="clip0">
<rect width="38" height="38" fill="white"/>
</clipPath>
</defs>
</svg>
