<svg width="17px" height="15px" viewBox="0 0 17 15" version="1.1" xmlns="http://www.w3.org/2000/svg" xmlns:xlink="http://www.w3.org/1999/xlink">
    
    <g id="Symbols" stroke="none" stroke-width="1" fill="none" fill-rule="evenodd">
        <g id="Buttons-/-Map" transform="translate(-12.000000, -13.000000)">
            <path d="M28.5539921,15.7402306 C28.7291675,15.8653569 28.8167539,16.0405298 28.8167539,16.2657542 L28.8167539,26.8137628 C28.8167539,27.0640134 28.7291675,27.2391861 28.5539921,27.3392863 C28.4538916,27.3893364 28.3663052,27.4143611 28.2912304,27.4143611 C28.1410808,27.4143611 28.0409803,27.3893364 27.9909312,27.3392863 L24.3498037,24.8618181 L20.7086761,27.3392863 C20.5084751,27.4393865 20.3207905,27.4393865 20.1456152,27.3392863 L16.5044877,24.8618181 L12.8633601,27.3392863 C12.6881848,27.4393865 12.5004995,27.4393865 12.3002992,27.3392863 C12.1000987,27.214161 12,27.0389883 12,26.8137628 L12,16.2657542 C12,16.0405298 12.0875864,15.8653569 12.2627618,15.7402306 L16.2041885,13.0750754 C16.4043895,12.9749749 16.5920741,12.9749749 16.7672494,13.0750754 L20.408377,15.5525436 L24.0870419,13.0750754 C24.2872429,12.9749749 24.4749275,12.9749749 24.6501028,13.0750754 L28.5539921,15.7402306 Z M15.8663519,23.8483084 L15.8663519,14.7642583 L13.2011967,16.6411281 L13.2011967,25.7251782 L15.8663519,23.8483084 Z M17.0675486,23.8483084 L19.8077786,25.6876408 L19.8077786,20.8453166 L19.657629,21.258228 C19.5325028,21.2332022 19.2822575,21.1080784 18.9068811,20.882854 L19.2071803,20.3948678 C19.4073813,20.5199941 19.6075776,20.6200922 19.8077786,20.695167 L19.8077786,16.6035907 L17.0675486,14.7642583 L17.0675486,18.5555354 C17.3428245,18.705685 17.5054857,18.7932714 17.5555348,18.8182972 L17.1801608,19.3062833 L17.1426234,19.2687459 C17.1175977,19.2437202 17.0925743,19.2312085 17.0675486,19.2312085 L17.0675486,23.8483084 Z M21.0089753,25.6876408 L23.7492053,23.8483084 L23.7492053,19.7567321 L23.7116679,19.7942695 L23.7116679,19.8318069 L23.4864435,20.0570313 L23.0359948,19.6441199 L23.2612191,19.4188955 C23.3112682,19.3938698 23.3613197,19.3375649 23.4113687,19.249976 C23.4614178,19.1623896 23.5114693,19.0935706 23.5615183,19.0435215 L23.7492053,19.2312085 L23.7492053,14.7642583 L21.0089753,16.6035907 L21.0089753,20.8077792 L21.2717371,20.8077792 L21.3843493,21.3708402 C21.3343002,21.3708402 21.2717371,21.377096 21.1966623,21.3896101 C21.1215875,21.4021217 21.0715384,21.4083776 21.0465127,21.4083776 L21.0089753,21.4083776 L21.0089753,25.6876408 Z M27.6155572,25.6876408 L27.6155572,16.6035907 L24.950402,14.7642583 L24.950402,18.0675492 C25.0004511,18.0425235 25.0567584,18.0300118 25.1193215,18.0300118 C25.1818822,18.0300118 25.2256755,18.0175002 25.2507012,17.9924744 L25.4008508,18.5930728 L25.2131638,18.6306102 C25.0880375,18.6556359 25.0004511,18.6806592 24.950402,18.705685 L24.950402,23.8483084 L27.6155572,25.6876408 Z M15.6411275,18.893372 C15.4659522,18.943421 15.2907793,19.0310075 15.115604,19.1561337 L14.7026926,18.705685 C14.9028936,18.5555354 15.0530408,18.4554349 15.1531414,18.4053858 C15.2282162,18.3553367 15.3408283,18.3052853 15.4909779,18.2552362 L15.6786649,18.8182972 C15.6536392,18.8433229 15.6473834,18.8558346 15.6598974,18.8558346 C15.6724091,18.8558346 15.6661533,18.8683462 15.6411275,18.893372 Z M21.9474102,20.5825548 C22.2727352,20.3823538 22.4604221,20.2572299 22.5104712,20.2071809 L22.9233826,20.6576296 C22.7231815,20.8578307 22.4854479,21.0204895 22.210172,21.1456158 L21.9474102,20.5825548 Z M14.5150056,20.2071809 L14.5150056,20.2447183 L13.9519447,20.0570313 L13.9519447,20.0194939 C14.0520449,19.7191923 14.1646559,19.468947 14.2897812,19.2687459 L14.7777674,19.6065825 C14.7026926,19.706683 14.6151061,19.9068793 14.5150056,20.2071809 Z M18.2312079,19.5315077 C18.3563342,19.6816573 18.4939697,19.8192928 18.6441193,19.9444191 L18.2312079,20.3948678 C18.1811589,20.3448188 18.1060841,20.2634882 18.0059835,20.1508736 C17.905883,20.0382614 17.8308082,19.9569307 17.7807592,19.9068817 L17.668147,19.7942695 L18.1185957,19.3813581 C18.1436215,19.4063838 18.1811589,19.4564329 18.2312079,19.5315077 Z M26.1140613,19.2312085 L25.70115,18.7807598 L26.0765239,18.4053858 L25.70115,18.0300118 L26.1140613,17.5795631 L26.4894353,17.9924744 L26.9023467,17.5795631 L27.315258,18.0300118 L26.9398841,18.4053858 L27.315258,18.7807598 L26.9023467,19.2312085 L26.4894353,18.8182972 L26.1140613,19.2312085 Z" id="Page-1"></path>
        </g>
    </g>
</svg>