<svg width="20px" height="27px" viewBox="0 0 20 27" version="1.1" xmlns="http://www.w3.org/2000/svg" xmlns:xlink="http://www.w3.org/1999/xlink">
    <g id="Pages" stroke="none" stroke-width="1" fill="none" fill-rule="evenodd">
        <g id="Desktop---032-Search-Forgot-Password" transform="translate(-1564.000000, -92.000000)" fill-rule="nonzero" fill="#F37073">
            <g id="marker" transform="translate(1564.000000, 92.000000)">
                <path d="M9.99958303,0 C4.48608003,0 0,4.45928852 0,9.94041673 C0,11.3701081 0.294383366,12.73514 0.874532642,13.9979327 C3.37470638,19.436231 8.16823495,25.1779311 9.5781617,26.807956 C9.68379502,26.9298141 9.83779727,27 9.99986101,27 C10.1619248,27 10.315927,26.9298141 10.4215603,26.807956 C11.8309311,25.1782074 16.6244597,19.4367836 19.1254674,13.9979327 C19.7058946,12.73514 20,11.3701081 20,9.94041673 C19.999444,4.45928852 15.513364,0 9.99958303,0 Z M10,15 C7.24312319,15 5,12.7569368 5,10.0001338 C5,7.24306317 7.24312319,5 10,5 C12.7568768,5 15,7.24306317 15,10.0001338 C15.0002676,12.7569368 12.7571444,15 10,15 Z" id="Shape"></path>
            </g>
        </g>
    </g>
</svg>