<svg width="11px" height="12px" viewBox="0 0 11 12" version="1.1" xmlns="http://www.w3.org/2000/svg" xmlns:xlink="http://www.w3.org/1999/xlink">
    <g id="Symbols" stroke="none" stroke-width="1" fill="none" fill-rule="evenodd">
        <g id="Header-/-Desktop-LogedIn" transform="translate(-1244.000000, -33.000000)" fill="#F37073">
            <path d="M1253.24775,33 C1253.36754,33 1253.48212,33.023436 1253.5915,33.0703115 C1253.76337,33.1380207 1253.90009,33.24479 1254.00165,33.3906245 C1254.10322,33.536459 1254.154,33.6979157 1254.154,33.875 L1254.154,43.9453115 C1254.154,44.1223957 1254.10322,44.2838524 1254.00165,44.4296864 C1253.90009,44.5755205 1253.76337,44.6822902 1253.5915,44.7499989 C1253.49254,44.7916658 1253.37796,44.8124989 1253.24775,44.8124989 C1252.99775,44.8124989 1252.7816,44.7291664 1252.59931,44.562499 L1249.154,41.2499983 L1245.70869,44.562499 C1245.52119,44.7343748 1245.30504,44.8203114 1245.06025,44.8203114 C1244.94046,44.8203114 1244.82587,44.7968742 1244.7165,44.7499989 C1244.54462,44.6822902 1244.40791,44.5755205 1244.30634,44.4296864 C1244.20478,44.2838524 1244.154,44.1223957 1244.154,43.9453115 L1244.154,33.875 C1244.154,33.6979157 1244.20478,33.536459 1244.30634,33.3906245 C1244.40791,33.24479 1244.54462,33.1380207 1244.7165,33.0703115 C1244.82587,33.023436 1244.94046,33 1245.06025,33 L1253.24775,33 Z" id="Page-1"></path>
        </g>
    </g>
</svg>