<?xml version="1.0" encoding="utf-8"?>
<!-- Generator: Adobe Illustrator 23.0.0, SVG Export Plug-In . SVG Version: 6.00 Build 0)  -->
<svg fill="#fff" version="1.1" id="Layer_1" xmlns="http://www.w3.org/2000/svg" xmlns:xlink="http://www.w3.org/1999/xlink" x="0px" y="0px"
	 width="34.4px" height="40.1px" viewBox="0 0 34.4 40.1" style="enable-background:new 0 0 34.4 40.1;" xml:space="preserve">
<path d="M26,9.1L5.7,28.6l1.2,1.2l20.4-19.5L26,9.1z M16.9,25.5c-0.4,0-0.7,0-1.1-0.1s-0.7-0.2-1-0.4l-1.3,1.3
	c0.5,0.3,1,0.6,1.6,0.7c0.6,0.2,1.1,0.3,1.8,0.3c0.8,0,1.6-0.2,2.3-0.5c0.7-0.3,1.4-0.7,1.9-1.3s1-1.2,1.3-1.9
	c0.3-0.7,0.5-1.5,0.5-2.3v-4.4l-1.7,1.8v2.7c0,1.2-0.4,2.2-1.3,3C19.1,25.1,18.1,25.5,16.9,25.5z M12.6,12.6c0-1.2,0.4-2.2,1.3-3
	c0.8-0.8,1.9-1.3,3-1.3c0.9,0,1.8,0.3,2.5,0.8c0.7,0.5,1.3,1.2,1.5,2.1l1.3-1.3c-0.5-1-1.2-1.8-2.2-2.4s-2-0.9-3.2-0.9
	c-0.8,0-1.6,0.2-2.3,0.5c-0.7,0.3-1.4,0.7-1.9,1.3c-0.5,0.5-1,1.2-1.3,1.9c-0.3,0.7-0.5,1.5-0.5,2.3v8.6c0,0,0.3-0.2,0.9-0.8
	c0.6-0.5,0.9-0.8,0.9-0.8V12.6z M16.9,29c-0.8,0-1.7-0.1-2.4-0.4S13,28,12.3,27.5l-1.2,1.2c0.7,0.5,1.5,0.9,2.3,1.3
	c0.8,0.3,1.7,0.5,2.6,0.6v1.8h-0.9c-0.2,0-0.4,0.1-0.6,0.3c-0.2,0.2-0.3,0.4-0.3,0.6c0,0.2,0.1,0.4,0.3,0.6c0.2,0.2,0.4,0.3,0.6,0.3
	h3.5c0.2,0,0.4-0.1,0.6-0.3c0.2-0.2,0.3-0.4,0.3-0.6c0-0.2-0.1-0.4-0.3-0.6c-0.2-0.2-0.4-0.3-0.6-0.3h-0.9v-1.8
	c1.1-0.1,2.1-0.4,3-0.8c1-0.4,1.8-1,2.6-1.7c0.8-0.7,1.4-1.5,1.9-2.4c0.5-0.9,0.9-1.9,1.1-2.9h-1.7c-0.2,0.9-0.5,1.7-1,2.4
	c-0.5,0.7-1.1,1.4-1.8,1.9c-0.7,0.5-1.5,1-2.3,1.3C18.7,28.8,17.8,29,16.9,29z"/>
</svg>
