<?xml version="1.0" encoding="utf-8" ?>
<svg transform="translate(5, 0)" viewBox="0 0 24 24" xmlns="http://www.w3.org/2000/svg" xmlns:xlink="http://www.w3.org/1999/xlink" width="15" height="22">
    <path fill="rgb(255,255,255)" stroke="none" d="M12.2727 0L12.2727 1.375C13.0256 1.375 13.6683 1.64355 14.201 2.18066C14.7337 2.71778 15 3.36588 15 4.125L15 19.25C15 20.0091 14.7337 20.6572 14.201 21.1943C13.6683 21.7314 13.0256 22 12.2727 22L2.72727 22C1.97443 22 1.33168 21.7314 0.799006 21.1943C0.266333 20.6572 0 20.0091 0 19.25L0 4.125C0 3.36588 0.266333 2.71778 0.799006 2.18066C1.33168 1.64355 1.97443 1.375 2.72727 1.375L2.72727 0L4.09091 0L4.09091 1.375L6.81818 1.375L6.81818 0L8.18182 0L8.18182 1.375L10.9091 1.375L10.9091 0L12.2727 0ZM13.6364 19.25C13.6364 19.6224 13.5014 19.9447 13.2315 20.2168C12.9616 20.4889 12.642 20.625 12.2727 20.625L2.72727 20.625C2.35795 20.625 2.03835 20.4889 1.76847 20.2168C1.49858 19.9447 1.36364 19.6224 1.36364 19.25L1.36364 4.125C1.36364 3.7526 1.49858 3.43034 1.76847 3.1582C2.03835 2.88607 2.35795 2.75 2.72727 2.75L12.2727 2.75C12.642 2.75 12.9616 2.88607 13.2315 3.1582C13.5014 3.43034 13.6364 3.7526 13.6364 4.125L13.6364 19.25ZM3.40909 6.875L11.5909 6.875C11.7756 6.875 11.9354 6.94303 12.0703 7.0791C12.2053 7.21517 12.2727 7.3763 12.2727 7.5625C12.2727 7.7487 12.2053 7.90983 12.0703 8.0459C11.9354 8.18197 11.7756 8.25 11.5909 8.25L3.40909 8.25C3.22443 8.25 3.06463 8.18197 2.92969 8.0459C2.79474 7.90983 2.72727 7.7487 2.72727 7.5625C2.72727 7.3763 2.79474 7.21517 2.92969 7.0791C3.06463 6.94303 3.22443 6.875 3.40909 6.875ZM11.5909 11L3.40909 11C3.22443 11 3.06463 11.068 2.92969 11.2041C2.79474 11.3402 2.72727 11.5013 2.72727 11.6875C2.72727 11.8737 2.79474 12.0348 2.92969 12.1709C3.06463 12.307 3.22443 12.375 3.40909 12.375L11.5909 12.375C11.7756 12.375 11.9354 12.307 12.0703 12.1709C12.2053 12.0348 12.2727 11.8737 12.2727 11.6875C12.2727 11.5013 12.2053 11.3402 12.0703 11.2041C11.9354 11.068 11.7756 11 11.5909 11ZM11.5909 15.125L3.40909 15.125C3.22443 15.125 3.06463 15.193 2.92969 15.3291C2.79474 15.4652 2.72727 15.6263 2.72727 15.8125C2.72727 15.9987 2.79474 16.1598 2.92969 16.2959C3.06463 16.432 3.22443 16.5 3.40909 16.5L11.5909 16.5C11.7756 16.5 11.9354 16.432 12.0703 16.2959C12.2053 16.1598 12.2727 15.9987 12.2727 15.8125C12.2727 15.6263 12.2053 15.4652 12.0703 15.3291C11.9354 15.193 11.7756 15.125 11.5909 15.125Z" fill-rule="evenodd"/>
</svg>
