<?xml version="1.0" encoding="utf-8"?>
<!-- Generator: Adobe Illustrator 23.0.0, SVG Export Plug-In . SVG Version: 6.00 Build 0)  -->
<svg version="1.1" id="Layer_1" xmlns="http://www.w3.org/2000/svg" xmlns:xlink="http://www.w3.org/1999/xlink" x="0px" y="0px"
	 width="12.6px" height="11.2px" viewBox="0 0 12.6 11.2" style="enable-background:new 0 0 12.6 11.2;" xml:space="preserve">
<style type="text/css">
	.st0{fill:#FFFFFF;}
</style>
<g>
	<path class="st0" d="M11.6,2.9c0,0-0.1,0-0.1,0c-0.1,0-0.2,0-0.2,0.1L9,5.2V4.3C9,4,9,3.7,8.8,3.5L3.4,9.6c0.1,0,0.2,0,0.3,0h3.8
		c0.4,0,0.8-0.2,1.1-0.5C8.9,8.9,9,8.5,9,8.1V7.2l2.2,2.2c0.1,0.1,0.1,0.1,0.2,0.1c0,0,0.1,0,0.1,0c0.1-0.1,0.2-0.2,0.2-0.3V3.2
		C11.8,3.1,11.7,3,11.6,2.9z"/>
	<path class="st0" d="M8.4,0.9L6.9,2.7H3.7c-0.4,0-0.8,0.2-1.1,0.5C2.3,3.5,2.2,3.9,2.2,4.3v3.8c0,0,0,0,0,0L0.8,9.7l0.7,0.7
		l7.7-8.7L8.4,0.9z"/>
</g>
</svg>
