<svg width="64" height="33" viewBox="0 0 64 33" fill="none" xmlns="http://www.w3.org/2000/svg">
<g filter="url(#filter0_b)">
<rect x="2" y="2" width="60" height="29" rx="14.5" fill="#65D1AD"/>
<rect x="2" y="2" width="60" height="29" rx="14.5" stroke="#FEFAFA" stroke-width="3"/>
</g>
<path d="M21.9112 16.8C21.9112 17.592 21.7352 18.32 21.3832 18.984C21.0312 19.64 20.5432 20.16 19.9192 20.544C19.3032 20.928 18.6072 21.12 17.8312 21.12C17.0552 21.12 16.3552 20.928 15.7312 20.544C15.1152 20.16 14.6312 19.64 14.2792 18.984C13.9352 18.32 13.7632 17.592 13.7632 16.8C13.7632 16.008 13.9352 15.284 14.2792 14.628C14.6312 13.964 15.1152 13.44 15.7312 13.056C16.3552 12.672 17.0552 12.48 17.8312 12.48C18.6072 12.48 19.3032 12.672 19.9192 13.056C20.5432 13.44 21.0312 13.964 21.3832 14.628C21.7352 15.284 21.9112 16.008 21.9112 16.8ZM20.3512 16.8C20.3512 16.264 20.2432 15.78 20.0272 15.348C19.8112 14.908 19.5112 14.56 19.1272 14.304C18.7432 14.048 18.3112 13.92 17.8312 13.92C17.3432 13.92 16.9072 14.048 16.5232 14.304C16.1472 14.552 15.8512 14.896 15.6352 15.336C15.4272 15.776 15.3232 16.264 15.3232 16.8C15.3232 17.336 15.4272 17.824 15.6352 18.264C15.8512 18.704 16.1472 19.052 16.5232 19.308C16.9072 19.556 17.3432 19.68 17.8312 19.68C18.3112 19.68 18.7432 19.552 19.1272 19.296C19.5112 19.04 19.8112 18.696 20.0272 18.264C20.2432 17.824 20.3512 17.336 20.3512 16.8ZM26.6007 14.46C27.4167 14.46 27.9807 14.704 28.2927 15.192C28.6047 15.672 28.7607 16.34 28.7607 17.196V20.268C28.7607 20.476 28.6927 20.652 28.5567 20.796C28.4207 20.932 28.2487 21 28.0407 21C27.8327 21 27.6607 20.932 27.5247 20.796C27.3887 20.652 27.3207 20.476 27.3207 20.268V17.196C27.3207 16.756 27.2287 16.412 27.0447 16.164C26.8607 15.908 26.5447 15.78 26.0967 15.78C25.6327 15.78 25.2687 15.916 25.0047 16.188C24.7407 16.452 24.6087 16.788 24.6087 17.196V20.268C24.6087 20.476 24.5407 20.652 24.4047 20.796C24.2687 20.932 24.0967 21 23.8887 21C23.6807 21 23.5087 20.932 23.3727 20.796C23.2367 20.652 23.1687 20.476 23.1687 20.268V15.312C23.1687 15.104 23.2367 14.932 23.3727 14.796C23.5087 14.652 23.6807 14.58 23.8887 14.58C24.0967 14.58 24.2687 14.652 24.4047 14.796C24.5407 14.932 24.6087 15.104 24.6087 15.312V15.516C24.8247 15.228 25.1047 14.98 25.4487 14.772C25.8007 14.564 26.1847 14.46 26.6007 14.46ZM31.8771 20.268C31.8771 20.476 31.8051 20.652 31.6611 20.796C31.5251 20.932 31.3531 21 31.1451 21C30.9451 21 30.7771 20.932 30.6411 20.796C30.5051 20.652 30.4371 20.476 30.4371 20.268V12.852C30.4371 12.644 30.5051 12.472 30.6411 12.336C30.7851 12.192 30.9611 12.12 31.1691 12.12C31.3691 12.12 31.5371 12.192 31.6731 12.336C31.8091 12.472 31.8771 12.644 31.8771 12.852V20.268ZM34.9075 20.268C34.9075 20.476 34.8395 20.652 34.7035 20.796C34.5675 20.932 34.3955 21 34.1875 21C33.9795 21 33.8075 20.932 33.6715 20.796C33.5355 20.652 33.4675 20.476 33.4675 20.268V15.312C33.4675 15.104 33.5355 14.932 33.6715 14.796C33.8075 14.652 33.9795 14.58 34.1875 14.58C34.3955 14.58 34.5675 14.652 34.7035 14.796C34.8395 14.932 34.9075 15.104 34.9075 15.312V20.268ZM34.1755 13.8C33.9035 13.8 33.7115 13.756 33.5995 13.668C33.4875 13.58 33.4315 13.424 33.4315 13.2V12.972C33.4315 12.748 33.4915 12.592 33.6115 12.504C33.7315 12.416 33.9235 12.372 34.1875 12.372C34.4675 12.372 34.6635 12.416 34.7755 12.504C34.8875 12.592 34.9435 12.748 34.9435 12.972V13.2C34.9435 13.432 34.8835 13.592 34.7635 13.68C34.6515 13.76 34.4555 13.8 34.1755 13.8ZM39.8194 14.46C40.6354 14.46 41.1994 14.704 41.5114 15.192C41.8234 15.672 41.9794 16.34 41.9794 17.196V20.268C41.9794 20.476 41.9114 20.652 41.7754 20.796C41.6394 20.932 41.4674 21 41.2594 21C41.0514 21 40.8794 20.932 40.7434 20.796C40.6074 20.652 40.5394 20.476 40.5394 20.268V17.196C40.5394 16.756 40.4474 16.412 40.2634 16.164C40.0794 15.908 39.7634 15.78 39.3154 15.78C38.8514 15.78 38.4874 15.916 38.2234 16.188C37.9594 16.452 37.8274 16.788 37.8274 17.196V20.268C37.8274 20.476 37.7594 20.652 37.6234 20.796C37.4874 20.932 37.3154 21 37.1074 21C36.8994 21 36.7274 20.932 36.5914 20.796C36.4554 20.652 36.3874 20.476 36.3874 20.268V15.312C36.3874 15.104 36.4554 14.932 36.5914 14.796C36.7274 14.652 36.8994 14.58 37.1074 14.58C37.3154 14.58 37.4874 14.652 37.6234 14.796C37.7594 14.932 37.8274 15.104 37.8274 15.312V15.516C38.0434 15.228 38.3234 14.98 38.6674 14.772C39.0194 14.564 39.4034 14.46 39.8194 14.46ZM49.2959 17.64C49.2879 17.832 49.2119 17.988 49.0679 18.108C48.9239 18.228 48.7559 18.288 48.5639 18.288H44.6039C44.6999 18.76 44.9199 19.132 45.2639 19.404C45.6079 19.668 45.9959 19.8 46.4279 19.8C46.7559 19.8 47.0119 19.772 47.1959 19.716C47.3799 19.652 47.5239 19.588 47.6279 19.524C47.7399 19.452 47.8159 19.404 47.8559 19.38C47.9999 19.308 48.1359 19.272 48.2639 19.272C48.4319 19.272 48.5759 19.332 48.6959 19.452C48.8159 19.572 48.8759 19.712 48.8759 19.872C48.8759 20.088 48.7639 20.284 48.5399 20.46C48.3159 20.644 48.0159 20.8 47.6399 20.928C47.2639 21.056 46.8839 21.12 46.4999 21.12C45.8279 21.12 45.2399 20.98 44.7359 20.7C44.2399 20.42 43.8559 20.036 43.5839 19.548C43.3119 19.052 43.1759 18.496 43.1759 17.88C43.1759 17.192 43.3199 16.588 43.6079 16.068C43.8959 15.548 44.2759 15.152 44.7479 14.88C45.2199 14.6 45.7239 14.46 46.2599 14.46C46.7879 14.46 47.2839 14.604 47.7479 14.892C48.2199 15.18 48.5959 15.568 48.8759 16.056C49.1559 16.544 49.2959 17.072 49.2959 17.64ZM46.2599 15.78C45.3319 15.78 44.7839 16.216 44.6159 17.088H47.7599V17.004C47.7279 16.668 47.5639 16.38 47.2679 16.14C46.9719 15.9 46.6359 15.78 46.2599 15.78Z" fill="white"/>
<defs>
<filter id="filter0_b" x="-3.5" y="-3.5" width="71" height="40" filterUnits="userSpaceOnUse" color-interpolation-filters="sRGB">
<feFlood flood-opacity="0" result="BackgroundImageFix"/>
<feGaussianBlur in="BackgroundImage" stdDeviation="2"/>
<feComposite in2="SourceAlpha" operator="in" result="effect1_backgroundBlur"/>
<feBlend mode="normal" in="SourceGraphic" in2="effect1_backgroundBlur" result="shape"/>
</filter>
</defs>
</svg>
