<svg width="21px" height="21px" viewBox="0 0 21 21" version="1.1" xmlns="http://www.w3.org/2000/svg" xmlns:xlink="http://www.w3.org/1999/xlink">
    
    <g id="Symbols" stroke="none" stroke-width="1" fill="none" fill-rule="evenodd">
        <g id="ToolBar-Video-&amp;-Chat" transform="translate(-364.000000, -20.000000)">
            <g id="Group-6" transform="translate(297.000000, 0.000000)">
                <path d="M69.7012498,32.9640696 L80.2405525,22.4026242 L84.7573965,26.9194682 L74.195951,37.4809122 L69.7012498,32.9640696 Z M80.7276631,24.9488829 L80.2405525,24.4617751 L71.7382579,32.9419268 L72.2475085,33.4511774 L80.7276631,24.9488829 Z M81.7240244,25.9452469 L81.2147738,25.4581363 L72.734622,33.9382909 L73.2217298,34.4253987 L81.7240244,25.9452469 Z M82.6982456,26.941611 L82.2111378,26.4323575 L73.7309832,34.9346521 L74.2180938,35.4217628 L82.6982456,26.941611 Z M82.2554178,20.4098989 C82.5358773,20.1442022 82.8716868,20.0076638 83.2628518,20.0002838 C83.6540197,19.9929038 83.9824464,20.1294394 84.2481459,20.4098989 L86.7501218,22.8897348 C87.0158185,23.1701943 87.1486669,23.506001 87.1486669,23.8971689 C87.1486669,24.2883339 87.0084385,24.6241434 86.7279818,24.9046029 L85.2002243,26.4323575 L80.7276631,21.9597963 L82.2554178,20.4098989 Z M69.3469876,33.539743 L73.6202777,37.8130331 L69.878381,39.1415166 L68.018504,37.2816397 L69.3469876,33.539743 Z M69.1698564,39.385072 L67,40.1600207 L67.7749487,37.9901642 L69.1698564,39.385072 Z" id="Page-1"></path>
            </g>
        </g>
    </g>
</svg>