<svg width="5px" height="8px" viewBox="0 0 5 8" version="1.1" xmlns="http://www.w3.org/2000/svg" xmlns:xlink="http://www.w3.org/1999/xlink">
    <g id="Symbols" stroke="none" stroke-width="1">
        <g id="Labels-/-Online" transform="translate(-13.000000, -7.000000)">
            <path d="M17.913181,11.5229016 C18.0028008,11.6096306 18.0230372,11.7093671 17.9738911,11.8221149 C17.9247441,11.9377536 17.8394615,11.9955729 17.7180413,11.9955729 L16.0615233,11.9955729 L16.9331463,14.0597156 C16.962056,14.1319899 16.962056,14.2028176 16.9331463,14.2722009 C16.9042367,14.3415842 16.8550906,14.3921755 16.7857073,14.4239761 L16.0181588,14.7492088 C15.9458847,14.7781185 15.8750569,14.7781185 15.8056735,14.7492088 C15.7362902,14.7202991 15.6856987,14.6711533 15.6538983,14.60177 L14.8256388,12.6417011 L13.4726714,13.9946691 C13.4177429,14.0495975 13.3526971,14.0770614 13.2775318,14.0770614 C13.2428402,14.0770614 13.2081491,14.0698341 13.1734574,14.0553792 C13.0578185,14.0062327 13,13.9209503 13,13.79953 L13,7.27753156 C13,7.15611041 13.0578185,7.07082779 13.1734574,7.02168176 C13.2081491,7.00722693 13.2428402,7 13.2775318,7 C13.355588,7 13.4206339,7.0274633 13.4726714,7.08239185 L17.913181,11.5229016 Z" id="Page-1"></path>
        </g>
    </g>
</svg>