<svg width="7px" height="7px" viewBox="0 0 7 7" version="1.1" xmlns="http://www.w3.org/2000/svg" xmlns:xlink="http://www.w3.org/1999/xlink">
    
    <g id="Symbols" stroke="none" stroke-width="1" fill="none" fill-rule="evenodd">
        <g id="Label-/-Payment-In-Dispute" transform="translate(-9.000000, -7.000000)" fill="#FFFFFF">
            <path d="M9,10.5 C9,10.0236089 9.09236018,9.56970747 9.27708333,9.1382816 C9.46180652,8.70685573 9.71032827,8.334984 10.0226561,8.02265613 C10.334984,7.71032827 10.7068557,7.4618068 11.1382816,7.27708333 C11.5697075,7.09235987 12.0236089,7 12.5,7 C12.9739607,7 13.4272545,7.09235987 13.8598956,7.27708333 C14.2925367,7.4618068 14.665016,7.71032827 14.9773439,8.02265613 C15.2896717,8.334984 15.5381932,8.70685573 15.7229167,9.1382816 C15.9076401,9.56970747 16,10.0236089 16,10.5 C16,10.9739607 15.9076401,11.4266469 15.7229167,11.8580728 C15.5381932,12.2894987 15.2896717,12.661978 14.9773439,12.9755211 C14.665016,13.289064 14.2925367,13.5381935 13.8598956,13.7229167 C13.4272545,13.9076398 12.9739607,14 12.5,14 C12.0236089,14 11.5697075,13.9076398 11.1382816,13.7229167 C10.7068557,13.5381935 10.334984,13.289064 10.0226561,12.9755211 C9.71032827,12.661978 9.46180652,12.2894987 9.27708333,11.8580728 C9.09236018,11.4266469 9,10.9739607 9,10.5 Z M9.875,10.5 C9.875,10.8548627 9.94427013,11.1945297 10.0828123,11.5190105 C10.2213544,11.8434913 10.4078979,12.1230023 10.6424483,12.3575517 C10.8769977,12.5921021 11.1565087,12.7786456 11.4809895,12.9171877 C11.8054703,13.0557299 12.1451373,13.125 12.5,13.125 C12.8548627,13.125 13.1945297,13.0557299 13.5190105,12.9171877 C13.8434913,12.7786456 14.1230023,12.5921021 14.3575517,12.3575517 C14.5921021,12.1230023 14.7786456,11.8434913 14.9171877,11.5190105 C15.0557299,11.1945297 15.125,10.8548627 15.125,10.5 C15.125,10.0236089 15.0077267,9.58428987 14.7731772,9.1820316 C14.5386277,8.7797724 14.21962,8.46137227 13.8161456,8.2268228 C13.4126712,7.99227333 12.9739607,7.875 12.5,7.875 C12.0260393,7.875 11.5873288,7.99227333 11.1838544,8.2268228 C10.78038,8.46137227 10.4613723,8.7797724 10.2268228,9.1820316 C9.99227333,9.58428987 9.875,10.0236089 9.875,10.5 Z M11.4901044,9.1802088 C11.81337,8.99791573 12.1815952,8.90677107 12.5947912,8.90677107 C12.913196,8.90677107 13.1763008,8.99123213 13.3841149,9.16015613 C13.5919281,9.32908107 13.6958333,9.53628387 13.6958333,9.78177107 C13.6958333,9.956772 13.6703132,10.0940971 13.6192711,10.19375 C13.5682289,10.2934029 13.4953132,10.3857637 13.4005211,10.4708333 C13.3616319,10.5024304 13.3154515,10.5346351 13.2619789,10.5674483 C13.2085064,10.6002605 13.1623269,10.6263892 13.1234377,10.6458333 C13.0845485,10.6652775 13.0414061,10.6859377 12.9940105,10.7078123 C12.946614,10.7296877 12.9204863,10.7418407 12.9156245,10.7442711 C12.89375,10.756424 12.8779515,10.7691836 12.8682289,10.7825517 C12.8585073,10.7959199 12.8524304,10.8098956 12.85,10.8244789 C12.8475696,10.8390623 12.8463544,10.8645833 12.8463544,10.9010421 L12.8463544,11.0177088 L11.975,11.0177088 L11.975,10.7442711 C11.975,10.6276035 11.9901909,10.5364588 12.0205728,10.4708333 C12.0509547,10.4052079 12.1196172,10.3432299 12.2265623,10.2848956 L12.5255211,10.1244789 C12.5352427,10.1196181 12.5546877,10.1098956 12.5838544,10.0953123 C12.6130211,10.0807289 12.6336804,10.0697921 12.6458333,10.0625 C12.6579863,10.0552079 12.6743924,10.0442711 12.6950517,10.0296877 C12.715712,10.0151044 12.7309029,10.0023439 12.7406245,9.99140613 C12.7503471,9.9804684 12.759462,9.9664936 12.7679684,9.94947893 C12.7764757,9.9324652 12.7807289,9.91423627 12.7807289,9.8947912 C12.7807289,9.78055493 12.6579872,9.72343773 12.4125,9.72343773 C12.174304,9.72343773 11.9434039,9.79513827 11.7197912,9.93854213 L11.4901044,9.1802088 Z M11.8473956,11.6776044 C11.8473956,11.5196172 11.8984368,11.3968755 12.0005211,11.3093755 C12.1026044,11.2218745 12.2399295,11.1781245 12.4125,11.1781245 C12.5802088,11.1781245 12.7151035,11.2218745 12.8171877,11.3093755 C12.9192711,11.3968755 12.9703123,11.5196172 12.9703123,11.6776044 C12.9703123,11.8355907 12.9192711,11.9577248 12.8171877,12.0440105 C12.7151035,12.1302953 12.5802088,12.1734377 12.4125,12.1734377 C12.2399295,12.1734377 12.1026044,12.1302953 12.0005211,12.0440105 C11.8984368,11.9577248 11.8473956,11.8355907 11.8473956,11.6776044 Z" id="Page-1"></path>
        </g>
    </g>
</svg>
