<svg width="21px" height="21px" viewBox="0 0 21 21" version="1.1" xmlns="http://www.w3.org/2000/svg" xmlns:xlink="http://www.w3.org/1999/xlink">
    
    <g id="Symbols" stroke="none" stroke-width="1" fill="none" fill-rule="evenodd">
        <g id="ToolBar-Video-&amp;-Chat" transform="translate(-206.000000, -20.000000)">
            <g id="01" transform="translate(160.000000, 20.000000)">
                <path d="M66.039064,8.4375 L58.539064,0.210936 C58.398436,0.070311 58.222657,0 58.011718,0 C57.800779,0 57.617188,0.070311 57.460936,0.210936 C57.382813,0.304689 57.328126,0.406248 57.296875,0.515625 C57.265624,0.625002 57.257812,0.734373 57.273436,0.84375 L57.273436,5.25 C55.710931,5.25 54.2461,5.546871 52.878907,6.140625 C51.511711,6.734379 50.320318,7.539057 49.304686,8.554686 C48.2890573,9.570318 47.4843781,10.761711 46.890625,12.128907 C46.296872,13.4961 46,14.960931 46,16.523436 C46,17.320317 46.0820304,18.0937461 46.2460938,18.84375 C46.410157,19.5937539 46.6406236,20.3124966 46.9375,21 C47.156251,19.828119 47.5859344,18.7382862 48.2265625,17.730468 C48.8671906,16.722651 49.648432,15.851565 50.570314,15.117186 C51.492193,14.38281 52.527337,13.804689 53.675782,13.382814 C54.824224,12.960936 56.01562,12.75 57.25,12.75 C57.25,12.859377 57.25,13.156248 57.25,13.640625 C57.25,14.125002 57.25,14.632809 57.25,15.164064 C57.25,15.695316 57.25,16.175778 57.25,16.605468 C57.25,17.035158 57.25,17.25 57.25,17.25 C57.234376,17.359377 57.246094,17.453124 57.285157,17.53125 C57.32422,17.609376 57.382813,17.695311 57.460936,17.789064 C57.632812,17.945313 57.828124,18.0078126 58.046875,17.976564 C58.265626,17.945313 58.445311,17.867187 58.585936,17.742186 L66.039064,9.5625 C66.117187,9.484374 66.171874,9.398439 66.203125,9.304686 C66.234376,9.210936 66.25,9.109377 66.25,9 C66.25,8.890623 66.234376,8.789064 66.203125,8.695314 C66.171874,8.601561 66.117187,8.515626 66.039064,8.4375 Z" id="Page-1"></path>
            </g>
        </g>
    </g>
</svg>