<svg width="6px" height="6px" viewBox="0 0 6 6" version="1.1" xmlns="http://www.w3.org/2000/svg" xmlns:xlink="http://www.w3.org/1999/xlink">
    
    <g id="z" stroke="none" stroke-width="1" fill="none" fill-rule="evenodd">
        <g id="Desktop---014-Calendar-Instant-Booking-Rollover" transform="translate(-712.000000, -394.000000)" fill="#FFFFFF">
            <g id="Lesson-Booking" transform="translate(489.000000, 138.000000)">
                <g id="Middle" transform="translate(54.000000, 93.000000)">
                    <g id="Classes" transform="translate(60.000000, 35.000000)">
                        <g id="Class-01-Copy" transform="translate(0.000000, 123.000000)">
                            <g id="Path-2">
                                <path d="M114.902344,8.6249998 C114.902344,8.63802067 114.901042,8.64713555 114.898437,8.65234355 C114.73177,9.35026366 114.382815,9.91601327 113.851563,10.3496094 C113.32031,10.7832053 112.697921,11 111.984375,11 C111.604164,11 111.23633,10.9283861 110.88086,10.7851563 C110.525389,10.6419264 110.208335,10.4375014 109.929687,10.171875 L109.425781,10.6757813 C109.376302,10.7252607 109.317709,10.75 109.25,10.75 C109.182291,10.75 109.123698,10.7252607 109.074219,10.6757813 C109.024739,10.6263019 109,10.5677087 109,10.5 L109,8.74999967 C109,8.6822913 109.024739,8.6236978 109.074219,8.57421918 C109.123698,8.52473968 109.182291,8.49999993 109.25,8.49999993 L111,8.49999993 C111.067709,8.49999993 111.126302,8.52473968 111.175781,8.57421918 C111.225261,8.6236978 111.25,8.6822913 111.25,8.74999967 C111.25,8.81770892 111.225261,8.87630154 111.175781,8.92578104 L110.640625,9.46093716 C110.825522,9.6328134 111.035155,9.7656244 111.269531,9.8593754 C111.503907,9.95312552 111.747395,10.0000001 112,10.0000001 C112.34896,10.0000001 112.674478,9.91536577 112.976563,9.74609353 C113.278648,9.57682215 113.520833,9.34375191 113.703125,9.04687492 C113.731771,9.00260429 113.800781,8.85026154 113.910156,8.58984405 C113.93099,8.52994768 113.970052,8.49999993 114.027344,8.49999993 L114.777344,8.49999993 C114.811198,8.49999993 114.840495,8.5123698 114.865234,8.53710955 C114.889974,8.5618493 114.902344,8.59114605 114.902344,8.6249998 Z M115,5.50000036 L115,7.25000033 C115,7.3177087 114.97526,7.3763022 114.925781,7.4257817 C114.876302,7.47526032 114.817709,7.50000007 114.75,7.50000007 L113,7.50000007 C112.932291,7.50000007 112.873698,7.47526032 112.824219,7.4257817 C112.774739,7.3763022 112.75,7.3177087 112.75,7.25000033 C112.75,7.18229108 112.774739,7.12369846 112.824219,7.07421896 L113.363281,6.53515597 C112.977863,6.17838348 112.52344,5.99999985 112,5.99999985 C111.65104,5.99999985 111.325522,6.0846351 111.023437,6.25390647 C110.721352,6.42317785 110.479167,6.65624897 110.296875,6.95312508 C110.268229,6.99739571 110.199219,7.14973846 110.089844,7.41015595 C110.06901,7.47005232 110.029948,7.50000007 109.972656,7.50000007 L109.195313,7.50000007 C109.161458,7.50000007 109.132162,7.4876302 109.107422,7.46289045 C109.082682,7.4381507 109.070312,7.40885482 109.070312,7.3750002 L109.070312,7.34765645 C109.239584,6.64973634 109.591143,6.08398673 110.125,5.65039099 C110.658856,5.21679525 111.283851,5 112,5 C112.38021,5 112.749998,5.07226537 113.109375,5.216797 C113.468752,5.36132862 113.787759,5.56510299 114.066407,5.82812536 L114.574219,5.32421899 C114.623698,5.27473949 114.682291,5.24999974 114.75,5.24999974 C114.817709,5.24999974 114.876302,5.27473949 114.925781,5.32421899 C114.97526,5.37369849 115,5.43229112 115,5.50000036 Z" id="Page-1"></path>
                            </g>
                        </g>
                    </g>
                </g>
            </g>
        </g>
    </g>
</svg>
