<svg width="20" height="20" viewBox="0 0 20 20" fill="none" xmlns="http://www.w3.org/2000/svg">
<g clip-path="url(#clip0)">
<path d="M18.8508 8.31532L3.13405 0.23835C2.0988 -0.294495 0.827644 0.112777 0.294758 1.14803C0.0230436 1.6759 -0.0134726 2.29387 0.194171 2.85011L2.52911 9.11803L19.8878 9.53522C19.7177 9.0071 19.3446 8.56826 18.8508 8.31532Z" fill="white"/>
<path d="M2.56627 10.8172L0.178761 17.0667C-0.235434 18.1578 0.313258 19.378 1.4043 19.7922C1.65133 19.886 1.9138 19.9327 2.17801 19.9297C2.49725 19.9247 2.81124 19.8477 3.09657 19.7045L18.8806 11.7571C19.3765 11.5082 19.7533 11.0726 19.9278 10.5459L2.56627 10.8172Z" fill="white"/>
</g>
<defs>
<clipPath id="clip0">
<rect width="20" height="20" fill="white"/>
</clipPath>
</defs>
</svg>
