<svg width="11px" height="10px" viewBox="0 0 11 10" version="1.1" xmlns="http://www.w3.org/2000/svg" xmlns:xlink="http://www.w3.org/1999/xlink">
    <g id="Symbols" stroke="none" stroke-width="1" fill="none" fill-rule="evenodd">
        <g id="Rating-Simple" transform="translate(0.000000, -4.000000)" fill="#89C0CA">
            <path d="M10.5426641,7.67591727 C10.5426641,7.76358253 10.487755,7.85921541 10.3779356,7.96281859 L8.07806299,10.0787128 L8.62293689,13.0672644 C8.62716044,13.0951576 8.62927222,13.1350046 8.62927222,13.1868064 C8.62927222,13.2704863 8.60709714,13.3412147 8.56274699,13.3989936 C8.51839684,13.4567725 8.45398481,13.4856616 8.36950664,13.4856616 C8.28925486,13.4856616 8.20477811,13.4617534 8.11607781,13.4139364 L5.27133275,12.0033399 L2.42658628,13.4139364 C2.33366242,13.4617534 2.24918709,13.4856616 2.17315745,13.4856616 C2.08445714,13.4856616 2.01793191,13.4567725 1.97358176,13.3989936 C1.92923161,13.3412147 1.90705653,13.2704863 1.90705653,13.1868064 C1.90705653,13.1628979 1.91128009,13.123051 1.91972861,13.0672644 L2.4646011,10.0787128 L0.158393339,7.96281859 C0.0527972735,7.85522959 0,7.75959805 0,7.67591727 C0,7.52848214 0.118265889,7.43683374 0.354801216,7.40097074 L3.53534008,6.96464204 L4.96088169,4.24506026 C5.04113488,4.08168586 5.14461763,4 5.27133275,4 C5.39804788,4 5.50153062,4.08168586 5.58178382,4.24506026 L7.00732401,6.96464204 L10.1878629,7.40097074 C10.4243989,7.43683374 10.5426641,7.52848214 10.5426641,7.67591727 Z" id="Page-1"></path>
        </g>
    </g>
</svg>