<svg width="6px" height="6px" viewBox="0 0 6 6" version="1.1" xmlns="http://www.w3.org/2000/svg" xmlns:xlink="http://www.w3.org/1999/xlink">
    
    <g id="Symbols" stroke="none" stroke-width="1">
        <g id="Label--/-Payment-Paid-Copy" transform="translate(-10.000000, -7.000000)">
            <path d="M12.1483621,12.8990178 C12.1682496,12.9075406 12.1796127,12.9103816 12.1909768,12.9160635 C12.202341,12.9217454 12.2080225,12.9245863 12.2080225,12.9245863 C12.2421138,12.9359501 12.264841,12.9473138 12.2762051,12.9586776 L12.3443878,12.9586776 C12.3784791,12.9700415 12.4068889,12.9700415 12.4296161,12.9586776 L12.4637075,12.9586776 C12.5091629,12.9473138 12.5489358,12.9302683 12.5830271,12.9075406 C12.5830271,12.9075406 12.5887086,12.9018588 12.6000728,12.890495 C12.6341641,12.8677673 12.6540505,12.8535628 12.6597321,12.8478808 C12.6654147,12.8421989 12.6710962,12.8336761 12.6767788,12.8223123 C12.6824604,12.8109485 12.6853011,12.8052666 12.6853011,12.8052666 L15.9410232,7.58929298 C15.9978429,7.49838203 16.0148874,7.40179066 15.9921602,7.29951666 C15.969433,7.19724267 15.9154553,7.11769696 15.8302259,7.06087735 C15.7449975,7.00405773 15.6512469,6.98701316 15.5489729,7.00974035 C15.4466989,7.03246754 15.3671532,7.08360454 15.3103336,7.16315134 L12.2932508,11.9870747 L10.6398212,10.3677365 C10.5602744,10.2995538 10.4693651,10.2654625 10.3670906,10.2654625 C10.2648161,10.2654625 10.1767477,10.3052353 10.1028828,10.3847821 C10.0290179,10.4643289 9.99492687,10.5580796 10.0006088,10.6660351 C10.0062907,10.7739917 10.0489044,10.8620608 10.1284513,10.9302434 L12.1227942,12.8734493 C12.1369991,12.8876541 12.1426806,12.8933359 12.1483621,12.8990178 Z" id="Page-1"></path>
        </g>
    </g>
</svg>