<svg width="44" height="44" viewBox="0 0 44 44" fill="none" xmlns="http://www.w3.org/2000/svg">
<path d="M12.5576 7H5.37051C3.48699 7 2 8.53656 2 10.3705V17.5576C2 19.4411 3.53656 20.9281 5.37051 20.9281H12.5576C14.4411 20.9281 15.9281 19.3916 15.9281 17.5576V10.3705C15.9281 8.53656 14.4411 7 12.5576 7ZM13.9455 17.5576C13.9455 18.3507 13.3011 18.9455 12.5576 18.9455H5.37051C4.57745 18.9455 3.98265 18.3011 3.98265 17.5576V10.3705C3.98265 9.57745 4.62701 8.98265 5.37051 8.98265H12.5576C13.3507 8.98265 13.9455 9.62701 13.9455 10.3705V17.5576Z" fill="#78C7D6" stroke="white" stroke-width="0.1"/>
<path d="M10.4262 11.8078L8.19572 14.0383L7.45222 13.2948C7.05569 12.8983 6.41133 12.8983 6.06437 13.2948C5.66784 13.6914 5.66784 14.3357 6.06437 14.6827L7.55135 16.1697C7.74962 16.3679 7.99745 16.4671 8.24528 16.4671C8.49311 16.4671 8.74095 16.3679 8.93921 16.1697L11.8636 13.2453C12.2602 12.8487 12.2602 12.2044 11.8636 11.8574C11.4671 11.4113 10.8227 11.4113 10.4262 11.8078Z" fill="#78C7D6" stroke="white" stroke-width="0.1"/>
<path d="M19.8439 12.4028H41.0087C41.5539 12.4028 42 11.9567 42 11.4115C42 10.8663 41.5539 10.4202 41.0087 10.4202H19.8439C19.2986 10.4202 18.8525 10.8663 18.8525 11.4115C18.8525 11.9567 19.2986 12.4028 19.8439 12.4028Z" fill="#78C7D6" stroke="white" stroke-width="0.1"/>
<path d="M19.8439 17.5576H35.2094C35.7547 17.5576 36.2007 17.1115 36.2007 16.5663C36.2007 16.021 35.7547 15.575 35.2094 15.575H19.8439C19.2986 15.575 18.8525 16.021 18.8525 16.5663C18.8525 17.1115 19.2986 17.5576 19.8439 17.5576Z" fill="#78C7D6" stroke="white" stroke-width="0.1"/>
<path d="M12.5576 23.5552H5.37051C3.48699 23.5552 2 25.0917 2 26.9257V34.1128C2 35.9963 3.53656 37.4833 5.37051 37.4833H12.5576C14.4411 37.4833 15.9281 35.9468 15.9281 34.1128V26.9752C15.9281 25.0917 14.4411 23.5552 12.5576 23.5552ZM13.9455 34.1128C13.9455 34.9059 13.3011 35.5007 12.5576 35.5007H5.37051C4.57745 35.5007 3.98265 34.8563 3.98265 34.1128V26.9752C3.98265 26.1822 4.62701 25.5874 5.37051 25.5874H12.5576C13.3507 25.5874 13.9455 26.2318 13.9455 26.9752V34.1128Z" fill="#78C7D6" stroke="white" stroke-width="0.1"/>
<path d="M10.4262 28.363L8.19572 30.5935L7.45222 29.85C7.05569 29.4535 6.41133 29.4535 6.06437 29.85C5.66784 30.2465 5.66784 30.8909 6.06437 31.2379L7.55135 32.7248C7.74962 32.9231 7.99745 33.0222 8.24528 33.0222C8.49311 33.0222 8.74095 32.9231 8.93921 32.7248L11.8636 29.8004C12.2602 29.4039 12.2602 28.7595 11.8636 28.4126C11.4671 27.9665 10.8227 27.9665 10.4262 28.363Z" fill="#78C7D6" stroke="white" stroke-width="0.1"/>
<path d="M40.9591 26.9751H19.8439C19.2986 26.9751 18.8525 27.4212 18.8525 27.9664C18.8525 28.5117 19.2986 28.9577 19.8439 28.9577H41.0087C41.5539 28.9577 42 28.5117 42 27.9664C42 27.4212 41.5539 26.9751 40.9591 26.9751Z" fill="#78C7D6" stroke="white" stroke-width="0.1"/>
<path d="M19.8439 34.1128H35.2094C35.7547 34.1128 36.2007 33.6667 36.2007 33.1215C36.2007 32.5762 35.7547 32.1301 35.2094 32.1301H19.8439C19.2986 32.1301 18.8525 32.5762 18.8525 33.1215C18.8525 33.6667 19.2986 34.1128 19.8439 34.1128Z" fill="#78C7D6" stroke="white" stroke-width="0.1"/>
</svg>
