<svg width="15px" height="15px" viewBox="0 0 15 15" version="1.1" xmlns="http://www.w3.org/2000/svg" xmlns:xlink="http://www.w3.org/1999/xlink">
    
    <g id="Symbols" stroke="none" stroke-width="1" fill="none" fill-rule="evenodd">
        <g id="ToolBAr-5-Copy" transform="translate(-676.000000, -23.000000)">
            <g id="Type-Format" transform="translate(553.000000, 17.000000)">
                <path d="M123.446428,6.88355613 C123.217013,6.87115613 123.077505,6.85875613 123.027902,6.84635405 L123,6.02790208 C123.080606,6.02170208 123.204612,6.01860208 123.372024,6.01860208 C123.744049,6.01860208 124.091268,6.03100208 124.41369,6.05580416 C125.232148,6.09920624 125.746775,6.12090832 125.957589,6.12090832 C126.490827,6.12090832 127.011654,6.11160832 127.520089,6.09300624 C128.239339,6.06820416 128.691962,6.05270416 128.877976,6.04650416 C129.225199,6.04650416 129.491814,6.04030208 129.677826,6.02790208 L129.668526,6.15811039 L129.687126,6.75334781 L129.687126,6.83705405 C129.315101,6.89285821 128.93068,6.92075821 128.533853,6.92075821 C128.161828,6.92075821 127.916914,6.99826236 127.799106,7.15327484 C127.718501,7.240079 127.678199,7.64930186 127.678199,8.38095176 C127.678199,8.461558 127.679749,8.56231423 127.682849,8.68322255 C127.685949,8.80413087 127.687499,8.88318502 127.687499,8.9203871 L127.696799,11.0502222 L127.827008,13.6543885 C127.864212,14.4232426 128.02232,15.0494758 128.301339,15.5331091 C128.518353,15.8989341 128.81597,16.1841507 129.194195,16.3887632 C129.739832,16.680184 130.288564,16.8258923 130.840401,16.8258923 C131.485245,16.8258923 132.077378,16.739086 132.616813,16.5654756 C132.964038,16.4538673 133.270955,16.295759 133.537574,16.0911445 C133.835194,15.8679299 134.036705,15.6695195 134.142111,15.495907 C134.365328,15.1486821 134.529636,14.7952634 134.635042,14.4356384 C134.765253,13.9830072 134.830355,13.2730698 134.830355,12.3058033 C134.830355,11.81597 134.819505,11.4191472 134.797803,11.1153264 C134.776103,10.8115056 134.742,10.4317348 134.695496,9.97600362 C134.648994,9.52027243 134.607142,9.02579542 134.569938,8.49256007 L134.532736,7.94382473 C134.501734,7.52839562 134.42733,7.25558108 134.309521,7.12537276 C134.098707,6.90835821 133.859994,6.80295197 133.593376,6.80915197 L132.663317,6.82775405 L132.533109,6.79985197 L132.551709,6 L133.332959,6 L135.239582,6.09300624 C135.710815,6.11160832 136.318446,6.08060624 137.062498,6 L137.229908,6.01860208 C137.267111,6.25421872 137.285713,6.41232703 137.285713,6.49293118 C137.285713,6.53633534 137.273313,6.6324395 137.248511,6.78124989 C136.96949,6.85565613 136.709077,6.89595821 136.467261,6.90215821 C136.014629,6.97036237 135.769715,7.02306444 135.732513,7.0602686 C135.639507,7.15327484 135.593005,7.28038107 135.593005,7.44159147 C135.593005,7.48499563 135.597655,7.56869978 135.606955,7.6927081 C135.616257,7.81671642 135.620907,7.91282265 135.620907,7.98102681 C135.670509,8.09883513 135.738713,9.32650163 135.825519,11.6640617 C135.862721,12.8731449 135.816219,13.8155968 135.686011,14.4914426 C135.593005,14.9626759 135.465896,15.3408946 135.304686,15.6261153 C135.069069,16.0291424 134.72185,16.4104632 134.263019,16.7700881 C133.797988,17.1235131 133.233757,17.3994276 132.570311,17.5978401 C131.894465,17.8024546 131.103922,17.9047609 130.198659,17.9047609 C129.163189,17.9047609 128.282741,17.7621526 127.557291,17.4769338 C126.819441,17.185513 126.26451,16.8072923 125.892485,16.3422611 C125.514258,15.8710278 125.256946,15.2664966 125.120535,14.5286447 C125.021329,14.0326114 124.971726,13.2978719 124.971726,12.3244033 L124.971726,9.22730581 C124.971726,8.0616268 124.919023,7.40129147 124.813616,7.246279 C124.658605,7.02306444 124.202881,6.90215821 123.446428,6.88355613 Z M137.285713,19.9880937 C137.285713,20.0748995 137.257811,20.1462034 137.202006,20.2020073 C137.146202,20.2578111 137.0749,20.2857126 136.988094,20.2857126 L123.297619,20.2857126 C123.210813,20.2857126 123.139509,20.2578111 123.083705,20.2020073 C123.027901,20.1462034 123,20.0748995 123,19.9880937 L123,19.3928557 C123,19.3060496 123.027901,19.2347457 123.083705,19.1789419 C123.139509,19.1231382 123.210813,19.0952365 123.297619,19.0952365 L136.988094,19.0952365 C137.0749,19.0952365 137.146202,19.1231382 137.202006,19.1789419 C137.257811,19.2347457 137.285713,19.3060496 137.285713,19.3928557 L137.285713,19.9880937 Z" id="Underline"></path>
            </g>
        </g>
    </g>
</svg>