<svg width="19px" height="19px" viewBox="0 0 19 19" version="1.1" xmlns="http://www.w3.org/2000/svg" xmlns:xlink="http://www.w3.org/1999/xlink">
    
    <g id="Symbols" stroke="none" stroke-width="1" fill="none" fill-rule="evenodd">
        <g id="ToolBar-Video-&amp;-Chat" transform="translate(-160.000000, -21.000000)">
            <g id="01" transform="translate(160.000000, 20.000000)">
                <path d="M8.12165314,5.75 L8.12165314,1.76339286 C8.13578914,1.66443271 8.12872114,1.565478 8.10044643,1.46651786 C8.07217171,1.36755771 8.022693,1.275671 7.95201029,1.19084686 C7.81063943,1.06361471 7.64453329,1 7.45368371,1 C7.26283414,1 7.103796,1.06361471 6.97656114,1.19084686 L0.190848214,8.63392857 C0.120163329,8.704614 0.0706846686,8.78236471 0.0424107143,8.86718886 C0.0141367627,8.95201029 0,9.043897 0,9.14285714 C0,9.24181729 0.0141367627,9.333704 0.0424107143,9.41852543 C0.0706846686,9.50334957 0.120163329,9.58110029 0.190848214,9.65178571 L6.93415314,17.052454 C7.06138529,17.1655501 7.22395743,17.2362356 7.421875,17.2645103 C7.61979257,17.2927828 7.79650343,17.2362356 7.95201029,17.0948674 C8.022693,17.0100433 8.07570571,16.9322926 8.11104843,16.8616071 C8.14639114,16.7909217 8.15699314,16.706103 8.14285714,16.6071429 C8.14285714,16.6071429 8.14285714,16.412762 8.14285714,16.0239949 C8.14285714,15.6352277 8.14285714,15.200524 8.14285714,14.7198674 C8.14285714,14.2392081 8.14285714,13.7797637 8.14285714,13.3415179 C8.14285714,12.903272 8.14285714,12.6346744 8.14285714,12.5357143 C9.25967714,12.5357143 10.3376069,12.7265611 11.3766734,13.1082603 C12.4157427,13.4899567 13.3523016,14.0130186 14.1863826,14.677454 C15.0204663,15.3418921 15.7273043,16.1300176 16.3069183,17.041852 C16.886535,17.9536875 17.2752967,18.9397267 17.4732143,20 C17.7418173,19.3779731 17.9503341,18.7276821 18.098773,18.0491071 C18.2472119,17.3705322 18.3214286,16.670763 18.3214286,15.9497754 C18.3214286,14.5360804 18.056365,13.2107571 17.526227,11.973773 C16.9960917,10.7367861 16.268047,9.65885914 15.3420766,8.739954 C14.4161034,7.82105157 13.3346424,7.09300957 12.0976556,6.55580357 C10.8606714,6.01859757 9.53534814,5.75 8.12165314,5.75 Z" id="Page-1"></path>
            </g>
        </g>
    </g>
</svg>