<?xml version="1.0" encoding="utf-8"?>
<!-- Generator: Adobe Illustrator 23.0.0, SVG Export Plug-In . SVG Version: 6.00 Build 0)  -->
<svg fill="#fff" version="1.1" id="Layer_1" xmlns="http://www.w3.org/2000/svg" xmlns:xlink="http://www.w3.org/1999/xlink" x="0px" y="0px"
	 width="34.4px" height="40.1px" viewBox="0 0 34.4 40.1" style="enable-background:new 0 0 34.4 40.1;" xml:space="preserve">
<path d="M26.2,23h-1.7c-0.2,0.9-0.5,1.7-1,2.4c-0.5,0.7-1.1,1.4-1.8,1.9c-0.7,0.5-1.5,1-2.3,1.3c-0.9,0.3-1.7,0.5-2.7,0.5
	s-1.8-0.2-2.7-0.5c-0.9-0.3-1.6-0.7-2.3-1.3c-0.7-0.5-1.3-1.2-1.8-1.9c-0.5-0.7-0.8-1.5-1-2.4H7.1c0.2,1,0.6,2,1.1,2.9
	c0.5,0.9,1.2,1.7,1.9,2.4c0.8,0.7,1.6,1.2,2.6,1.7c1,0.4,2,0.7,3,0.8v1.8h-0.9c-0.2,0-0.4,0.1-0.6,0.3c-0.2,0.2-0.3,0.4-0.3,0.6
	c0,0.2,0.1,0.4,0.3,0.6c0.2,0.2,0.4,0.3,0.6,0.3h3.5c0.2,0,0.4-0.1,0.6-0.3c0.2-0.2,0.3-0.4,0.3-0.6c0-0.2-0.1-0.4-0.3-0.6
	c-0.2-0.2-0.4-0.3-0.6-0.3h-0.9v-1.8c1.1-0.1,2.1-0.4,3-0.8c1-0.4,1.8-1,2.6-1.7c0.8-0.7,1.4-1.5,1.9-2.4C25.6,25,26,24.1,26.2,23z
	 M12.3,12.6c0-1.2,0.4-2.2,1.3-3.1c0.8-0.8,1.9-1.3,3.1-1.3s2.2,0.4,3.1,1.3c0.8,0.8,1.3,1.9,1.3,3.1v8.7c0,1.2-0.4,2.2-1.3,3.1
	c-0.8,0.8-1.9,1.3-3.1,1.3s-2.2-0.4-3.1-1.3c-0.8-0.8-1.3-1.9-1.3-3.1V12.6z M16.7,27.3c0.8,0,1.6-0.2,2.4-0.5
	c0.7-0.3,1.4-0.7,1.9-1.3c0.5-0.5,1-1.2,1.3-1.9c0.3-0.7,0.5-1.5,0.5-2.4v-8.7c0-0.8-0.2-1.6-0.5-2.4c-0.3-0.7-0.7-1.4-1.3-1.9
	c-0.5-0.5-1.2-1-1.9-1.3c-0.7-0.3-1.5-0.5-2.4-0.5c-0.8,0-1.6,0.2-2.4,0.5c-0.7,0.3-1.4,0.7-1.9,1.3c-0.5,0.5-1,1.2-1.3,1.9
	c-0.3,0.7-0.5,1.5-0.5,2.4v8.7c0,0.8,0.2,1.6,0.5,2.4c0.3,0.7,0.7,1.4,1.3,1.9c0.5,0.5,1.2,1,1.9,1.3C15,27.2,15.8,27.3,16.7,27.3z"
	/>
</svg>
