<svg width="14px" height="14px" viewBox="0 0 14 14" version="1.1" xmlns="http://www.w3.org/2000/svg" xmlns:xlink="http://www.w3.org/1999/xlink">
    <g id="Symbols" stroke="none" stroke-width="1" fill="none" fill-rule="evenodd">
        <g id="Inbox-/-Empty-Mobile-Copy-2" transform="translate(-48.000000, -19.000000)" fill="#F37073">
            <g id="Menu">
                <g id="Group-2" transform="translate(48.000000, 16.000000)">
                    <path d="M6.95138889,8.58098456 C6.10879111,8.58098456 5.39583644,8.30968918 4.8125,7.76708949 C4.22916356,7.22449278 3.9375,6.56563299 3.9375,5.79049228 C3.9375,5.01535157 4.22916356,4.35649178 4.8125,3.81389507 C5.39583644,3.27129538 6.10879111,3 6.95138889,3 C7.76157822,3 8.45833022,3.27129538 9.04166667,3.81389507 C9.62500311,4.35649178 9.91666667,5.01535157 9.91666667,5.79049228 C9.91666667,6.56563299 9.62500311,7.22449278 9.04166667,7.76708949 C8.45833022,8.30968918 7.76157822,8.58098456 6.95138889,8.58098456 Z M6.95138889,10.6273456 C8.40972844,10.6273456 9.94906578,10.9218936 11.5694444,11.5110015 C13.1898231,12.1001093 14,12.8907399 14,13.8829199 L14,16.3943629 L0,16.3943629 L0,13.8829199 C0,12.8907399 0.7939736,12.1001093 2.38194444,11.5110015 C3.96991467,10.9218936 5.49304933,10.6273456 6.95138889,10.6273456 Z" id="icon"></path>
                </g>
            </g>
        </g>
    </g>
</svg>