<svg width="17px" height="17px" viewBox="0 0 17 17" version="1.1" xmlns="http://www.w3.org/2000/svg" xmlns:xlink="http://www.w3.org/1999/xlink">
    <g id="Symbols" stroke="none" stroke-width="1">
        <g id="Buttons-/-Login" transform="translate(-40.000000, -12.000000)">
            <path d="M48.3953925,18.7403158 C47.3777629,18.7403158 46.516707,18.4126645 45.8121948,17.7573512 C45.1076826,17.1020416 44.7554321,16.3063176 44.7554321,15.3701579 C44.7554321,14.4339981 45.1076826,13.6382742 45.8121948,12.9829645 C46.516707,12.3276512 47.3777629,12 48.3953925,12 C49.3738815,12 50.215369,12.3276512 50.9198812,12.9829645 C51.6243934,13.6382742 51.9766439,14.4339981 51.9766439,15.3701579 C51.9766439,16.3063176 51.6243934,17.1020416 50.9198812,17.7573512 C50.215369,18.4126645 49.3738815,18.7403158 48.3953925,18.7403158 Z M48.3953925,21.2117649 C50.1566712,21.2117649 52.0157732,21.567499 53.9727512,22.2789815 C55.9297292,22.9904641 56.9082031,23.9453314 56.9082031,25.1436157 L56.9082031,28.1767578 L40,28.1767578 L40,25.1436157 C40,23.9453314 40.9589048,22.9904641 42.8767429,22.2789815 C44.7945803,21.567499 46.6341139,21.2117649 48.3953925,21.2117649 Z" id="icon"></path>
        </g>
    </g>
</svg>