<svg width="18" height="18" viewBox="0 0 18 18" fill="none" xmlns="http://www.w3.org/2000/svg">
<path d="M7.875 15.75C7.875 14.0276 8.52525 12.4605 9.58725 11.268C9.3915 11.2624 9.2025 11.25 9 11.25C5.409 11.25 2.76863 12.1444 1.30838 12.8047C0.50625 13.1681 0 13.9691 0 14.85V18H8.26762C8.01787 17.2958 7.875 16.5398 7.875 15.75Z" fill="#78C7D6"/>
<path d="M9 9C11.4853 9 13.5 6.98528 13.5 4.5C13.5 2.01472 11.4853 0 9 0C6.51472 0 4.5 2.01472 4.5 4.5C4.5 6.98528 6.51472 9 9 9Z" fill="#78C7D6"/>
<path d="M12.3755 18C12.0875 18 11.7995 17.8897 11.5801 17.6703L10.0372 16.1274C9.64666 15.7369 9.64666 15.1038 10.0372 14.7132L10.2137 14.5367C10.6042 14.1462 11.2374 14.1462 11.6279 14.5367L11.6683 14.5771C12.0589 14.9676 12.692 14.9676 13.0826 14.5771L15.373 12.2867C15.7635 11.8962 16.3967 11.8962 16.7872 12.2867L16.9637 12.4632C17.3542 12.8538 17.3542 13.4869 16.9637 13.8774L13.1708 17.6703C12.9515 17.8897 12.6635 18 12.3755 18Z" fill="#65D1AD"/>
</svg>
