<svg width="12px" height="9px" viewBox="0 0 12 9" version="1.1" xmlns="http://www.w3.org/2000/svg" xmlns:xlink="http://www.w3.org/1999/xlink">
    
    <g id="z" stroke="none" stroke-width="1" fill="none" fill-rule="evenodd">
        <g id="Desktop---012-Calendar-Class-Rollover" transform="translate(-841.000000, -511.000000)" fill="#F37073">
            <g id="Class-Details" transform="translate(700.000000, 327.000000)">
                <path d="M152.400003,184.610715 L152.400003,191.532146 C152.400003,191.710271 152.317304,191.835382 152.151901,191.90748 C152.096766,191.928686 152.043753,191.939289 151.992861,191.939289 C151.878351,191.939289 151.782928,191.898999 151.706588,191.818418 L149.14286,189.254689 L149.14286,190.310717 C149.14286,190.815407 148.963676,191.246932 148.605304,191.605304 C148.246931,191.963676 147.815407,192.14286 147.310716,192.14286 L142.832143,192.14286 C142.327453,192.14286 141.895928,191.963676 141.537556,191.605304 C141.179184,191.246932 141,190.815407 141,190.310717 L141,185.832144 C141,185.327453 141.179184,184.895929 141.537556,184.537556 C141.895928,184.179184 142.327453,184 142.832143,184 L147.310716,184 C147.815407,184 148.246931,184.179184 148.605304,184.537556 C148.963676,184.895929 149.14286,185.327453 149.14286,185.832144 L149.14286,186.88181 L151.706588,184.324443 C151.782928,184.243862 151.878351,184.203571 151.992861,184.203571 C152.043753,184.203571 152.096766,184.214175 152.151901,184.23538 C152.317304,184.307478 152.400003,184.432589 152.400003,184.610715 Z" id="Page-1"></path>
            </g>
        </g>
    </g>
</svg>
