<?xml version="1.0" encoding="utf-8"?>
<!-- Generator: Adobe Illustrator 23.0.0, SVG Export Plug-In . SVG Version: 6.00 Build 0)  -->
<svg version="1.1" id="Layer_1" xmlns="http://www.w3.org/2000/svg" xmlns:xlink="http://www.w3.org/1999/xlink" x="0px" y="0px"
	 width="12.6px" height="11.2px" viewBox="0 0 12.6 11.2" style="enable-background:new 0 0 12.6 11.2;" xml:space="preserve">
<style type="text/css">
	.st0{fill:#FFFFFF;}
</style>
<path class="st0" d="M11.1,2.7v5.9c0,0.2-0.1,0.3-0.2,0.3c0,0-0.1,0-0.1,0c-0.1,0-0.2,0-0.2-0.1L8.3,6.6v0.9c0,0.4-0.2,0.8-0.5,1.1
	C7.6,8.9,7.2,9.1,6.8,9.1H3c-0.4,0-0.8-0.2-1.1-0.5C1.6,8.3,1.5,7.9,1.5,7.5V3.7c0-0.4,0.2-0.8,0.5-1.1C2.2,2.3,2.6,2.2,3,2.2h3.8
	c0.4,0,0.8,0.2,1.1,0.5c0.3,0.3,0.5,0.7,0.5,1.1v0.9l2.2-2.2c0.1-0.1,0.1-0.1,0.2-0.1c0,0,0.1,0,0.1,0C11,2.4,11.1,2.5,11.1,2.7z"/>
</svg>
