<svg width="20px" height="20px" viewBox="0 0 20 20" version="1.1" xmlns="http://www.w3.org/2000/svg" xmlns:xlink="http://www.w3.org/1999/xlink">
    
    <g id="Symbols" stroke="none" stroke-width="1" fill="none" fill-rule="evenodd">
        <g id="ToolBAr-5-Copy" transform="translate(-1054.000000, -20.000000)">
            <g id="Group-8" transform="translate(932.000000, 0.000000)">
                <path d="M141.633591,30.0778254 L141.530604,29.9668484 C141.066054,29.465898 140.98615,28.7061492 141.336394,28.1193025 L141.414078,27.9892375 C141.603849,27.6711772 141.64713,27.2867528 141.532601,26.9345116 C141.418295,26.5822705 141.157277,26.2966156 140.816799,26.1510137 L140.677634,26.09153 C140.049282,25.8227436 139.667299,25.1610984 139.748756,24.4825848 L139.766735,24.3323219 C139.810904,23.9645439 139.693934,23.5956563 139.446011,23.3204332 C139.198088,23.0452101 138.84385,22.8900642 138.473186,22.895835 L138.321814,22.8980545 C137.639083,22.9029375 137.020497,22.4590294 136.81874,21.8060404 L136.774128,21.6613264 C136.664926,21.3073096 136.408125,21.0181034 136.069645,20.8673966 C135.731387,20.7166898 135.344521,20.7197971 135.008261,20.875165 L134.871315,20.9388658 C134.251176,21.2262963 133.503856,21.0671553 133.053955,20.5526657 L132.954298,20.4388032 C132.710814,20.1598069 132.358573,20 131.988132,20 C131.61769,20 131.265449,20.1600289 131.021744,20.4388032 L130.922086,20.5526657 C130.472407,21.0671553 129.725088,21.2258524 129.104948,20.9388658 L128.967558,20.875165 C128.63152,20.7197971 128.244654,20.7166898 127.906174,20.8673966 C127.567694,21.0181034 127.311115,21.3075315 127.201692,21.6613264 L127.157079,21.8060404 C126.957764,22.4517049 126.350942,22.8980545 125.676423,22.8980545 C125.668877,22.8980545 125.661552,22.8980545 125.654006,22.8978326 L125.502633,22.8956131 C125.134855,22.8891764 124.777731,23.0449882 124.529808,23.3202112 C124.281886,23.5954343 124.165138,23.9641 124.209307,24.331878 L124.227285,24.4821409 C124.308742,25.1606545 123.926759,25.8222997 123.298407,26.0910861 L123.159242,26.1505698 C122.818764,26.2961717 122.557746,26.5818266 122.443218,26.9340677 C122.32869,27.2863089 122.371971,27.6707333 122.561963,27.9887935 L122.639647,28.1188586 C122.990113,28.7059272 122.910209,29.465898 122.445438,29.9668484 L122.342451,30.0778254 C122.090533,30.3494972 121.968236,30.7166093 122.007078,31.0848311 C122.045698,31.4532749 122.241684,31.7868719 122.544429,32.0001698 L122.668058,32.0873978 C123.226716,32.4809224 123.462875,33.2076001 123.242253,33.8541523 L123.193423,33.9973127 C123.07379,34.3480002 123.111522,34.7330905 123.296631,35.0538142 C123.481741,35.3745378 123.796472,35.5995993 124.159811,35.6712904 L124.308298,35.7005884 C124.978822,35.832873 125.489982,36.4006316 125.551463,37.0813648 L125.565002,37.2318496 C125.598295,37.6009593 125.789398,37.9374417 126.089036,38.1551787 C126.388674,38.3726937 126.767771,38.4505996 127.128891,38.3682546 L127.27649,38.3347395 C127.389465,38.3089928 127.503327,38.2965634 127.616302,38.2965634 C128.168968,38.2965634 128.697218,38.5948697 128.973551,39.0900493 L129.04724,39.2225559 C129.227689,39.545943 129.538868,39.7756655 129.901319,39.8526835 C130.263548,39.9297016 130.641536,39.8466908 130.937845,39.6242928 L131.059032,39.5335136 C131.605705,39.1237863 132.369671,39.1237863 132.916788,39.5335136 L133.037975,39.6242928 C133.334283,39.8464688 133.712049,39.9297016 134.0745,39.8526835 C134.436729,39.7756655 134.748131,39.545943 134.928579,39.2225559 L135.002268,39.0900493 C135.335199,38.4936586 136.033245,38.182701 136.699551,38.3347395 L136.847151,38.3682546 C137.208048,38.4503776 137.587367,38.3729156 137.887006,38.1551787 C138.186644,37.9374417 138.377746,37.6009593 138.411039,37.2318496 L138.424578,37.0813648 C138.48606,36.4008535 138.99722,35.833095 139.667743,35.7005884 L139.81623,35.6712904 C140.179569,35.5995993 140.494078,35.3745378 140.67941,35.0538142 C140.86452,34.7330905 140.902252,34.3480002 140.782619,33.9973127 L140.733789,33.8541523 C140.513166,33.2073781 140.749104,32.4809224 141.307762,32.0873978 L141.431612,32.0001698 C141.734358,31.78665 141.930343,31.453053 141.968963,31.0848311 C142.007805,30.7163874 141.885508,30.3494972 141.633591,30.0778254" id="Fill-1"></path>
            </g>
        </g>
    </g>
</svg>