<svg width="8px" height="8px" viewBox="0 0 8 8" version="1.1" xmlns="http://www.w3.org/2000/svg" xmlns:xlink="http://www.w3.org/1999/xlink">
    <g id="Symbols" stroke="none" stroke-width="1" fill="none" fill-rule="evenodd">
        <g id="Label--/-Accepted" transform="translate(-7.000000, -6.000000)" fill="#FFFFFF">
            <path d="M9.84566172,13.8534065 C9.8532475,13.8609928 9.86083328,13.868579 9.86841905,13.8761653 C9.87600629,13.8837516 9.87979917,13.8875447 9.87979917,13.8875447 C9.89497218,13.8875447 9.91014374,13.8913378 9.92531675,13.8989241 C9.94048975,13.9065104 9.94807553,13.9103035 9.94807553,13.9103035 C9.9935931,13.9254761 10.0239377,13.9406485 10.0391107,13.9558211 L10.1301458,13.9558211 C10.1756634,13.9709937 10.2135952,13.9709937 10.2439397,13.9558211 L10.2894573,13.9558211 C10.3501479,13.9406485 10.4032512,13.9178899 10.4487688,13.8875447 C10.4487688,13.8875447 10.4563546,13.8799585 10.4715276,13.8647859 C10.5170452,13.8344407 10.5435968,13.8154753 10.5511826,13.807889 C10.5587698,13.8003026 10.5663556,13.7889234 10.5739429,13.7737508 C10.5815286,13.7585782 10.5853215,13.750992 10.5853215,13.750992 L14.9322495,6.78680368 C15.0081131,6.66542252 15.0308704,6.53645704 15.0005259,6.39990433 C14.9701813,6.26335162 14.8981121,6.15714492 14.7843167,6.08128133 C14.6705228,6.00541774 14.5453502,5.98266042 14.4087975,6.01300498 C14.2722447,6.04334954 14.1660381,6.1116259 14.0901745,6.21783405 L10.0618695,12.6585703 L7.85426728,10.4964857 C7.74805913,10.4054506 7.62668015,10.359933 7.49012671,10.359933 C7.35357327,10.359933 7.23598748,10.4130363 7.13736554,10.5192445 C7.03874365,10.6254526 6.99322653,10.7506252 7.00081283,10.8947637 C7.00839913,11.0389037 7.06529552,11.1564905 7.17150372,11.2475256 L9.8342816,13.8420271 C9.8342816,13.8420271 9.83807449,13.8458202 9.84566172,13.8534065 Z" id="Page-1"></path>
        </g>
    </g>
</svg>