<svg width="13px" height="13px" viewBox="0 0 13 13" version="1.1"
     xmlns="http://www.w3.org/2000/svg">
    
    <defs/>
    <g id="Symbols" stroke="none" stroke-width="1" fill="none" fill-rule="evenodd">
        <g id="Profile-/-Desktop-Expanded-New" transform="translate(-417.000000, -63.000000)">
            <g id="Right-Column" transform="translate(253.000000, -1.000000)">
                <g id="check" transform="translate(165.000000, 65.000000)">
                    <circle id="Oval" stroke="#89C0CA" stroke-width="0.5" cx="5.5" cy="5.5" r="5.5"/>
                    <path
                        d="M4.77194276,7.89595758 C4.77666629,7.90068143 4.78138982,7.90540521 4.78611334,7.91012907 C4.79083778,7.91485292 4.79319954,7.91721481 4.79319954,7.91721481 C4.8026475,7.91721481 4.81209456,7.9195767 4.82154252,7.92430056 C4.83099048,7.92902441 4.83571401,7.9313863 4.83571401,7.9313863 C4.86405699,7.94083401 4.88295201,7.95028157 4.89239997,7.95972928 L4.94908593,7.95972928 C4.9774289,7.96917699 5.00104836,7.96917699 5.01994337,7.95972928 L5.04828635,7.95972928 C5.08607729,7.95028157 5.1191438,7.93611023 5.14748678,7.91721481 C5.14748678,7.91721481 5.1522103,7.91249103 5.16165827,7.90304332 C5.19000125,7.88414791 5.2065345,7.87233849 5.21125803,7.8676146 C5.21598246,7.86289071 5.22070599,7.85580506 5.22543042,7.84635737 C5.23015395,7.83690968 5.23251571,7.83218588 5.23251571,7.83218588 L7.93927019,3.49571012 C7.98650909,3.42012824 8.00067967,3.33982374 7.98178466,3.2547948 C7.96288964,3.16976586 7.91801341,3.10363285 7.84715505,3.05639395 C7.77629761,3.00915505 7.69835487,2.99498446 7.61332593,3.01387948 C7.528297,3.0327745 7.46216398,3.07528897 7.41492508,3.14142289 L4.90657146,7.15195439 L3.53193699,5.80566289 C3.46580307,5.74897694 3.39022255,5.72063396 3.30519316,5.72063396 C3.22016377,5.72063396 3.14694519,5.75370046 3.08553507,5.81983438 C3.02412498,5.8859683 2.99578228,5.96391104 3.00050613,6.0536635 C3.00522999,6.14341687 3.04065836,6.21663609 3.1067923,6.27332204 L4.76485656,7.88887183 C4.76485656,7.88887183 4.76721833,7.89123373 4.77194276,7.89595758 Z"
                        fill="#89C0CA"/>
                </g>
            </g>
        </g>
    </g>
</svg>
