<svg xmlns="http://www.w3.org/2000/svg" width="14" height="14">
    <defs>
        <clipPath id="clip_0">
            <rect x="-149" y="-262" width="1060" height="768" clip-rule="evenodd"/>
        </clipPath>
    </defs>
    <g clip-path="url(#clip_0)">
        <path fill="rgb(243,112,115)" stroke="none"
              d="M7 0C6.03525 0 5.12661 0.182291 4.27404 0.546874C3.42147 0.91146 2.67829 1.41065 2.04447 2.04447C1.41065 2.67829 0.91146 3.42147 0.546875 4.27404C0.18229 5.12661 0 6.03525 0 7C0 7.96475 0.18229 8.87339 0.546875 9.72596C0.91146 10.5785 1.41065 11.3217 2.04447 11.9555C2.67829 12.5893 3.42147 13.0885 4.27404 13.4531C5.12661 13.8177 6.03525 14 7 14C7.96475 14 8.87339 13.8177 9.72596 13.4531C10.5785 13.0885 11.3217 12.5893 11.9555 11.9555C12.5893 11.3217 13.0885 10.5785 13.4531 9.72596C13.8177 8.87339 14 7.96475 14 7C14 6.03525 13.8177 5.12661 13.4531 4.27404C13.0885 3.42147 12.5893 2.67829 11.9555 2.04447C11.3217 1.41065 10.5785 0.91146 9.72596 0.546874C8.87339 0.182291 7.96475 0 7 0ZM6.94952 12.6707C6.16426 12.6707 5.42949 12.522 4.74519 12.2248C4.06089 11.9275 3.46074 11.5236 2.94471 11.0132C2.42868 10.5028 2.02484 9.90265 1.73317 9.21274C1.44151 8.52283 1.29567 7.79087 1.29567 7.01683C1.29567 6.23157 1.44151 5.4968 1.73317 4.8125C2.02484 4.1282 2.42868 3.53085 2.94471 3.02043C3.46074 2.51001 4.06089 2.10617 4.74519 1.80889C5.42949 1.51162 6.16426 1.36298 6.94952 1.36298C7.72356 1.36298 8.45553 1.51162 9.14543 1.80889C9.83534 2.10617 10.4355 2.51001 10.9459 3.02043C11.4563 3.53085 11.8602 4.1282 12.1575 4.8125C12.4547 5.4968 12.6034 6.23157 12.6034 7.01683C12.6034 7.79087 12.4547 8.52283 12.1575 9.21274C11.8602 9.90265 11.4563 10.5028 10.9459 11.0132C10.4355 11.5236 9.83534 11.9275 9.14543 12.2248C8.45553 12.522 7.72356 12.6707 6.94952 12.6707ZM6.96635 7.33654L8.58173 7.33654C8.72757 7.33654 8.85096 7.38982 8.95192 7.4964C9.05288 7.60297 9.10336 7.72917 9.10336 7.875C9.10336 8.02083 9.05288 8.14423 8.95192 8.24519C8.85096 8.34615 8.72757 8.39664 8.58173 8.39664L6.44471 8.39664C6.29888 8.39664 6.17268 8.34615 6.0661 8.24519C5.95954 8.14423 5.90625 8.02083 5.90625 7.875L5.90625 4.62741C5.90625 4.48157 5.95954 4.35537 6.0661 4.2488C6.17268 4.14223 6.29888 4.08894 6.44471 4.08894C6.59055 4.08894 6.71394 4.14223 6.8149 4.2488C6.91587 4.35537 6.96635 4.48157 6.96635 4.62741L6.96635 7.33654Z"
              fill-rule="evenodd"/>
    </g>
</svg>
