<svg width="13px" height="11px" viewBox="0 0 13 11" version="1.1" xmlns="http://www.w3.org/2000/svg" xmlns:xlink="http://www.w3.org/1999/xlink">
    
    <defs/>
    <g id="Symbols" stroke="none" stroke-width="1" fill="none" fill-rule="evenodd">
        <g id="Profile-/-Desktop-Expanded-New" transform="translate(-341.000000, -277.000000)" fill="#F37073">
            <g id="Buttons" transform="translate(35.000000, 239.000000)">
                <g id="Group" transform="translate(289.000000, 23.000000)">
                    <path
                        d="M30,18.2935256 L30,24.053571 C30,24.3727689 29.8863475,24.6460177 29.6590409,24.8733255 C29.4317326,25.1006331 29.158484,25.2142853 28.8392853,25.2142853 L18.1607143,25.2142853 C17.8415163,25.2142853 17.5682675,25.1006331 17.3409598,24.8733255 C17.1136521,24.6460177 17,24.3727689 17,24.053571 L17,18.2935256 C17.2127986,18.5305059 17.4570299,18.7408833 17.732701,18.9246643 C19.4834534,20.1144031 20.6852644,20.9486586 21.3381699,21.4274551 C21.6138414,21.6305801 21.8375177,21.7889689 22.0092071,21.902623 C22.1808981,22.0162755 22.4094105,22.132346 22.694754,22.2508361 C22.9800975,22.3693263 23.2460921,22.4285705 23.492746,22.4285705 L23.5,22.4285705 L23.507254,22.4285705 C23.7539079,22.4285705 24.0199025,22.3693263 24.305246,22.2508361 C24.5905895,22.132346 24.8191019,22.0162755 24.9907929,21.902623 C25.1624823,21.7889689 25.3861586,21.6305801 25.6618301,21.4274551 C26.484007,20.8325865 27.688236,19.998331 29.2745529,18.9246643 C29.5502244,18.7360473 29.7920374,18.5256699 30,18.2935256 Z M30,16.1607131 C30,16.5427848 29.8815115,16.9079223 29.6445312,17.2561386 C29.407551,17.6043534 29.1125387,17.9017836 28.7594864,18.1484375 C26.9410253,19.4107196 25.8093395,20.1966119 25.3643966,20.5061386 C25.3160334,20.5399923 25.2132635,20.6137445 25.0560821,20.7273986 C24.8989024,20.8410528 24.7683223,20.9329416 24.6643418,21.0030685 C24.5603596,21.0731954 24.4346171,21.1517853 24.2871094,21.2388381 C24.1396016,21.3258926 24.0005585,21.3911819 23.8699784,21.4347091 C23.7393966,21.4782364 23.6184901,21.5 23.507254,21.5 L23.5,21.5 L23.492746,21.5 C23.3815099,21.5 23.2606034,21.4782364 23.1300216,21.4347091 C22.9994415,21.3911819 22.8603984,21.3258926 22.7128906,21.2388381 C22.5653829,21.1517853 22.4396404,21.0731954 22.3356583,21.0030685 C22.2316777,20.9329416 22.1010976,20.8410528 21.9439179,20.7273986 C21.7867365,20.6137445 21.6839666,20.5399923 21.6356034,20.5061386 C21.1954965,20.1966119 20.5619464,19.7553041 19.7349335,19.1821975 C18.9079206,18.6090925 18.4122032,18.2645096 18.2477678,18.1484375 C17.9479152,17.9453109 17.6649939,17.6660172 17.3989955,17.3105469 C17.1329972,16.9550765 17,16.6250016 17,16.3203125 C17,15.9430785 17.1003524,15.6287206 17.3010603,15.3772324 C17.5017682,15.1257425 17.7883166,15 18.1607143,15 L28.8392853,15 C29.153648,15 29.4256876,15.1136509 29.6554123,15.3409591 C29.8851385,15.5682674 30,15.841516 30,16.1607131 Z"
                        id="Page-1"/>
                </g>
            </g>
        </g>
    </g>
</svg>
