<svg xmlns="http://www.w3.org/2000/svg" width="8" height="12">
    <defs>
        <clipPath id="clip_0">
            <rect x="-22.160156" y="-279.07983" width="1017.6" height="737.27979" clip-rule="evenodd"/>
        </clipPath>
    </defs>
    <g clip-path="url(#clip_0)">
        <path fill="rgb(243,112,115)" stroke="none" transform="matrix(0.96 0 0 0.96 0.879883 0.280029)"
              d="M6.83221 1.16779C6.05369 0.389257 5.10963 0 4 0C2.89037 0 1.94631 0.389257 1.16779 1.16779C0.389258 1.94631 0 2.89037 0 4C0 4.55481 0.143175 5.1991 0.42953 5.93289C0.715885 6.66667 1.03356 7.32438 1.38255 7.90604C1.73155 8.4877 2.1387 9.08725 2.60403 9.7047C3.06935 10.3222 3.3915 10.7338 3.57047 10.9396C3.74944 11.1454 3.89262 11.311 4 11.4362L4.42953 10.9799C4.69799 10.6577 5.02461 10.2237 5.4094 9.67785C5.79419 9.13199 6.18344 8.54586 6.57718 7.91946C6.97092 7.29306 7.30649 6.62193 7.58389 5.90604C7.8613 5.19015 8 4.55481 8 4C8 2.89037 7.61074 1.94631 6.83221 1.16779ZM5.00671 5.00671C4.7293 5.28412 4.39374 5.42282 4 5.42282C3.60626 5.42282 3.2707 5.28412 2.99329 5.00671C2.71588 4.7293 2.57718 4.39374 2.57718 4C2.57718 3.60626 2.71588 3.2707 2.99329 2.99329C3.2707 2.71588 3.60626 2.57718 4 2.57718C4.39374 2.57718 4.7293 2.71588 5.00671 2.99329C5.28412 3.2707 5.42282 3.60626 5.42282 4C5.42282 4.39374 5.28412 4.7293 5.00671 5.00671Z"
              fill-rule="evenodd"/>
    </g>
</svg>
