<svg xmlns="http://www.w3.org/2000/svg" width="8" height="13">
    <defs>
        <clipPath id="clip_0">
            <rect x="-21.950195" y="-247.59985" width="1007" height="729.59985" clip-rule="evenodd"/>
        </clipPath>
    </defs>
    <g clip-path="url(#clip_0)">
        <path fill="rgb(243,112,115)" stroke="none" transform="matrix(0.95 0 0 0.95 0.850098 1.30005)"
              d="M3.96094 5.72135C4.45747 5.85677 4.86936 5.99219 5.19662 6.1276C5.52387 6.26302 5.86805 6.44922 6.22917 6.6862C6.59028 6.92318 6.86675 7.22222 7.05859 7.58333C7.25044 7.94445 7.34635 8.37326 7.34635 8.86979C7.34635 9.56945 7.11502 10.1393 6.65234 10.5794C6.18967 11.0195 5.57466 11.3073 4.80729 11.4427L4.80729 13L2.64063 13L2.64063 11.4427C1.89583 11.2847 1.28082 10.9688 0.795573 10.4948C0.310327 10.0208 0.0451391 9.41146 0 8.66667L1.59115 8.66667C1.68142 9.6823 2.39236 10.1901 3.72396 10.1901C4.42361 10.1901 4.92578 10.0603 5.23047 9.80078C5.53516 9.54123 5.6875 9.24219 5.6875 8.90365C5.6875 8.09114 4.96528 7.50434 3.52083 7.14323C1.26388 6.62413 0.135417 5.63108 0.135417 4.16406C0.135417 3.50954 0.372393 2.95096 0.846354 2.48828C1.32031 2.02561 1.9184 1.71528 2.64063 1.55729L2.64063 0L4.80729 0L4.80729 1.59115C5.55209 1.7717 6.12196 2.11024 6.51693 2.60677C6.91189 3.1033 7.12066 3.67882 7.14323 4.33333L5.55208 4.33333C5.50695 3.3177 4.89757 2.8099 3.72396 2.8099C3.13715 2.8099 2.66884 2.93403 2.31901 3.18229C1.96918 3.43056 1.79427 3.75781 1.79427 4.16406C1.79427 4.81858 2.51649 5.33767 3.96094 5.72135Z"/>
    </g>
</svg>
