<svg xmlns="http://www.w3.org/2000/svg" xmlns:xlink="http://www.w3.org/1999/xlink" width="11" height="10">
    <defs>
        <clipPath id="clip_0">
            <rect x="-141.9502" y="-275.59985" width="1007" height="729.59985" clip-rule="evenodd"/>
        </clipPath>
    </defs>
    <g clip-path="url(#clip_0)">
        <path fill="rgb(211, 211, 211)" stroke="none" transform="matrix(0.95 0 0 0.95 0.549805 0.850098)"
              d="M10.5427 3.67592C10.5427 3.76358 10.4878 3.85922 10.3779 3.96282L8.07806 6.07871L8.62294 9.06726C8.62716 9.09516 8.62927 9.135 8.62927 9.18681C8.62927 9.27049 8.6071 9.34122 8.56275 9.39899C8.5184 9.45677 8.45399 9.48566 8.36951 9.48566C8.28926 9.48566 8.20478 9.46175 8.11608 9.41394L5.27133 8.00334L2.42659 9.41394C2.33366 9.46175 2.24919 9.48566 2.17316 9.48566C2.08446 9.48566 2.01793 9.45677 1.97358 9.39899C1.92923 9.34122 1.90706 9.27049 1.90706 9.18681C1.90706 9.1629 1.91128 9.12305 1.91973 9.06726L2.4646 6.07871L0.158393 3.96282C0.0527973 3.85523 0 3.7596 0 3.67592C0 3.52848 0.118266 3.43683 0.354801 3.40097L3.53534 2.96464L4.96088 0.24506C5.04114 0.0816859 5.14462 0 5.27133 0C5.39805 0 5.50153 0.0816859 5.58178 0.24506L7.00732 2.96464L10.1879 3.40097C10.4244 3.43683 10.5427 3.52848 10.5427 3.67592Z"/>
    </g>
</svg>
